<svg width="62" height="62" viewBox="0 0 62 62" fill="none" xmlns="http://www.w3.org/2000/svg"><g clip-path="url(#clip0)" fill="#474747"><path d="M0 48.567c0 5.596 16.62 6.2 23.767 6.2 8.851 0 16.05-.86 19.97-2.369a8.3 8.3 0 005.329 2.369c.84 0 .817-.045 6.258-1.27 2.982-.671 5.157-3.754 6.13-8.68a41.094 41.094 0 00-.654-16.384c-2.864-12.72-9.753-21.64-15.693-20.3l-5.04 1.137c-2.119.477-3.778 2.204-4.918 4.786-7.428-2.017-8.228 3.51-15.369 2.488-6.243-.892-6.347-7.978-6.347-8.277a1.033 1.033 0 00-1.845-.64c-.216.275-5.053 6.542-4.075 14.072-5.66.897-6.48 2.017-6.48 3.1v3.514A1.976 1.976 0 000 29.967v18.6zm10.27-20.301c7.769.768 15.59.876 23.377.323.11 1.034.247 2.088.433 3.161-6.875.399-25.006.626-30.98-1.431v-3.452a31.519 31.519 0 007.17 1.399zm-8.203 20.3V36.224a58.153 58.153 0 0013.368 2.01 1.035 1.035 0 00.13-2.066c-7.556-.47-11.474-1.372-13.498-2.125v-1.905c6.209 2.385 25.36 2.087 32.414 1.662 1.247 5.817 3.72 12.484 7.64 16.982-3.83 1.226-10.368 1.919-18.354 1.919-14.968 0-21.7-2.417-21.7-4.133zm56.717-19.68a38.984 38.984 0 01.64 15.53c-.79 4.016-2.45 6.591-4.554 7.066-4.14.93-10.437-6.377-13.227-18.737-2.79-12.36-.22-21.664 3.919-22.596.24-.053.484-.08.73-.08 4.116 0 9.868 7.163 12.492 18.817zM40.521 11.285l.626-.142c-6.447 9.757-.7 35.282 9.31 41.334l-.628.141c-2.105.474-4.709-1.136-7.145-4.429a39 39 0 01-6.078-14.306 50.347 50.347 0 01-1.022-6.554c-.751-8.984 1.57-15.286 4.937-16.044zm-30.065 2.878c.104 4.76 2.445 8.104 6.784 9.55a1.034 1.034 0 10.653-1.962c-4.443-1.482-5.477-5.097-5.366-8.422a8.804 8.804 0 006.96 5.259c7.826 1.12 8.65-4.148 14.939-2.584a31.105 31.105 0 00-.951 10.526c-7.465.526-14.96.44-22.411-.26a14.63 14.63 0 01-.608-12.107zm-2.549 9.566c.205.766.46 1.517.763 2.249a21.944 21.944 0 01-5.167-1.176 18.564 18.564 0 014.404-1.073z"/><path d="M19.633 38.234a1.033 1.033 0 100-2.067 1.033 1.033 0 000 2.067zm23.908-15.229a1.033 1.033 0 002.056-.207c-.492-4.93.5-6.491 1.137-6.982a1.778 1.778 0 011.596-.217 1.033 1.033 0 00.756-1.923 3.823 3.823 0 00-3.578.476c-1.76 1.324-2.418 4.302-1.967 8.853zm8.642 23.421c1.198.45 2.541.27 3.58-.477 1.756-1.324 2.42-4.302 1.963-8.853a1.033 1.033 0 00-2.056.207c.494 4.93-.5 6.49-1.137 6.982a1.774 1.774 0 01-1.595.218 1.033 1.033 0 00-.757 1.923h.002z"/></g><defs><clipPath id="clip0"><path fill="#fff" d="M0 0h62v62H0z"/></clipPath></defs></svg>