<svg width="62" height="62" viewBox="0 0 62 62" fill="none" xmlns="http://www.w3.org/2000/svg"><g clip-path="url(#clip0)" fill="#474747"><path d="M10.684 42.845L8.128 36.88a3.566 3.566 0 00-6.524 2.88C6.312 50.12 6.542 51.243 8.63 53.329l8.37 8.37c.194.194.457.303.73.303h11.203c.57 0 1.034-.463 1.034-1.033a26.05 26.05 0 00-.342-6.268 14.56 14.56 0 002.75 0c-.445 1.892-.342 3.053-.342 6.267 0 .57.463 1.033 1.033 1.033h11.207c.274 0 .537-.109.73-.303l8.37-8.37c2.086-2.086 2.252-3.07 7.027-13.567a3.566 3.566 0 00-6.524-2.881l-2.56 5.966a5.247 5.247 0 00-4.116-.809 31.017 31.017 0 001.216-3.596c2.05-.413 7.02-2.214 7.02-10.023 0-2.647-.46-5.908-3.093-6.268a28.094 28.094 0 004.18-19.454L56.11.809A1.033 1.033 0 0055.096 0H6.904C6.419 0 6 .336 5.895.81l-.434 1.962A28.05 28.05 0 009.659 22.16c-2.606.388-3.057 3.64-3.057 6.26 0 7.813 4.973 9.61 7.027 10.024a31.25 31.25 0 001.22 3.606 5.237 5.237 0 00-4.165.795zM27.9 59.933h-9.745l-8.06-8.066c-1.688-1.683-1.686-2.13-6.61-12.962a1.5 1.5 0 112.744-1.211c4.186 9.77 2.558 7.39 10.767 15.603a1.034 1.034 0 101.461-1.46c-5.66-5.66-5.928-5.818-6.79-7.14a3.132 3.132 0 013.993-.005 24.601 24.601 0 007.343 4.65c2.417.803 4.897 3.935 4.897 8.318v2.273zm.989-7.414a9.237 9.237 0 00-5.232-5.14 20.307 20.307 0 01-5.58-3.389c-3.55-6.29-4.007-13.873-4.012-21.097C16.255 19.035 21.997 10.136 31 4.706c9.022 5.47 14.776 14.384 16.973 18.253-.016 7.336-.454 14.57-3.96 20.963a20.538 20.538 0 01-5.67 3.458 9.246 9.246 0 00-5.234 5.147 13.822 13.822 0 01-4.22-.007zm21.445-7.826c-.86 1.316-1.108 1.455-6.792 7.138a1.033 1.033 0 001.462 1.461c8.13-8.13 6.579-5.824 10.767-15.598a1.5 1.5 0 012.743 1.211c-4.85 10.671-4.88 11.237-6.603 12.962l-8.066 8.066H34.1V57.66a9.938 9.938 0 012.056-6.211c2.423-3.03 3.196-.876 10.184-6.757a3.132 3.132 0 013.993 0zm3.035-16.276c0 5.203-2.522 7.065-4.397 7.732a59.42 59.42 0 001.041-11.16c.956-.68 1.803-.963 2.273-.736.254.122 1.084.786 1.084 4.164zm.9-26.35a25.638 25.638 0 01-4.236 19.815c-.098-7.718-2.137-13.006-6.235-16.14a1.033 1.033 0 10-1.256 1.641c2.988 2.285 4.7 6.023 5.234 11.315-4.144-6.293-10.543-12.996-17.22-16.631h23.713zm-46.537 0h14.094a26.909 26.909 0 00-6.097 5.554 1.034 1.034 0 101.614 1.292 24.992 24.992 0 018.522-6.762c1.05.413 2.077.88 3.079 1.4C20.27 9.135 14.73 17.477 12.13 22.113A25.572 25.572 0 017.732 2.067zm.936 26.35c0-3.382.827-4.046 1.086-4.168.46-.222 1.325.065 2.273.735A59.424 59.424 0 0013.07 36.15c-1.876-.663-4.402-2.524-4.402-7.733z"/><path d="M19.062 22.46a4.52 4.52 0 013.47-.246l4.008 1.336a1.035 1.035 0 00.653-1.964l-4.008-1.333a6.574 6.574 0 00-5.047.359 1.033 1.033 0 10.924 1.849v-.002zm16.071 1.142c.241 0 0 .057 4.34-1.388a4.51 4.51 0 013.47.245 1.033 1.033 0 10.924-1.848 6.577 6.577 0 00-5.048-.359l-4.007 1.336a1.033 1.033 0 00.322 2.014zm-8.323 3.966a1.033 1.033 0 00-1.308-.647c-.037.012-3.56 1.16-6.282-.881a1.033 1.033 0 00-1.343.093 2.57 2.57 0 01-1.344.733 1.033 1.033 0 100 2.067 3.851 3.851 0 002.128-.782c.156.093.31.176.47.255a1.83 1.83 0 01-.531.527c-.57 0-1.033.463-1.033 1.034 0 1.27 1.908 1.756 3.588-.847 1.665.34 3.389.257 5.013-.243.538-.185.825-.77.642-1.309zm15.97-1.528c-2.708 2.03-6.208.906-6.28.881a1.034 1.034 0 00-.668 1.956c1.624.5 3.348.584 5.012.243.525.815 1.425 1.88 2.556 1.88a1.05 1.05 0 001.056-1.034 1.012 1.012 0 00-1.012-1.033 1.702 1.702 0 01-.57-.534c.155-.08.31-.16.465-.254a3.85 3.85 0 002.128.788 1.033 1.033 0 100-2.067 2.565 2.565 0 01-1.337-.73 1.033 1.033 0 00-1.35-.096zm-15.454 9.953a6.606 6.606 0 007.347 0 1.034 1.034 0 00-1.147-1.72 4.546 4.546 0 01-5.053 0 1.034 1.034 0 00-1.147 1.72zM37.2 42.16a1.254 1.254 0 00-1.344-1.24c-.856 0-3.392-1.653-4.856-1.653-1.484 0-3.985 1.653-4.852 1.653a1.256 1.256 0 00-1.348 1.24c0 1.458 2.919 3.307 6.2 3.307 3.28 0 6.2-1.85 6.2-3.307zm-6.2-.827a19.3 19.3 0 013.229 1.27 6.937 6.937 0 01-6.458 0A19.21 19.21 0 0131 41.332zm1.034 6.2h-2.067a1.033 1.033 0 100 2.067h2.067a1.033 1.033 0 100-2.067zM13.433 12.4a1.033 1.033 0 100-2.067 1.033 1.033 0 000 2.067z"/></g><defs><clipPath id="clip0"><path fill="#fff" d="M0 0h62v62H0z"/></clipPath></defs></svg>