<svg width="62" height="62" viewBox="0 0 62 62" fill="none" xmlns="http://www.w3.org/2000/svg"><g clip-path="url(#clip0)" fill="#474747"><path d="M25.725 36.14l-.273.11.767 1.918.272-.11c2.78-1.111 6.239-1.112 9.019 0l.272.11.767-1.92-.273-.108c-3.262-1.306-7.29-1.305-10.551 0zm4.242-15.46h2.066v11.364h-2.066V20.68z"/><path d="M59.924.021v18.957c0 .332-.054.663-.159.98l-4.912 14.736-7.665 11.997a1.58 1.58 0 01-1.059.71 1.69 1.69 0 01-1.762-2.445c1.797-3.263 5.1-9.319 5.1-9.319.04-.07.07-.145.091-.223l.836-3.063 3.284-10.324-1.97-.626-3.29 10.347.007.002c-.005.015-.016.025-.02.04a1.814 1.814 0 01-3.53-.834l1.6-8.006c.013-.067.02-.135.02-.203V19.72a16.494 16.494 0 014.862-11.739 1.03 1.03 0 00.303-.73V.022h-2.066V6.83a18.793 18.793 0 00-1.948 2.433C41.94.07 29.863-2.758 20.67 2.947a19.592 19.592 0 00-6.316 6.316 18.8 18.8 0 00-1.947-2.432V.02H10.34v7.231c0 .274.109.537.302.73a16.495 16.495 0 014.862 11.74v3.025c0 .068.007.136.02.203l1.602 8.006a1.815 1.815 0 01-3.531.833c-.004-.014-.015-.024-.02-.038l.008-.003L10.291 21.4l-1.969.626 3.284 10.324.836 3.063c.021.078.052.153.09.223 0 0 3.304 6.056 5.1 9.319.399.722.201 1.61-.52 2.153a1.596 1.596 0 01-2.3-.418L7.15 34.694 2.236 19.958a3.088 3.088 0 01-.16-.98V.02H.012v18.957c0 .555.09 1.106.265 1.633L5.23 35.469a.992.992 0 00.11.23l7.732 12.105a3.674 3.674 0 003.075 1.688 3.753 3.753 0 002.258-.77c.04-.031.072-.07.112-.101.074.084.143.175.219.258a16.346 16.346 0 001.935 1.806v3.919a19.149 19.149 0 01-.98 6.038A1.033 1.033 0 0020.67 62h20.66a1.033 1.033 0 00.98-1.358 19.146 19.146 0 01-.98-6.038v-3.919a16.302 16.302 0 001.929-1.798c.08-.087.15-.18.229-.27.055.046.101.1.16.144a3.66 3.66 0 005.281-.957l7.733-12.105a1.03 1.03 0 00.11-.23l4.953-14.859a5.164 5.164 0 00.265-1.632V.02h-2.066zM46.204 11.8a18.164 18.164 0 00-.827-.936l.512-.512c.191.307.372.622.546.944-.083.165-.152.337-.23.504zm-1.52-3.165l-.786.787a19.193 19.193 0 00-2.467-1.843l1.142-1.141a17.45 17.45 0 012.112 2.197zm-22.227-2.09l-1.379-1.378a17.447 17.447 0 013.228-1.76l1.007 2.013a18.77 18.77 0 00-2.856 1.125zm4.92-1.62l-1.092-2.182a17.545 17.545 0 013.682-.604v2.47a19.26 19.26 0 00-2.59.316zm4.656-2.801c1.25.07 2.487.274 3.693.607l-1.1 2.195a19.31 19.31 0 00-2.593-.316V2.123zm5.662 1.287a17.397 17.397 0 013.236 1.747l-1.388 1.388c-.92-.453-1.874-.83-2.855-1.126l1.007-2.01zM19.441 6.45l1.128 1.128a18.983 18.983 0 00-2.466 1.843l-.777-.776c.392-.494.81-.966 1.253-1.415.276-.276.571-.525.862-.78zm-3.331 3.9l.513.513c-.282.303-.561.61-.827.936-.078-.166-.147-.337-.23-.502.173-.32.351-.638.543-.947zm23.838 49.584H22.052a21.11 21.11 0 00.684-5.33v-2.477a16.5 16.5 0 0016.527 0v2.477c.002 1.799.232 3.59.685 5.33zm1.78-12.434a14.33 14.33 0 01-4.866 3.536 14.5 14.5 0 01-11.722 0 14.34 14.34 0 01-4.875-3.546c-.19-.207-.363-.425-.541-.639a3.663 3.663 0 00-.281-2.892c-1.492-2.71-4.026-7.35-4.838-8.838a3.88 3.88 0 004.547-4.57l-.7-3.5c.914.09 1.833.151 2.756.151 1.61.001 3.218-.136 4.805-.411l-.355-2.035a26.195 26.195 0 01-7.631.168l-.456-2.28v-1.781c2.332-1.246 5.149-1.547 8.01-.823l.509-2.003c-3.003-.762-5.983-.547-8.572.562a18.631 18.631 0 00-.832-4.539 17.31 17.31 0 011.713-2.088c.055-.062.118-.124.181-.188.054-.053.105-.107.209-.198a17.149 17.149 0 013.952-2.878A16.795 16.795 0 0127.045 7.1a17.386 17.386 0 017.923.003c1.5.337 2.945.878 4.297 1.609a17.183 17.183 0 013.963 2.89 16.898 16.898 0 012.085 2.458 18.629 18.629 0 00-.831 4.539c-2.588-1.109-5.567-1.322-8.572-.562l.509 2.003c2.86-.725 5.678-.423 8.01.823v1.781l-.476 2.378a25.919 25.919 0 01-6.578-.266l-.355 2.035a27.831 27.831 0 006.51.345l-.682 3.415a3.88 3.88 0 004.547 4.57c-.812 1.487-3.345 6.128-4.838 8.838a3.637 3.637 0 00-.275 2.886c-.181.218-.356.439-.554.655z"/></g><defs><clipPath id="clip0"><path fill="#fff" d="M0 0h62v62H0z"/></clipPath></defs></svg>