<?xml version="1.0" standalone="no"?>
<!DOCTYPE svg PUBLIC "-//W3C//DTD SVG 20010904//EN"
 "http://www.w3.org/TR/2001/REC-SVG-20010904/DTD/svg10.dtd">
<svg version="1.0" xmlns="http://www.w3.org/2000/svg"
 width="700.000000pt" height="700.000000pt" viewBox="0 0 700.000000 700.000000"
 preserveAspectRatio="xMidYMid meet">
<metadata>
Created by potrace 1.11, written by Peter Selinger 2001-2013
</metadata>
<g transform="translate(0.000000,700.000000) scale(0.100000,-0.100000)"
fill="#000000" stroke="none">
<path d="M6750 6738 c0 -6 9 -31 21 -55 13 -26 19 -52 15 -66 -4 -12 -67 -69
-147 -132 -159 -125 -166 -132 -152 -146 10 -10 -6 -27 -132 -144 -29 -26 -31
-31 -10 -16 17 11 41 29 55 40 14 12 29 21 33 21 9 0 69 41 78 53 3 4 11 1 18
-7 12 -14 17 -12 50 12 20 15 38 29 41 32 7 8 176 141 212 167 35 25 71 18
109 -23 26 -28 59 -32 59 -7 0 9 -25 41 -56 71 -46 45 -53 56 -43 68 11 13 16
11 36 -15 24 -30 43 -40 43 -22 0 5 -16 27 -36 48 -20 21 -42 50 -50 65 -8 16
-21 28 -29 28 -22 0 -18 -13 11 -45 20 -21 23 -30 13 -36 -18 -11 -34 4 -70
67 -20 36 -37 54 -50 54 -10 0 -19 -5 -19 -12z m67 -187 l22 -28 -71 -57 -72
-57 -18 23 c-20 26 -24 18 -6 -12 19 -30 -1 -38 -25 -10 -19 23 -19 20 -1 -25
9 -23 -14 -18 -26 6 -7 11 -14 18 -17 15 -4 -3 1 -14 10 -24 16 -17 15 -20 -7
-41 l-25 -23 -13 21 c-7 12 -16 21 -21 21 -4 0 -1 -10 7 -22 11 -16 12 -25 5
-34 -9 -11 -17 -7 -37 18 l-26 31 26 21 c14 11 71 57 128 101 56 44 107 85
113 92 18 18 30 15 54 -16z"/>
<path d="M6582 6360 c7 -10 14 -18 15 -16 6 6 -9 36 -18 36 -5 0 -4 -9 3 -20z"/>
<path d="M4538 5879 c-27 -15 -22 -34 21 -92 84 -111 82 -139 -17 -243 -284
-297 -378 -397 -384 -408 -4 -8 1 -21 12 -31 20 -18 20 -18 -3 -40 -31 -32
-90 -115 -80 -115 4 0 -27 -35 -69 -77 -42 -43 -81 -89 -88 -103 -6 -14 28 15
77 63 48 48 102 96 119 106 17 10 49 37 72 58 l42 40 21 -20 21 -20 77 80
c325 342 395 413 411 418 30 9 94 -12 150 -50 56 -38 87 -44 96 -20 13 32 -7
63 -58 96 -29 18 -77 53 -106 77 l-53 45 22 23 21 23 41 -45 c40 -44 69 -55
83 -32 5 7 -5 22 -26 37 -19 15 -72 63 -118 109 -45 45 -87 82 -93 82 -5 0
-12 -7 -16 -16 -4 -12 9 -30 43 -60 41 -35 47 -45 38 -60 -6 -10 -15 -19 -21
-21 -13 -5 -98 83 -136 140 -24 36 -59 66 -77 66 -3 0 -13 -4 -22 -10z m169
-398 c-44 -51 -191 -201 -197 -201 -3 0 -19 14 -37 30 -17 16 -34 26 -37 21
-3 -5 10 -23 30 -40 32 -29 34 -33 19 -48 -15 -14 -19 -13 -50 17 -45 44 -59
30 -15 -15 28 -29 31 -36 20 -50 -12 -14 -17 -12 -50 20 -21 20 -40 33 -44 27
-3 -5 11 -24 30 -42 33 -30 35 -34 20 -48 -14 -15 -19 -13 -51 18 -19 18 -38
30 -42 26 -4 -4 7 -20 25 -37 35 -33 38 -39 20 -57 -9 -9 -19 -5 -45 20 -18
17 -36 28 -40 24 -4 -4 7 -20 25 -35 37 -33 38 -35 13 -60 -18 -18 -20 -18
-70 29 l-52 48 43 44 c24 24 95 98 158 164 63 67 146 153 184 192 l68 72 49
-47 49 -47 -23 -25z"/>
<path d="M5853 5684 c-3 -9 0 -41 7 -72 14 -62 14 -115 0 -141 -4 -9 -44 -31
-87 -50 -43 -19 -118 -54 -168 -76 -49 -23 -133 -61 -185 -85 -112 -50 -126
-61 -112 -86 8 -15 2 -21 -39 -43 -27 -13 -58 -33 -69 -43 -11 -10 -62 -38
-114 -62 -51 -24 -96 -49 -100 -55 -7 -11 26 2 136 53 31 14 65 26 76 26 22 0
112 29 128 42 7 5 17 0 27 -16 l16 -24 275 125 c220 100 281 124 302 119 28
-7 67 -43 120 -111 l30 -39 22 22 c25 25 24 31 -39 127 -25 39 -50 82 -56 96
-10 24 -9 28 13 38 22 10 25 8 39 -25 8 -20 15 -40 15 -44 0 -14 30 -32 45
-27 11 5 6 23 -30 89 -24 46 -49 103 -56 127 -13 44 -33 61 -50 44 -7 -7 -2
-28 16 -64 26 -50 26 -53 9 -66 -10 -7 -20 -13 -23 -13 -12 0 -71 164 -71 195
0 19 -36 55 -55 55 -9 0 -18 -7 -22 -16z m29 -308 l27 -54 -55 -26 c-30 -14
-57 -26 -60 -26 -2 0 -36 -16 -75 -35 l-70 -35 -18 41 c-10 23 -22 36 -25 30
-4 -6 1 -25 10 -42 13 -26 14 -33 2 -40 -20 -13 -23 -11 -37 26 -7 19 -17 35
-22 35 -12 0 -12 -6 7 -42 13 -25 14 -32 2 -39 -21 -14 -26 -11 -39 26 -7 19
-17 35 -21 35 -12 0 -10 -18 7 -50 14 -27 14 -30 -4 -39 -16 -9 -21 -5 -35 30
-9 22 -21 37 -26 34 -6 -4 -5 -14 5 -28 19 -27 19 -53 0 -61 -11 -4 -20 6 -31
34 -9 22 -20 38 -24 35 -5 -3 -2 -22 7 -42 14 -34 14 -38 -3 -50 -10 -7 -21
-13 -25 -13 -8 0 -54 109 -48 114 2 2 42 20 89 41 47 21 121 55 165 75 44 21
103 48 130 60 28 13 68 31 90 41 22 10 42 19 45 19 3 0 18 -24 32 -54z"/>
<path d="M2902 5428 c-20 -20 -14 -54 12 -66 12 -5 61 -20 107 -33 46 -12 86
-23 88 -25 6 -5 -31 -94 -39 -94 -23 0 -211 84 -288 128 -96 56 -140 64 -180
36 -27 -19 -29 -64 -4 -87 9 -8 49 -32 89 -52 74 -38 138 -91 167 -136 22 -34
37 -87 26 -94 -4 -2 -10 -15 -13 -27 -2 -13 -48 -147 -100 -298 -249 -720
-245 -708 -233 -723 6 -8 29 -20 50 -27 33 -11 37 -15 24 -24 -17 -12 -69
-235 -62 -264 3 -9 -20 -89 -51 -176 -48 -138 -79 -276 -56 -250 4 5 38 98 76
207 37 108 73 201 80 205 21 12 122 221 112 231 -16 16 12 22 54 11 25 -7 45
-8 51 -2 5 5 20 40 33 78 96 280 134 389 210 609 48 138 96 275 107 306 22 65
41 85 95 104 45 16 185 13 256 -5 81 -21 132 21 101 82 -19 36 -57 55 -130 63
-143 16 -334 67 -334 89 0 12 20 77 25 84 2 2 42 -13 89 -32 91 -38 124 -44
144 -24 15 15 16 45 1 54 -6 3 -42 13 -80 20 -98 21 -240 69 -320 110 -75 37
-89 40 -107 22z m140 -468 l96 -33 -13 -41 c-14 -47 -105 -313 -137 -398 -11
-32 -24 -58 -29 -58 -4 0 -37 11 -73 24 -36 13 -68 21 -71 18 -16 -16 2 -30
66 -51 71 -23 71 -23 65 -54 -3 -17 -8 -32 -11 -35 -2 -2 -38 7 -79 21 -60 20
-76 22 -80 12 -5 -13 39 -34 122 -59 18 -6 21 -12 16 -34 -4 -15 -10 -30 -13
-35 -4 -4 -38 4 -77 17 -43 15 -73 21 -79 15 -14 -14 2 -24 77 -48 l67 -22
-11 -32 c-6 -18 -12 -33 -13 -34 -1 -2 -35 8 -75 22 -87 30 -77 28 -83 11 -4
-11 12 -21 61 -37 84 -27 88 -31 73 -68 l-13 -29 -70 24 c-39 13 -74 21 -79
18 -20 -12 -5 -24 59 -45 37 -12 70 -24 74 -26 10 -5 -26 -98 -38 -96 -23 5
-190 66 -197 72 -4 4 17 77 47 162 30 85 100 287 156 449 140 407 142 411 154
406 6 -2 54 -19 108 -36z"/>
<path d="M6786 5302 c-3 -5 -8 -32 -12 -61 -4 -29 -14 -61 -23 -71 -17 -19
-22 -20 -271 -36 -52 -3 -108 -8 -125 -9 -16 -2 -38 -4 -48 -4 -10 -1 -16 -5
-13 -9 2 -4 2 -12 -2 -18 -9 -12 -117 -34 -197 -41 -33 -2 -64 -9 -70 -15 -7
-7 -6 -9 1 -5 7 4 52 7 100 7 164 -1 172 -1 177 -21 5 -20 -3 -20 220 -4 215
16 223 16 240 -3 18 -20 48 -97 41 -105 -2 -2 3 -10 11 -17 13 -11 19 -11 32
3 14 13 15 22 5 54 -6 21 -14 59 -17 84 -6 41 -5 47 14 52 19 5 21 1 21 -38 0
-30 5 -45 16 -49 14 -5 15 2 8 61 -4 37 -7 85 -8 107 -1 23 -7 41 -14 44 -10
3 -13 -7 -11 -44 3 -48 -14 -72 -31 -44 -7 12 -4 111 4 135 11 31 -32 73 -48
47z m-54 -209 c3 -21 4 -39 3 -41 -4 -5 -45 -10 -132 -16 -61 -5 -73 -3 -73 9
0 8 -4 15 -10 15 -5 0 -7 -7 -4 -15 4 -9 0 -15 -10 -15 -11 0 -16 9 -16 30 0
17 -4 30 -9 30 -5 0 -8 -13 -6 -30 3 -21 0 -30 -10 -30 -8 0 -15 8 -15 18 0 9
-5 24 -11 32 -8 12 -10 12 -8 -5 3 -45 -1 -52 -31 -52 -25 0 -30 4 -30 23 0
13 -5 26 -11 29 -7 5 -9 -3 -6 -25 5 -28 3 -31 -16 -28 -18 2 -22 10 -24 45
-3 39 -1 43 20 42 27 -2 251 12 255 16 1 1 33 3 71 4 l69 2 4 -38z"/>
<path d="M6515 5080 c-3 -5 -1 -10 4 -10 6 0 11 5 11 10 0 6 -2 10 -4 10 -3 0
-8 -4 -11 -10z"/>
<path d="M6390 5050 c0 -5 5 -10 10 -10 6 0 10 5 10 10 0 6 -4 10 -10 10 -5 0
-10 -4 -10 -10z"/>
<path d="M1478 4646 c-73 -50 -208 -121 -251 -131 -35 -9 -61 -43 -45 -62 17
-21 37 -16 104 27 35 22 67 40 72 40 5 0 16 -15 24 -34 l17 -34 -80 -37 c-44
-21 -113 -48 -152 -60 -86 -28 -117 -52 -117 -94 0 -45 32 -49 135 -16 98 32
183 32 214 -1 10 -10 46 -72 80 -137 34 -64 85 -161 115 -215 29 -53 71 -131
93 -172 153 -285 129 -257 201 -235 16 6 22 3 22 -9 0 -20 100 -166 115 -166
5 0 37 -52 69 -115 l60 -115 -51 -48 c-28 -27 -58 -63 -67 -80 -9 -18 -18 -32
-21 -32 -14 0 -244 153 -240 160 6 10 -184 165 -204 165 -20 0 -16 20 10 56
18 26 18 28 1 47 -9 11 -134 93 -277 182 -143 90 -282 177 -310 195 -27 18
-117 74 -198 125 -95 59 -152 102 -161 119 -29 59 -16 155 35 270 37 82 41
104 23 130 -11 15 -26 21 -51 21 -47 0 -81 -38 -112 -126 -25 -72 -110 -245
-136 -278 -15 -20 -16 -20 -52 1 -21 12 -39 26 -41 31 -1 5 20 40 48 78 67 91
77 134 34 151 -23 8 -37 -10 -94 -125 -28 -56 -87 -150 -131 -208 -43 -59 -79
-110 -79 -115 0 -12 30 -39 44 -39 21 0 52 41 90 118 40 80 53 86 101 47 l29
-24 -56 -83 c-32 -46 -93 -123 -138 -172 -71 -78 -80 -93 -80 -127 0 -39 29
-79 53 -75 35 6 55 20 82 57 71 97 195 181 256 174 30 -4 73 -30 614 -370 187
-118 348 -215 358 -215 10 0 27 15 38 35 23 38 34 43 46 20 10 -17 196 -106
233 -110 15 -2 77 -36 138 -75 l112 -72 -6 -71 c-4 -40 -7 -73 -8 -74 -6 -7
-318 -7 -325 0 -10 10 -42 15 -139 21 -82 6 -92 9 -87 35 9 49 44 48 -754 37
l-145 -2 -36 36 c-35 35 -60 97 -75 190 -9 58 -16 71 -38 79 -27 10 -63 -11
-71 -42 -3 -12 3 -69 14 -127 25 -135 30 -230 13 -231 -7 -1 -25 -2 -40 -3
l-28 -1 0 88 c0 67 -4 90 -15 97 -37 24 -50 -1 -39 -75 10 -69 12 -230 3 -293
-4 -26 -1 -48 5 -56 17 -20 51 -8 52 18 2 24 -2 106 -6 143 -2 22 0 24 39 21
l41 -3 -1 -73 c-1 -40 -8 -110 -15 -155 -7 -45 -13 -88 -12 -94 0 -7 1 -22 2
-33 0 -11 14 -26 30 -35 27 -13 31 -13 50 3 15 12 23 33 27 67 8 67 22 123 44
166 34 66 37 67 330 69 494 4 606 6 618 14 7 4 11 21 9 41 -4 32 -4 33 37 32
61 -1 170 13 181 24 5 5 71 9 146 9 76 0 149 4 162 9 23 9 26 7 36 -35 6 -24
20 -58 31 -76 19 -32 19 -32 -2 -47 -66 -45 -316 -183 -332 -183 -27 1 -227
-85 -241 -104 -9 -14 -15 -10 -38 25 -15 23 -30 41 -33 41 -11 0 -89 -44 -314
-176 -220 -129 -322 -188 -563 -327 -54 -32 -109 -57 -123 -57 -64 0 -153 64
-234 165 -54 69 -80 84 -116 64 -54 -28 -42 -96 32 -176 53 -58 141 -175 182
-243 l21 -36 -45 -27 -44 -27 -40 80 c-45 90 -70 120 -100 120 -36 0 -37 -46
0 -91 61 -77 122 -175 167 -269 60 -129 58 -125 77 -128 23 -5 46 16 46 42 0
12 -25 57 -55 101 -30 43 -55 81 -55 85 0 3 18 17 41 29 39 22 41 22 54 5 25
-33 101 -197 130 -279 15 -44 39 -92 53 -108 55 -58 139 -17 114 56 -6 18 -25
70 -41 117 -33 95 -37 189 -9 232 9 13 214 139 479 293 255 149 472 278 481
287 16 16 16 20 -9 63 -24 44 -25 47 -6 43 23 -3 223 141 217 157 -2 6 62 48
143 94 82 46 158 93 170 104 l22 20 40 -36 c22 -20 58 -45 81 -57 22 -11 40
-22 40 -24 0 -18 -85 -233 -95 -241 -18 -14 -96 -172 -93 -187 2 -8 -5 -12
-17 -10 -67 11 -63 15 -109 -108 -23 -63 -91 -251 -150 -416 -106 -297 -108
-302 -144 -321 -46 -25 -117 -28 -204 -10 -58 12 -70 12 -88 0 -22 -16 -26
-50 -7 -75 14 -18 70 -35 132 -42 43 -4 102 -18 179 -43 46 -15 48 -16 42 -46
-4 -17 -10 -35 -14 -39 -4 -3 -38 7 -77 23 -81 35 -110 35 -110 -1 0 -19 7
-26 35 -33 110 -28 185 -53 263 -90 78 -36 90 -39 103 -25 31 31 6 51 -108 83
-56 15 -57 16 -47 43 5 15 12 33 14 39 5 16 139 -39 239 -99 39 -23 81 -41 94
-40 38 3 62 21 62 46 0 27 -18 44 -88 82 -29 15 -68 42 -86 59 -33 30 -68 87
-65 102 2 10 24 73 77 218 115 319 222 617 222 621 0 3 -16 12 -35 20 -32 13
-48 34 -27 34 10 0 45 154 45 195 0 14 18 76 41 137 35 94 46 113 62 111 10
-2 38 -3 62 -4 23 -1 44 -5 47 -9 11 -18 55 -314 47 -319 -5 -3 -8 -31 -6 -61
1 -30 3 -85 5 -122 1 -38 6 -68 11 -68 4 0 8 -7 8 -15 0 -9 -14 -17 -37 -21
-62 -10 -63 -16 -31 -196 16 -90 30 -174 32 -188 2 -14 7 -43 11 -65 4 -22 9
-49 11 -60 2 -11 20 -112 39 -225 19 -113 37 -216 40 -230 15 -78 20 -110 20
-152 0 -40 -5 -52 -35 -83 -44 -46 -116 -86 -204 -115 -74 -24 -106 -48 -106
-80 0 -21 35 -59 57 -61 7 -1 23 -2 36 -3 12 -1 58 13 102 31 84 33 203 67
278 78 l44 7 7 -47 c4 -26 6 -48 4 -50 -2 -2 -30 -6 -63 -9 -106 -11 -133 -17
-150 -36 -22 -24 -16 -54 11 -58 12 -2 61 8 110 22 109 31 252 54 352 55 35 1
44 5 54 26 8 19 8 28 -2 40 -17 20 -50 19 -137 -6 -104 -29 -106 -28 -115 51
-3 24 1 26 67 38 39 7 131 13 205 13 74 0 149 5 167 10 39 12 70 68 53 99 -14
26 -34 30 -170 33 -102 2 -122 5 -170 29 -30 15 -60 36 -67 46 -10 16 -36 144
-59 287 -3 21 -7 45 -9 54 -1 9 -6 36 -10 61 -4 25 -9 54 -11 65 -3 11 -18 99
-35 195 -16 96 -32 186 -34 200 -3 14 -8 40 -11 59 -3 18 -7 42 -9 51 -2 10
-7 40 -11 67 -11 79 -18 86 -76 78 -47 -7 -50 -6 -44 13 4 12 -5 59 -19 109
-15 48 -29 97 -32 108 -3 11 -11 25 -18 30 -15 12 -68 316 -57 326 4 4 24 12
45 19 21 6 61 27 89 46 28 19 54 31 58 27 28 -32 168 -252 163 -257 -8 -8 66
-156 90 -180 18 -18 18 -19 -4 -30 -53 -26 -54 -24 205 -411 143 -215 246
-379 246 -392 0 -43 -40 -108 -105 -173 -62 -61 -75 -89 -57 -117 8 -12 24
-16 59 -14 12 0 51 30 90 67 68 67 178 154 193 154 5 0 18 -13 29 -29 l21 -29
-70 -43 c-75 -47 -94 -74 -65 -95 16 -12 25 -7 75 36 65 56 222 158 258 167
18 4 22 11 20 32 -5 43 -36 37 -108 -19 -60 -46 -66 -48 -78 -32 -35 45 -34
50 10 78 63 40 156 88 211 108 52 20 77 47 77 87 0 17 -8 29 -23 36 -20 9 -37
5 -101 -24 -131 -59 -227 -55 -257 10 -18 40 -456 681 -472 691 -12 7 -21 6
-35 -7 -21 -19 -42 -22 -42 -6 0 14 -119 153 -134 157 -6 1 -47 57 -90 123
-44 66 -85 123 -93 127 -10 6 -8 15 11 41 13 18 27 28 30 23 3 -5 16 -12 28
-15 55 -12 204 -71 211 -84 12 -20 202 -113 232 -113 29 0 29 0 10 -46 -25
-61 -53 -46 410 -209 348 -122 521 -184 582 -206 51 -19 65 -29 85 -63 20 -35
23 -54 23 -131 -1 -49 -7 -118 -15 -152 -12 -55 -12 -64 3 -87 22 -32 64 -35
96 -5 28 26 37 50 45 120 4 31 9 67 11 80 3 13 8 38 10 54 9 50 55 194 63 199
5 3 21 -2 36 -10 16 -7 35 -14 42 -14 19 0 19 1 -21 -96 -38 -92 -43 -125 -20
-144 20 -16 54 -3 59 23 31 153 61 245 122 375 41 89 43 109 8 118 -38 10 -51
-10 -80 -116 -13 -52 -27 -96 -29 -99 -3 -2 -15 1 -28 7 -12 6 -32 14 -45 17
-18 5 -21 11 -16 28 16 57 83 200 127 276 56 94 65 145 33 180 -21 24 -54 27
-78 8 -8 -6 -32 -43 -53 -82 -64 -122 -149 -205 -208 -205 -13 0 -190 59 -393
131 -203 72 -403 142 -444 156 -41 14 -104 36 -139 49 -90 34 -98 32 -122 -23
-17 -41 -22 -46 -32 -32 -11 15 -62 31 -137 44 -19 3 -51 10 -71 16 -20 5 -44
7 -52 3 -12 -4 -231 67 -244 79 -1 2 4 27 12 56 71 270 -181 514 -446 431 -32
-10 -61 -14 -64 -9 -29 46 -115 220 -115 232 0 26 -63 181 -78 193 -12 9 -9
13 16 23 40 17 46 36 23 75 -10 17 -42 76 -71 131 -29 55 -60 114 -70 130 -9
17 -39 71 -65 120 -27 50 -58 108 -70 130 -100 182 -122 231 -118 260 6 45 50
102 125 162 48 38 68 61 68 76 0 62 -67 64 -142 4 -64 -51 -140 -105 -190
-134 -38 -22 -47 -19 -60 17 -3 8 -7 19 -9 24 -2 5 27 26 65 45 80 41 99 63
75 86 -14 14 -22 12 -81 -29z m226 -503 l93 -171 -54 -28 c-29 -16 -53 -34
-53 -41 0 -14 23 -6 87 29 31 17 33 17 43 -2 16 -30 13 -35 -40 -60 -27 -13
-50 -29 -50 -37 0 -18 7 -17 65 16 l52 30 12 -27 c7 -15 9 -28 4 -29 -4 -2
-30 -16 -57 -32 -65 -38 -41 -52 26 -16 49 27 52 27 65 10 20 -28 17 -33 -37
-60 -28 -14 -50 -32 -50 -41 0 -12 12 -8 56 16 53 31 56 31 69 14 8 -11 15
-22 15 -26 0 -3 -25 -20 -55 -37 -31 -18 -53 -36 -50 -42 4 -6 24 0 52 16 25
14 52 25 59 25 12 0 50 -58 42 -64 -2 -2 -38 -21 -80 -44 l-77 -42 -17 32
c-23 45 -102 193 -132 248 -14 25 -41 77 -62 115 -20 39 -72 134 -114 213 -43
79 -76 145 -74 146 1 2 37 22 78 45 56 30 77 38 83 28 4 -6 50 -89 101 -184z
m-844 -382 c118 -74 217 -135 219 -137 2 -2 -15 -33 -38 -70 -32 -51 -39 -69
-29 -75 9 -6 25 11 53 56 22 35 44 64 48 65 5 0 19 -8 32 -18 l23 -19 -39 -62
c-42 -67 -47 -81 -25 -81 8 0 32 29 54 65 l38 64 32 -19 32 -20 -25 -37 c-48
-72 -57 -95 -46 -106 6 -6 12 -9 14 -6 2 2 21 32 43 66 21 35 41 63 44 63 3 0
17 -8 32 -18 l26 -17 -39 -60 c-41 -62 -48 -85 -26 -85 7 0 30 29 52 64 l38
63 29 -16 c15 -9 28 -20 28 -24 0 -4 -15 -31 -33 -60 -18 -29 -36 -57 -40 -63
-4 -7 0 -14 8 -18 11 -4 27 14 56 60 l41 65 39 -23 c21 -13 40 -26 41 -30 2
-4 -23 -50 -55 -102 l-59 -94 -211 134 c-117 73 -230 144 -252 157 -22 13
-133 82 -246 154 l-207 130 60 97 c33 53 63 96 67 94 4 -2 103 -63 221 -137z
m109 -1013 c1 -34 3 -64 6 -66 12 -12 18 12 16 68 l-1 60 30 0 30 0 0 -65 c0
-49 3 -63 13 -59 9 3 13 23 13 62 -1 55 0 57 27 60 24 3 27 0 28 -25 3 -80 5
-93 14 -90 6 1 11 20 12 42 1 22 2 48 2 58 1 14 8 18 28 15 25 -3 28 -6 29
-53 2 -72 3 -75 14 -75 6 0 10 28 10 65 0 65 0 65 28 65 28 0 29 -2 31 -57 1
-31 5 -61 8 -66 11 -18 19 14 16 68 l-2 55 39 0 c22 0 40 -3 41 -7 1 -5 2 -45
3 -90 l2 -83 -115 -1 c-64 0 -257 -3 -428 -5 l-313 -5 0 90 c0 52 4 91 10 93
6 2 100 4 209 6 l198 2 2 -62z m2566 -328 c11 -4 72 -26 135 -48 460 -161 586
-206 593 -212 4 -3 -11 -58 -32 -121 -22 -63 -40 -109 -41 -103 0 6 -15 15
-32 21 -18 6 -112 39 -208 73 -96 34 -189 66 -207 71 -18 6 -35 13 -37 18 -3
4 6 39 19 77 13 38 20 70 15 72 -5 2 -12 4 -16 5 -3 1 -16 -29 -30 -67 -13
-38 -25 -71 -27 -73 -4 -3 -67 17 -67 21 0 1 11 36 25 76 29 87 29 80 11 80
-13 0 -56 -93 -56 -121 0 -16 -25 -21 -53 -10 l-27 10 26 72 c17 48 22 75 16
81 -12 12 -32 -22 -52 -87 -17 -54 -21 -57 -58 -44 l-31 11 24 65 c28 74 31
93 12 93 -7 0 -21 -24 -32 -52 -37 -106 -31 -98 -64 -85 -17 6 -31 16 -31 21
0 5 10 38 22 74 18 54 19 65 7 73 -11 6 -19 -7 -38 -64 -13 -40 -25 -74 -27
-76 -4 -5 -94 31 -94 37 0 3 16 52 36 108 l36 102 132 -44 c72 -25 140 -49
151 -54z m-2102 -227 l56 -97 -32 -20 c-18 -10 -126 -74 -242 -142 -115 -67
-311 -181 -434 -253 l-225 -130 -31 52 c-17 29 -44 73 -58 98 l-28 47 216 126
c118 70 221 129 229 132 9 3 27 -17 52 -58 47 -78 42 -74 56 -60 8 8 2 26 -25
71 -21 32 -37 63 -37 68 0 5 13 16 28 25 l29 17 39 -69 c29 -50 44 -66 53 -60
11 6 6 22 -23 73 -20 36 -36 68 -36 71 0 3 13 12 30 21 l29 15 36 -65 c20 -36
43 -65 51 -65 21 0 18 13 -22 81 l-37 62 24 18 c31 24 38 21 69 -32 48 -85 48
-85 61 -72 9 9 3 25 -25 71 -20 33 -36 64 -36 69 0 8 42 33 55 33 2 0 20 -28
41 -62 21 -35 38 -64 39 -66 1 -1 9 0 18 4 13 5 9 16 -24 70 -21 35 -39 68
-39 72 0 8 69 51 81 52 4 0 32 -44 62 -97z m1814 -446 c128 -191 233 -349 233
-351 0 -6 -138 -96 -147 -96 -7 1 -223 318 -230 338 -2 4 20 21 47 37 27 17
50 33 50 37 0 19 -22 15 -59 -12 -48 -35 -53 -36 -75 -11 -16 18 -15 20 34 51
27 18 50 39 50 46 0 17 -24 7 -78 -34 -18 -14 -34 -23 -36 -21 -2 2 -8 14 -15
26 -10 19 -6 25 40 57 65 48 53 66 -14 21 l-52 -35 -17 22 c-16 22 -15 23 30
56 26 18 49 37 50 42 7 19 -20 10 -64 -21 -43 -30 -46 -30 -59 -12 -21 27 -19
31 35 65 33 20 47 35 41 41 -6 6 -28 -2 -61 -23 -43 -27 -54 -31 -61 -19 -22
33 -30 51 -25 56 19 19 133 91 140 89 5 -1 114 -158 243 -349z m-1109 167 c3
-2 -147 -430 -168 -479 -12 -27 -101 -278 -104 -290 -6 -36 -42 -31 -167 20
-15 5 -12 19 21 113 74 206 99 274 104 279 2 3 29 -3 58 -13 58 -19 61 -19 65
-7 2 5 -14 15 -34 22 -89 32 -85 29 -72 53 6 13 13 24 14 26 1 1 27 -7 58 -17
58 -20 93 -11 40 10 -87 34 -92 38 -86 59 8 30 15 31 73 9 34 -13 56 -17 63
-10 6 6 -13 17 -52 31 -34 13 -61 24 -61 26 0 1 4 14 10 28 l9 26 51 -20 c58
-23 73 -25 68 -9 -2 6 -27 20 -56 31 -52 19 -60 30 -43 57 7 11 19 10 70 -7
46 -16 61 -18 61 -8 0 13 -72 46 -98 46 -15 0 -15 18 -1 57 l10 30 82 -30 c45
-16 84 -31 85 -33z m483 -147 c4 -15 10 -47 13 -70 4 -23 24 -148 47 -277 67
-391 100 -583 105 -620 3 -19 7 -42 10 -51 5 -17 -8 -21 -101 -36 -16 -3 -50
-8 -75 -13 -25 -5 -46 -8 -47 -7 0 1 -4 18 -7 37 -7 44 -11 68 -37 215 -11 66
-27 151 -34 190 -8 38 -11 73 -7 77 4 3 25 9 47 12 89 14 102 18 102 33 0 12
-9 14 -46 8 -125 -19 -118 -20 -123 15 -3 17 -2 33 2 35 7 4 40 11 107 21 27
4 43 11 43 20 0 17 -31 18 -101 3 -56 -12 -69 -5 -69 37 0 26 9 30 84 39 35 5
60 13 63 22 3 7 4 15 2 17 -2 2 -38 -1 -81 -8 l-76 -12 -6 29 c-3 16 -4 32 -1
37 2 4 38 13 79 19 58 10 74 16 69 27 -6 17 -11 17 -91 0 -46 -9 -65 -10 -67
-2 -15 51 -15 66 2 67 10 0 27 2 38 5 11 2 38 7 60 10 47 7 52 11 37 26 -8 8
-28 8 -79 0 -37 -6 -71 -8 -75 -4 -10 10 -15 86 -6 91 11 7 191 39 202 37 6
-1 13 -15 17 -29z"/>
<path d="M4278 4443 c-17 -20 -15 -50 7 -93 21 -41 44 -146 39 -178 -11 -63
-24 -76 -164 -154 -25 -14 -130 -76 -235 -138 -104 -62 -203 -120 -220 -130
-119 -69 -155 -92 -160 -100 -3 -5 1 -23 10 -39 19 -37 19 -41 -1 -41 -16 0
-131 -86 -169 -126 -19 -21 -189 -124 -204 -124 -4 0 -25 -19 -46 -42 l-40
-41 35 21 c139 82 279 159 283 155 8 -8 180 68 193 85 10 14 12 14 18 -5 4
-11 15 -28 24 -36 17 -15 43 -2 393 204 205 121 384 223 397 225 25 5 95 -24
127 -53 11 -10 42 -44 69 -75 49 -59 79 -71 104 -46 29 29 9 90 -48 148 -23
23 -104 131 -127 170 l-22 35 35 23 34 22 34 -68 c42 -83 57 -98 85 -82 27 14
26 22 -3 57 -45 54 -123 181 -151 246 -28 66 -43 81 -70 71 -25 -10 -17 -39
31 -109 49 -71 49 -69 0 -97 -16 -8 -22 -7 -34 8 -25 35 -79 148 -101 216 -31
94 -85 134 -123 91z m122 -525 c0 -5 -283 -178 -351 -214 -4 -2 -19 20 -35 50
-17 34 -33 52 -41 49 -10 -4 -5 -19 18 -60 17 -30 30 -56 28 -57 -2 -2 -14 -8
-26 -15 -20 -10 -24 -7 -49 39 -15 27 -33 50 -41 50 -18 0 -17 -2 17 -61 29
-48 30 -52 13 -65 -26 -20 -28 -19 -62 36 -17 28 -35 50 -41 50 -15 0 -13 -8
20 -66 30 -52 31 -53 10 -64 -26 -14 -34 -9 -66 46 -14 24 -30 44 -35 44 -14
0 -11 -10 21 -66 29 -51 29 -54 11 -64 -30 -16 -34 -13 -65 41 -19 35 -31 48
-38 41 -7 -7 -1 -27 20 -61 l31 -50 -36 -21 c-19 -11 -36 -20 -37 -18 -46 73
-86 152 -80 158 10 9 652 387 708 418 17 9 25 1 63 -62 23 -39 43 -74 43 -78z"/>
</g>
</svg>
