<svg width="407" height="89" viewBox="0 0 407 89" fill="none" xmlns="http://www.w3.org/2000/svg"><path d="M156.757 81.513h-1.719l-1.514-4.456-1.51 4.456h-1.68l2.38-6.556h1.628l2.415 6.556zm4.744 0h-1.688v-6.556h1.688v6.556zm9.708 0H169.2l-2.289-3.22v3.22h-1.686v-6.556h1.686v3.034l2.366-3.034h1.887l-2.553 3.174 2.598 3.382zm9.674 0h-1.663v-.772a2.508 2.508 0 01-2.073.936 3.107 3.107 0 01-2.401-1.006 3.473 3.473 0 01-.89-2.436c-.025-.913.307-1.8.926-2.472a3.083 3.083 0 012.366-.996 2.447 2.447 0 012.054.904v-.713h1.681v6.555zm-1.663-3.243a2.02 2.02 0 00-.549-1.422 1.775 1.775 0 00-1.366-.593 1.706 1.706 0 00-1.337.586c-.343.382-.528.88-.519 1.394a2 2 0 00.542 1.399 1.753 1.753 0 001.337.591 1.77 1.77 0 001.332-.591c.36-.362.562-.853.56-1.364zm10.377-1.043a2.21 2.21 0 01-.777 1.758 2.644 2.644 0 01-1.821.644h-.682v1.884h-1.686v-6.555h2.412c.65-.03 1.29.174 1.804.574a2.076 2.076 0 01.75 1.695zm-2.736-.925h-.544v1.983h.529c.268.011.529-.08.731-.256a.896.896 0 00.283-.704.99.99 0 00-.283-.726.953.953 0 00-.716-.297zm6.308 3.56h1.556v1.852a1.36 1.36 0 01-.42 1.083c-.32.26-.725.39-1.136.369v-.878a.624.624 0 00.538-.188c.088-.182.124-.385.106-.586h-.644v-1.652zm22.274 1.651h-9.112v-6.556h1.688v5.2h1.674v-5.2h1.57v5.2h1.674v-5.2h1.686v5.2h.82v1.356zm9.967-3.313a3.25 3.25 0 01-1.049 2.529c-.718.64-1.655.98-2.617.948a3.679 3.679 0 01-2.588-.936 3.271 3.271 0 01-1.066-2.542 3.202 3.202 0 011.09-2.494 3.95 3.95 0 015.164.024 3.203 3.203 0 011.066 2.47zm-5.586.035a1.944 1.944 0 00.529 1.41 2.053 2.053 0 002.788 0 1.958 1.958 0 00.529-1.41 1.978 1.978 0 00-.529-1.418 2.042 2.042 0 00-2.788 0 1.96 1.96 0 00-.529 1.418zm22.779 3.278h-6.934v-1.358h.738l1.828-5.2h1.791l1.827 5.2h.75v1.358zm-2.414-1.358l-1.066-3.244-1.066 3.244h2.132zm12.134 1.358h-1.662v-.772a2.52 2.52 0 01-2.074.936 3.11 3.11 0 01-2.4-1.006 3.464 3.464 0 01-.89-2.436c-.026-.913.307-1.8.926-2.472a3.08 3.08 0 012.365-.996 2.451 2.451 0 012.054.904v-.713h1.686l-.005 6.555zm-1.662-3.243a2.02 2.02 0 00-.549-1.422 1.793 1.793 0 00-1.366-.593 1.703 1.703 0 00-1.337.586c-.343.382-.529.88-.52 1.394-.007.519.187 1.02.542 1.399a1.747 1.747 0 001.337.591 1.779 1.779 0 001.332-.591 1.93 1.93 0 00.561-1.364zm10.375-1.043a2.217 2.217 0 01-.775 1.758 2.643 2.643 0 01-1.822.644h-.683v1.884h-1.686v-6.555h2.412a2.73 2.73 0 011.804.574 2.058 2.058 0 01.75 1.695zm-2.736-.925h-.544v1.983h.529c.268.011.53-.08.732-.256a.909.909 0 00.283-.704 1.014 1.014 0 00-.61-.95.963.963 0 00-.39-.073zm7.316-1.345l1.534 3.912 1.429-3.912h1.745l-2.909 7.32h-1.69l.579-1.455-2.439-5.861 1.751-.004zm8.432.806a3.381 3.381 0 012.53-.996 3.554 3.554 0 012.06.61 2.906 2.906 0 011.23 1.756h-1.744a1.536 1.536 0 00-1.616-.878c-.4-.007-.791.123-1.107.369a1.57 1.57 0 00-.591.979h2.306v1.24h-2.306c.097.398.326.75.649 1.002.322.253.722.387 1.131.38a1.426 1.426 0 001.546-.926h1.744a3.1 3.1 0 01-1.218 1.78 3.777 3.777 0 01-4.59-.34 3.326 3.326 0 01-.996-2.512 3.4 3.4 0 01.972-2.464zm28.283 5.75H291.03v-8.432h2.084v6.688h2.085V73.08h1.945v6.688h2.084V73.08h2.084v6.688h1.019v1.744zm9.721 0h-1.664v-.772a2.509 2.509 0 01-2.072.936 3.109 3.109 0 01-2.402-1.006 3.778 3.778 0 01.032-4.908 3.088 3.088 0 012.365-.996 2.452 2.452 0 012.055.904v-.713h1.686v6.555zm-1.664-3.242a2.01 2.01 0 00-.549-1.423 1.776 1.776 0 00-1.366-.593 1.707 1.707 0 00-1.337.586c-.342.383-.527.88-.518 1.394-.008.519.186 1.02.542 1.4a1.747 1.747 0 001.337.59 1.776 1.776 0 001.331-.59 1.928 1.928 0 00.56-1.364zm11.866.865a3.146 3.146 0 01-1.19 1.891 3.52 3.52 0 01-2.166.673 3.48 3.48 0 01-2.484-.902 3.335 3.335 0 01-1.006-2.564 3.39 3.39 0 01.996-2.576 3.452 3.452 0 012.482-.892 3.556 3.556 0 012.183.662 3.113 3.113 0 011.167 1.896h-1.698a1.706 1.706 0 00-1.7-1.066 1.543 1.543 0 00-1.288.586 2.202 2.202 0 00-.42 1.394 2.11 2.11 0 00.456 1.404 1.602 1.602 0 001.312.586 1.536 1.536 0 001.64-1.088l1.716-.004zm7.154-2.823h-1.334v5.2h-1.711v-5.2h-1.346v-1.356h4.391v1.356zm8.256 5.2h-1.709v-2.798l-2.116 2.798h-1.954l2.108-2.61a1.854 1.854 0 01-1.758-1.932 1.74 1.74 0 01.82-1.587 3.564 3.564 0 011.852-.422h2.764l-.007 6.551zm-1.709-3.666v-1.614h-.984c-.671 0-1.007.253-1.007.76a.735.735 0 00.34.661c.223.14.484.21.748.199l.903-.006zm7.272 1.23h-1.522v-5.996h1.522v5.996zm0 2.436h-1.522v-1.64h1.522v1.64z" fill="#fff"/><path d="M136.99 53.709a8.183 8.183 0 01-.703 3.217 14.719 14.719 0 01-1.882 3.191 17.983 17.983 0 01-2.629 2.78 14.973 14.973 0 01-3.003 2.021 21.016 21.016 0 01-3.731 1.487 26.396 26.396 0 01-3.591.755 33.158 33.158 0 01-3.615.293c-1.22.031-2.487.048-3.802.049h-1.702c-.421 0-.766 0-1.032.023a6.827 6.827 0 01-.627.025h-.423c-.329 0-.658-.016-.985-.048-.314-.033-.471-.18-.471-.44.209-.59.501-1.147.867-1.656a30.996 30.996 0 001.901-3.802 579.904 579.904 0 013.826-8.772 766.5 766.5 0 013.262-7.215 404.272 404.272 0 012.488-5.332c.689-1.444 1.19-2.46 1.502-3.046a19.304 19.304 0 00-4.202-1.998 20.94 20.94 0 00-2.823-.731 16.97 16.97 0 00-3.215-.294 10.158 10.158 0 00-3.239.488 5.579 5.579 0 00-2.299 1.365 6.126 6.126 0 00-.941 1.34 7.21 7.21 0 00-.493 1.22 4.4 4.4 0 00-.188.997 13.46 13.46 0 00-.024.585c.002.462.124.915.353 1.316.214.354.335.756.352 1.17-.031.497-.229.97-.563 1.34a1.506 1.506 0 01-1.079.707 1.179 1.179 0 01-.916-.39 2.139 2.139 0 01-.352-1.413 12.26 12.26 0 01.704-4.068 9.116 9.116 0 012.667-3.777 8.636 8.636 0 011.761-1.22 17.07 17.07 0 012.066-.925 15.823 15.823 0 012.039-.609 7.997 7.997 0 011.689-.22c2.037-.05 4.072.161 6.056.628a18.22 18.22 0 014.176 1.658l.942-1.536c.405-.665.828-1.323 1.267-1.974 10.006-17.462 5.852-14.085 17.953-30.166A1.553 1.553 0 01145.41 0s.751.182.751.44a2.013 2.013 0 01-.47 1.241c-12.31 15.919-8.107 12.587-17.765 30.24a23.82 23.82 0 01-.627 1.023c-.236.358-.471.692-.681 1-.21.307-.408.584-.563.83a2.63 2.63 0 00-.283.51 37.746 37.746 0 014.201 3.315 22.935 22.935 0 013.591 4.142 21.294 21.294 0 012.488 5.019 18.14 18.14 0 01.938 5.949zm-3.473 1.267a17.702 17.702 0 00-.704-4.995 19.997 19.997 0 00-1.948-4.532 20.847 20.847 0 00-2.98-3.92 24.613 24.613 0 00-3.802-3.218c-.502.846-1.089 1.951-1.761 3.315a168.127 168.127 0 00-2.111 4.459 271.505 271.505 0 00-4.343 10.088c-.656 1.61-1.25 3.096-1.784 4.459-.533 1.364-.924 2.469-1.173 3.316.314.033.689.064 1.126.097.377.032.862.049 1.456.049h2.207c.657 0 1.526.016 2.605.048s2.213.024 3.402-.025a22.63 22.63 0 003.497-.414 7.999 7.999 0 002.886-1.12 5.645 5.645 0 001.644-1.61 10.01 10.01 0 001.056-2.02 10.57 10.57 0 00.563-2.098c.103-.619.158-1.245.164-1.873v-.006z" fill="url(#paint0_linear)"/><path d="M152.315 64.779a14.077 14.077 0 01-6.36 1.411 4.868 4.868 0 01-1.55-.196 9.47 9.47 0 01-4.647 1.219 5.15 5.15 0 01-1.642-.268 3.65 3.65 0 01-1.432-.9 4.498 4.498 0 01-1.009-1.658 7.24 7.24 0 01-.376-2.486 12.89 12.89 0 01.235-2.533c.157-.78.376-1.658.657-2.632.219-.78.477-1.552.775-2.315.298-.764.603-1.478.915-2.144.287-.619.609-1.22.963-1.804.26-.445.567-.862.914-1.244a3.24 3.24 0 01.846-.608 2.523 2.523 0 011.173-.269c.236-.018.473.033.68.148.127.085.246.183.353.292h.14a44.796 44.796 0 011.55-1.439 12.294 12.294 0 011.712-1.267 9.945 9.945 0 011.995-.925 7.73 7.73 0 012.488-.366 4.056 4.056 0 012.98 1.194 5.647 5.647 0 011.197 4.078 12.996 12.996 0 01-.658 3.85 20.4 20.4 0 01-1.83 4.117 23.6 23.6 0 01-2.723 3.777 14.878 14.878 0 01-3.38 2.877c.149.066.308.107.471.12.389.057.782.081 1.175.074a11.392 11.392 0 004.575-1.145 26.557 26.557 0 005.234-3.193l.423.585a38.726 38.726 0 01-5.844 3.65zm-11.97-1.51a8.235 8.235 0 01-.726-2.317 10.554 10.554 0 01-.118-2.315c.047-.745.1-1.38.165-1.9h-.142c-.094.292-.211.7-.352 1.22-.178.8-.28 1.615-.305 2.435a6.703 6.703 0 00.21 2.437c.155.528.419 1.017.775 1.437.259.304.59.539.963.682.233.094.478.152.728.171h.471a4.544 4.544 0 01-1.669-1.843v-.008zm10.773-11.607a5.466 5.466 0 00-.704-2.9 2.684 2.684 0 00-2.487-1.145c-.52.031-1.033.13-1.527.293a4.798 4.798 0 00-1.806.974c-.391.347-.737.74-1.032 1.17a11.317 11.317 0 00-1.081 1.901 16.265 16.265 0 00-.914 2.607 17.916 17.916 0 00-.54 3.294c0 .291 0 .754.022 1.388.024.68.142 1.352.353 1.998a5.667 5.667 0 001.079 1.95 3.49 3.49 0 002.207 1.145 8.465 8.465 0 002.697-2.267c.805-1 1.483-2.097 2.019-3.264.546-1.18.97-2.414 1.267-3.681.281-1.13.431-2.29.447-3.455v-.008z" fill="url(#paint1_linear)"/><path d="M179.045 64.78a32.189 32.189 0 01-2.839 1.85c-.91.531-1.869.973-2.864 1.317a8.431 8.431 0 01-2.698.487 6.62 6.62 0 01-1.714-.22 4.004 4.004 0 01-1.548-.828 5.866 5.866 0 01-1.338-1.725 11.733 11.733 0 01-1.032-2.925c-.439-1.916-.745-3.37-.916-4.36a27.604 27.604 0 00-.493-2.364c-.25.357-.492.705-.727 1.047a7.592 7.592 0 00-.728 1.437c-.22.488-.423.984-.61 1.487-.188.505-.361.95-.516 1.34a36.72 36.72 0 00-.516 1.315c-.282.749-.509 1.31-.681 1.683a3.22 3.22 0 01-.588.9 4.479 4.479 0 01-1.197.805c-.424.24-.897.383-1.383.414a1.457 1.457 0 01-.775-.146.608.608 0 01-.212-.536c.037-.318.116-.629.236-.925.156-.455.423-1.203.798-2.242.187-.488.351-.944.492-1.366.142-.422.281-.844.422-1.266.141-.422.289-.86.446-1.317.157-.457.329-.957.517-1.51a614.674 614.674 0 001.972-5.702c.562-1.657.969-2.827 1.22-3.508.219-.618.406-1.146.563-1.585.126-.388.334-.746.61-1.047a2.78 2.78 0 01.728-.61 5.03 5.03 0 01.941-.438c.315-.11.637-.2.963-.27.262-.058.529-.091.797-.097.219 0 .329.18.329.536-.048.42-.159.832-.329 1.22a48.94 48.94 0 01-.657 1.657 205.746 205.746 0 00-1.454 3.825 113.644 113.644 0 00-1.173 3.338l.233.049c.564-.617 1.08-1.192 1.55-1.726a52.45 52.45 0 011.477-1.607 35.943 35.943 0 011.715-1.658 84.93 84.93 0 012.205-1.925 17.08 17.08 0 011.971-1.411 15.655 15.655 0 012.066-1.072 11.72 11.72 0 011.995-.658 7.833 7.833 0 011.713-.22c.125 0 .281.008.47.025.187.017.369.066.538.146.177.084.33.21.447.366.137.2.203.44.189.682a4.273 4.273 0 01-1.058 2.241 14.295 14.295 0 01-3.731 3.12l-.282-.44a3.487 3.487 0 001.222-1.607c.181-.45.292-.927.327-1.412 0-.455-.313-.682-.941-.682a6.105 6.105 0 00-2.159.56 11.859 11.859 0 00-2.91 1.827 27.649 27.649 0 00-1.808 1.569 24.14 24.14 0 00-1.291 1.316c-.406.455-.765.877-1.079 1.267h.282c.079-.002.157-.01.234-.025a1.32 1.32 0 01.235-.025.915.915 0 01.493.17 1.085 1.085 0 01.351.757l.541 3.137c.203 1.187.43 2.3.681 3.337a9.993 9.993 0 001.548 3.85 3.295 3.295 0 002.823 1.412 7.282 7.282 0 002.441-.414 12.396 12.396 0 002.23-1.047 20.807 20.807 0 001.946-1.316 27.732 27.732 0 001.55-1.268l.422.877c-.85.74-1.744 1.451-2.682 2.133z" fill="url(#paint2_linear)"/><path d="M211.431 62.05c-.594.418-1.204.84-1.831 1.265l-1.501 1.024a37.594 37.594 0 01-4.06 2.438 6.48 6.48 0 01-2.37.828c-.377 0-.604-.147-.681-.44a3.568 3.568 0 01-.118-.925 5.32 5.32 0 01.189-.999 34.36 34.36 0 01.516-1.827c.219-.715.454-1.495.704-2.34.249-.844.515-1.705.798-2.583.28-.909.554-1.81.821-2.704.266-.894.501-1.715.704-2.461.204-.749.376-1.407.516-1.975.117-.44.203-.887.259-1.34a2.127 2.127 0 01.047-.47c.029-.147-.047-.22-.236-.22a2.317 2.317 0 00-1.008.537 9.47 9.47 0 00-1.244 1.071 65.61 65.61 0 00-2.136 2.364 48.058 48.058 0 00-2.933 3.825 32.812 32.812 0 00-1.057 1.658c-.391.65-.757 1.283-1.098 1.901-.345.618-.642 1.16-.893 1.633a6.02 6.02 0 01-.47.803c-.157.157-.384.375-.681.627-.296.253-.627.52-.963.784a9.45 9.45 0 01-1.032.683 1.932 1.932 0 01-.941.293c-.125 0-.188-.066-.188-.196.001-.139.017-.277.047-.413a13.943 13.943 0 01.445-1.633c.14-.421.314-.96.541-1.608l2.957-8.773c.417-1.123.732-2.28.941-3.46 0-.26-.078-.406-.235-.439-.534 0-1.817 1.089-3.849 3.265a25.512 25.512 0 00-2.535 3.095 55.249 55.249 0 00-2.158 3.34 57.9 57.9 0 00-1.761 3.168 49.476 49.476 0 00-1.244 2.581 4.48 4.48 0 01-.54.562c-.244.22-.503.422-.774.608-.273.19-.564.354-.868.488-.273.125-.569.19-.869.195a.41.41 0 01-.423-.22 1.316 1.316 0 01-.093-.511c.011-.198.042-.394.093-.585.064-.259.15-.56.259-.902.108-.343.226-.7.352-1.072.125-.373.25-.722.375-1.047.314-.878.596-1.675.846-2.389.249-.714.47-1.39.657-2.023.187-.634.367-1.255.539-1.851.173-.596.352-1.227.54-1.882.094-.356.21-.811.351-1.365a38.34 38.34 0 01.471-1.681c.172-.57.335-1.098.492-1.608.121-.405.262-.804.422-1.195.184-.481.464-.92.822-1.29.349-.364.734-.69 1.15-.975a5.066 5.066 0 011.173-.608c.285-.112.586-.178.892-.196.218 0 .33.178.33.536-.088.494-.206.982-.353 1.462a163.5 163.5 0 01-.627 2.095c-.283.912-.597 1.887-.942 2.925a77.105 77.105 0 01-1.033 2.924 92.527 92.527 0 01-1.173 3.168l.188.146c.314-.552.712-1.18 1.197-1.882.484-.703 1-1.417 1.548-2.144a42.37 42.37 0 011.689-2.119 26.732 26.732 0 011.667-1.804c1.595-1.559 2.987-2.826 4.177-3.802a4.836 4.836 0 012.864-1.411.764.764 0 01.539.196.991.991 0 01.212.73 8.708 8.708 0 01-.4 1.95c-.265.941-.57 1.948-.914 3.021a202.208 202.208 0 01-1.034 3.137l-.797 2.364h.14c1.691-2.078 3.216-3.824 4.577-5.239a39.414 39.414 0 013.591-3.363 16.048 16.048 0 012.606-1.778 3.994 3.994 0 011.618-.537.442.442 0 01.446.269c.084.208.124.432.117.657a6.473 6.473 0 01-.211 1.34 57.895 57.895 0 01-.564 2.17c-.234.845-.499 1.77-.796 2.778a728.286 728.286 0 00-.916 3.118c-.094.39-.266.96-.516 1.706-.25.747-.493 1.518-.728 2.315a94.264 94.264 0 00-.627 2.218 6.728 6.728 0 00-.283 1.316 2.4 2.4 0 00.047.535c.032.13.157.196.377.196.483-.037.953-.17 1.385-.39a21.16 21.16 0 001.882-.976c.671-.39 1.39-.836 2.158-1.34.767-.504 1.511-1 2.23-1.487l.422.585-2.222 1.584zm.892-22.955a31.046 31.046 0 01-4.106 1.46 41.74 41.74 0 01-5.234 1.123 40.701 40.701 0 01-6.15.438 9.354 9.354 0 01-2.768-.39 11.729 11.729 0 01-1.736-.628 9.008 9.008 0 011.783-2.097c.88.353 1.804.583 2.746.684a33.07 33.07 0 004.764.292 37.117 37.117 0 005.21-.314 31.33 31.33 0 003.802-.756 23.396 23.396 0 002.605-.852c.671-.276 1.197-.48 1.569-.61l.282.195a19.976 19.976 0 01-2.767 1.455z" fill="url(#paint3_linear)"/><path d="M229.573 64.779a14.067 14.067 0 01-6.36 1.411 4.86 4.86 0 01-1.549-.196 9.472 9.472 0 01-4.646 1.22c-.559 0-1.114-.09-1.644-.27a3.659 3.659 0 01-1.432-.9 4.5 4.5 0 01-1.008-1.657 7.238 7.238 0 01-.375-2.486c-.006-.85.072-1.699.234-2.533.156-.78.376-1.658.657-2.632.218-.78.477-1.552.775-2.315.298-.763.602-1.478.914-2.144.288-.618.61-1.22.963-1.804.261-.445.568-.862.916-1.244.247-.247.532-.452.844-.608a2.529 2.529 0 011.175-.268 1.2 1.2 0 01.679.147c.127.085.245.183.353.292h.141a43.055 43.055 0 011.548-1.439 12.19 12.19 0 011.714-1.267 9.906 9.906 0 011.994-.925 7.72 7.72 0 012.487-.366 4.047 4.047 0 012.98 1.194 5.628 5.628 0 011.198 4.078 12.963 12.963 0 01-.657 3.85 20.397 20.397 0 01-1.83 4.117 23.605 23.605 0 01-2.723 3.777 14.925 14.925 0 01-3.386 2.877c.149.066.308.107.47.12.389.057.781.081 1.174.074a11.402 11.402 0 004.576-1.145 26.558 26.558 0 005.233-3.193l.423.585a38.61 38.61 0 01-5.838 3.65zm-11.968-1.51a8.199 8.199 0 01-.728-2.317 10.554 10.554 0 01-.118-2.315c.047-.745.101-1.38.157-1.9h-.141c-.094.292-.212.7-.351 1.22-.182.8-.287 1.615-.314 2.435a6.596 6.596 0 00.212 2.437c.153.529.417 1.018.774 1.437.259.304.589.54.962.682.232.094.478.152.728.171h.47a4.53 4.53 0 01-1.651-1.843v-.008zm10.772-11.607a5.458 5.458 0 00-.705-2.9 2.683 2.683 0 00-2.487-1.145 6.003 6.003 0 00-1.526.293 4.795 4.795 0 00-1.807.974c-.39.347-.737.74-1.032 1.17a11.47 11.47 0 00-1.081 1.901 16.243 16.243 0 00-.914 2.607 18.004 18.004 0 00-.54 3.294c0 .291 0 .754.024 1.388.022.68.14 1.352.351 1.998a5.667 5.667 0 001.079 1.95 3.49 3.49 0 002.207 1.145 8.487 8.487 0 002.699-2.267 15.696 15.696 0 002.019-3.264 19.547 19.547 0 001.267-3.68 15.32 15.32 0 00.446-3.456v-.008z" fill="url(#paint4_linear)"/><path d="M254.434 48.745a12.913 12.913 0 01-.942 4.705 26.742 26.742 0 01-2.324 4.606 29.534 29.534 0 01-2.98 3.972 18.842 18.842 0 01-2.957 2.754 20.826 20.826 0 01-2.699 1.633 6.404 6.404 0 01-2.933.754 1.698 1.698 0 01-1.291-.389 1.277 1.277 0 01-.353-.878 5.266 5.266 0 01.54-2.196 12.64 12.64 0 011.385-2.29 24.016 24.016 0 011.898-2.218 23.72 23.72 0 012.134-1.974c1.135-.93 2.318-1.8 3.544-2.607a52.902 52.902 0 012.934-1.779c.144-.44.223-.9.235-1.364v-1.268a5.88 5.88 0 00-.235-1.827 2.942 2.942 0 00-.627-1.121 2.042 2.042 0 00-.893-.56c-.343-.1-.698-.15-1.055-.148a5.28 5.28 0 00-2.7 1.073 21.045 21.045 0 00-3.731 3.412 57.298 57.298 0 00-1.055 2.754c-.391 1.087-.813 2.29-1.268 3.607-.455 1.315-.94 2.737-1.455 4.265-.516 1.527-1.039 3.087-1.569 4.678a727.3 727.3 0 00-1.477 4.362 362.262 362.262 0 00-1.362 4.142 267.006 267.006 0 00-1.149 3.656 101.26 101.26 0 00-.846 2.899 5.994 5.994 0 00-.07.732 6.647 6.647 0 01-.118.974 4.1 4.1 0 01-.398 1.025 4.57 4.57 0 01-1.098 1.265 3.352 3.352 0 01-2.111.83.885.885 0 01-.657-.293 1.376 1.376 0 01-.283-.974c.023-.468.086-.933.188-1.39.21-.906.493-1.794.846-2.655.814-2.34 1.644-4.663 2.487-6.969l2.323-6.41 2.323-6.409c.408-1.135.774-2.175 1.098-3.118.324-.943.638-1.861.941-2.754.297-.893.611-1.803.941-2.73.331-.925.682-1.957 1.056-3.094.345-.94.674-1.907.986-2.9.16-.675.446-1.313.844-1.882a5.43 5.43 0 011.568-1.146 3.841 3.841 0 011.098-.413c.103-.002.205.006.306.024.077.017.118.106.118.268a3.43 3.43 0 01-.141.657c-.094.342-.212.764-.353 1.267a27.88 27.88 0 01-.516 1.633c-.203.585-.399 1.139-.587 1.658l.235.049a17.885 17.885 0 011.948-1.726 22 22 0 012.253-1.535 14.673 14.673 0 012.23-1.098 5.461 5.461 0 011.923-.416 3.674 3.674 0 012.911 1.073 5.852 5.852 0 01.94 3.803zm-4.373 5.748c-.361.151-.714.322-1.056.513a21.27 21.27 0 00-1.479.877c-.532.341-1.087.731-1.666 1.17-.558.42-1.082.885-1.568 1.388-.408.423-.815.862-1.222 1.316a11.29 11.29 0 00-1.079 1.411c-.3.464-.56.953-.775 1.462a3.886 3.886 0 00-.304 1.512c0 .583.438.876 1.314.877a3.511 3.511 0 001.454-.366 5.572 5.572 0 001.644-1.242c.423-.45.822-.921 1.197-1.412a19.81 19.81 0 001.361-2.023 20.69 20.69 0 001.267-2.535c.398-.95.703-1.938.912-2.948z" fill="url(#paint5_linear)"/><path d="M300.754 62.536a31.7 31.7 0 01-2.561 1.995c-.915.646-1.889 1.2-2.911 1.658a7.466 7.466 0 01-3.074.683c-1.569 0-2.844-1.065-3.826-3.194a34.616 34.616 0 01-2.275-9.818c-.534.713-1.23 1.654-2.09 2.823a35.514 35.514 0 00-2.887 4.922c-.357.68-.655 1.39-.891 2.12a151.33 151.33 0 01-.704 2.096 15.075 15.075 0 01-.628 1.584c-.203.422-.398.627-.586.627a1.027 1.027 0 01-.963-.439 2.092 2.092 0 01-.257-1.073c.123-.323.428-.964.914-1.924.486-.96 1.104-2.09 1.854-3.388a138.27 138.27 0 012.582-4.263 70.23 70.23 0 013.194-4.647c-.468-3.379-.834-6.067-1.097-8.065-.264-1.998-.428-3.323-.493-3.973a6.104 6.104 0 00-.4-1.804 1.853 1.853 0 00-.539-.73 1.327 1.327 0 00-.68-.195c-.235 0-.352-.195-.352-.585.008-.242.056-.48.141-.706.092-.276.211-.577.351-.902.151-.344.324-.678.518-1 .202-.341.398-.64.586-.9.206-.314.468-.587.773-.806.182-.144.398-.236.628-.268.125 0 .274.01.447.025.187.024.36.11.492.243.193.205.344.445.446.708.174.454.293.928.353 1.411.154.974.303 2.072.445 3.294.142 1.222.275 2.457.398 3.703.126 1.255.243 2.482.352 3.68.109 1.198.242 2.27.4 3.217.782-1.17 1.603-2.348 2.464-3.534.86-1.186 1.705-2.323 2.534-3.411.83-1.089 1.589-2.088 2.278-2.998.689-.91 1.268-1.657 1.736-2.242a41.696 41.696 0 012.088-2.534c.671-.747 1.18-1.121 1.526-1.121.232.005.46.072.657.196.218.13.329.422.329.875.016.378-.056.754-.211 1.098a3.432 3.432 0 01-.658.853c-.298.292-.673.641-1.126 1.048-.453.407-1.008.951-1.665 1.633a54.063 54.063 0 00-1.809 1.998c-.798.914-1.658 1.937-2.582 3.07a117.642 117.642 0 00-2.769 3.557 51.488 51.488 0 00-2.37 3.411c.345 2.47.705 4.574 1.08 6.311a25.61 25.61 0 001.244 4.265c.327.902.829 1.73 1.478 2.437a2.53 2.53 0 001.83.785 5.572 5.572 0 001.973-.414 13.624 13.624 0 002.135-1.048 19.21 19.21 0 002.018-1.39 16.278 16.278 0 001.666-1.485l.47.784c-.536.484-1.195 1.067-1.976 1.747z" fill="url(#paint6_linear)"/><path d="M320.655 61.417c0 .13-.408.504-1.222 1.12a24.635 24.635 0 01-3.168 1.974 29.37 29.37 0 01-4.342 1.882 14.43 14.43 0 01-4.74.828 6.072 6.072 0 01-4.435-1.461 6.276 6.276 0 01-1.479-4.63 14.932 14.932 0 011.098-5.02 21.579 21.579 0 013.544-5.994 22.612 22.612 0 012.886-3.02 18.767 18.767 0 012.841-2.05 12.673 12.673 0 012.558-1.144 7.212 7.212 0 012.039-.366 3.45 3.45 0 011.882.366 1.483 1.483 0 01.518 1.292 5.425 5.425 0 01-1.569 3.046c-1.046 1.255-2.399 2.692-4.059 4.312-.658.651-1.417 1.383-2.277 2.196-.861.812-1.667 1.592-2.417 2.338-.908.846-1.815 1.707-2.722 2.583a5.387 5.387 0 00.985 4.216 4.571 4.571 0 003.333 1.145 10.485 10.485 0 003.708-.706 25.86 25.86 0 003.378-1.535 23.451 23.451 0 003.428-2.291c.094.137.173.284.235.439.029.158.028.321-.003.48zm-6.009-14.036c0-.52-.141-.846-.422-.976a2.238 2.238 0 00-.941-.194 4.92 4.92 0 00-2.229.73 8.046 8.046 0 00-2.509 2.29 12.189 12.189 0 00-1.032 1.658 18.89 18.89 0 00-.963 2.144 19.376 19.376 0 00-.752 2.461c-.201.84-.318 1.697-.351 2.56a355.93 355.93 0 001.925-1.707c.563-.522 1.173-1.091 1.83-1.706a35.193 35.193 0 001.882-1.9c1.032-1.104 1.885-2.094 2.558-2.972a4.09 4.09 0 001.004-2.388z" fill="url(#paint7_linear)"/><path d="M342.69 61.317c-.454.327-.94.668-1.455 1.024-.516.357-1.038.715-1.569 1.073-.533.358-1.018.666-1.455.926a37.117 37.117 0 01-2.394 1.39c-.654.34-1.21.608-1.667.802-.37.167-.755.297-1.149.39a4.21 4.21 0 01-.844.098.767.767 0 01-.799-.463 2.409 2.409 0 01-.188-.901c.049-1.004.199-2 .446-2.973.297-1.333.743-3.218 1.337-5.654l.471-1.95-.19-.097a29.36 29.36 0 00-1.899 2.389 65.183 65.183 0 01-2.466 3.167 32.38 32.38 0 01-2.666 2.98 16.585 16.585 0 01-2.113 1.755 6.383 6.383 0 01-1.665.852 4.692 4.692 0 01-1.338.22 1.437 1.437 0 01-1.456-.854 4.594 4.594 0 01-.375-1.882 5.74 5.74 0 01.071-.785c.045-.324.108-.664.187-1.024.076-.35.186-.693.329-1.022.125-.298.291-.576.492-.828.259-.267.56-.49.891-.66.316-.166.646-.305.987-.413 0 .228-.008.544-.024.95-.016.4.016.801.094 1.194.067.363.202.71.399 1.024a.936.936 0 00.845.438c.236-.001.471-.018.704-.049.337-.065.657-.198.941-.389a9.134 9.134 0 001.362-1.073c.696-.66 1.355-1.36 1.971-2.095a175.99 175.99 0 001.972-2.34c.564-.683 1.057-1.3 1.479-1.851.418-.552.794-1.056 1.126-1.51.333-.455.637-.91.915-1.367a41.892 41.892 0 011.033-3.093c.353-.941.76-1.861 1.22-2.755.23-.301.528-.543.869-.706a10 10 0 011.079-.47 5.53 5.53 0 011.01-.269c.233-.04.467-.066.703-.074.345 0 .516.228.516.683a4.453 4.453 0 01-.234 1.17c-.156.523-.36 1.098-.61 1.725a55.77 55.77 0 01-.822 1.95 80.314 80.314 0 01-.868 1.882 39.724 39.724 0 00-1.033 3.046 98.136 98.136 0 00-.941 3.36 80.195 80.195 0 00-.702 2.926c-.14.552-.235 1.114-.283 1.681 0 .228 0 .48.024.756.023.276.226.414.627.414a4.015 4.015 0 001.526-.367 18.31 18.31 0 001.901-.95 36.04 36.04 0 002.135-1.315c.736-.487 1.464-.974 2.183-1.461l.422.583c-.259.205-.613.47-1.062.792z" fill="url(#paint8_linear)"/><path d="M356.696 55.665a8.84 8.84 0 01-.628 2.824 10.817 10.817 0 01-1.948 3.314 24.287 24.287 0 01-1.924 2.145 17.557 17.557 0 01-2.205 1.851c-.775.549-1.618.991-2.51 1.316a8.38 8.38 0 01-2.887.488 1.948 1.948 0 01-1.784-.902 3.667 3.667 0 01-.563-1.975c.001-.53.04-1.058.118-1.582a17.96 17.96 0 01.351-1.755c.157-.634.366-1.34.627-2.12.266-.78.587-1.658.964-2.633.218-.55.484-1.177.798-1.882a35.58 35.58 0 011.032-2.12c.374-.715.75-1.413 1.126-2.096a26.17 26.17 0 011.079-1.802c.326-.506.679-.994 1.057-1.462.358-.452.75-.876 1.173-1.267.355-.33.74-.623 1.15-.878a2.04 2.04 0 011.032-.34c.15-.003.297.04.424.12a.418.418 0 01.186.367 2.82 2.82 0 01-.586 1.266 40.467 40.467 0 00-1.243 1.998c-.282.488-.524.944-.727 1.366-.203.422-.399.86-.587 1.314-.188.457-.4.95-.635 1.487a73.7 73.7 0 00-.822 1.975 7.12 7.12 0 012.066-1.438 6.327 6.327 0 012.77-.61 3.458 3.458 0 012.275.683 2.893 2.893 0 01.821 2.348zm-3.708 2.632a3.326 3.326 0 00-.446-1.882 2.425 2.425 0 00-1.126-.927 2.894 2.894 0 00-1.502-.146c-.564.087-1.11.26-1.621.513a143.564 143.564 0 00-1.336 3.703 11.606 11.606 0 00-.588 3.802c-.032.461.121.916.423 1.266a1.98 1.98 0 001.454.439 2.7 2.7 0 001.597-.627 7.208 7.208 0 001.55-1.633 9.64 9.64 0 001.149-2.196 6.63 6.63 0 00.451-2.312h-.005z" fill="url(#paint9_linear)"/><path d="M385.568 51.425a3.071 3.071 0 01-1.221 1.56 5.048 5.048 0 01-2.77.828c-.439.032-.814.049-1.126.05h-.798c-.22.002-.44-.015-.657-.05a8.502 8.502 0 01-.375 2.169 16.67 16.67 0 01-1.126 2.851 23.756 23.756 0 01-1.832 3.046 16.334 16.334 0 01-2.464 2.778 12.342 12.342 0 01-3.074 2.023 8.53 8.53 0 01-3.608.784 6.148 6.148 0 01-5.019-2.095 9.855 9.855 0 01-1.738-6.385c.02-1.982.321-3.951.893-5.849a32.966 32.966 0 012.44-6.042 36.939 36.939 0 013.638-5.646 34.648 34.648 0 014.413-4.727 21.284 21.284 0 014.787-3.24 10.979 10.979 0 014.81-1.196c.338.002.676.027 1.01.074.352.046.689.17.986.365.305.204.555.48.727.805.208.432.305.909.283 1.388a4.418 4.418 0 01-.4 1.852 6.415 6.415 0 01-.941 1.51 5.168 5.168 0 01-1.098 1 1.85 1.85 0 01-.893.365c-.188 0-.282-.113-.282-.34.024-.213.088-.42.188-.61a4.793 4.793 0 00.188-1.68 1.71 1.71 0 00-.68-1.56 2.847 2.847 0 00-1.569-.438 7.89 7.89 0 00-3.545.875 13.214 13.214 0 00-3.332 2.414 21.997 21.997 0 00-2.933 3.58 30.017 30.017 0 00-2.417 4.413 31.37 31.37 0 00-1.715 4.873 25.329 25.329 0 00-.798 4.947 23.753 23.753 0 00.023 3.8c.081 1.045.318 2.072.705 3.046a5.068 5.068 0 001.479 2.048 3.55 3.55 0 002.301.755 4.776 4.776 0 002.533-.683 8.026 8.026 0 002.018-1.755 12.04 12.04 0 001.55-2.41 19.85 19.85 0 001.079-2.657c.266-.812.47-1.642.61-2.485a9.246 9.246 0 00.141-1.95 8.54 8.54 0 00-.891.05 3.046 3.046 0 01-.869-.026 1.37 1.37 0 01-.657-.291.93.93 0 01-.213-.35.937.937 0 01-.045-.407 1.324 1.324 0 01.563-1.17c.356-.254.783-.39 1.221-.39a13.92 13.92 0 011.882.099c.471.064 1.064.114 1.784.146.814.033 1.464.058 1.948.073.484.016 1.055.024 1.714.024.72 0 1.344-.016 1.882-.049.538-.033.944-.077 1.29-.11z" fill="url(#paint10_linear)"/><path d="M404.318 62.806a61.798 61.798 0 01-3.308 2.462 33.442 33.442 0 01-3.192 1.973 5.559 5.559 0 01-2.395.805 1.195 1.195 0 01-1.079-.61 2.874 2.874 0 01-.375-1.536c.003-.39.027-.781.071-1.17.045-.454.097-.9.157-1.34.059-.438.13-.86.211-1.267.078-.406.148-.74.212-.999h-.188a19.327 19.327 0 01-4.483 4.314 7.95 7.95 0 01-4.294 1.584 2.344 2.344 0 01-2.353-1.169 7.427 7.427 0 01-.563-3.168c.015-.994.141-1.983.377-2.949.262-1.127.623-2.23 1.079-3.293a22.564 22.564 0 011.689-3.217 16.327 16.327 0 012.254-2.823 19.049 19.049 0 015.772-4.166 13.626 13.626 0 015.306-1.145c.393.008.786.049 1.173.12.478.085.944.233 1.383.44a3.68 3.68 0 011.173.853c.336.373.513.863.494 1.364.005.302-.018.604-.07.9a1.866 1.866 0 01-.259.66 4.19 4.19 0 01-.516.627 27.97 27.97 0 01-.798.784c-.235.68-.525 1.341-.868 1.975a18.302 18.302 0 00-1.057 2.46 322.714 322.714 0 00-1.807 5.263 13.447 13.447 0 00-.727 2.68c-.053.479.037.962.259 1.39a.781.781 0 00.627.314 4.488 4.488 0 001.854-.47c.727-.341 1.426-.74 2.089-1.194a35.994 35.994 0 002.205-1.633c.752-.6 1.488-1.175 2.207-1.725l.422.584c-.704.686-1.598 1.46-2.682 2.322zm-4.014-14.45a1.325 1.325 0 00-.422-.628 3.7 3.7 0 00-.751-.511 3.615 3.615 0 00-.844-.314 3.175 3.175 0 00-.61-.097 8.703 8.703 0 00-2.299.293 7.234 7.234 0 00-2.089.95 10.56 10.56 0 00-1.995 1.725 19.633 19.633 0 00-2.019 2.678 12.92 12.92 0 00-1.057 2.096 36.82 36.82 0 00-.891 2.462c-.254.782-.458 1.58-.61 2.388a10.73 10.73 0 00-.212 1.882 2.921 2.921 0 00.587 2.119 1.783 1.783 0 001.245.561 6.05 6.05 0 003.607-1.633 14.173 14.173 0 003.661-5.288c.43-.942.797-1.91 1.098-2.9.246-.836.536-1.657.869-2.461.127-.334.276-.66.445-.974.201-.387.437-.754.705-1.098.241-.314.508-.607.798-.875.202-.22.48-.355.778-.377l.006.002z" fill="url(#paint11_linear)"/><path d="M21.443 33.399l2.683 4.96-.28.149-1.212.65.156.29 1.212-.648.28-.15.367.685-.28.15-1.211.649.155.293 1.212-.65.28-.15.368.685-1.492.799.157.293 1.491-.801.366.686-1.491.799.157.292 1.49-.799.369.686-1.491.8.156.29 1.491-.799.522.974-.613.328-.938.501-.611.329-5.449-10.122-.383.209 5.498 10.209a.313.313 0 00.417.127l.72-.385.146.271-.15.08 1.565 2.204.171-.092 1.816 3.401.823.824-2.336-4.385.172-.092-.968-2.523-.148.08-.146-.271.72-.385a.312.312 0 00.15-.186.302.302 0 00-.024-.237L21.825 33.19l-.382.209z" fill="#fff"/><path d="M22.655 29.323a14.66 14.66 0 01-3.22 2.196l-.522-.958c.38-.187 1.026-.502 1.564-.722 1.178-.618.345-1.362-.145-.892a14.399 14.399 0 01-4.171 2.268c-.661.156-.417 1.375.668.608a21.54 21.54 0 011.46-.922l.522.959a14.686 14.686 0 01-3.595 1.506c-1.686.34-1.347 2.156-.052 1.587 2.927-1.285 3.754-.174 3.754-.174l1.37-.744.179-.097 1.369-.745s-.484-1.295 2.19-3.05c1.171-.778-.168-2.05-1.371-.82zm36.517 9.83l-4.856 2.864-.16-.275-.694-1.186-.285.166.693 1.187.16.275-.672.392-.16-.275-.691-1.187-.288.167.696 1.187.16.274-.67.394-.855-1.46-.287.167.855 1.46-.672.392-.853-1.46-.286.167.853 1.46-.671.394-.854-1.46-.285.166.853 1.46-.954.558-.35-.6-.536-.918-.355-.602 9.914-5.817-.222-.374-9.999 5.87a.304.304 0 00-.144.189.313.313 0 00.032.236l.411.706-.264.155-.086-.145-2.144 1.642.098.168-3.332 1.94-.794.853 4.296-2.503.098.168 2.484-1.06-.084-.145.266-.156.411.705a.313.313 0 00.427.112l10.015-5.88-.219-.371z" fill="#fff"/><path d="M63.288 40.214a14.757 14.757 0 01-2.313-3.137l.938-.554c.203.372.54 1.006.78 1.536.66 1.154 1.374.294.887-.179a14.34 14.34 0 01-2.426-4.093c-.18-.654-1.39-.366-.583.692.384.503.756 1.08.974 1.424l-.939.556c-.7-1.101-1.25-2.29-1.637-3.537-.401-1.669-2.203-1.267-1.587.006 1.391 2.877.313 3.742.313 3.742l.794 1.34.104.176.794 1.341s1.277-.53 3.129 2.073c.828 1.156 2.045-.228.772-1.386zm.255-22.429l-2.957 3.119-.175-.167-.758-.73-.173.183.757.723.175.168-.41.429-.174-.168-.757-.724-.175.183.757.723.175.168-.409.429-.933-.892-.174.183.933.89-.411.429-.932-.892-.175.184.933.89-.41.43-.939-.892-.173.183.933.892-.582.609-.383-.366-.586-.561-.382-.365 6.043-6.347-.241-.227-6.096 6.403a.236.236 0 00.007.334l.45.432-.162.169-.093-.089-1.226 1.655.104.105-2.034 2.12-.402.793 2.622-2.736.104.104 1.598-1.3-.093-.088.163-.17.45.43a.239.239 0 00.335-.008l6.107-6.412-.23-.226z" fill="#fff"/><path d="M66.785 17.698a11.231 11.231 0 01-2.354-1.814l.57-.603c.227.23.608.626.894.962.73.707 1.07-.073.613-.313a10.95 10.95 0 01-2.633-2.488c-.27-.442-1.096.023-.282.626.387.287.781.633 1.013.834l-.57.605a11.22 11.22 0 01-1.945-2.249c-.645-1.141-1.877-.466-1.162.338 1.625 1.817 1.015 2.676 1.015 2.676l.864.817.112.104.865.817s.824-.658 2.729.861c.843.679 1.446-.592.271-1.173zm23.673 6.246l-2.767.192-.01-.157-.044-.674-.163.011.044.674.01.156-.381.025-.01-.156-.044-.674-.163.01.045.674.01.157-.382.025-.055-.835-.162.012.055.834-.383.025-.053-.834-.164.011.056.835-.383.025-.054-.835-.162.012.053.834-.542.036-.022-.34-.033-.522-.023-.34 5.641-.38-.014-.208-5.692.383a.155.155 0 00-.134.103.146.146 0 00-.008.06l.026.401-.151.01v-.083l-1.306.251.007.095-1.893.121-.536.201 2.44-.156.006.095 1.324.07v-.082l.151-.01.026.402a.153.153 0 00.052.104c.03.027.07.04.11.038l5.702-.382-.024-.214z" fill="#fff"/><path d="M92.04 25.316a7.214 7.214 0 01-.328-1.888l.534-.039c.008.209.017.562 0 .848.037.653.54.432.43.117a7.04 7.04 0 01-.166-2.332c.065-.328-.53-.467-.409.175.059.307.096.643.116.842l-.535.038a7.234 7.234 0 01.058-1.916c.19-.825-.692-1.043-.7-.348-.021 1.573-.687 1.716-.687 1.716l.055.764.007.105.054.764s.68.047.921 1.6c.11.685.955.344.65-.446z" fill="#fff"/><path d="M8.497 39.296l6.048 3.777-.214.34-.928 1.47.354.223.927-1.47.215-.34.834.522-.215.339-.926 1.47.354.224.927-1.47.208-.34.835.522-1.142 1.81.356.223 1.14-1.81.834.521-1.141 1.81.354.223 1.14-1.81.834.522-1.14 1.81.353.221 1.14-1.808 1.184.745-.47.74-.717 1.139-.467.741-12.306-7.727-.29.467 12.415 7.795a.396.396 0 00.542-.123l.552-.873.33.209-.115.18 3.094 1.447.131-.209 4.118 2.607 1.42.392-5.31-3.359.13-.208-2.638-2.168-.114.179-.33-.209.552-.872a.397.397 0 00-.124-.544l-12.436-7.81-.298.482z" fill="url(#paint12_linear)"/><path d="M7.286 34.056a18.587 18.587 0 01-2.17 4.425l-1.17-.73c.301-.444.815-1.194 1.269-1.773.91-1.413-.47-1.711-.717-.89a18.082 18.082 0 01-3.175 5.101c-.626.584.4 1.773 1.115.25a26.33 26.33 0 011.03-1.924l1.17.73a18.534 18.534 0 01-3.011 3.9c-1.643 1.427-.137 3.211.932 1.772 2.416-3.24 4.015-2.532 4.015-2.532l1.043-1.668.135-.218 1.043-1.674s-1.341-1.122.5-4.72c.813-1.59-1.453-2.152-2.009-.049z" fill="url(#paint13_linear)"/><path d="M42.165 25.539l-2.313 6.744-.379-.133-1.642-.57-.137.395 1.642.57.38.133-.323.928-.38-.131-1.64-.57-.14.394 1.643.57.38.133-.323.928-2.022-.701-.137.396 2.021.7-.323.93-2.02-.703-.137.396 2.02.701-.323.93-2.022-.702-.135.395 2.02.702-.458 1.32-.834-.288-1.27-.442-.828-.287 4.742-13.736-.521-.179-4.778 13.857a.386.386 0 00.11.423.394.394 0 00.132.078l.975.34-.127.367-.201-.07-.71 3.337.231.08-1.606 4.603-.06 1.471 2.07-5.934.231.082 1.516-3.062-.2-.07.127-.368.975.34a.397.397 0 00.5-.244l4.797-13.88-.523-.173z" fill="url(#paint14_linear)"/><path d="M46.993 23.174a18.614 18.614 0 01-4.797-1.112l.445-1.304c.5.192 1.346.521 2.011.834 1.583.567 1.564-.845.705-.899a18.168 18.168 0 01-5.687-1.94c-.71-.48-1.636.791.009 1.148.782.168 1.614.417 2.107.568l-.445 1.305a18.553 18.553 0 01-4.484-2.053c-1.761-1.276-3.159.595-1.52 1.311 3.701 1.62 3.374 3.337 3.374 3.337l1.865.637.244.083 1.864.635s.79-1.559 4.712-.58c1.735.43 1.772-1.905-.403-1.97z" fill="url(#paint15_linear)"/><path d="M79.345 20.242l-3.496 1.602-.09-.197-.388-.854-.208.094.387.853.09.197-.483.219-.09-.197-.387-.853-.209.092.388.854.09.198-.483.219-.477-1.051-.209.093.478 1.05-.484.22-.477-1.052-.208.094.476 1.05-.484.22-.476-1.052-.209.094.476 1.051-.686.313-.196-.43-.299-.662-.195-.43 7.133-3.25-.124-.27-7.195 3.28a.21.21 0 00-.125.2.208.208 0 00.02.08l.23.508-.191.087-.048-.105-1.57.965.055.121-2.399 1.081-.597.522 3.088-1.396.056.12 1.76-.545-.048-.104.192-.087.23.508a.209.209 0 00.118.104.209.209 0 00.163 0l7.208-3.285-.107-.269z" fill="url(#paint16_linear)"/><path d="M82.064 21.252a10.012 10.012 0 01-1.35-2.294l.675-.313c.112.267.297.721.418 1.097.367.834.911.296.614-.059a9.777 9.777 0 01-1.356-2.945c-.076-.455-.917-.345-.443.429.225.368.437.786.56 1.034l-.675.313A10.06 10.06 0 0179.644 16c-.156-1.164-1.406-1.015-1.078-.104.743 2.05-.05 2.56-.05 2.56l.444.966.058.126.444.965s.904-.27 1.982 1.627c.476.84 1.4-.014.62-.888z" fill="url(#paint17_linear)"/><path d="M91.844 4.108l-1.935 1.534-.087-.11-.371-.473-.114.09.371.473.087.104-.268.209-.086-.11-.372-.473-.115.09.373.473.086.104-.268.209-.458-.583-.114.09.459.583-.269.208-.457-.583-.115.09.459.583-.268.209-.46-.583-.112.09.457.582-.38.3-.187-.24-.288-.366-.188-.24 3.951-3.117-.117-.15-3.987 3.147a.126.126 0 00-.055.112.13.13 0 00.028.105l.22.281-.104.084-.046-.059-.835.842.054.067-1.33 1.043-.293.417 1.713-1.344.053.067 1.014-.609-.045-.058.105-.084.22.282a.14.14 0 00.192.023l3.994-3.152-.112-.157z" fill="url(#paint18_linear)"/><path d="M93.69 4.322A6.471 6.471 0 0192.5 3.1l.373-.297c.11.149.295.404.43.62.356.46.615.044.375-.131a6.36 6.36 0 01-.717-.76 6.516 6.516 0 01-.58-.87c-.116-.272-.625-.075-.208.336.196.195.393.423.508.56l-.373.297c-.37-.436-.68-.92-.923-1.437-.276-.7-1.033-.417-.689.098.776 1.165.36 1.605.36 1.605l.425.534.055.07.425.534s.522-.307 1.482.712c.428.451.874-.223.249-.649z" fill="url(#paint19_linear)"/><path d="M56.364 65.619l-6.727-2.358.133-.379.582-1.638-.394-.139-.58 1.638-.136.378-.926-.328.134-.379.582-1.636-.394-.142-.582 1.639-.134.378-.927-.328.716-2.017-.396-.14-.714 2.017-.926-.33.715-2.015-.395-.14-.714 2.014-.928-.328.715-2.017-.391-.136-.716 2.015-1.317-.467.294-.827.45-1.267.293-.826 13.705 4.835.18-.522-13.828-4.876a.393.393 0 00-.502.239l-.346.973-.367-.13.071-.202-3.337-.73-.08.232-4.59-1.638-1.47-.07 5.92 2.11-.083.232 3.051 1.535.071-.2.367.13-.346.973a.396.396 0 00.24.503l13.848 4.885.18-.521z" fill="url(#paint20_linear)"/><path d="M58.697 70.463a18.549 18.549 0 011.147-4.798l1.3.454a33.653 33.653 0 01-.849 2.007c-.576 1.578.835 1.564.895.71a18.126 18.126 0 011.982-5.673c.486-.708-.78-1.642-1.147 0a26.2 26.2 0 01-.582 2.103l-1.302-.454a18.523 18.523 0 012.086-4.466c1.288-1.752-.573-3.163-1.3-1.529-1.646 3.692-3.36 3.352-3.36 3.352l-.65 1.861-.084.243-.648 1.86s1.553.8.548 4.715c-.45 1.733 1.884 1.789 1.964-.385z" fill="url(#paint21_linear)"/><path d="M7.352 54.057l5.637-.083v.313l.016 1.375h.33l-.015-1.373v-.313l.778-.008v.318l.013 1.373h.332l-.015-1.376v-.312l.777-.009.02 1.693h.33l-.02-1.693.779-.007.018 1.692h.332l-.019-1.691.779-.01.018 1.693h.33l-.018-1.692 1.105-.012.008.694.01 1.063.009.694-11.495.146.008.435 11.595-.148a.3.3 0 00.218-.093.313.313 0 00.09-.221l-.009-.817h.313v.17l2.677-.366v-.195l3.859-.035 1.111-.349-4.97.047v-.195l-2.684-.313v.168h-.313l-.008-.816a.313.313 0 00-.197-.286.304.304 0 00-.12-.022l-11.612.146.003.415z" fill="#fff"/><path d="M4.299 51.099c.323 1.264.476 2.566.456 3.87l-1.09.018c.01-.423.03-1.142.083-1.72 0-1.33-1.043-.939-.858-.284.29 1.568.317 3.174.08 4.751-.169.658 1.024 1.006.847-.313a20.642 20.642 0 01-.14-1.72l1.09-.018a14.728 14.728 0 01-.328 3.883c-.48 1.653 1.287 2.19 1.381.781.216-3.189 1.582-3.404 1.582-3.404l-.026-1.558v-.204l-.026-1.564s-1.372-.17-1.692-3.35c-.145-1.405-1.893-.808-1.36.832z" fill="#fff"/><path d="M5.899 68.23l6.146-3.61.2.348.873 1.503.361-.209-.87-1.502-.202-.348.85-.494.202.347.872 1.502.363-.209-.875-1.503-.201-.347.849-.494 1.076 1.849.363-.209-1.077-1.849.85-.493 1.076 1.85.362-.21-1.076-1.847.85-.497 1.077 1.85.36-.208-1.078-1.86 1.208-.704.44.758.677 1.163.44.757L7.47 70.898l.28.474 12.657-7.399a.396.396 0 00.142-.538l-.522-.893.336-.196.104.185 2.712-2.072-.123-.209 4.216-2.445 1.004-1.078-5.435 3.154-.124-.209-3.132 1.333.104.184-.335.196-.522-.893a.394.394 0 00-.538-.14l-12.68 7.403.285.474z" fill="url(#paint22_linear)"/><path d="M.694 66.879a18.575 18.575 0 012.92 3.971l-1.186.7a32.485 32.485 0 01-.983-1.944c-.834-1.46-1.736-.374-1.121.224a18.25 18.25 0 011.743 2.46c.51.867.947 1.774 1.31 2.712.225.828 1.755.466.737-.872a26.603 26.603 0 01-1.229-1.804l1.188-.7a18.548 18.548 0 012.063 4.475c.505 2.116 2.783 1.607 2.007 0-1.754-3.64-.386-4.73-.386-4.73l-1-1.698-.132-.222-1-1.697s-1.616.668-3.954-2.628c-1.036-1.46-2.584.288-.977 1.753z" fill="url(#paint23_linear)"/><path d="M22.582 75.984l1.896-5.31.299.104 1.293.468.112-.313-1.292-.468-.3-.104.265-.73.298.104 1.292.469.114-.313-1.293-.468-.298-.104.264-.73 1.592.576.112-.313-1.592-.575.266-.73 1.59.576.113-.313-1.59-.575.264-.73 1.59.576.112-.313-1.59-.575.376-1.043.652.237 1 .362.652.235L24.89 76.8l.411.146 3.924-10.912a.302.302 0 00-.012-.231.313.313 0 00-.175-.162l-.769-.278.105-.29.158.058.595-2.635-.183-.067 1.317-3.623.063-1.162-1.697 4.67-.183-.065-1.228 2.407.159.057-.105.29-.767-.279a.313.313 0 00-.399.188l-3.931 10.929.41.143z" fill="#fff"/><path d="M18.737 77.805c1.298.14 2.57.452 3.786.929l-.364 1.026a25.93 25.93 0 01-1.583-.68c-1.252-.464-1.243.653-.567.704 1.571.278 3.084.816 4.478 1.591.557.387 1.302-.609.006-.904a21.208 21.208 0 01-1.662-.47l.365-1.028c1.243.397 2.428.958 3.523 1.668 1.38 1.028 2.503-.438 1.216-1.022-2.912-1.318-2.635-2.673-2.635-2.673l-1.47-.522-.19-.068-1.47-.521s-.64 1.226-3.731.412c-1.368-.36-1.42 1.485.298 1.558z" fill="#fff"/><path d="M34.546 82.406l-1.229-7.023.395-.068 1.715-.293-.072-.41-1.712.291-.397.067-.165-.969.396-.067 1.712-.291-.069-.418-1.713.292-.396.068-.166-.969 2.11-.36-.071-.416-2.109.361-.165-.97 2.109-.36-.072-.416-2.107.36-.166-.97 2.11-.36-.073-.412-2.108.36-.235-1.378.864-.147 1.326-.225.863-.148 2.475 14.327.542-.096-2.502-14.446a.393.393 0 00-.454-.321l-1.018.173-.066-.384.209-.035-.99-3.27-.243.042-.813-4.806-.657-1.319 1.05 6.196-.243.042.15 3.412.209-.036.066.384-1.018.173a.397.397 0 00-.322.456L34 82.497l.547-.091z" fill="url(#paint24_linear)"/><path d="M31.457 86.806a18.594 18.594 0 014.742-1.342l.24 1.356c-.531.073-1.432.19-2.165.24-1.66.266-.96 1.494-.184 1.127 1.9-.675 3.9-1.028 5.917-1.043.854.078 1.052-1.482-.559-.997-.766.23-1.615.417-2.12.521l-.24-1.355a18.593 18.593 0 014.915-.365c2.158.269 2.48-2.044.699-1.877-4.024.367-4.566-1.296-4.566-1.296l-1.94.343-.254.044-1.94.343s.06 1.748-3.846 2.783c-1.73.448-.634 2.51 1.301 1.518z" fill="url(#paint25_linear)"/><path d="M44.748 74.343l-3.15-4.676.264-.177 1.147-.764-.184-.273-1.147.762-.264.176-.432-.646.265-.176 1.147-.763-.184-.276-1.147.763-.265.176-.431-.646 1.407-.939-.184-.275-1.407.939-.432-.648 1.408-.939-.184-.275-1.407.939-.433-.648 1.408-.938-.185-.275-1.407.939-.614-.92.578-.385.884-.59.577-.385 6.402 9.546.36-.243-6.459-9.63a.313.313 0 00-.431-.087l-.68.454-.17-.257.14-.094-1.773-2.041-.162.104-2.136-3.21-.899-.74 2.755 4.136-.162.105 1.209 2.416.14-.093.17.256-.68.453a.307.307 0 00-.13.198.301.301 0 00.046.234l6.465 9.647.367-.234z" fill="#fff"/><path d="M43.936 78.518a14.688 14.688 0 012.993-2.497l.61.902c-.36.224-.973.6-1.487.87-1.113.73-.209 1.39.231.875 1.155-1.1 2.486-2 3.937-2.662.642-.219.283-1.408-.725-.54a19.17 19.17 0 01-1.364 1.058l-.61-.903a14.664 14.664 0 013.432-1.847c1.646-.502 1.133-2.276-.104-1.585-2.789 1.564-3.716.536-3.716.536l-1.292.873-.168.114-1.29.873s.606 1.242-1.883 3.249c-1.098.887.358 2.024 1.436.684zM31.47 59.237a4.769 4.769 0 100-9.538 4.769 4.769 0 000 9.538z" fill="#fff"/><defs><linearGradient id="paint0_linear" x1="91.3" y1="23.916" x2="653.221" y2="20.982" gradientUnits="userSpaceOnUse"><stop stop-color="#E8C46F"/><stop offset=".24" stop-color="#BB842C"/><stop offset=".515" stop-color="#7D5723"/><stop offset=".857" stop-color="#E8C46F"/></linearGradient><linearGradient id="paint1_linear" x1="2189.85" y1="2962.12" x2="6873.28" y2="2937.17" gradientUnits="userSpaceOnUse"><stop stop-color="#E8C46F"/><stop offset=".24" stop-color="#BB842C"/><stop offset=".515" stop-color="#7D5723"/><stop offset=".857" stop-color="#E8C46F"/></linearGradient><linearGradient id="paint2_linear" x1="2497.7" y1="3243.82" x2="7836.36" y2="3214.23" gradientUnits="userSpaceOnUse"><stop stop-color="#E8C46F"/><stop offset=".24" stop-color="#BB842C"/><stop offset=".515" stop-color="#7D5723"/><stop offset=".857" stop-color="#E8C46F"/></linearGradient><linearGradient id="paint3_linear" x1="3321.84" y1="3901.33" x2="10484.3" y2="3857.96" gradientUnits="userSpaceOnUse"><stop stop-color="#E8C46F"/><stop offset=".24" stop-color="#BB842C"/><stop offset=".515" stop-color="#7D5723"/><stop offset=".857" stop-color="#E8C46F"/></linearGradient><linearGradient id="paint4_linear" x1="2266.44" y1="2967.89" x2="6948.28" y2="2942.98" gradientUnits="userSpaceOnUse"><stop stop-color="#E8C46F"/><stop offset=".24" stop-color="#BB842C"/><stop offset=".515" stop-color="#7D5723"/><stop offset=".857" stop-color="#E8C46F"/></linearGradient><linearGradient id="paint5_linear" x1="2743.61" y1="5907.23" x2="8479.71" y2="5887.8" gradientUnits="userSpaceOnUse"><stop stop-color="#E8C46F"/><stop offset=".24" stop-color="#BB842C"/><stop offset=".515" stop-color="#7D5723"/><stop offset=".857" stop-color="#E8C46F"/></linearGradient><linearGradient id="paint6_linear" x1="2580.03" y1="4558.91" x2="7830.72" y2="4539.21" gradientUnits="userSpaceOnUse"><stop stop-color="#E8C46F"/><stop offset=".24" stop-color="#BB842C"/><stop offset=".515" stop-color="#7D5723"/><stop offset=".857" stop-color="#E8C46F"/></linearGradient><linearGradient id="paint7_linear" x1="2047.8" y1="3133.26" x2="6029.12" y2="3116.24" gradientUnits="userSpaceOnUse"><stop stop-color="#E8C46F"/><stop offset=".24" stop-color="#BB842C"/><stop offset=".515" stop-color="#7D5723"/><stop offset=".857" stop-color="#E8C46F"/></linearGradient><linearGradient id="paint8_linear" x1="2520.72" y1="2993.61" x2="7538.9" y2="2965.2" gradientUnits="userSpaceOnUse"><stop stop-color="#E8C46F"/><stop offset=".24" stop-color="#BB842C"/><stop offset=".515" stop-color="#7D5723"/><stop offset=".857" stop-color="#E8C46F"/></linearGradient><linearGradient id="paint9_linear" x1="1642.27" y1="3032.5" x2="4605.64" y2="3022.69" gradientUnits="userSpaceOnUse"><stop stop-color="#E8C46F"/><stop offset=".24" stop-color="#BB842C"/><stop offset=".515" stop-color="#7D5723"/><stop offset=".857" stop-color="#E8C46F"/></linearGradient><linearGradient id="paint10_linear" x1="2681.1" y1="4500.7" x2="7973.82" y2="4480.42" gradientUnits="userSpaceOnUse"><stop stop-color="#E8C46F"/><stop offset=".24" stop-color="#BB842C"/><stop offset=".515" stop-color="#7D5723"/><stop offset=".857" stop-color="#E8C46F"/></linearGradient><linearGradient id="paint11_linear" x1="2563.72" y1="3059.59" x2="7535" y2="3032.14" gradientUnits="userSpaceOnUse"><stop stop-color="#E8C46F"/><stop offset=".24" stop-color="#BB842C"/><stop offset=".515" stop-color="#7D5723"/><stop offset=".857" stop-color="#E8C46F"/></linearGradient><linearGradient id="paint12_linear" x1="2470.4" y1="1092.96" x2="2955.37" y2="1092.96" gradientUnits="userSpaceOnUse"><stop stop-color="#E8C46F"/><stop offset=".24" stop-color="#BB842C"/><stop offset=".515" stop-color="#7D5723"/><stop offset=".857" stop-color="#E8C46F"/></linearGradient><linearGradient id="paint13_linear" x1="-4011.5" y1="14.371" x2="-3947.31" y2="-88.642" gradientUnits="userSpaceOnUse"><stop stop-color="#E8C46F"/><stop offset=".24" stop-color="#BB842C"/><stop offset=".515" stop-color="#7D5723"/><stop offset=".857" stop-color="#E8C46F"/></linearGradient><linearGradient id="paint14_linear" x1="2354.51" y1="5553.93" x2="2403.38" y2="5764.34" gradientUnits="userSpaceOnUse"><stop stop-color="#E8C46F"/><stop offset=".24" stop-color="#BB842C"/><stop offset=".515" stop-color="#7D5723"/><stop offset=".857" stop-color="#E8C46F"/></linearGradient><linearGradient id="paint15_linear" x1="1044.35" y1="1016.8" x2="1232.7" y2="1081.03" gradientUnits="userSpaceOnUse"><stop stop-color="#E8C46F"/><stop offset=".24" stop-color="#BB842C"/><stop offset=".515" stop-color="#7D5723"/><stop offset=".857" stop-color="#E8C46F"/></linearGradient><linearGradient id="paint16_linear" x1="-3865.21" y1="8433.13" x2="-3946.93" y2="8557.16" gradientUnits="userSpaceOnUse"><stop stop-color="#E8C46F"/><stop offset=".24" stop-color="#BB842C"/><stop offset=".515" stop-color="#7D5723"/><stop offset=".857" stop-color="#E8C46F"/></linearGradient><linearGradient id="paint17_linear" x1="-52.156" y1="1329.39" x2="-39.4" y2="1357.1" gradientUnits="userSpaceOnUse"><stop stop-color="#E8C46F"/><stop offset=".24" stop-color="#BB842C"/><stop offset=".515" stop-color="#7D5723"/><stop offset=".857" stop-color="#E8C46F"/></linearGradient><linearGradient id="paint18_linear" x1="-656.892" y1="4706.47" x2="-675.026" y2="4757.46" gradientUnits="userSpaceOnUse"><stop stop-color="#E8C46F"/><stop offset=".24" stop-color="#BB842C"/><stop offset=".515" stop-color="#7D5723"/><stop offset=".857" stop-color="#E8C46F"/></linearGradient><linearGradient id="paint19_linear" x1="322.861" y1="808.912" x2="333.211" y2="821.94" gradientUnits="userSpaceOnUse"><stop stop-color="#E8C46F"/><stop offset=".24" stop-color="#BB842C"/><stop offset=".515" stop-color="#7D5723"/><stop offset=".857" stop-color="#E8C46F"/></linearGradient><linearGradient id="paint20_linear" x1="-12321.1" y1="8600.44" x2="-12835.5" y2="8716.29" gradientUnits="userSpaceOnUse"><stop stop-color="#E8C46F"/><stop offset=".24" stop-color="#BB842C"/><stop offset=".515" stop-color="#7D5723"/><stop offset=".857" stop-color="#E8C46F"/></linearGradient><linearGradient id="paint21_linear" x1="1971.7" y1="4428.65" x2="1938.64" y2="4523.53" gradientUnits="userSpaceOnUse"><stop stop-color="#E8C46F"/><stop offset=".24" stop-color="#BB842C"/><stop offset=".515" stop-color="#7D5723"/><stop offset=".857" stop-color="#E8C46F"/></linearGradient><linearGradient id="paint22_linear" x1="-3513.71" y1="1748.99" x2="-3287.54" y2="1315.8" gradientUnits="userSpaceOnUse"><stop stop-color="#E8C46F"/><stop offset=".24" stop-color="#BB842C"/><stop offset=".515" stop-color="#7D5723"/><stop offset=".857" stop-color="#E8C46F"/></linearGradient><linearGradient id="paint23_linear" x1="-5802.77" y1="5216.95" x2="-5862.48" y2="5115.69" gradientUnits="userSpaceOnUse"><stop stop-color="#E8C46F"/><stop offset=".24" stop-color="#BB842C"/><stop offset=".515" stop-color="#7D5723"/><stop offset=".857" stop-color="#E8C46F"/></linearGradient><linearGradient id="paint24_linear" x1="-8977.87" y1="7208.23" x2="-9073.63" y2="7101.58" gradientUnits="userSpaceOnUse"><stop stop-color="#E8C46F"/><stop offset=".24" stop-color="#BB842C"/><stop offset=".515" stop-color="#7D5723"/><stop offset=".857" stop-color="#E8C46F"/></linearGradient><linearGradient id="paint25_linear" x1="-1836.66" y1="3579.58" x2="-2039.68" y2="3615.45" gradientUnits="userSpaceOnUse"><stop stop-color="#E8C46F"/><stop offset=".24" stop-color="#BB842C"/><stop offset=".515" stop-color="#7D5723"/><stop offset=".857" stop-color="#E8C46F"/></linearGradient></defs></svg>