<svg width="398" height="87" viewBox="0 0 398 87" fill="none" xmlns="http://www.w3.org/2000/svg"><path d="M153.291 79.71h-1.681l-1.481-4.357-1.477 4.357h-1.642l2.328-6.41h1.592l2.361 6.41zm4.638 0h-1.65V73.3h1.65v6.41zm9.494 0h-1.964l-2.239-3.15v3.15h-1.649V73.3h1.649v2.966l2.314-2.967h1.845l-2.496 3.104 2.54 3.307zm9.46 0h-1.625v-.756a2.458 2.458 0 01-2.028.916 3.042 3.042 0 01-2.347-.984 3.392 3.392 0 01-.87-2.382c-.025-.893.3-1.76.905-2.417a3.009 3.009 0 012.313-.974 2.4 2.4 0 012.009.883V73.3h1.643v6.41zm-1.625-3.171a1.974 1.974 0 00-.537-1.392 1.75 1.75 0 00-1.336-.58 1.67 1.67 0 00-1.307.574c-.336.373-.517.86-.508 1.363-.008.507.183.998.53 1.368a1.702 1.702 0 001.307.578 1.73 1.73 0 001.303-.578c.352-.354.549-.834.548-1.333zm10.146-1.02a2.167 2.167 0 01-.759 1.718 2.587 2.587 0 01-1.781.63h-.667v1.843h-1.649V73.3h2.359a2.676 2.676 0 011.764.56 2.026 2.026 0 01.733 1.659zm-2.676-.906h-.531v1.94h.517c.262.011.517-.079.715-.25a.875.875 0 00.277-.688.983.983 0 00-.597-.93.938.938 0 00-.381-.072zm6.169 3.483h1.523v1.81a1.33 1.33 0 01-.412 1.06 1.628 1.628 0 01-1.111.36v-.858a.611.611 0 00.527-.184c.085-.178.121-.376.103-.573h-.63v-1.615zm21.782 1.614h-8.91V73.3h1.65v5.084h1.637V73.3h1.535v5.085h1.637V73.3h1.649v5.085h.802v1.326zm9.747-3.24a3.19 3.19 0 01-.239 1.35c-.178.427-.446.81-.787 1.123a3.664 3.664 0 01-2.559.927 3.596 3.596 0 01-2.531-.915 3.203 3.203 0 01-1.042-2.486 3.142 3.142 0 011.065-2.439 3.868 3.868 0 015.05.023 3.126 3.126 0 011.043 2.416zm-5.463.034a1.898 1.898 0 00.517 1.38 2.012 2.012 0 002.727 0 1.915 1.915 0 00.517-1.38 1.936 1.936 0 00-.517-1.386 1.996 1.996 0 00-2.727 0 1.934 1.934 0 00-.517 1.386zm22.275 3.206h-6.78v-1.328h.722l1.787-5.085h1.752l1.786 5.085h.733v1.328zm-2.36-1.328l-1.042-3.172-1.042 3.172h2.084zm11.865 1.328h-1.626v-.756a2.458 2.458 0 01-2.028.916 3.034 3.034 0 01-2.347-.984 3.392 3.392 0 01-.87-2.382c-.025-.893.3-1.76.905-2.417a3.018 3.018 0 012.314-.974 2.393 2.393 0 012.008.883V73.3h1.649l-.005 6.41zm-1.626-3.171a1.977 1.977 0 00-.536-1.392 1.753 1.753 0 00-1.336-.58 1.668 1.668 0 00-1.308.574 1.99 1.99 0 00-.508 1.363c-.007.507.183.998.53 1.368a1.706 1.706 0 001.308.578 1.737 1.737 0 001.302-.578c.352-.354.549-.834.548-1.333zm10.147-1.02a2.166 2.166 0 01-.758 1.718 2.584 2.584 0 01-1.782.63h-.667v1.843h-1.649V73.3h2.359c.636-.03 1.262.17 1.764.56a2.016 2.016 0 01.733 1.659zm-2.675-.905h-.532v1.94h.517c.262.01.518-.08.716-.252a.888.888 0 00.276-.688.982.982 0 00-.596-.929.942.942 0 00-.381-.071zm7.153-1.314l1.501 3.825 1.396-3.826h1.707l-2.845 7.158h-1.652l.566-1.422-2.385-5.732 1.712-.004zm8.246.787a3.31 3.31 0 012.474-.974 3.478 3.478 0 012.015.596 2.847 2.847 0 011.203 1.718h-1.706a1.505 1.505 0 00-1.58-.859 1.712 1.712 0 00-1.083.361 1.543 1.543 0 00-.578.957h2.256v1.213h-2.256c.096.389.319.734.635.98.315.247.706.378 1.106.371a1.393 1.393 0 001.512-.905h1.706a3.03 3.03 0 01-1.192 1.74 3.691 3.691 0 01-4.488-.331 3.246 3.246 0 01-.974-2.458 3.327 3.327 0 01.95-2.409zm27.657 5.623h-11.05v-8.246h2.038v6.54h2.038v-6.54h1.902v6.54h2.038v-6.54h2.039v6.54h.995v1.706zm9.506 0h-1.626v-.755a2.458 2.458 0 01-2.027.915 3.04 3.04 0 01-2.348-.984 3.694 3.694 0 01.031-4.8 3.005 3.005 0 012.312-.973 2.396 2.396 0 012.01.883V73.3h1.648v6.41zm-1.626-3.171a1.974 1.974 0 00-.537-1.392 1.745 1.745 0 00-1.336-.58 1.67 1.67 0 00-1.308.574 1.994 1.994 0 00-.506 1.363c-.008.507.182.998.53 1.368a1.702 1.702 0 001.307.578 1.732 1.732 0 001.301-.578 1.872 1.872 0 00.549-1.333zm11.604.847a3.08 3.08 0 01-1.164 1.85 3.444 3.444 0 01-2.118.657 3.403 3.403 0 01-2.429-.882 3.249 3.249 0 01-.984-2.507 3.322 3.322 0 01.974-2.52 3.377 3.377 0 012.427-.87 3.482 3.482 0 012.136.646 3.05 3.05 0 011.14 1.854h-1.66a1.665 1.665 0 00-1.662-1.042 1.512 1.512 0 00-1.26.573 2.147 2.147 0 00-.411 1.363c-.021.496.137.984.446 1.373a1.57 1.57 0 001.283.573 1.501 1.501 0 001.604-1.064l1.678-.004zm6.995-2.761h-1.305v5.085h-1.673v-5.085h-1.317v-1.326h4.295v1.326zm8.073 5.085h-1.671v-2.736l-2.069 2.736h-1.911l2.061-2.553a1.81 1.81 0 01-1.718-1.89 1.695 1.695 0 01.801-1.551 3.484 3.484 0 011.811-.412h2.703l-.007 6.406zm-1.671-3.585v-1.579h-.962c-.657 0-.985.248-.985.744a.712.712 0 00.332.647c.219.136.474.204.732.194l.883-.006zm7.112 1.203h-1.489v-5.864h1.489v5.864zm0 2.382h-1.489v-1.604h1.489v1.604z" fill="#232323"/><path d="M133.961 52.521a8.025 8.025 0 01-.687 3.146 14.398 14.398 0 01-1.841 3.121 17.608 17.608 0 01-2.57 2.718 14.685 14.685 0 01-2.937 1.977 20.525 20.525 0 01-3.649 1.454 25.829 25.829 0 01-3.511.738 32.48 32.48 0 01-3.535.287c-1.194.03-2.433.046-3.718.047h-1.664c-.413 0-.75 0-1.009.023a6.73 6.73 0 01-.614.025h-.414c-.322 0-.643-.016-.963-.048-.307-.032-.46-.175-.46-.43.204-.577.49-1.122.848-1.62a30.323 30.323 0 001.859-3.717 568.64 568.64 0 013.741-8.578 729.78 729.78 0 013.19-7.056 399.588 399.588 0 012.432-5.214c.674-1.412 1.164-2.405 1.47-2.979a18.934 18.934 0 00-4.109-1.954 20.491 20.491 0 00-2.761-.715 16.599 16.599 0 00-3.144-.286 9.935 9.935 0 00-3.168.477 5.461 5.461 0 00-2.248 1.334 6 6 0 00-.92 1.31 7.123 7.123 0 00-.482 1.193 4.38 4.38 0 00-.184.976c-.015.286-.023.477-.023.572.002.451.121.895.345 1.286.209.347.328.74.344 1.145a2.15 2.15 0 01-.551 1.31 1.461 1.461 0 01-1.055.691 1.147 1.147 0 01-.896-.382 2.094 2.094 0 01-.343-1.38c.003-1.356.236-2.7.688-3.979a8.902 8.902 0 012.608-3.693 8.44 8.44 0 011.722-1.193 16.708 16.708 0 012.02-.905 15.569 15.569 0 011.994-.595 7.823 7.823 0 011.652-.215 23.324 23.324 0 015.922.614c1.423.37 2.795.914 4.084 1.62l.92-1.5c.397-.651.81-1.295 1.24-1.932 9.784-17.075 5.722-13.773 17.556-29.498A1.512 1.512 0 01142.195 0s.735.178.735.43a1.97 1.97 0 01-.461 1.214c-12.038 15.566-7.927 12.309-17.372 29.572-.184.318-.388.651-.613 1-.23.35-.46.676-.666.977-.205.3-.399.572-.55.811a2.528 2.528 0 00-.276.5 36.938 36.938 0 014.107 3.241 22.376 22.376 0 013.512 4.05 20.797 20.797 0 012.433 4.909c.627 1.874.937 3.84.917 5.817zm-3.396 1.24a17.363 17.363 0 00-.688-4.886 19.59 19.59 0 00-1.905-4.43 20.404 20.404 0 00-2.915-3.835 24.077 24.077 0 00-3.717-3.146c-.491.828-1.065 1.908-1.723 3.241a165.802 165.802 0 00-2.064 4.36 262.104 262.104 0 00-2.181 4.933 258.889 258.889 0 00-2.066 4.933 331.376 331.376 0 00-1.744 4.36c-.522 1.334-.904 2.414-1.147 3.243.306.032.673.062 1.101.095.368.031.842.047 1.423.047h2.158c.643 0 1.493.016 2.548.048a47.18 47.18 0 003.327-.025 22.142 22.142 0 003.42-.405 7.82 7.82 0 002.822-1.095 5.52 5.52 0 001.607-1.573 9.772 9.772 0 001.033-1.977c.253-.663.438-1.35.55-2.051a11.83 11.83 0 00.161-1.831v-.007z" fill="url(#paint0_linear)"/><path d="M148.948 63.347a13.768 13.768 0 01-6.22 1.38 4.752 4.752 0 01-1.515-.192 9.265 9.265 0 01-4.545 1.192 5.006 5.006 0 01-1.606-.262 3.575 3.575 0 01-1.4-.88 4.38 4.38 0 01-.986-1.622 7.07 7.07 0 01-.368-2.43 12.48 12.48 0 01.23-2.478c.153-.763.367-1.62.642-2.574.214-.762.467-1.517.758-2.263.292-.747.59-1.446.894-2.097.282-.605.596-1.194.942-1.764a7.29 7.29 0 01.894-1.216 3.2 3.2 0 01.827-.595 2.468 2.468 0 011.147-.262 1.18 1.18 0 01.666.144c.124.083.24.179.345.285h.136c.49-.477.995-.945 1.516-1.406a11.948 11.948 0 011.675-1.24 9.679 9.679 0 011.951-.905 7.553 7.553 0 012.432-.357 3.972 3.972 0 012.914 1.167 5.52 5.52 0 011.171 3.988 12.69 12.69 0 01-.643 3.765 19.91 19.91 0 01-1.79 4.026 23.116 23.116 0 01-2.663 3.694 14.562 14.562 0 01-3.305 2.813c.146.065.301.105.46.118a7.13 7.13 0 001.149.072 11.137 11.137 0 004.474-1.12 25.933 25.933 0 005.118-3.123l.414.573a37.882 37.882 0 01-5.714 3.569zm-11.706-1.477a8.082 8.082 0 01-.71-2.266 10.335 10.335 0 01-.115-2.264c.046-.728.098-1.35.161-1.857h-.138c-.092.285-.207.684-.345 1.192a12.82 12.82 0 00-.298 2.382 6.52 6.52 0 00.206 2.383c.151.516.409.995.757 1.405.254.298.577.527.942.667.227.092.467.149.712.167h.46a4.446 4.446 0 01-1.632-1.802v-.007zm10.535-11.35a5.345 5.345 0 00-.688-2.836 2.628 2.628 0 00-2.433-1.12 5.867 5.867 0 00-1.492.287 4.688 4.688 0 00-1.767.953 6.242 6.242 0 00-1.009 1.144 11.155 11.155 0 00-1.057 1.859 15.979 15.979 0 00-.894 2.549 17.562 17.562 0 00-.528 3.22c0 .286 0 .738.022 1.358a7.1 7.1 0 00.345 1.954c.222.699.58 1.347 1.055 1.907a3.41 3.41 0 002.158 1.12 8.28 8.28 0 002.638-2.217c.787-.979 1.45-2.05 1.974-3.192a18.772 18.772 0 001.239-3.6 14.86 14.86 0 00.437-3.378v-.008z" fill="url(#paint1_linear)"/><path d="M175.085 63.347a31.408 31.408 0 01-2.776 1.81c-.889.52-1.827.95-2.8 1.288a8.249 8.249 0 01-2.638.475 6.478 6.478 0 01-1.677-.214 3.926 3.926 0 01-1.514-.81 5.756 5.756 0 01-1.308-1.687 11.484 11.484 0 01-1.009-2.86c-.43-1.874-.728-3.295-.896-4.265-.168-.969-.328-1.74-.481-2.311-.246.35-.482.69-.712 1.024a7.468 7.468 0 00-.712 1.406c-.214.477-.413.962-.596 1.453-.184.494-.353.93-.505 1.31a36.43 36.43 0 00-.505 1.287c-.276.732-.498 1.28-.665 1.646a3.162 3.162 0 01-.575.88 4.38 4.38 0 01-1.171.787 3.148 3.148 0 01-1.352.405 1.426 1.426 0 01-.758-.143.595.595 0 01-.207-.524 3.5 3.5 0 01.23-.905c.153-.445.413-1.175.781-2.192.183-.477.343-.923.481-1.336l.413-1.238c.138-.412.282-.842.435-1.288.154-.446.322-.935.506-1.477a565.896 565.896 0 001.928-5.575c.551-1.62.948-2.764 1.194-3.431.213-.604.397-1.12.55-1.55.124-.38.327-.729.597-1.024a2.71 2.71 0 01.712-.596c.291-.175.599-.318.92-.428a7.63 7.63 0 01.942-.264c.256-.057.516-.09.779-.095.214 0 .322.176.322.524a4.145 4.145 0 01-.322 1.192 45.973 45.973 0 01-.643 1.621 207.96 207.96 0 00-1.422 3.741 110.859 110.859 0 00-1.147 3.264l.229.047a119.41 119.41 0 001.515-1.687c.459-.521.941-1.045 1.445-1.572a35.388 35.388 0 011.676-1.621 85.398 85.398 0 012.157-1.882 16.61 16.61 0 011.928-1.38 15.286 15.286 0 012.019-1.048 11.47 11.47 0 011.951-.644 7.664 7.664 0 011.675-.215c.123 0 .275.008.46.025.183.016.361.064.526.142.173.083.323.205.438.358.133.196.198.43.184.667a4.186 4.186 0 01-1.034 2.192 14 14 0 01-3.649 3.05l-.276-.43a3.41 3.41 0 001.195-1.571c.178-.44.286-.907.32-1.38 0-.445-.306-.668-.92-.668a5.975 5.975 0 00-2.112.548 11.614 11.614 0 00-2.845 1.787 27.083 27.083 0 00-1.768 1.533 23.6 23.6 0 00-1.263 1.287 33.03 33.03 0 00-1.055 1.24h.276c.077-.003.153-.01.229-.025a1.36 1.36 0 01.23-.025.889.889 0 01.481.168 1.047 1.047 0 01.344.739l.529 3.067c.198 1.162.42 2.25.666 3.264a9.775 9.775 0 001.514 3.766 3.218 3.218 0 002.76 1.38 7.125 7.125 0 002.387-.405 12.05 12.05 0 002.181-1.025 20.502 20.502 0 001.903-1.286 27.404 27.404 0 001.516-1.24l.412.858a37.862 37.862 0 01-2.623 2.086z" fill="url(#paint2_linear)"/><path d="M206.756 60.678c-.581.409-1.177.821-1.79 1.238-.612.416-1.102.75-1.468 1.001a36.64 36.64 0 01-3.971 2.383 6.329 6.329 0 01-2.317.81c-.368 0-.59-.143-.666-.43a3.497 3.497 0 01-.115-.904c.03-.33.092-.658.184-.977.122-.492.29-1.087.505-1.787.215-.7.444-1.462.689-2.288.243-.825.503-1.667.78-2.526.274-.889.542-1.77.802-2.645a99.838 99.838 0 001.194-4.337 9.71 9.71 0 00.253-1.31 2.093 2.093 0 01.046-.46c.029-.144-.046-.215-.23-.215-.368.09-.707.27-.987.525a9.39 9.39 0 00-1.216 1.047 64.648 64.648 0 00-2.089 2.312 47.003 47.003 0 00-2.868 3.74c-.307.446-.651.987-1.034 1.622-.382.635-.74 1.254-1.073 1.859a83.604 83.604 0 00-.873 1.596 5.94 5.94 0 01-.46.786c-.153.153-.376.366-.666.613-.29.247-.613.51-.941.767a9.264 9.264 0 01-1.01.667 1.892 1.892 0 01-.92.287c-.123 0-.184-.064-.184-.192a1.96 1.96 0 01.046-.403 12.886 12.886 0 01.436-1.597c.136-.412.306-.938.529-1.573l2.891-8.579a19.61 19.61 0 00.92-3.383c0-.255-.077-.397-.23-.43-.521 0-1.776 1.065-3.764 3.194a24.882 24.882 0 00-2.478 3.026 53.704 53.704 0 00-2.111 3.265 57.204 57.204 0 00-1.722 3.098 47.94 47.94 0 00-1.216 2.525 4.35 4.35 0 01-.528.549 7.418 7.418 0 01-.758.595 5.098 5.098 0 01-.848.477 2.11 2.11 0 01-.85.19.403.403 0 01-.414-.214 1.276 1.276 0 01-.09-.5c.01-.194.04-.385.09-.573.063-.252.147-.546.253-.882.107-.335.222-.684.345-1.047.122-.365.244-.707.367-1.025.307-.858.582-1.637.827-2.336.244-.697.46-1.358.642-1.978.183-.62.359-1.227.528-1.81.169-.583.344-1.2.528-1.84.092-.349.205-.793.343-1.335.138-.541.292-1.087.46-1.644.169-.557.329-1.074.482-1.572.118-.396.255-.786.412-1.169.181-.47.454-.9.804-1.262a7.188 7.188 0 011.124-.953 4.958 4.958 0 011.148-.595c.279-.109.573-.174.872-.191.214 0 .322.175.322.524-.085.483-.2.96-.345 1.43-.204.7-.409 1.382-.613 2.049-.276.891-.583 1.845-.92 2.86a77.17 77.17 0 01-1.011 2.86 91.178 91.178 0 01-1.147 3.097l.184.143c.306-.54.696-1.153 1.17-1.84.473-.688.978-1.387 1.514-2.097a41.098 41.098 0 011.652-2.072 25.9 25.9 0 011.63-1.764c1.559-1.525 2.921-2.764 4.084-3.718a4.732 4.732 0 012.801-1.38.75.75 0 01.528.191.955.955 0 01.207.715 8.555 8.555 0 01-.391 1.907c-.26.92-.558 1.905-.895 2.954a198.266 198.266 0 01-1.01 3.067l-.78 2.312h.137c1.653-2.032 3.145-3.74 4.475-5.123a38.677 38.677 0 013.513-3.289 15.7 15.7 0 012.547-1.739 3.913 3.913 0 011.583-.524.435.435 0 01.436.262c.082.204.121.423.115.642a6.395 6.395 0 01-.207 1.312 56.373 56.373 0 01-.551 2.121 177.78 177.78 0 01-.779 2.716c-.291.985-.59 2.001-.896 3.05-.092.382-.26.938-.504 1.668-.245.73-.482 1.485-.712 2.264a86.83 86.83 0 00-.613 2.169c-.135.418-.228.85-.277 1.286-.004.176.011.351.046.524.031.127.154.191.369.191a3.574 3.574 0 001.354-.382 20.615 20.615 0 001.84-.954c.657-.38 1.36-.817 2.111-1.31.75-.492 1.477-.977 2.181-1.453l.412.572-2.173 1.549zm.873-22.447a30.35 30.35 0 01-4.016 1.428 40.78 40.78 0 01-5.118 1.098 39.864 39.864 0 01-6.014.428 9.152 9.152 0 01-2.707-.382 11.495 11.495 0 01-1.698-.613 8.838 8.838 0 011.744-2.05c.861.344 1.764.569 2.686.668 1.544.207 3.1.302 4.658.285a36.304 36.304 0 005.095-.307 30.636 30.636 0 003.718-.739 22.853 22.853 0 002.547-.833c.657-.27 1.171-.469 1.534-.596l.276.19a19.544 19.544 0 01-2.705 1.423z" fill="url(#paint3_linear)"/><path d="M224.497 63.347a13.763 13.763 0 01-6.22 1.38 4.756 4.756 0 01-1.515-.192 9.262 9.262 0 01-4.543 1.192 5.012 5.012 0 01-1.607-.262 3.578 3.578 0 01-1.401-.88 4.41 4.41 0 01-.986-1.622 7.068 7.068 0 01-.366-2.43c-.006-.832.07-1.662.228-2.478.154-.763.368-1.62.643-2.573.214-.763.466-1.518.758-2.264.291-.747.589-1.446.894-2.097.282-.604.596-1.193.941-1.764.256-.435.556-.843.896-1.216a3.19 3.19 0 01.825-.595 2.48 2.48 0 011.149-.262 1.18 1.18 0 01.664.144c.124.083.24.179.345.285h.138a42.55 42.55 0 011.514-1.406 11.949 11.949 0 011.677-1.24 9.688 9.688 0 011.949-.904 7.554 7.554 0 012.432-.358 3.961 3.961 0 012.915 1.167 5.505 5.505 0 011.171 3.988 12.688 12.688 0 01-.642 3.765 19.964 19.964 0 01-1.79 4.026 23.111 23.111 0 01-2.663 3.694 14.585 14.585 0 01-3.311 2.813c.145.065.301.105.46.118.38.055.764.079 1.147.072a11.153 11.153 0 004.476-1.12 25.981 25.981 0 005.116-3.123l.415.573a37.827 37.827 0 01-5.709 3.569zm-11.704-1.477a8.048 8.048 0 01-.712-2.266 10.335 10.335 0 01-.115-2.264 42.4 42.4 0 01.153-1.857h-.138c-.092.285-.207.684-.343 1.192-.178.782-.28 1.58-.307 2.382-.08.8-.01 1.609.207 2.383.151.517.409.996.758 1.405.252.298.576.527.94.667.227.092.467.149.712.167h.46a4.435 4.435 0 01-1.615-1.802v-.007zm10.534-11.35a5.346 5.346 0 00-.689-2.836 2.627 2.627 0 00-2.433-1.12 5.876 5.876 0 00-1.492.287 4.696 4.696 0 00-1.767.953c-.382.338-.72.723-1.009 1.144a11.155 11.155 0 00-1.057 1.859 15.86 15.86 0 00-.894 2.549 17.646 17.646 0 00-.528 3.22c0 .286 0 .738.023 1.358a7.06 7.06 0 00.344 1.954 5.547 5.547 0 001.055 1.907 3.415 3.415 0 002.158 1.12 8.303 8.303 0 002.64-2.217 15.354 15.354 0 001.974-3.192 19.086 19.086 0 001.239-3.6c.273-1.106.42-2.24.436-3.378v-.008z" fill="url(#paint4_linear)"/><path d="M248.808 47.667a12.626 12.626 0 01-.92 4.601 26.183 26.183 0 01-2.273 4.505 28.965 28.965 0 01-2.914 3.883 18.494 18.494 0 01-2.891 2.694 20.461 20.461 0 01-2.64 1.596 6.26 6.26 0 01-2.868.738 1.664 1.664 0 01-1.262-.38 1.25 1.25 0 01-.346-.86 5.164 5.164 0 01.528-2.147c.371-.792.825-1.543 1.354-2.239a23.653 23.653 0 011.856-2.169 23.212 23.212 0 012.088-1.93c1.11-.91 2.266-1.76 3.464-2.55a51.953 51.953 0 012.87-1.74c.141-.43.218-.88.23-1.333v-1.24a5.774 5.774 0 00-.23-1.787 2.868 2.868 0 00-.613-1.096 1.996 1.996 0 00-.873-.548 3.617 3.617 0 00-1.032-.144 5.164 5.164 0 00-2.64 1.05 20.579 20.579 0 00-3.649 3.335 56.73 56.73 0 00-1.032 2.693c-.381 1.064-.794 2.24-1.239 3.528a627.396 627.396 0 00-1.424 4.17c-.504 1.494-1.015 3.02-1.533 4.576-.49 1.431-.972 2.853-1.445 4.265a329.396 329.396 0 00-2.456 7.626 96.32 96.32 0 00-.826 2.834 5.733 5.733 0 00-.069.716 6.63 6.63 0 01-.115.953 4.04 4.04 0 01-.39 1.001 4.444 4.444 0 01-1.074 1.238 3.272 3.272 0 01-2.064.811.868.868 0 01-.643-.286 1.343 1.343 0 01-.276-.953 8.08 8.08 0 01.184-1.359 16.99 16.99 0 01.827-2.596c.797-2.289 1.607-4.56 2.433-6.815a47250.205 47250.205 0 004.543-12.535c.398-1.11.756-2.127 1.073-3.05.317-.922.624-1.82.92-2.693.291-.873.598-1.762.921-2.668.323-.906.667-1.915 1.032-3.026.337-.92.659-1.866.965-2.836a5.36 5.36 0 01.825-1.84 5.295 5.295 0 011.534-1.122 3.756 3.756 0 011.073-.403c.1-.002.2.006.299.023.075.016.115.104.115.262a3.284 3.284 0 01-.138.642c-.092.335-.207.748-.345 1.24a26.943 26.943 0 01-.504 1.596c-.198.572-.39 1.114-.574 1.622l.23.047a17.41 17.41 0 011.905-1.687 21.444 21.444 0 012.202-1.502 14.382 14.382 0 012.181-1.073 5.344 5.344 0 011.881-.407 3.593 3.593 0 012.846 1.05 5.72 5.72 0 01.919 3.719zm-4.276 5.621a10.36 10.36 0 00-1.032.502 21.27 21.27 0 00-1.447.857c-.52.334-1.063.716-1.628 1.144a13.1 13.1 0 00-1.534 1.358c-.399.414-.797.843-1.195 1.286-.388.432-.74.893-1.055 1.38a9.302 9.302 0 00-.758 1.43 3.79 3.79 0 00-.297 1.479c0 .57.428.856 1.285.857a3.443 3.443 0 001.422-.357 5.468 5.468 0 001.607-1.215c.413-.44.804-.9 1.17-1.38.484-.632.929-1.293 1.332-1.979.468-.797.882-1.625 1.239-2.478.389-.93.687-1.896.891-2.884z" fill="url(#paint5_linear)"/><path d="M294.103 61.153a31.071 31.071 0 01-2.504 1.951 16.989 16.989 0 01-2.847 1.621 7.296 7.296 0 01-3.006.668c-1.534 0-2.781-1.041-3.741-3.123a33.88 33.88 0 01-2.226-9.601c-.521.697-1.202 1.617-2.042 2.76a34.65 34.65 0 00-2.824 4.813c-.349.666-.64 1.36-.871 2.074-.246.747-.475 1.43-.689 2.049a14.84 14.84 0 01-.613 1.55c-.2.412-.39.613-.574.613a1.004 1.004 0 01-.942-.43 2.043 2.043 0 01-.251-1.049c.12-.316.418-.943.894-1.882a70.246 70.246 0 011.813-3.313c.735-1.27 1.576-2.66 2.524-4.169a68.641 68.641 0 013.125-4.544c-.459-3.304-.816-5.933-1.074-7.887a157.9 157.9 0 01-.482-3.885 5.936 5.936 0 00-.391-1.763 1.816 1.816 0 00-.527-.715 1.29 1.29 0 00-.665-.19c-.23 0-.345-.19-.345-.572a2.23 2.23 0 01.138-.69c.091-.27.207-.565.344-.883.147-.336.317-.662.506-.977a11.6 11.6 0 01.574-.882 2.98 2.98 0 01.756-.786c.177-.141.389-.232.613-.263.123 0 .269.01.438.025a.818.818 0 01.481.238c.189.2.337.435.436.691.17.445.286.908.345 1.38.151.953.296 2.026.435 3.222.139 1.195.269 2.402.39 3.62.123 1.228.237 2.427.344 3.6.106 1.17.236 2.22.391 3.145a108.807 108.807 0 012.409-3.456 180.78 180.78 0 012.479-3.336 1376.1 1376.1 0 002.227-2.93c.674-.89 1.24-1.621 1.698-2.194a41.181 41.181 0 012.041-2.477c.656-.731 1.154-1.097 1.492-1.097.228.005.45.071.643.192.213.127.322.413.322.856.016.37-.055.737-.207 1.074-.169.31-.386.591-.643.834-.291.285-.658.627-1.101 1.025-.443.397-.986.93-1.629 1.596a54.11 54.11 0 00-1.768 1.954c-.78.894-1.622 1.894-2.525 3.002a116.844 116.844 0 00-2.708 3.478 50.755 50.755 0 00-2.318 3.336c.338 2.415.69 4.473 1.057 6.172a25.094 25.094 0 001.216 4.17c.32.883.811 1.693 1.445 2.384a2.478 2.478 0 001.79.767 5.45 5.45 0 001.929-.405 13.29 13.29 0 002.088-1.025c.686-.41 1.345-.864 1.974-1.359a15.96 15.96 0 001.629-1.452l.46.767c-.525.473-1.169 1.043-1.933 1.708z" fill="url(#paint6_linear)"/><path d="M313.564 60.058c0 .128-.398.493-1.194 1.095a24.015 24.015 0 01-3.099 1.931 28.702 28.702 0 01-4.245 1.84 14.114 14.114 0 01-4.635.81 5.935 5.935 0 01-4.338-1.429 6.131 6.131 0 01-1.446-4.528 14.606 14.606 0 011.074-4.908 21.095 21.095 0 013.466-5.862 22.037 22.037 0 012.822-2.954 18.409 18.409 0 012.778-2.003c.79-.464 1.629-.84 2.501-1.12a7.055 7.055 0 011.994-.357 3.376 3.376 0 011.841.358 1.438 1.438 0 01.506 1.263 5.301 5.301 0 01-1.534 2.979c-1.022 1.227-2.346 2.632-3.969 4.216-.643.637-1.386 1.353-2.227 2.147a125.1 125.1 0 00-2.364 2.287c-.887.828-1.774 1.67-2.661 2.526a5.255 5.255 0 00.963 4.123 4.465 4.465 0 003.26 1.12 10.252 10.252 0 003.625-.69 25.371 25.371 0 003.304-1.502 22.92 22.92 0 003.351-2.24c.092.134.17.278.23.429.029.155.028.314-.003.469zm-5.876-13.726c0-.507-.138-.826-.412-.954a2.185 2.185 0 00-.92-.19 4.81 4.81 0 00-2.18.715 7.88 7.88 0 00-2.454 2.24 12.02 12.02 0 00-1.009 1.62 18.683 18.683 0 00-.942 2.097 18.72 18.72 0 00-.734 2.407c-.197.82-.312 1.659-.344 2.503.613-.54 1.241-1.097 1.882-1.67a439.08 439.08 0 001.79-1.668 34.696 34.696 0 001.84-1.857c1.01-1.08 1.843-2.049 2.502-2.907a4.001 4.001 0 00.981-2.336z" fill="url(#paint7_linear)"/><path d="M335.114 59.962c-.445.319-.92.652-1.424 1.001-.504.349-1.015.699-1.534 1.05-.521.349-.995.65-1.423.904a36.67 36.67 0 01-2.34 1.36 23.94 23.94 0 01-1.631.784 6.178 6.178 0 01-1.124.382c-.271.06-.548.091-.825.095a.75.75 0 01-.781-.452 2.344 2.344 0 01-.184-.882c.048-.98.194-1.954.436-2.906.29-1.304.726-3.147 1.308-5.53l.46-1.906-.185-.095a28.4 28.4 0 00-1.858 2.336 63.755 63.755 0 01-2.411 3.096 31.714 31.714 0 01-2.607 2.915 16.207 16.207 0 01-2.066 1.716 6.252 6.252 0 01-1.629.833 4.58 4.58 0 01-1.308.214 1.406 1.406 0 01-1.424-.834 4.495 4.495 0 01-.366-1.84c.005-.258.028-.514.069-.767a13.6 13.6 0 01.182-1.002c.075-.343.183-.678.322-1 .123-.29.285-.563.482-.81a3.31 3.31 0 01.871-.644c.309-.163.632-.299.965-.405 0 .223-.008.533-.023.93-.016.39.015.783.092 1.167.065.355.197.695.389 1.001a.922.922 0 00.827.428c.23 0 .461-.017.689-.047.329-.064.642-.194.92-.38a8.892 8.892 0 001.331-1.05 24.688 24.688 0 001.928-2.049 170.77 170.77 0 001.928-2.288 67.117 67.117 0 001.447-1.81c.409-.54.776-1.032 1.101-1.477.325-.445.623-.89.894-1.336a41.265 41.265 0 011.011-3.025c.344-.92.743-1.82 1.193-2.694.224-.295.516-.531.85-.69a9.91 9.91 0 011.055-.46 5.39 5.39 0 01.988-.263c.227-.04.456-.064.687-.072.337 0 .504.222.504.667a4.34 4.34 0 01-.228 1.144 20.604 20.604 0 01-.597 1.688 54.351 54.351 0 01-.803 1.906 79.651 79.651 0 01-.85 1.84c-.336.857-.672 1.85-1.009 2.979a92.926 92.926 0 00-.921 3.287 78.36 78.36 0 00-.687 2.86 10.17 10.17 0 00-.276 1.644c0 .223 0 .47.023.74s.221.405.614.405a3.93 3.93 0 001.492-.36 17.903 17.903 0 001.859-.929c.672-.38 1.368-.809 2.087-1.285.72-.477 1.432-.953 2.135-1.43l.413.571c-.254.2-.6.459-1.038.775z" fill="url(#paint8_linear)"/><path d="M348.808 54.434a8.648 8.648 0 01-.614 2.76 10.582 10.582 0 01-1.905 3.242 23.62 23.62 0 01-1.882 2.098 17.151 17.151 0 01-2.156 1.81 10.39 10.39 0 01-2.454 1.286 8.193 8.193 0 01-2.824.477 1.904 1.904 0 01-1.744-.882 3.574 3.574 0 01-.55-1.93 10.69 10.69 0 01.115-1.548c.075-.525.19-1.097.343-1.716.154-.62.358-1.31.614-2.072.26-.764.574-1.623.942-2.576.213-.537.474-1.15.78-1.84.307-.69.643-1.38 1.01-2.074a110.7 110.7 0 011.101-2.049c.368-.668.72-1.255 1.055-1.762.319-.495.664-.972 1.034-1.43.349-.442.733-.856 1.147-1.239.346-.322.723-.61 1.124-.859a2 2 0 011.009-.333.758.758 0 01.415.119.404.404 0 01.182.358c-.085.454-.282.88-.574 1.238a40.435 40.435 0 00-1.214 1.954c-.276.478-.514.923-.712 1.336-.198.413-.39.842-.574 1.285-.184.447-.391.93-.621 1.454-.23.525-.497 1.17-.803 1.931a6.95 6.95 0 012.02-1.406 6.188 6.188 0 012.708-.597 3.384 3.384 0 012.226.669 2.832 2.832 0 01.802 2.296zm-3.626 2.574a3.258 3.258 0 00-.436-1.84 2.374 2.374 0 00-1.101-.907 2.83 2.83 0 00-1.469-.143 5.411 5.411 0 00-1.585.502 138.812 138.812 0 00-1.306 3.62 11.314 11.314 0 00-.575 3.719c-.032.45.117.896.414 1.237a1.914 1.914 0 001.421.43 2.64 2.64 0 001.562-.614 7.05 7.05 0 001.515-1.596 9.421 9.421 0 001.124-2.148 6.48 6.48 0 00.441-2.26h-.005z" fill="url(#paint9_linear)"/><path d="M377.041 50.288a2.999 2.999 0 01-1.193 1.524 4.939 4.939 0 01-2.709.81c-.429.032-.796.048-1.101.05h-.781a3.75 3.75 0 01-.642-.05 8.308 8.308 0 01-.367 2.121c-.28.962-.649 1.895-1.101 2.789a23.192 23.192 0 01-1.792 2.978 15.94 15.94 0 01-2.409 2.717 12.079 12.079 0 01-3.006 1.978 8.34 8.34 0 01-3.528.767 6.016 6.016 0 01-4.908-2.05 9.639 9.639 0 01-1.699-6.243c.019-1.938.313-3.864.872-5.72a32.251 32.251 0 012.387-5.907 36.076 36.076 0 013.557-5.522 33.854 33.854 0 014.316-4.623 20.823 20.823 0 014.681-3.168 10.734 10.734 0 014.704-1.17c.33.003.66.027.987.073.344.045.674.167.964.357.299.2.543.47.711.787.204.422.299.89.276 1.358a4.305 4.305 0 01-.391 1.81 6.236 6.236 0 01-.92 1.478 5.057 5.057 0 01-1.074.977 1.806 1.806 0 01-.872.357c-.184 0-.276-.11-.276-.333a1.65 1.65 0 01.184-.596c.158-.533.22-1.089.184-1.643a1.67 1.67 0 00-.666-1.526 2.78 2.78 0 00-1.534-.428 7.716 7.716 0 00-3.466.856 12.918 12.918 0 00-3.259 2.36 21.483 21.483 0 00-2.868 3.502 29.401 29.401 0 00-2.364 4.314 30.68 30.68 0 00-1.676 4.766 24.752 24.752 0 00-.781 4.837 23.17 23.17 0 00.023 3.717 10.21 10.21 0 00.689 2.978 4.958 4.958 0 001.446 2.003 3.47 3.47 0 002.25.738 4.667 4.667 0 002.477-.667 7.828 7.828 0 001.974-1.716 11.76 11.76 0 001.515-2.358c.415-.84.767-1.708 1.056-2.598.259-.794.459-1.606.596-2.43.113-.629.16-1.269.138-1.907a8.32 8.32 0 00-.871.049 2.983 2.983 0 01-.85-.025 1.341 1.341 0 01-.642-.285.922.922 0 01-.209-.342.91.91 0 01-.044-.398 1.3 1.3 0 01.55-1.144 2.059 2.059 0 011.195-.382c.615-.008 1.23.024 1.841.097.46.063 1.04.112 1.744.143.796.032 1.431.056 1.904.072a52.88 52.88 0 001.677.023c.704 0 1.314-.016 1.84-.048s.924-.075 1.261-.107z" fill="url(#paint10_linear)"/><path d="M395.378 61.417a60.794 60.794 0 01-3.235 2.408 32.88 32.88 0 01-3.121 1.93 5.444 5.444 0 01-2.342.786 1.17 1.17 0 01-1.056-.596 2.807 2.807 0 01-.366-1.502c.003-.382.026-.764.069-1.144.044-.444.095-.88.153-1.31.059-.43.128-.842.207-1.24.076-.397.145-.723.207-.976h-.184a18.907 18.907 0 01-4.383 4.218 7.778 7.778 0 01-4.2 1.549 2.289 2.289 0 01-2.3-1.143 7.26 7.26 0 01-.551-3.098c.014-.972.138-1.94.368-2.884.257-1.102.61-2.18 1.056-3.22a22.078 22.078 0 011.651-3.146 16.031 16.031 0 012.204-2.761 18.635 18.635 0 015.645-4.074 13.323 13.323 0 015.188-1.12 7.14 7.14 0 011.148.119c.468.082.922.227 1.352.43.434.199.824.482 1.148.834.328.365.501.843.483 1.334a4.8 4.8 0 01-.069.88 1.848 1.848 0 01-.253.645 4.24 4.24 0 01-.505.613c-.215.223-.475.476-.781.767a12.85 12.85 0 01-.848 1.931c-.403.776-.749 1.58-1.034 2.406a303.281 303.281 0 00-1.766 5.146 13.08 13.08 0 00-.712 2.621 2.4 2.4 0 00.253 1.36.76.76 0 00.613.306 4.382 4.382 0 001.813-.46 14.427 14.427 0 002.043-1.167 34.835 34.835 0 002.157-1.597 123.18 123.18 0 012.158-1.687l.412.572c-.688.67-1.562 1.427-2.622 2.27zm-3.925-14.13a1.298 1.298 0 00-.413-.614 3.567 3.567 0 00-.735-.5 3.52 3.52 0 00-.825-.307 3.1 3.1 0 00-.596-.095 8.518 8.518 0 00-2.249.287 7.096 7.096 0 00-2.043.928 10.379 10.379 0 00-1.951 1.687 19.333 19.333 0 00-1.974 2.62c-.406.65-.752 1.336-1.033 2.049-.32.794-.611 1.597-.872 2.408a18.946 18.946 0 00-.596 2.334 10.54 10.54 0 00-.207 1.84 2.86 2.86 0 00.573 2.073 1.745 1.745 0 001.218.549 5.92 5.92 0 003.528-1.597 13.884 13.884 0 003.58-5.172c.42-.92.779-1.867 1.073-2.836.241-.816.524-1.62.85-2.406a7.95 7.95 0 01.436-.952c.196-.378.427-.738.688-1.074.236-.307.497-.593.781-.856.197-.215.469-.347.761-.368l.006.002z" fill="url(#paint11_linear)"/><path d="M20.968 32.661l2.624 4.85-.274.146-1.185.635.153.285 1.185-.635.274-.146.36.67-.275.146-1.184.635.152.286 1.185-.635.274-.147.36.67-1.46.781.154.287 1.458-.783.358.67-1.458.782.154.285 1.457-.78.36.67-1.458.781.153.285 1.458-.781.51.952-.599.32-.918.49-.597.322-5.328-9.898-.375.204 5.377 9.984a.305.305 0 00.407.124l.705-.376.142.265-.146.078 1.53 2.155.167-.09 1.775 3.326.806.806-2.284-4.288.168-.09-.947-2.467-.145.077-.143-.265.705-.376a.306.306 0 00.145-.181.299.299 0 00-.022-.232l-5.383-10.001-.375.204z" fill="#232323"/><path d="M22.153 28.675a14.334 14.334 0 01-3.149 2.147l-.51-.936a26.01 26.01 0 011.53-.706c1.152-.604.337-1.332-.142-.872a14.08 14.08 0 01-4.079 2.218c-.647.152-.408 1.344.654.594.51-.358 1.083-.7 1.427-.901l.51.937a14.358 14.358 0 01-3.515 1.472c-1.649.334-1.317 2.11-.05 1.553 2.862-1.257 3.67-.17 3.67-.17l1.34-.728.175-.095 1.339-.728s-.474-1.266 2.141-2.984c1.145-.76-.164-2.004-1.34-.801zm35.711 9.612l-4.75 2.8-.156-.268-.678-1.16-.279.163.678 1.16.157.269-.657.383-.156-.268-.677-1.16-.282.162.681 1.16.156.27-.655.383-.836-1.427-.28.164.836 1.428-.657.382-.835-1.428-.28.165.835 1.427-.657.385-.835-1.428-.278.163.834 1.428-.933.546-.342-.587-.524-.898-.348-.589 9.695-5.688-.217-.366-9.777 5.74a.299.299 0 00-.141.185.306.306 0 00.031.231l.402.69-.259.152-.084-.142L44.5 44.32l.096.164-3.258 1.897-.776.834 4.2-2.447.096.164 2.429-1.037-.083-.142.26-.152.403.69a.305.305 0 00.417.109l9.794-5.751-.214-.362z" fill="#232323"/><path d="M61.889 39.325a14.434 14.434 0 01-2.262-3.067l.918-.543c.197.364.528.984.762 1.503.646 1.128 1.343.287.867-.175a14.02 14.02 0 01-2.372-4.002c-.176-.64-1.36-.358-.57.676.375.492.74 1.056.953 1.393l-.918.543a14.39 14.39 0 01-1.601-3.459c-.393-1.632-2.155-1.239-1.552.006 1.36 2.814.306 3.66.306 3.66l.776 1.31.102.172.777 1.311s1.248-.519 3.059 2.028c.81 1.13 2-.224.755-1.356zm.249-21.933l-2.892 3.05-.172-.163-.741-.714-.17.178.741.708.171.164-.4.42-.17-.165-.741-.707-.171.178.74.708.171.164-.4.42-.912-.873-.17.179.912.87-.401.42-.912-.872-.17.18.911.87-.4.42-.918-.872-.17.179.912.872-.569.595-.374-.358-.573-.548-.374-.357 5.91-6.207-.237-.222-5.96 6.262a.233.233 0 00-.045.253.23.23 0 00.052.074l.44.422-.159.165-.09-.086-1.2 1.618.102.102-1.99 2.074-.392.775 2.564-2.676.102.102 1.562-1.27-.09-.087.158-.166.44.421a.234.234 0 00.328-.008l5.972-6.27-.225-.222z" fill="#232323"/><path d="M65.308 17.306a10.978 10.978 0 01-2.302-1.774l.558-.589c.221.225.594.612.874.94.714.692 1.045-.071.599-.306a10.709 10.709 0 01-2.575-2.433c-.263-.432-1.071.023-.276.612.379.281.764.62.992.816l-.56.591a10.974 10.974 0 01-1.9-2.198c-.631-1.117-1.836-.456-1.136.33 1.589 1.777.992 2.617.992 2.617l.845.798.11.102.845.799s.806-.644 2.669.842c.824.664 1.414-.58.265-1.147zm23.149 6.109l-2.705.187-.01-.153-.043-.66-.16.012.044.659.01.153-.374.024-.01-.153-.043-.659-.159.01.044.66.01.152-.374.025-.053-.816-.159.011.054.816-.374.024-.052-.815-.16.01.054.817-.374.024-.053-.816-.158.012.051.815-.53.035-.021-.333-.033-.51-.022-.332 5.517-.371-.015-.204-5.566.374a.152.152 0 00-.131.102.145.145 0 00-.007.057l.025.393-.148.01v-.081l-1.276.245.006.093-1.851.119-.524.196 2.386-.153.006.093 1.294.07v-.081l.148-.01.026.392a.148.148 0 00.05.102.15.15 0 00.109.038l5.575-.374-.024-.21z" fill="#232323"/><path d="M90.004 24.757a7.059 7.059 0 01-.32-1.847l.522-.038c.007.204.017.55 0 .83.036.638.529.422.42.114a6.885 6.885 0 01-.162-2.28c.064-.322-.519-.457-.4.17.058.3.094.629.114.824l-.523.037a7.072 7.072 0 01.056-1.874c.186-.806-.676-1.02-.684-.34-.02 1.538-.671 1.678-.671 1.678l.053.748.007.102.053.747s.663.046.9 1.565c.108.67.934.336.635-.436z" fill="#232323"/><path d="M8.309 38.427l5.915 3.694-.21.332-.907 1.438.346.217.906-1.436.21-.333.816.51-.21.331-.905 1.437.345.22.907-1.438.204-.332.816.51-1.117 1.77.348.219 1.114-1.77.816.51-1.115 1.769.346.218 1.115-1.77.816.51-1.116 1.77.346.217 1.115-1.769 1.157.729-.459.725-.702 1.112-.456.725-12.034-7.556-.284.457 12.141 7.623a.386.386 0 00.53-.12l.54-.854.322.204-.112.175 3.026 1.415.128-.204 4.027 2.55 1.39.383-5.195-3.284.128-.204-2.58-2.12-.111.175-.323-.204.54-.854a.387.387 0 00-.121-.53L8.6 37.955l-.292.471z" fill="url(#paint12_linear)"/><path d="M7.125 33.303a18.176 18.176 0 01-2.122 4.327l-1.143-.714c.294-.434.796-1.167 1.24-1.733.89-1.382-.46-1.674-.7-.87A17.68 17.68 0 011.293 39.3c-.612.572.39 1.734 1.09.245.334-.708.754-1.446 1.008-1.881l1.144.714a18.126 18.126 0 01-2.945 3.813c-1.606 1.396-.134 3.14.912 1.733 2.362-3.168 3.926-2.476 3.926-2.476l1.02-1.632.132-.213 1.02-1.636s-1.312-1.098.49-4.616c.794-1.554-1.422-2.105-1.966-.048z" fill="url(#paint13_linear)"/><path d="M41.232 24.974l-2.262 6.594-.37-.13-1.606-.557-.133.387 1.605.557.37.13-.314.907-.371-.128-1.605-.558-.136.387 1.606.557.371.13-.315.908-1.977-.687-.134.388 1.976.685-.316.909-1.976-.688-.134.388 1.976.685-.316.91-1.977-.686-.132.385 1.975.687-.448 1.291-.816-.282-1.24-.432-.81-.28 4.636-13.433-.51-.175-4.671 13.551a.379.379 0 00.107.414.404.404 0 00.13.076l.953.332-.124.359-.197-.068-.695 3.263.227.078-1.57 4.5-.06 1.44 2.024-5.803.227.08 1.482-2.995-.196-.068.124-.36.954.333a.389.389 0 00.49-.239l4.69-13.572-.512-.17z" fill="url(#paint14_linear)"/><path d="M45.954 22.662a18.19 18.19 0 01-4.691-1.088l.434-1.275c.49.188 1.317.51 1.967.816 1.548.554 1.53-.827.69-.879a17.762 17.762 0 01-5.561-1.897c-.696-.47-1.6.773.008 1.122a26.05 26.05 0 012.061.556l-.435 1.276a18.143 18.143 0 01-4.385-2.007c-1.723-1.249-3.09.58-1.487 1.281 3.62 1.585 3.3 3.264 3.3 3.264l1.823.622.239.081 1.823.621s.773-1.524 4.607-.567c1.697.42 1.733-1.863-.393-1.926z" fill="url(#paint15_linear)"/><path d="M77.591 19.795l-3.418 1.566-.088-.193-.38-.835-.203.092.378.834.088.193-.472.214-.088-.193-.378-.834-.204.09.379.835.088.194-.473.214-.467-1.028-.203.09.466 1.029-.473.214-.466-1.028-.204.092.466 1.027-.473.215-.466-1.03-.204.093.465 1.027-.67.306-.191-.42-.293-.647-.19-.42 6.974-3.18-.12-.263-7.037 3.207a.203.203 0 00-.102.274l.224.497-.187.085-.046-.102-1.535.943.053.118-2.346 1.058-.584.51 3.02-1.365.055.117 1.72-.533-.046-.102.188-.084.224.496a.204.204 0 00.116.102.205.205 0 00.16 0l7.048-3.212-.105-.263z" fill="url(#paint16_linear)"/><path d="M80.25 20.782a9.795 9.795 0 01-1.32-2.244l.66-.306c.11.261.29.706.408 1.073.36.816.892.29.601-.057a9.56 9.56 0 01-1.326-2.88c-.074-.445-.896-.337-.433.42.22.36.427.768.548 1.01l-.66.307a9.838 9.838 0 01-.845-2.459c-.152-1.138-1.374-.992-1.053-.102.726 2.005-.05 2.504-.05 2.504l.434.944.058.123.434.945s.884-.265 1.938 1.59c.465.822 1.369-.014.606-.868z" fill="url(#paint17_linear)"/><path d="M89.813 4.017l-1.892 1.5-.085-.107-.363-.463-.111.088.363.463.084.102-.262.204-.083-.107-.364-.463-.113.088.365.463.084.102-.262.204-.448-.57-.112.088.449.57-.262.203-.448-.57-.112.088.449.57-.263.204-.448-.57-.11.087.446.57-.372.293-.182-.234-.282-.358-.183-.234 3.863-3.049-.115-.147-3.898 3.078a.124.124 0 00-.054.11.13.13 0 00.027.102l.215.275-.102.082-.044-.057-.816.823.052.065-1.3 1.02-.287.408 1.675-1.314.052.066.992-.596-.044-.057.102-.082.215.276a.137.137 0 00.188.022l3.905-3.082-.109-.154z" fill="url(#paint18_linear)"/><path d="M91.618 4.227a6.331 6.331 0 01-1.165-1.195l.365-.291c.108.146.288.396.421.606.348.45.6.043.366-.128a6.225 6.225 0 01-.7-.743 6.378 6.378 0 01-.567-.85c-.115-.267-.612-.074-.204.328.191.19.384.414.496.547l-.365.29a6.291 6.291 0 01-.902-1.404c-.27-.686-1.01-.408-.673.095.758 1.14.351 1.57.351 1.57l.416.522.053.068.417.523s.51-.3 1.449.696c.418.442.854-.218.242-.634z" fill="url(#paint19_linear)"/><path d="M55.118 64.168l-6.579-2.306.13-.37.57-1.602-.386-.136-.568 1.601-.131.37-.907-.32.132-.371.569-1.6-.386-.139-.569 1.602-.13.37-.907-.32.7-1.973-.387-.137-.698 1.973-.906-.324.7-1.97-.387-.136-.699 1.97-.907-.322.7-1.972-.383-.133-.7 1.97-1.289-.456.288-.809.44-1.239.287-.807 13.402 4.727.176-.51-13.522-4.768a.384.384 0 00-.491.233l-.339.952-.359-.127.07-.197-3.263-.714-.08.226-4.486-1.6-1.438-.07 5.788 2.064-.08.226 2.983 1.501.07-.195.359.127-.339.951a.387.387 0 00.236.492l13.54 4.778.176-.51z" fill="url(#paint20_linear)"/><path d="M57.399 68.905c.163-1.607.54-3.184 1.122-4.691l1.27.443a32.82 32.82 0 01-.829 1.963c-.564 1.543.816 1.53.875.694a17.723 17.723 0 011.938-5.548c.475-.692-.762-1.605-1.122 0-.17.764-.417 1.577-.569 2.057l-1.273-.443a18.112 18.112 0 012.04-4.368c1.26-1.713-.56-3.093-1.272-1.495-1.609 3.61-3.285 3.277-3.285 3.277l-.635 1.82-.082.238-.635 1.82s1.52.782.537 4.61c-.44 1.694 1.842 1.749 1.92-.377z" fill="url(#paint21_linear)"/><path d="M7.19 52.862l5.513-.082v.306l.015 1.345h.322l-.014-1.343v-.306l.76-.008v.311l.014 1.343h.324l-.014-1.345v-.306l.76-.008.018 1.655h.324l-.02-1.655.761-.007.018 1.654h.325l-.018-1.653.76-.01.019 1.656h.322l-.017-1.655 1.08-.012.008.678.01 1.04.008.679-11.24.143.007.425 11.34-.145a.292.292 0 00.213-.09.307.307 0 00.087-.217l-.008-.798h.306v.165l2.618-.357v-.19l3.773-.036 1.087-.34-4.86.046v-.19l-2.625-.307v.164h-.306l-.008-.798a.306.306 0 00-.31-.301l-11.355.143.003.406z" fill="#232323"/><path d="M4.205 49.968c.316 1.237.466 2.51.445 3.786l-1.064.017a25.77 25.77 0 01.08-1.682c0-1.3-1.02-.918-.839-.278.284 1.534.31 3.104.078 4.646-.165.644 1.002.984.829-.306a20.18 20.18 0 01-.138-1.682l1.067-.017a14.402 14.402 0 01-.322 3.797c-.469 1.616 1.259 2.142 1.352.764.21-3.119 1.547-3.33 1.547-3.33l-.026-1.523v-.199l-.025-1.53s-1.342-.166-1.655-3.276c-.142-1.374-1.851-.79-1.33.813z" fill="#232323"/><path d="M5.769 66.721l6.01-3.53.195.34.854 1.47.353-.204-.851-1.47-.197-.34.83-.483.198.34.854 1.469.354-.204-.855-1.47-.197-.34.83-.483 1.053 1.808.354-.204-1.053-1.808.832-.482 1.051 1.808.354-.204-1.052-1.807.832-.486 1.052 1.81.352-.204-1.053-1.82 1.18-.687.432.741.661 1.137.431.74L7.304 69.33l.274.464 12.377-7.235a.387.387 0 00.138-.527l-.51-.873.329-.191.102.18 2.651-2.026-.12-.204 4.123-2.391.982-1.054-5.315 3.084-.122-.204-3.062 1.303.102.18-.328.192-.51-.873a.386.386 0 00-.526-.138L5.49 66.257l.279.464z" fill="url(#paint22_linear)"/><path d="M.679 65.4a18.161 18.161 0 012.855 3.883l-1.16.684c-.25-.46-.666-1.246-.96-1.9-.817-1.428-1.699-.366-1.097.219a17.852 17.852 0 011.704 2.406c.498.847.927 1.734 1.28 2.65.221.81 1.717.457.722-.852a26.049 26.049 0 01-1.202-1.764l1.162-.684A18.139 18.139 0 016 74.418c.494 2.069 2.722 1.571 1.963 0-1.715-3.56-.377-4.626-.377-4.626l-.98-1.66-.128-.217-.978-1.66s-1.58.654-3.866-2.57C.621 62.259-.893 63.968.68 65.4z" fill="url(#paint23_linear)"/><path d="M22.081 74.303l1.854-5.192.293.102 1.265.458.109-.306-1.264-.458-.293-.102.26-.714.291.102 1.264.458.11-.306-1.264-.457-.291-.102.258-.714 1.557.563.109-.306-1.556-.562.26-.714 1.555.563.11-.306-1.555-.561.258-.714 1.556.563.11-.306-1.556-.563.367-1.02.639.231.978.354.637.23-3.804 10.578.402.143 3.836-10.671a.297.297 0 00-.01-.227.306.306 0 00-.172-.158l-.752-.272.102-.282.155.056.581-2.577-.178-.066 1.288-3.542.061-1.137-1.659 4.567-.178-.064-1.202 2.354.155.056-.102.283-.75-.272a.306.306 0 00-.39.184l-3.844 10.687.4.14z" fill="#232323"/><path d="M18.323 76.084a14.35 14.35 0 013.701.909l-.356 1.003a25.341 25.341 0 01-1.548-.666c-1.223-.453-1.215.64-.553.69 1.536.272 3.015.797 4.379 1.556.544.378 1.272-.596.005-.884a20.674 20.674 0 01-1.625-.46l.357-1.006a14.38 14.38 0 013.445 1.632c1.35 1.004 2.447-.428 1.189-1-2.847-1.288-2.577-2.614-2.577-2.614l-1.437-.51-.187-.066-1.436-.51s-.627 1.199-3.65.403c-1.337-.353-1.388 1.452.293 1.523z" fill="#232323"/><path d="M33.782 80.583l-1.201-6.867.386-.066 1.677-.287-.07-.402-1.675.286-.388.065-.162-.947.388-.066 1.674-.285-.067-.408-1.676.285-.387.067-.162-.948 2.063-.351-.07-.408-2.062.353-.16-.948 2.061-.352-.07-.408-2.06.353-.163-.95 2.063-.351-.07-.403-2.063.352-.229-1.347.845-.144 1.297-.22.844-.145 2.42 14.01.53-.093-2.447-14.127a.383.383 0 00-.444-.314l-.995.17-.065-.376.204-.035-.968-3.197-.237.041-.795-4.7-.643-1.29 1.027 6.06-.237.04.146 3.337.204-.035.064.375-.995.17a.388.388 0 00-.314.445l2.448 14.15.534-.089z" fill="url(#paint24_linear)"/><path d="M30.762 84.887a18.182 18.182 0 014.637-1.313l.234 1.326c-.519.071-1.4.187-2.117.234-1.623.261-.938 1.462-.18 1.103a17.703 17.703 0 015.787-1.02c.835.077 1.028-1.449-.547-.975-.75.226-1.58.408-2.073.51l-.234-1.326a18.183 18.183 0 014.806-.357c2.11.263 2.425-1.998.683-1.835-3.935.359-4.465-1.267-4.465-1.267l-1.897.336-.248.043-1.898.335s.06 1.71-3.76 2.72c-1.692.44-.62 2.456 1.272 1.486z" fill="url(#paint25_linear)"/><path d="M43.76 72.7l-3.081-4.573.258-.172 1.122-.748-.18-.267-1.121.745-.26.173-.422-.633.26-.172 1.121-.745-.18-.27-1.121.746-.26.172-.421-.632 1.376-.918-.18-.27-1.376.919-.422-.634 1.377-.917-.18-.27-1.377.918-.423-.633 1.377-.918-.18-.268-1.376.918-.6-.9.564-.376.865-.577.564-.377 6.26 9.335.353-.237-6.316-9.418a.306.306 0 00-.423-.084l-.663.443-.168-.25.137-.092-1.734-1.997-.158.102-2.088-3.139-.88-.724 2.694 4.045-.158.102 1.182 2.363.136-.09.168.25-.665.443a.3.3 0 00-.128.194.296.296 0 00.045.228l6.323 9.434.359-.23z" fill="#232323"/><path d="M42.964 76.782a14.36 14.36 0 012.927-2.441l.596.882c-.352.219-.951.586-1.454.851-1.088.714-.204 1.359.226.855a13.987 13.987 0 013.85-2.603c.628-.214.276-1.377-.709-.528-.468.408-1.01.802-1.334 1.034l-.596-.883a14.336 14.336 0 013.356-1.806c1.61-.49 1.107-2.225-.102-1.55-2.727 1.53-3.633.524-3.633.524l-1.264.854-.164.112-1.263.853s.594 1.215-1.84 3.177c-1.074.868.35 1.98 1.404.669zm-12.19-18.855a4.663 4.663 0 100-9.327 4.663 4.663 0 000 9.327z" fill="#232323"/><defs><linearGradient id="paint0_linear" x1="89.281" y1="23.387" x2="638.777" y2="20.518" gradientUnits="userSpaceOnUse"><stop stop-color="#E8C46F"/><stop offset=".24" stop-color="#BB842C"/><stop offset=".515" stop-color="#7D5723"/><stop offset=".857" stop-color="#E8C46F"/></linearGradient><linearGradient id="paint1_linear" x1="2141.43" y1="2896.62" x2="6721.29" y2="2872.22" gradientUnits="userSpaceOnUse"><stop stop-color="#E8C46F"/><stop offset=".24" stop-color="#BB842C"/><stop offset=".515" stop-color="#7D5723"/><stop offset=".857" stop-color="#E8C46F"/></linearGradient><linearGradient id="paint2_linear" x1="2442.47" y1="3172.09" x2="7663.08" y2="3143.15" gradientUnits="userSpaceOnUse"><stop stop-color="#E8C46F"/><stop offset=".24" stop-color="#BB842C"/><stop offset=".515" stop-color="#7D5723"/><stop offset=".857" stop-color="#E8C46F"/></linearGradient><linearGradient id="paint3_linear" x1="3248.39" y1="3815.06" x2="10252.5" y2="3772.65" gradientUnits="userSpaceOnUse"><stop stop-color="#E8C46F"/><stop offset=".24" stop-color="#BB842C"/><stop offset=".515" stop-color="#7D5723"/><stop offset=".857" stop-color="#E8C46F"/></linearGradient><linearGradient id="paint4_linear" x1="2216.32" y1="2902.26" x2="6794.64" y2="2877.91" gradientUnits="userSpaceOnUse"><stop stop-color="#E8C46F"/><stop offset=".24" stop-color="#BB842C"/><stop offset=".515" stop-color="#7D5723"/><stop offset=".857" stop-color="#E8C46F"/></linearGradient><linearGradient id="paint5_linear" x1="2682.94" y1="5776.6" x2="8292.2" y2="5757.6" gradientUnits="userSpaceOnUse"><stop stop-color="#E8C46F"/><stop offset=".24" stop-color="#BB842C"/><stop offset=".515" stop-color="#7D5723"/><stop offset=".857" stop-color="#E8C46F"/></linearGradient><linearGradient id="paint6_linear" x1="2522.98" y1="4458.1" x2="7657.56" y2="4438.83" gradientUnits="userSpaceOnUse"><stop stop-color="#E8C46F"/><stop offset=".24" stop-color="#BB842C"/><stop offset=".515" stop-color="#7D5723"/><stop offset=".857" stop-color="#E8C46F"/></linearGradient><linearGradient id="paint7_linear" x1="2002.51" y1="3063.97" x2="5895.79" y2="3047.33" gradientUnits="userSpaceOnUse"><stop stop-color="#E8C46F"/><stop offset=".24" stop-color="#BB842C"/><stop offset=".515" stop-color="#7D5723"/><stop offset=".857" stop-color="#E8C46F"/></linearGradient><linearGradient id="paint8_linear" x1="2464.98" y1="2927.41" x2="7372.19" y2="2899.63" gradientUnits="userSpaceOnUse"><stop stop-color="#E8C46F"/><stop offset=".24" stop-color="#BB842C"/><stop offset=".515" stop-color="#7D5723"/><stop offset=".857" stop-color="#E8C46F"/></linearGradient><linearGradient id="paint9_linear" x1="1605.96" y1="2965.44" x2="4503.79" y2="2955.85" gradientUnits="userSpaceOnUse"><stop stop-color="#E8C46F"/><stop offset=".24" stop-color="#BB842C"/><stop offset=".515" stop-color="#7D5723"/><stop offset=".857" stop-color="#E8C46F"/></linearGradient><linearGradient id="paint10_linear" x1="2621.82" y1="4401.18" x2="7797.5" y2="4381.35" gradientUnits="userSpaceOnUse"><stop stop-color="#E8C46F"/><stop offset=".24" stop-color="#BB842C"/><stop offset=".515" stop-color="#7D5723"/><stop offset=".857" stop-color="#E8C46F"/></linearGradient><linearGradient id="paint11_linear" x1="2507.03" y1="2991.93" x2="7368.38" y2="2965.09" gradientUnits="userSpaceOnUse"><stop stop-color="#E8C46F"/><stop offset=".24" stop-color="#BB842C"/><stop offset=".515" stop-color="#7D5723"/><stop offset=".857" stop-color="#E8C46F"/></linearGradient><linearGradient id="paint12_linear" x1="2415.77" y1="1068.8" x2="2890.02" y2="1068.8" gradientUnits="userSpaceOnUse"><stop stop-color="#E8C46F"/><stop offset=".24" stop-color="#BB842C"/><stop offset=".515" stop-color="#7D5723"/><stop offset=".857" stop-color="#E8C46F"/></linearGradient><linearGradient id="paint13_linear" x1="-3922.79" y1="14.054" x2="-3860.03" y2="-86.681" gradientUnits="userSpaceOnUse"><stop stop-color="#E8C46F"/><stop offset=".24" stop-color="#BB842C"/><stop offset=".515" stop-color="#7D5723"/><stop offset=".857" stop-color="#E8C46F"/></linearGradient><linearGradient id="paint14_linear" x1="2302.44" y1="5431.11" x2="2350.23" y2="5636.87" gradientUnits="userSpaceOnUse"><stop stop-color="#E8C46F"/><stop offset=".24" stop-color="#BB842C"/><stop offset=".515" stop-color="#7D5723"/><stop offset=".857" stop-color="#E8C46F"/></linearGradient><linearGradient id="paint15_linear" x1="1021.26" y1="994.318" x2="1205.44" y2="1057.13" gradientUnits="userSpaceOnUse"><stop stop-color="#E8C46F"/><stop offset=".24" stop-color="#BB842C"/><stop offset=".515" stop-color="#7D5723"/><stop offset=".857" stop-color="#E8C46F"/></linearGradient><linearGradient id="paint16_linear" x1="-3779.74" y1="8246.65" x2="-3859.65" y2="8367.93" gradientUnits="userSpaceOnUse"><stop stop-color="#E8C46F"/><stop offset=".24" stop-color="#BB842C"/><stop offset=".515" stop-color="#7D5723"/><stop offset=".857" stop-color="#E8C46F"/></linearGradient><linearGradient id="paint17_linear" x1="-51.002" y1="1299.99" x2="-38.528" y2="1327.09" gradientUnits="userSpaceOnUse"><stop stop-color="#E8C46F"/><stop offset=".24" stop-color="#BB842C"/><stop offset=".515" stop-color="#7D5723"/><stop offset=".857" stop-color="#E8C46F"/></linearGradient><linearGradient id="paint18_linear" x1="-642.366" y1="4602.4" x2="-660.099" y2="4652.26" gradientUnits="userSpaceOnUse"><stop stop-color="#E8C46F"/><stop offset=".24" stop-color="#BB842C"/><stop offset=".515" stop-color="#7D5723"/><stop offset=".857" stop-color="#E8C46F"/></linearGradient><linearGradient id="paint19_linear" x1="315.721" y1="791.024" x2="325.842" y2="803.765" gradientUnits="userSpaceOnUse"><stop stop-color="#E8C46F"/><stop offset=".24" stop-color="#BB842C"/><stop offset=".515" stop-color="#7D5723"/><stop offset=".857" stop-color="#E8C46F"/></linearGradient><linearGradient id="paint20_linear" x1="-12048.7" y1="8410.26" x2="-12551.7" y2="8523.54" gradientUnits="userSpaceOnUse"><stop stop-color="#E8C46F"/><stop offset=".24" stop-color="#BB842C"/><stop offset=".515" stop-color="#7D5723"/><stop offset=".857" stop-color="#E8C46F"/></linearGradient><linearGradient id="paint21_linear" x1="1928.1" y1="4330.72" x2="1895.77" y2="4423.5" gradientUnits="userSpaceOnUse"><stop stop-color="#E8C46F"/><stop offset=".24" stop-color="#BB842C"/><stop offset=".515" stop-color="#7D5723"/><stop offset=".857" stop-color="#E8C46F"/></linearGradient><linearGradient id="paint22_linear" x1="-3436.01" y1="1710.32" x2="-3214.84" y2="1286.7" gradientUnits="userSpaceOnUse"><stop stop-color="#E8C46F"/><stop offset=".24" stop-color="#BB842C"/><stop offset=".515" stop-color="#7D5723"/><stop offset=".857" stop-color="#E8C46F"/></linearGradient><linearGradient id="paint23_linear" x1="-5674.45" y1="5101.58" x2="-5732.84" y2="5002.57" gradientUnits="userSpaceOnUse"><stop stop-color="#E8C46F"/><stop offset=".24" stop-color="#BB842C"/><stop offset=".515" stop-color="#7D5723"/><stop offset=".857" stop-color="#E8C46F"/></linearGradient><linearGradient id="paint24_linear" x1="-8779.34" y1="7048.84" x2="-8872.98" y2="6944.55" gradientUnits="userSpaceOnUse"><stop stop-color="#E8C46F"/><stop offset=".24" stop-color="#BB842C"/><stop offset=".515" stop-color="#7D5723"/><stop offset=".857" stop-color="#E8C46F"/></linearGradient><linearGradient id="paint25_linear" x1="-1796.05" y1="3500.42" x2="-1994.58" y2="3535.51" gradientUnits="userSpaceOnUse"><stop stop-color="#E8C46F"/><stop offset=".24" stop-color="#BB842C"/><stop offset=".515" stop-color="#7D5723"/><stop offset=".857" stop-color="#E8C46F"/></linearGradient></defs></svg>