<svg width="902" height="619" viewBox="0 0 902 619" fill="none" xmlns="http://www.w3.org/2000/svg"><path opacity=".8" d="M770.352 382.015c.121-.1.328-.187.42-.346.088-.196.135-.407.139-.621.149-1.424.291-2.849.434-4.273.022-.214.032-.428.056-.642.2-1.743.4-3.485.59-5.229.526-4.84 1.122-9.673 1.55-14.522.687-7.775 1.576-15.527 2.484-23.277a3556.121 3556.121 0 016.93-55.415c1.531-11.606 2.967-23.224 4.521-34.826.323-2.413.624-4.829 1-7.235 1.429-9.235 2.422-18.528 3.725-27.78.414-2.941.947-5.865 1.425-8.8.4-2.473.788-4.949 1.21-7.419.675-3.951 1.374-7.9 2.063-11.847.025-.141.051-.282.074-.423l1.138-6.886c.514-3.074.859-6.17 1.133-9.272a54.834 54.834 0 00-.05-8.578c-.188-2.748-.339-5.5-.468-8.249-.042-.93-.022-1.862.058-2.789.42-4.922.843-9.844 1.625-14.727.334-2.085.659-4.171 1-6.256.489-3 .984-6 1.485-9 .305-1.836.615-3.669.931-5.5.041-.244.1-.485.145-.723.094-.063.195-.116.3-.159a37.471 37.471 0 004.91-1.871c.953-.411 1.9-.817 2.814-1.322a15.847 15.847 0 005.3-4.935 25.158 25.158 0 003.79-8.59c.316-1.36.538-2.74.666-4.13.036-.35.087-.7.146-1.166.156.124.299.263.427.416.662 1.063 1.339 2.118 1.958 3.206.566 1 1.056 2.032 1.595 3.043.689 1.3 1.37 2.6 2.1 3.87a27.502 27.502 0 0011.5 10.953 31.417 31.417 0 007.3 2.8c1.678.377 3.39.583 5.109.615 2.399 0 4.789-.271 7.127-.808 2.21-.439 4.435-.812 6.631-1.311a7.835 7.835 0 015.3.681c1.519.728 2.979 1.558 4.42 2.424 1.135.681 2.26 1.378 3.389 2.069a29.878 29.878 0 0010.463 4c2.54.479 5.152.411 7.663-.2a9.45 9.45 0 001.621-.554 4.026 4.026 0 002.419-4.553 8.124 8.124 0 00-1.09-2.9 12.667 12.667 0 00-2.793-3.236 28.376 28.376 0 00-5.188-3.419c-1.492-.776-2.992-1.536-4.491-2.3a48.515 48.515 0 01-9.186-6.107 107.063 107.063 0 01-9.062-8.691c-1.7-1.794-3.395-3.589-5.125-5.351a44.614 44.614 0 00-4.147-3.735 21.743 21.743 0 00-6.729-3.713 24.363 24.363 0 00-7.711-1.18 27.73 27.73 0 00-7.2 1.033c-.207.056-.416.1-.608.147-.166-.157-.058-.273.014-.389.377-.608.773-1.2 1.13-1.824a20.652 20.652 0 001.905-4.77c.559-2 1.091-4 1.54-6.03.884-3.836 1.99-7.617 3.312-11.325.763-2.2 1.447-4.42 2.206-6.617.854-2.468 1.764-4.916 2.629-7.381a46.01 46.01 0 002.312-10.021c.133-.886.162-1.784.088-2.677-.029-.248-.059-.5-.1-.743a2.908 2.908 0 00-1.195-1.97 2.902 2.902 0 00-2.254-.477 7.562 7.562 0 00-2.472.927c-.26-.094-.164-.3-.191-.456-.057-.317-.093-.637-.15-.954a7.804 7.804 0 00-4.153-5.567 12.698 12.698 0 00-4.423-1.576c-1.168-.172-2.34-.34-3.516-.43a2.58 2.58 0 01-2.14-1.209 22.324 22.324 0 00-6.339-6.029 16.5 16.5 0 00-5.076-2.256c-5.5-1.489-10.492-.285-15.048 2.961a19.137 19.137 0 00-7.617 11.454 24.578 24.578 0 00-.7 5.311 1476.78 1476.78 0 01-.189 8.155c-.021.787-.085 1.573-.144 2.358a4.296 4.296 0 01-.587 1.825c-.285.497-.575.99-.871 1.481a12.067 12.067 0 00-1.674 5.052 25.552 25.552 0 00.214 6.525c.296 1.91.696 3.802 1.2 5.668a31.26 31.26 0 002.133 5.611c.655 1.353 1.335 2.695 1.995 4.045.234.479.444.971.66 1.447-.22.2-.284-.009-.34-.086a114.36 114.36 0 01-1.424-2.018c-1.449-2.088-2.911-4.167-4.338-6.27a67.112 67.112 0 01-5-9c-.475-1-.94-2.01-1.449-3a18.882 18.882 0 00-3.208-4.546c-.175-.18-.346-.365-.534-.529a27.376 27.376 0 00-7.64-4.908c-1.556-.625-3.18-1.089-4.787-1.579a220.298 220.298 0 00-5.978-1.732c-2-.546-4.013-1.055-6.028-1.547-3.3-.805-6.619-1.55-9.915-2.382a62.937 62.937 0 01-6.407-2.146c-2.749-1.02-5.5-2.05-8.268-3a56.771 56.771 0 00-8.516-2.194 18.488 18.488 0 00-7.88.224 12.65 12.65 0 00-4.526 2.156 9.821 9.821 0 00-3.487 4.784 5.935 5.935 0 00.044 4.2 14.477 14.477 0 003.207 4.911 21.144 21.144 0 004.413 3.393 34.84 34.84 0 014.635 3.287 7.68 7.68 0 012.18 2.873 21.934 21.934 0 0012 11.535 74.887 74.887 0 007.157 2.6 37.873 37.873 0 009.4 1.6c.536.026 1.071.076 1.607.1 1.5.067 3 .124 4.5.19a5.55 5.55 0 011.769.2c-.21.169-.335.29-.478.382a44.288 44.288 0 00-5.113 3.913 59.906 59.906 0 01-8.229 6.009 40.296 40.296 0 00-6.825 5.193 22.79 22.79 0 00-6.2 10.138 25.469 25.469 0 00-.967 4.287 14.065 14.065 0 00.721 6.342 10.388 10.388 0 001.575 2.92 36.167 36.167 0 013.365 5.609 34.356 34.356 0 002.183 3.695 13.788 13.788 0 008 5.6 25.102 25.102 0 0011.8.32 48.302 48.302 0 006.597-1.832c2.366-.823 4.719-1.682 7.077-2.524a52.663 52.663 0 015.528-1.731 21.167 21.167 0 017.248-.447c1.387.154 2.775.313 4.159.5 3.449.436 6.945.331 10.362-.311.241-.044.485-.075.8-.124.011.189.009.378-.006.567-.5 3.074-1.016 6.145-1.513 9.219-.422 2.615-.779 5.241-1.246 7.847-.79 4.409-1.358 8.845-1.788 13.3-.178 1.853-.357 3.707-.476 5.564a40.941 40.941 0 00.066 5.148c.161 2.607.339 5.212.5 7.819a42.656 42.656 0 01-.031 5.255c-.209 3.327-.61 6.63-1.139 9.918a935.902 935.902 0 01-1.82 10.909c-.6 3.492-1.227 6.979-1.837 10.469-.129.74-.223 1.487-.348 2.228-.465 2.753-.939 5.5-1.4 8.257a66.894 66.894 0 00-.366 2.443c-.821 6.319-1.616 12.641-2.459 18.958-.6 4.47-1.275 8.929-1.883 13.4a2434.182 2434.182 0 00-2.482 18.63 44578.112 44578.112 0 00-7.381 57.85c-.83 6.533-1.63 13.071-2.4 19.614a868.15 868.15 0 00-1.51 13.663c-.525 5.092-.975 10.191-1.5 15.283-.4 3.952-.875 7.9-1.307 11.848-.1.96-.161 1.926-.267 2.886-.059.53-.184 1.053-.262 1.581-.062.388-.102.779-.121 1.171a.576.576 0 00.451.608zM845.828 91.07l.058-.051a2.606 2.606 0 00-.861-.929 50.047 50.047 0 00-8.185-5.861 37.388 37.388 0 00-7.328-3.276l-2.349-.764a7.74 7.74 0 012.23-1.29c2.933.46 5.82 1.18 8.626 2.151a77.225 77.225 0 0112.794 5.751 105.464 105.464 0 0115.112 10.357c.639.518 1.281 1.033 1.924 1.545.1.083.216.169.349 0-.1-.1-.2-.207-.305-.3-1.1-.916-2.185-1.848-3.3-2.739a94.414 94.414 0 00-20.665-12.746 59.109 59.109 0 00-9.075-3.256c-1.245-.322-2.5-.59-3.756-.891a1.442 1.442 0 01-.914-.375c.181-.118.317-.218.463-.3.146-.082.32-.152.5-.235.6.033 1.211.042 1.815.1 2.778.264 5.533.733 8.242 1.404a46.72 46.72 0 016.9 2.337 64.223 64.223 0 0110.471 5.849c2.94 1.977 5.758 4.12 8.586 6.251 3.055 2.303 6.122 4.59 9.2 6.864.891.655 1.848 1.22 2.782 1.816.189.07.386.117.587.14-1.168-.813-2.186-1.478-3.157-2.2a1675.226 1675.226 0 01-10.365-7.816 130.77 130.77 0 00-10.904-7.627 49.712 49.712 0 00-17.7-6.822c-1.481-.25-2.978-.4-4.468-.6-.311-.042-.62-.092-.93-.138a10.023 10.023 0 013.281-.194c1.854.132 3.7.391 5.544.622.673.084 1.337.24 2 .366.738.139 1.474.282 2.211.423l-.025.024c-.051-.219-.237-.239-.409-.278-1.011-.228-2.022-.459-3.034-.682a32.443 32.443 0 00-6.7-.818 3.373 3.373 0 01-1.325-.2c.513-.091.855-.166 1.2-.211a32.56 32.56 0 018.77.047c.743.105 1.475.28 2.215.409 2.184.382 4.333.94 6.427 1.668a.93.93 0 00.788.064c-.4-.163-.739-.32-1.094-.446a44.834 44.834 0 00-9.072-2.132 28.486 28.486 0 00-4.175-.256 37.29 37.29 0 00-4.276.31c-.23.005-.46-.01-.687-.043l2.07-2.027a.845.845 0 01.157-.146 4.04 4.04 0 01.668-.325 46.507 46.507 0 012.165-.625 25.228 25.228 0 0110.954-.489 20.13 20.13 0 017.261 2.8 30.353 30.353 0 013.983 3.087c2.162 1.938 4.149 4.048 6.128 6.168 2.712 2.9 5.471 5.761 8.435 8.413a52.31 52.31 0 0011.134 7.8c1.53.778 3.065 1.546 4.591 2.334a27.238 27.238 0 015.1 3.35 11.15 11.15 0 012.57 3c.061.107.195.224.041.363-1.041-.56-2.067-1.141-3.119-1.669a13.756 13.756 0 00-3.226-1.338 57.216 57.216 0 016.843 3.828c.341.596.474 1.289.378 1.969-.233-.128-.445-.229-.641-.357-1.108-.722-2.2-1.47-3.322-2.172a44.965 44.965 0 00-6.546-3.433.782.782 0 00-.678-.078c.99.49 1.945.94 2.878 1.432a63.54 63.54 0 012.9 1.62 64.093 64.093 0 012.719 1.72 27.605 27.605 0 012.7 1.907 2.64 2.64 0 01-1.46 2.159 8.066 8.066 0 01-1.79.7c-2.331.6-4.763.687-7.131.255a27.61 27.61 0 01-9.262-3.265c-1.243-.709-2.459-1.464-3.683-2.2a49.894 49.894 0 00-5.342-2.97 7.851 7.851 0 01-1.625-1.025 562.974 562.974 0 00-5.964-4.567c-.249-.189-.473-.451-.828-.46l-.038.033c.143.358.495.5.768.709 1.576 1.236 3.162 2.459 4.742 3.689.22.171.426.361.658.558-.114.061-.174.122-.222.114a9.933 9.933 0 00-3.411.187c-2.563.491-5.131.963-7.687 1.487a25.302 25.302 0 01-6.717.541 24.963 24.963 0 01-3.509-.439 29.997 29.997 0 01-8.371-3.244 26.248 26.248 0 01-10.2-9.885c-.829-1.42-1.58-2.886-2.362-4.334-.713-1.322-1.375-2.674-2.141-3.965-.711-1.2-1.515-2.342-2.3-3.491a1.568 1.568 0 01-.267-1.484l3.281-1.287c.261.082.468.137.668.212a40.737 40.737 0 018.121 4.329 67.239 67.239 0 0113.6 12.236 77.523 77.523 0 015.1 6.5c.081.117.127.326.384.274a1.474 1.474 0 00-.109-.309c-.349-.541-.685-1.093-1.065-1.612a75.142 75.142 0 00-12.576-13.6 48.788 48.788 0 00-13.061-8.131c-.083-.033-.137-.141-.264-.28.167-.077.343-.131.524-.163.178.01.353.045.521.105 2.423.63 4.78 1.493 7.038 2.576a50.782 50.782 0 0110.973 7.262c.267.226.565.42.848.631zm-71.191-57.031l.068-.056a6.08 6.08 0 00-1.272-1.279c-.191-.187-.379-.377-.723-.719.455.088.7.113.93.184a20.966 20.966 0 015.445 2.493c.746.492 1.482 1 2.219 1.508a16.364 16.364 0 014.541 4.806 39.872 39.872 0 012.311 4.482 65.992 65.992 0 005.347 9.541c2.1 3.031 4.228 6.041 6.34 9.064.127.183.364.327.313.6-.071.024-.109.052-.135.043a3.3 3.3 0 01-2.015-1.485c-.189-.343-.439-.652-.657-.98a3188.938 3188.938 0 00-3.808-5.722c-.094-.14-.147-.369-.477-.355.141.253.237.443.35.623.913 1.456 1.831 2.908 2.74 4.365.08.127.254.272.005.462-.233-.271-.474-.532-.694-.811a168.406 168.406 0 01-10.124-14.139 7.19 7.19 0 00-.455-.584l-.091.066c.082.233.183.458.3.675.942 1.477 1.867 2.965 2.852 4.412 1.208 1.772 2.47 3.507 3.7 5.262.075.108.28.221.069.442-.256-.272-.507-.523-.74-.79-.848-.968-1.688-1.943-2.536-2.911-.075-.087-.16-.241-.324-.049.124.17.248.344.377.513a36.321 36.321 0 00.871 1.09c.136.165.274.33.412.494.161.191.322.383.486.572.14.163.283.323.424.484l.5.563c.141.161.282.323.425.483.143.16.287.318.432.477l.505.555c.144.159.285.32.43.478.145.158.294.313.439.471.17.183.339.368.508.552.145.158.29.316.437.473.17.183.351.358.509.551.115.141.326.244.263.57a5.62 5.62 0 01-.456-.329c-.772-.691-1.55-1.375-2.3-2.085a19.69 19.69 0 01-1.415-1.46c-3.472-4.043-7.074-7.964-10.933-11.642a75.01 75.01 0 00-7.246-6.2 2.1 2.1 0 00-.906-.545l-.058.051c.2.193.4.4.612.576 1.485 1.234 3.012 2.421 4.456 3.7a137.456 137.456 0 0112.692 13.1c.083.1.152.205.376.51a9.538 9.538 0 01-1.454-.9 12.852 12.852 0 00-3.418-1.771 7.72 7.72 0 01-2.151-1.172 197.548 197.548 0 00-11.1-7.523 129.16 129.16 0 00-28.61-13.567 3.872 3.872 0 00-.667-.089c.076.074.1.11.128.122.938.344 1.877.687 2.816 1.028a132.141 132.141 0 0124.103 11.616 192.6 192.6 0 0112.315 8.215c.2.145.522.225.513.571-1.1-.1-2.167-.237-3.237-.284a4.611 4.611 0 01-1.942-.527 139.933 139.933 0 00-11.414-5.2 130.17 130.17 0 00-11.625-4.114c-2.4-.717-4.82-1.354-7.242-1.984-1.487-.386-2.993-.7-4.495-1.027-.415-.09-.845-.112-1.269-.165 4.02 1.01 8.029 2.025 11.988 3.227a139.528 139.528 0 0115.98 5.921 84.022 84.022 0 017.719 3.71c.013.007 0 .065-.006.1a2.085 2.085 0 01-1.626-.074 115.23 115.23 0 00-13.814-3.55c-2.638-.511-5.313-.758-7.98-1.059-.097-.004-.194 0-.29.013 3.659.527 7.3 1.071 10.893 1.906 3.625.814 7.205 1.816 10.727 3a.865.865 0 01-.472.085c-.422-.075-.84-.175-1.258-.273-2.333-.545-4.665-1.1-7-1.633-.382-.088-.778-.122-1.168-.174-.354-.048-.71-.093-1.066-.129a3.163 3.163 0 00-1.068-.018c.844.172 1.7.259 2.538.428 2.594.52 5.156 1.18 7.714 1.854.07.019.116.128.223.253-.37.111-.67.206-.973.29a26.116 26.116 0 00-5.092 1.983c-1.205.629-2.378 1.319-3.566 1.98-.279.156-.561.307-.8.436-1.171-.043-2.279-.081-3.387-.127a929.49 929.49 0 01-4.609-.2c-.679-.032-1.356-.093-2.035-.128a34.987 34.987 0 01-8.539-1.522c-2.394-.739-4.736-1.625-7.059-2.558a22.319 22.319 0 01-9.256-7.109c-.171-.216-.3-.464-.517-.8.218.016.435.045.65.085 1.21.317 2.417.648 3.627.963a15.49 15.49 0 003.808.5c-2.877-.52-5.674-1.336-8.437-2.109-.585-.822-.585-.822-.7-1.439.108.018.211.03.311.054 1.564.38 3.126.764 4.69 1.142.833.2 1.673.38 2.5.6a30.9 30.9 0 003.809.632c.14.006.28-.001.418-.02a1.475 1.475 0 00-.571-.219c-1.264-.249-2.537-.453-3.789-.75-2.3-.544-4.582-1.137-6.869-1.72-.341-.087-.667-.231-.941-.328-.107-.209-.185-.331-.235-.464a8.24 8.24 0 00-2.725-3.517 36.729 36.729 0 00-4.392-3.074 21.407 21.407 0 01-4.035-3.009 13.264 13.264 0 01-3.129-4.447 9.942 9.942 0 01-.526-1.738 2.374 2.374 0 01.14-1.494c.213.027.386.041.556.072 1.231.226 2.464.447 3.692.684 2.493.483 4.986.964 7.473 1.469.91.185 1.808.427 2.708.659 1.211.312 2.418.644 3.629.955a4.9 4.9 0 00.677.078 6.207 6.207 0 00-1.294-.529c-3.015-.913-6.087-1.6-9.168-2.242-2.487-.515-4.992-.942-7.487-1.418a3.976 3.976 0 01-.631-.224.455.455 0 01-.008-.39 8.82 8.82 0 012.765-4.014 11.967 11.967 0 014.552-2.329 5.313 5.313 0 013.573-.031 98.189 98.189 0 019.079 2.554 92.092 92.092 0 0117.079 7.432c.12.055.245.1.373.132a.955.955 0 00-.408-.45c-.646-.381-1.29-.768-1.952-1.122a98.768 98.768 0 00-20.537-8.024l-3.194-.878a.928.928 0 01.511-.119c1.324.018 2.643.166 3.938.44a58.375 58.375 0 017.567 2c2.473.834 4.918 1.752 7.361 2.67a77.715 77.715 0 008.657 2.847c2.743.678 5.5 1.31 8.254 1.936 2.652.6 5.276 1.306 7.891 2.05a7.72 7.72 0 012.393 1.16 55.726 55.726 0 017.952 6.862c.186.193.334.446.647.53-.016-.088-.008-.159-.039-.2a51.147 51.147 0 00-8.118-7.37 1.04 1.04 0 01.282-.052 5.45 5.45 0 012.676 1.269c.525.485 1.089.927 1.644 1.379.171.128.348.246.532.355zm3.221 52.135c.359-.145.495-.5.7-.779a194.844 194.844 0 016.48-8.422 74.59 74.59 0 016.8-7.448 22.158 22.158 0 015.036-3.63 5.607 5.607 0 011.459-.593c.338.3.87.337 1.228.767-.284.273-.536.523-.8.765a61.346 61.346 0 00-4.444 4.512 50.728 50.728 0 00-4.828 6.3c-.088.139-.317.27-.112.5.579-.786 1.132-1.578 1.728-2.336a84.762 84.762 0 012.579-3.16 87.053 87.053 0 012.763-3c.518-.543 1.081-1.043 1.626-1.561a.186.186 0 01.094-.047c.021 0 .047.024.07.037.008.032.034.076.021.1-.14.2-.275.414-.431.607a69.749 69.749 0 00-5.206 7.354 49.628 49.628 0 00-5.677 12.339 3.899 3.899 0 00-.2.832c-.015.287-.366.5-.14.878.124-.3.242-.561.337-.827.528-1.481 1-2.984 1.585-4.441a59.163 59.163 0 016.329-11.431 63.304 63.304 0 015.03-6.417 1.34 1.34 0 01.834-.607c.778.309 1.534.67 2.264 1.08-.148.21-.258.389-.391.55a23.935 23.935 0 00-2.386 3.562 44.544 44.544 0 00-4.703 13.839c-.377 2.04-.592 4.109-.868 6.167-.235 1.738-.268 3.493-.356 5.242-.03.587.025 1.179.041 1.769.142-.405.217-.83.222-1.259.012-1.571.112-3.14.3-4.7.156-1.998.43-3.986.82-5.952.346-1.755.694-3.506 1.136-5.24a41.06 41.06 0 013.637-9.38 22.578 22.578 0 012.358-3.581 2.78 2.78 0 01.83-.825c.145.022.289.053.43.094 1.311.474 2.609.989 3.935 1.419a2.894 2.894 0 011.724 1.5 10.135 10.135 0 011.185 3.986 14.223 14.223 0 01-.354 5 8.732 8.732 0 00-.138 1.044c.21-.528.353-.818.439-1.124a8.29 8.29 0 00.175-.949c.058-.353.117-.706.161-1.061.039-.32.067-.641.084-.963.018-.32.022-.642.022-.963 0-.321 0-.645-.019-.965a9.065 9.065 0 00-.13-.957c-.058-.316-.134-.63-.219-.94a15.78 15.78 0 00-.318-1.025c-.107-.3-.248-.594-.361-.9-.1-.277-.364-.5-.364-.837.486-.068.8.22 1.175.322a3.88 3.88 0 012.095 1.577 16.877 16.877 0 013.044 7.031c.309 1.656.354 3.352.131 5.022a13.717 13.717 0 01-.926 3.63c-.089.209-.245.433-.04.737.153-.321.3-.6.423-.894a15.153 15.153 0 001-7.263 16.557 16.557 0 00-2.949-8.075c-.1-.149-.3-.278-.228-.511a.413.413 0 01.13-.007c.099.037.197.08.291.129a14.081 14.081 0 013.917 3.137 9.077 9.077 0 011.676 2.607 16.652 16.652 0 011.31 5.29 24.437 24.437 0 01-1.332 9.826 23.327 23.327 0 01-3.47 6.627 11.847 11.847 0 01-6.563 4.39 26.56 26.56 0 01-1.672.377c-1.8.306-3.631.396-5.453.268a20.742 20.742 0 01-6.611-1.278c-2.534-.982-5.079-1.935-7.611-2.922a29.317 29.317 0 00-6.271-1.827 19.366 19.366 0 00-8.4.517 14.996 14.996 0 00-8.138 5.643c-.422.577-.819 1.173-1.221 1.765-.522.771-1.006 1.569-1.563 2.312a47.557 47.557 0 01-2.156 2.671 6.207 6.207 0 01-2.871 1.814c-.511.163-1.032.3-1.553.421a1.521 1.521 0 01-.44-.049c.207-.663.47-1.306.787-1.924.266-.586.537-1.17.823-1.747.3-.609.615-1.212.935-1.812.32-.6.642-1.2.983-1.786.323-.556.677-1.095 1.008-1.647.4-.538.746-1.114 1.031-1.72a.879.879 0 00-.376.292c-.457.641-.93 1.271-1.347 1.937a56.618 56.618 0 00-3.969 7.6c-.139.322-.3.636-.441.938-.91.108-1.831.098-2.739-.03a20.54 20.54 0 01-4.549-1.227 11.867 11.867 0 01-5.175-3.875 24.138 24.138 0 01-1.282-1.854 44.989 44.989 0 01-2.251-4.14c.178-.237.323-.441.477-.636.178-.225.364-.443.547-.663l.482-.576.486-.574c.186-.217.372-.435.56-.651.166-.188.335-.373.5-.559l.5-.558c.169-.185.337-.371.508-.554.2-.21.393-.417.589-.625.173-.182.344-.365.518-.545.174-.18.35-.359.526-.537.2-.205.4-.41.6-.612.177-.178.353-.355.533-.53.18-.175.361-.347.542-.521.206-.2.409-.4.617-.6.182-.173.369-.34.553-.509.184-.169.367-.342.553-.51a71.804 71.804 0 011.782-1.551c.191-.162.382-.325.576-.484.221-.181.444-.361.669-.539l.593-.461c.198-.153.4-.307.595-.459.228-.174.461-.341.682-.523a1.148 1.148 0 00.556-.736 39.654 39.654 0 00-3.413 2.517 77.453 77.453 0 00-3.012 2.589 79.19 79.19 0 00-2.933 2.836c-.929.944-1.818 1.926-2.719 2.9-.92.99-1.728 2.08-2.715 3.118-.564-.772-.991-1.54-1.475-2.338.398-.462.828-.897 1.285-1.3.441-.42.884-.838 1.328-1.253.42-.39.841-.778 1.268-1.159.455-.4.91-.809 1.378-1.2.468-.391.953-.757 1.429-1.137.476-.38.963-.693 1.41-1.1-.077-.058-.116-.1-.129-.095a5.957 5.957 0 00-.653.358 39.945 39.945 0 00-4.2 3.346c-.978.893-1.942 1.8-2.917 2.7-.151.14-.28.337-.595.294-.084-.1-.206-.223-.311-.361a12.123 12.123 0 01-2.369-8.489c.103-1.07.296-2.128.579-3.164a22.764 22.764 0 017.519-12.224 47.981 47.981 0 016.094-4.388 53.315 53.315 0 007.03-5.106 51.943 51.943 0 016.667-5.057 63.506 63.506 0 016.076-3.439 23.337 23.337 0 0112.711-2.335c2.252.216 4.429.924 6.378 2.073a20.783 20.783 0 015.267 4.528c.083.131.154.27.213.413-.395-.049-.677-.079-.957-.121a51.58 51.58 0 00-7.913-.6 43.101 43.101 0 00-11.539 1.617c-.447.126-.88.3-1.314.464-.137.052-.318.09-.322.314.958-.246 1.887-.489 2.818-.724a45.219 45.219 0 0114.058-1.134c1.568.1 3.127.372 4.688.578.283.046.56.117.83.213.199.095.391.206.572.331a40.767 40.767 0 00-12.266.819 50.962 50.962 0 00-11.48 3.813c-3.13 1.5-8.775 5.388-10.036 6.97.5-.359.845-.6 1.184-.847 1.247-.9 2.482-1.823 3.742-2.706a34.323 34.323 0 015.87-3.341 49.817 49.817 0 0119.107-4.425 21.759 21.759 0 014.694.31c.316.161.598.383.828.653a2.464 2.464 0 01-.361.143 29.984 29.984 0 00-7.65 2.754 51.898 51.898 0 00-10.939 7.341c-1.108.961-2.158 1.987-3.227 2.992-.1.094-.305.2-.132.4 1.22-1.062 2.42-2.136 3.652-3.171a53.796 53.796 0 0111.1-7.3 31.674 31.674 0 016.01-2.279c.145-.037.308-.141.412.031-1.314.586-2.638 1.13-3.92 1.76a44.03 44.03 0 00-10.4 7.349 111.031 111.031 0 00-11.12 11.932c-1.57 1.951-3.089 3.944-4.62 5.925-.212.274-.524.5-.506.912l-.009-.012c.145-.089.28-.195.4-.315.561-.7 1.108-1.4 1.658-2.109a137.873 137.873 0 0110.29-11.952 73.715 73.715 0 018.109-7.349 38.067 38.067 0 0110.82-5.834c.539-.181 1.089-.332 1.571-.478.396.132.761.343 1.073.62a1.59 1.59 0 01-.277.238 24.312 24.312 0 00-6.926 5.184 123.11 123.11 0 00-12.312 15.278 2.552 2.552 0 00-.208.481l.034.046zm32.71-16.888c-.2-.529-.367-.961-.521-1.4a205.076 205.076 0 01-5.208-17.259c-1.147-4.546-1.982-9.157-2.813-13.769a2.19 2.19 0 00-.256-.943.905.905 0 00-.052.241c.047.462.09.924.156 1.383a138.617 138.617 0 002.444 12.748c1.435 5.916 3.185 11.74 5.184 17.489.177.373.284.775.318 1.187a10.154 10.154 0 01-2.183-.765 90.293 90.293 0 01-7.821-18.007.534.534 0 00-.112.56c.209.721.4 1.448.64 2.16a84.897 84.897 0 005.967 13.89c.168.308.315.627.469.935-.082.051-.119.091-.139.084-1.144-.395-2.292-.782-3.429-1.2a2.011 2.011 0 01-1.064-1.155c-.136-.291-.234-.6-.341-.9a38.913 38.913 0 00-1.94-4.537c-.578-1.152-1.159-2.3-1.713-3.465a36.975 36.975 0 01-3.542-15.035 12.434 12.434 0 011.773-7.089c1.447-2.327 1.442-2.266 1.619-5.339.011-.179.019-.358.023-.537.057-2.718.114-5.436.169-8.154.034-1.753.261-3.497.677-5.2a18.444 18.444 0 018.072-11.47 17.2 17.2 0 018.456-2.818 2.367 2.367 0 011.207.109c.02.202.028.404.023.607-.1 1.32-.211 2.639-.308 3.958-.127 1.748-.255 3.5-.359 5.246-.036.6-.009 1.215.006 1.823 0 .067.11.131.216.251.079-1.07.156-2.059.225-3.05.066-.963.12-1.927.187-2.89.07-1 .128-2 .23-2.995.034-1.01.163-2.014.384-3 .253-.021.508-.021.761 0 .669.115 1.338.243 2 .4a16.123 16.123 0 015.3 2.256 28.123 28.123 0 013.458 2.717c.208.194.4.4.616.618a75.458 75.458 0 011.448 12.235c.111-.45.177-.91.195-1.374a48.837 48.837 0 00-.134-2.784 67.922 67.922 0 00-.763-6.389 1.304 1.304 0 01-.02-.878c.837.82 1.36 1.852 2.127 2.643.052.255.1.463.134.675.293 2.126.447 4.269.461 6.415.009 1.608-.051 3.217-.122 4.824-.053 1.178-.177 2.352-.263 3.529.021.17.058.337.111.5a32.64 32.64 0 00.514-4.013c.1-1.245.118-2.5.125-3.75a105.73 105.73 0 00-.069-3.86c-.039-1.286-.257-2.544-.3-3.8.125-.049.192-.1.253-.1 1.529.174 3.062.319 4.584.545.777.123 1.541.319 2.281.586a5.83 5.83 0 012.248 1.208c-.044 1.056-.067 2.091-.137 3.123a27.029 27.029 0 00-.227 3.035c.165-.62.292-1.249.379-1.884.092-.673.121-1.355.22-2.027.091-.62.035-1.259.189-1.89a5.972 5.972 0 012.929 6.212 16.095 16.095 0 00-4.225 1.725c-1.353.791-2.643 1.688-4.007 2.569.041-.322.062-.6.112-.865.167-.913.351-1.823.512-2.737a2.853 2.853 0 00-.01-.562c-.413 1.6-.77 3.2-1.28 4.713-.927.919-1.838 1.779-2.7 2.687a71.157 71.157 0 00-2.5 2.8c-.811.95-1.6 1.925-2.368 2.917-.768.992-1.515 2-2.212 3.035a50.397 50.397 0 00-1.967 3.2c-.62 1.088-1.169 2.193-1.862 3.5 0-1.351 0-2.457.01-3.563.006-1.073.036-2.146.027-3.219.05-1.074.016-2.15-.1-3.219a12.72 12.72 0 00-.239 2.439c-.009.966-.029 1.931-.049 2.9-.036 1.717-.089 3.434-.105 5.151.001.5-.084.996-.25 1.468a39.702 39.702 0 00-2.027 8.984c-.039.346-.107.689-.162 1.033a1.316 1.316 0 01-.209-.622c-.345-2.95-.625-5.906-.735-8.874-.093-2.5-.152-5.006-.193-7.51-.06-3.576-.078-7.154-.141-10.73a9.64 9.64 0 00-.219-2.736c-.039.311-.071.45-.072.59-.018 2.468-.052 4.936-.041 7.4.013 2.9.073 5.8.1 8.692.039 4.118.324 8.219.72 12.316.248 2.562.7 5.1.8 7.679.131 3.357.344 6.712.468 10.069a31.725 31.725 0 01-.144 3.32 4.438 4.438 0 01-.491 1.737 1.084 1.084 0 01-.44-1.071 68.332 68.332 0 00-.374-6.963 7482.377 7482.377 0 00-1.72-16.327 6.539 6.539 0 00-.144-.679c-.084.999-.072 2.003.036 3 .341 3.524.689 7.048 1.044 10.571.291 2.848.556 5.7.663 8.558.047.493.029.991-.053 1.48-.371-.075-.479-.375-.68-.561-.235-.217-.44-.466-.7-.74-.292-1.4-.593-2.839-.889-4.274a135.058 135.058 0 01-2.361-15.806c-.215-2.53-.437-5.059-.649-7.59a3.473 3.473 0 00-.271-1.144c-.006.431-.019.608-.009.784.108 1.784.211 3.569.33 5.353a126.08 126.08 0 001.8 14.8c.4 2.145.839 4.282 1.255 6.424.043.224.18.457.009.7-.075-.058-.155-.089-.178-.144a5.18 5.18 0 01-.212-.605c-1.1-4.111-2.2-8.225-3.091-12.389-.075-.352-.156-.7-.235-1.054a.95.95 0 00-.065.537 68.371 68.371 0 001.474 7.141c.426 1.737.885 3.466 1.317 5.2.044.177.211.391-.064.588-.17-.1-.354-.21-.532-.326-.178-.116-.351-.242-.546-.378-.1-.34-.208-.679-.3-1.024a240.755 240.755 0 01-3.755-16.643 183.793 183.793 0 01-3.235-27.148 82.697 82.697 0 01.427-13.07c.026-.21.012-.425.017-.637a7.925 7.925 0 00-.495 2.311 66.955 66.955 0 00-.43 9.643c.075 4.581.416 9.147.93 13.7.87 7.68 2.159 15.306 3.863 22.845.669 2.966 1.423 5.913 2.128 8.871.052.22.247.455.007.728l-3.255-1.414zm10.692 10.327a2.62 2.62 0 01.333-.229 7.22 7.22 0 002.618-2.171 11.947 11.947 0 002.426-5.774c.226-1.56.256-3.141.089-4.708a49.553 49.553 0 00-.857-5.292c-.495-2.491-.933-4.991-1.2-7.518a47.107 47.107 0 01-.095-8.142c.072-.711.187-1.417.342-2.115.29-1.292.683-2.558 1.175-3.787a19.313 19.313 0 012.576-4.926 77.916 77.916 0 016.411-7.639 29.586 29.586 0 016.437-4.967 15.997 15.997 0 013.518-1.574 7.624 7.624 0 001.938-.892 5.896 5.896 0 011.957-.853 2.207 2.207 0 012.9 2.029c.015.106.023.214.022.321-.017.749.012 1.5-.067 2.247a46.978 46.978 0 01-2.594 10.934c-.906 2.524-1.82 5.045-2.695 7.579-.736 2.128-1.394 4.284-2.137 6.41a102.385 102.385 0 00-3.3 11.654 69.046 69.046 0 01-1.562 5.909 18.618 18.618 0 01-8.227 10.612 54.04 54.04 0 01-6.765 3.518c-.72.313-1.476.541-2.221.791a3.702 3.702 0 01-.629.1 3.264 3.264 0 01-.393-1.522v.005zm-62.034 33.85c1.336-.988 2.5-2.19 3.445-3.557.66-.89 1.27-1.816 1.9-2.728.528-.764 1.034-1.546 1.585-2.294a13.518 13.518 0 013.64-3.448 16.68 16.68 0 019.6-2.529 22.42 22.42 0 017.814 1.73c3.148 1.268 6.3 2.534 9.522 3.605a24.703 24.703 0 009.077 1.3c.201.012.402.037.6.073-.557.2-.885.329-1.222.431a32.273 32.273 0 01-13.154 1.14c-1.314-.152-2.629-.3-3.941-.476a21.435 21.435 0 00-8.816.642c-1.853.535-3.68 1.166-5.5 1.794-2.129.733-4.236 1.532-6.366 2.263a46.872 46.872 0 01-7.036 1.886c-.38.061-.765.107-1.148.163v.005zm61.966-34.935c.122-.47.189-.741.264-1.01.426-1.481.61-3.021.546-4.561-.173-3.466-.492-6.919-.818-10.373a42.307 42.307 0 01.153-10.275c.121-.813.3-1.618.451-2.426a30.367 30.367 0 012.505-7.621c.115-.237.257-.461.422-.754.017.097.019.196.008.294a15.914 15.914 0 00-.939 4.391 42.124 42.124 0 00.038 7.715c.24 2.6.7 5.172 1.191 7.737.274 1.44.547 2.882.737 4.335.366 2.305.255 4.66-.326 6.92a10.391 10.391 0 01-2.643 4.6c-.436.469-.982.82-1.589 1.023v.005z" fill="url(#paint0_linear)"/><path opacity=".8" d="M171.373 371.108c.026 1.068.039 2.137.031 3.2-.062 8.21-.461 16.407-1.108 24.589a684.495 684.495 0 01-1.563 16.859c-.471 4.519-1.044 9.028-1.632 13.533a457.311 457.311 0 01-1.576 10.925 603.327 603.327 0 01-1.879 11.405 573.426 573.426 0 01-2.233 12.062 594.43 594.43 0 01-2.668 12.748c-2.111 9.555-4.422 19.062-7.076 28.482a684.201 684.201 0 01-3.457 11.916 490.18 490.18 0 01-3.321 10.527 373.854 373.854 0 01-3.07 9.02c-1.32 3.7-2.644 7.4-4.077 11.064a470.136 470.136 0 01-5.3 12.964c-3 7.067-6.325 13.978-9.974 20.735a156.68 156.68 0 01-12.031 19.215 81.28 81.28 0 01-8.557 10.051 58.768 58.768 0 01-5.474 4.772 36.328 36.328 0 01-4.51 2.922c-.111.061-.22.124-.334.176a.677.677 0 01-1.051-.53 31.08 31.08 0 01-.508-5.3 95.628 95.628 0 01.942-14.389c.362-2.791.763-5.579 1.242-8.352.676-3.9 1.38-7.807 2.184-11.687.915-4.42 1.907-8.826 2.948-13.218a655.148 655.148 0 013.427-13.735c1.04-4 2.157-7.987 3.256-11.975.535-1.941 1.1-3.874 1.66-5.807.696-2.385 1.4-4.768 2.112-7.149.6-2.019 1.21-4.036 1.831-6.051.69-2.239 1.39-4.475 2.1-6.709.648-2.054 1.294-4.109 1.957-6.159.721-2.229 1.458-4.453 2.193-6.678.685-2.075 1.368-4.151 2.07-6.221.848-2.5 1.712-5 2.575-7.494.808-2.333 1.613-4.666 2.441-6.991 1.044-2.933 2.101-5.862 3.17-8.785 1.209-3.307 2.414-6.617 3.662-9.91 1.695-4.467 3.413-8.926 5.154-13.379 1.706-4.347 3.421-8.691 5.208-13 2.37-5.723 4.781-11.428 7.234-17.116a566.806 566.806 0 0110.866-23.709c3.379-6.96 6.867-13.863 10.7-20.587.568-1 1.16-1.98 1.75-2.964.1-.164.174-.384.548-.378.064.367.11.737.138 1.108zm-63.538 231.427a132.67 132.67 0 009.53-13.93 222.736 222.736 0 0010.73-20.3c2.259-4.812 4.4-9.675 6.375-14.611a561.402 561.402 0 005-12.984c1.207-3.241 2.337-6.512 3.443-9.789a496.213 496.213 0 003.412-10.5 539.855 539.855 0 003.042-10.121c3.347-11.482 6.25-23.078 8.809-34.76a555.144 555.144 0 002.319-11.134 728.714 728.714 0 002.233-11.919 487.757 487.757 0 001.664-9.815 511.813 511.813 0 001.48-9.939c.474-3.364.944-6.728 1.34-10.1.536-4.56 1.052-9.123 1.481-13.693.468-4.978.892-9.961 1.216-14.949.338-5.192.547-10.393.788-15.591.1-2.136.135-4.274.2-6.411a1.318 1.318 0 00-.085-.549c-.093.149-.192.3-.278.45a406.823 406.823 0 00-9.047 17.09c-3.842 7.679-7.469 15.459-10.964 23.3a759.809 759.809 0 00-8.69 20.291 1298.566 1298.566 0 00-5.859 14.522c-1.71 4.329-3.357 8.682-5.012 13.031a834.665 834.665 0 00-3.484 9.323 852.255 852.255 0 00-2.851 7.9c-1.005 2.814-2.001 5.63-2.99 8.449-.758 2.167-1.5 4.341-2.234 6.514a1969.45 1969.45 0 00-2.356 6.972c-.609 1.819-1.2 3.644-1.8 5.468-.644 1.973-1.284 3.947-1.92 5.923a575.606 575.606 0 00-1.606 5.084c-.605 1.933-1.205 3.871-1.8 5.813a530.072 530.072 0 00-1.407 4.651c-.71 2.382-1.415 4.765-2.114 7.149a593.256 593.256 0 00-1.751 6.125c-.751 2.681-1.5 5.363-2.222 8.051-.739 2.75-1.471 5.5-2.163 8.264-1 4.013-2.021 8.024-2.938 12.058a501.111 501.111 0 00-3 14.028c-.753 3.81-1.392 7.645-2 11.481-.665 4.194-1.156 8.413-1.418 12.654a61.26 61.26 0 00-.033 8.342c.015.2.04.394.06.59h.092c.082-.455.167-.911.246-1.367.319-1.861.616-3.725.957-5.581a749.342 749.342 0 011.75-9.274c1.77-9 3.73-17.959 5.877-26.876 1.595-6.573 3.268-13.128 4.935-19.683a567.55 567.55 0 012.6-9.759c.85-3.11 1.732-6.212 2.61-9.315a1293.72 1293.72 0 012.252-7.846 839.448 839.448 0 012.519-8.459c.725-2.409 1.458-4.816 2.2-7.221.806-2.6 1.63-5.191 2.451-7.785.641-2.024 1.28-4.048 1.938-6.067.818-2.512 1.646-5.021 2.483-7.527.674-2.029 1.354-4.056 2.039-6.082.74-2.173 1.489-4.343 2.248-6.51.8-2.287 1.603-4.571 2.408-6.854a853.054 853.054 0 014.8-13.16c.953-2.548 1.916-5.092 2.889-7.632a861.33 861.33 0 013-7.688 562.293 562.293 0 013.318-8.223 841.08 841.08 0 014.877-11.559c2.536-5.875 5.154-11.713 8.024-17.435.1-.193.136-.468.442-.456.225.178.1.351.025.518-.5 1.087-1 2.169-1.489 3.26-2.271 5.081-4.564 10.152-6.8 15.249-1.47 3.355-2.873 6.74-4.264 10.128-1.374 3.345-2.71 6.7-4.037 10.069a785.41 785.41 0 00-3.543 9.149c-1 2.63-1.977 5.27-2.949 7.911-1.053 2.863-2.095 5.73-3.128 8.6a754.862 754.862 0 00-2.7 7.7c-.97 2.792-1.931 5.587-2.884 8.386-.808 2.383-1.595 4.773-2.383 7.163-.861 2.613-1.722 5.227-2.565 7.846-.794 2.47-1.569 4.947-2.345 7.423-.72 2.296-1.435 4.594-2.144 6.893-.494 1.608-.967 3.223-1.45 4.835-.5 1.658-1 3.314-1.488 4.973-.562 1.9-1.12 3.8-1.673 5.7-.642 2.221-1.277 4.444-1.906 6.669-.467 1.65-.927 3.302-1.38 4.956-.836 3.067-1.667 6.133-2.492 9.2-.694 2.6-1.375 5.202-2.044 7.807a825.93 825.93 0 00-6.221 25.927 693.829 693.829 0 00-2.97 14.036c-.76 3.745-1.458 7.5-2.14 11.265-.533 2.94-1 5.892-1.5 8.839-.013.076-.014.154-.03.327.2-.088.349-.142.487-.218a36.821 36.821 0 005.072-3.439 58.444 58.444 0 007.123-6.8c.321-.366.606-.763.851-1.185 2.391-4.034 4.531-8.2 6.563-12.425 2.884-6 5.54-12.093 8.012-18.268a743.28 743.28 0 005.209-13.459 441.328 441.328 0 003.53-9.758 742.66 742.66 0 003.637-10.621 604.238 604.238 0 003.042-9.329c1.108-3.476 2.197-6.958 3.267-10.446.83-2.706 1.623-5.424 2.417-8.141.939-3.216 1.868-6.435 2.788-9.656a668.213 668.213 0 002.164-7.871c.925-3.433 1.858-6.863 2.742-10.307 1.2-4.677 2.366-9.364 3.532-14.05 1.919-7.71 3.656-15.462 5.337-23.227a702.385 702.385 0 002.336-11.227 700.8 700.8 0 001.969-10.145 630.034 630.034 0 001.649-9.147 662.206 662.206 0 001.476-8.841c.39-2.421.761-4.845 1.114-7.273.4-2.753.782-5.509 1.161-8.265.24-1.744.458-3.491.691-5.236.038-.325.119-.643.241-.947-.1 1.153-.194 2.308-.314 3.459a440.29 440.29 0 01-.589 5.342 237.706 237.706 0 01-.515 4.023 442.84 442.84 0 01-.672 4.858 553.614 553.614 0 01-.8 5.27c-.232 1.507-.464 3.015-.71 4.52a510.012 510.012 0 01-.881 5.21c-.36 2.076-.727 4.151-1.1 6.225a273.878 273.878 0 01-.873 4.685c-.933 4.706-1.854 9.415-2.827 14.113a511.19 511.19 0 01-2.463 11.3 2363.402 2363.402 0 01-4.856 20.577c-.994 4.113-2.072 8.206-3.144 12.3a746.965 746.965 0 01-2.85 10.57 1020.281 1020.281 0 01-3.253 11.487 790.535 790.535 0 01-3.134 10.537 766.792 766.792 0 01-3.082 9.911 735.265 735.265 0 01-3.076 9.466c-1 3.014-2.018 6.024-3.069 9.021-1.228 3.5-2.465 7-3.762 10.476-1.644 4.4-3.3 8.8-5.042 13.17-3.35 8.417-6.956 16.723-11.079 24.8-.694 1.358-1.42 2.7-2.131 4.049l-.239.455.076.072c.147-.178.286-.345.42-.513z" fill="url(#paint1_linear)"/><path opacity=".8" d="M152.815 430.317c-.314.731-.647 1.456-.94 2.2a2763.24 2763.24 0 00-3.877 9.869c-1.118 2.87-2.227 5.744-3.326 8.622a998.367 998.367 0 00-2.893 7.677 962.119 962.119 0 00-2.5 6.766c-.71 1.95-1.4 3.908-2.088 5.864-.638 1.808-1.279 3.616-1.9 5.43-.679 1.977-1.34 3.961-2.005 5.943-.6 1.789-1.2 3.577-1.791 5.369-.516 1.568-1.016 3.141-1.524 4.712-.522 1.615-1.052 3.229-1.569 4.846a761.956 761.956 0 00-1.62 5.127 1832.27 1832.27 0 00-1.719 5.492c-.471 1.517-.932 3.036-1.395 4.555a1420.198 1420.198 0 00-2.959 9.8 8444.62 8444.62 0 01-1.6 5.38c-.535 1.809-1.061 3.621-1.59 5.433-.586 2.008-1.17 4.017-1.753 6.025-.42 1.45-.832 2.9-1.246 4.354l-1.925 6.761c-.438 1.544-.874 3.087-1.309 4.631l-1.965 6.946a5418.386 5418.386 0 00-3.614 13 643.266 643.266 0 00-6.89 27.218 712.193 712.193 0 00-1.39 6.121.659.659 0 00.064.689c.105-.181.196-.37.273-.565.175-.555.353-1.11.491-1.675 1.05-4.277 2.071-8.561 3.137-12.835a921.837 921.837 0 013.156-12.343c1.064-4.03 2.18-8.045 3.289-12.063a1719.98 1719.98 0 012.857-10.224 5059.26 5059.26 0 015.387-18.972c.88-3.052 1.778-6.1 2.669-9.148.692-2.37 1.378-4.742 2.08-7.109.639-2.155 1.3-4.306 1.945-6.459.489-1.626.97-3.255 1.465-4.879.592-1.941 1.195-3.877 1.794-5.815.441-1.427.88-2.855 1.328-4.28.543-1.725 1.09-3.448 1.641-5.17.406-1.272.814-2.545 1.222-3.818a1348 1348 0 013.041-9.327c.595-1.79 1.195-3.579 1.8-5.366a621.298 621.298 0 013.548-10.25c.587-1.66 1.179-3.318 1.775-4.974.654-1.8 1.313-3.6 1.977-5.4.726-1.96 1.46-3.918 2.2-5.874.792-2.1 1.593-4.2 2.387-6.306.726-1.926 1.45-3.854 2.172-5.782l2.689-7.147c.348-.926.694-1.853 1.036-2.782.023-.073.041-.149.054-.225l-.089-.042z" fill="url(#paint2_linear)"/><path opacity=".8" d="M46.22 342.441a50.929 50.929 0 01-8.666 1.793c-1.03.103-2.065.153-3.1.148a46.514 46.514 0 01-6.726-.618 38.545 38.545 0 01-6.966-1.777 11.614 11.614 0 01-3.888-2.3c-.3-.276-.615-.532-.924-.8a5.965 5.965 0 00-2.538-1.308 22.364 22.364 0 00-2.176-.413 18.905 18.905 0 01-8.786-3.715 5.821 5.821 0 01-2.414-4.43 8.805 8.805 0 01.5-3.817 17.038 17.038 0 013.344-5.573 20.965 20.965 0 014.14-3.494 155.59 155.59 0 003.407-2.285 2.83 2.83 0 001.018-.935c-.18-.408-.384-.839-.562-1.28-.345-.856-.7-1.709-1.006-2.579a9.226 9.226 0 01-.458-3.5c.1-1.661.537-3.284 1.283-4.771a6.222 6.222 0 013.5-3.217c1.656-.649 3.42-.98 5.2-.975a23.458 23.458 0 015.274.592 34.333 34.333 0 017.667 2.852c1.119.569 2.207 1.2 3.313 1.795.144.077.3.248.515.014-.15-.313-.3-.642-.464-.964a17.399 17.399 0 01-1.326-3.519 9.618 9.618 0 01-.266-3.95 5.58 5.58 0 013.4-4.466c.679-.288 1.385-.51 2.107-.662a8.798 8.798 0 017.739 1.651 19.785 19.785 0 013.732 3.925 39.946 39.946 0 013.008 4.783c.12.353.33.668.61.915.1-.357.107-.734.022-1.095-.038-1.071-.128-2.141-.122-3.212a6.375 6.375 0 01.832-3.073 3.667 3.667 0 013.75-2.036 9.481 9.481 0 012.26.525 34.1 34.1 0 004.386 1.166c1.608.3 3.236.29 4.853.432 2.375.16 4.66.974 6.6 2.353a17.513 17.513 0 013.468 3.411c.148.188.235.467.584.471l.313-.431a14.494 14.494 0 014.1-3.845 21.397 21.397 0 015.239-2.358 13.778 13.778 0 016.356-.424c1.2.2 2.4.428 3.588.7 1.663.376 3.389.384 5.056.024 1.446-.3 2.9-.567 4.362-.784a15.146 15.146 0 015.4.069 14.317 14.317 0 016.849 3.675 8.028 8.028 0 012.278 3.866c.233.933.36 1.89.379 2.851-.042.382.003.769.131 1.131.176.021.353.031.53.03.885-.051 1.773-.088 2.656-.174a22.366 22.366 0 015.526.138 15.655 15.655 0 019.593 5.088 10.71 10.71 0 012.79 5.568c.062.391.171.775.254 1.141a3.04 3.04 0 001.153-.12 13.826 13.826 0 015.827.1 24.268 24.268 0 017.18 3.135 47.183 47.183 0 015.814 4.433c.993.886 1.98 1.779 2.981 2.656 2.2 1.923 4.326 3.925 6.619 5.738.459.371.893.772 1.3 1.2.306.32.585.666.832 1.034.411.578.625 1.273.609 1.982a3.294 3.294 0 01-.699 1.952 8.168 8.168 0 01-2.441 2.227 7.016 7.016 0 01-5.848.853c-.532-.155-1.066-.3-1.6-.453-1.171-.338-2.34-.683-3.513-1.014-.2-.057-.421-.162-.657.052l.43 1.284a1.937 1.937 0 01-.637 1.29 23.229 23.229 0 01-2.99 2.467 69.788 69.788 0 01-6.07 3.445 7.55 7.55 0 01-1.132.439 11.014 11.014 0 01-5.265.21 27.204 27.204 0 01-7.535-2.534c-.293-.148-.591-.286-.867-.419a22.208 22.208 0 00-4.376 5.867c.28.087.561.166.837.26a8.01 8.01 0 012.262 1.155 16.58 16.58 0 013.4 3.159 3.742 3.742 0 003.661 1.621c.952-.11 1.918-.093 2.879-.128a5.305 5.305 0 011.745.275 3.312 3.312 0 012.582 2.843c.053.454.013.914-.12 1.351a10.29 10.29 0 01-.66 1.876 9.07 9.07 0 01-.782 1.337 17.088 17.088 0 01-2.894 3.2 34.315 34.315 0 01-6.14 4.349c-3.446 1.939-6.892 3.878-10.338 5.815-1.869 1.047-3.767 2.046-5.621 3.119a32.304 32.304 0 00-7.72 6.082 24.719 24.719 0 01-9.273 6.3 37.357 37.357 0 01-9.8 2.228c-1.36.151-2.684.525-3.922 1.106a6.787 6.787 0 00-3.471 3.436c-.392.874-.716 1.781-1.023 2.689-.272.8-.471 1.633-.716 2.446a88.823 88.823 0 00-2.241 9.938c-.428 2.363-.708 4.747-.951 7.136-.254 2.5-.516 5-.636 7.507-.044.923-.122 1.844-.174 2.766-.073 1.291-.172 2.581-.2 3.874-.052 2.7-.064 5.395-.092 8.093-.005.443-.041.889 0 1.329.2 2.393.2 4.8.51 7.187.185 1.391.308 2.791.479 4.184.238 1.943.508 3.883.739 5.827.16 1.357.27 2.721.419 4.08.3 2.754.649 5.5.918 8.262.233 2.389.465 4.784.557 7.182.222 5.762.51 11.524.409 17.294-.034 2-.06 3.991-.128 5.985-.046 1.366-.19 2.728-.237 4.094-.087 2.474-.125 4.949-.2 7.424a312.8 312.8 0 01-.25 6.424c-.147 2.8-.344 5.605-.5 8.408-.13 2.249-.268 4.5-.347 6.751-.1 2.695-.15 5.393-.19 8.09-.054 3.7-.105 7.392-.106 11.088 0 3.548.072 7.1.1 10.646.04 4.805.318 9.605.219 14.413-.054 2.623.009 5.249.038 7.873.05 4.584.108 9.168.176 13.751.046 2.92.146 5.839.193 8.759.019 1.219-.033 2.439-.062 3.658a1.407 1.407 0 01-.131.363l-.426.039a1.2 1.2 0 01-.326-.99c.006-.923.054-1.847.037-2.77-.1-5.063-.27-10.124-.262-15.19.008-4.916-.111-9.832-.16-14.749-.021-2.032.02-4.065-.01-6.1-.081-5.174-.315-10.346-.271-15.523.019-2.328 0-4.657.012-6.985.01-2.44.037-4.879.055-7.318 0-.629-.01-1.257.005-1.885.052-2.18.11-4.36.175-6.539.04-1.477.057-2.957.144-4.432.159-2.692.387-5.38.54-8.072.167-2.951.305-5.903.413-8.857.072-1.921.067-3.844.113-5.765.03-1.256.083-2.511.14-3.766.1-2.288.259-4.575.32-6.864.057-2.067.06-4.137.013-6.21-.181-7.611-.31-15.226-1.245-22.8-.285-2.31-.5-4.629-.751-6.943-.111-1.029-.212-2.059-.341-3.085-.24-1.906-.5-3.809-.745-5.714-.235-1.833-.446-3.668-.7-5.5a46.538 46.538 0 01-.521-6.4c0-.961.03-1.922.012-2.883-.061-3.216-.028-6.43.187-9.641.112-1.658.216-3.319.4-4.97.225-2.023.34-4.051.387-6.081.06-2.735.063-5.471.037-8.206a55.837 55.837 0 00-.516-8.182 25.937 25.937 0 00-1.335-5.029 5.299 5.299 0 00-3.628-3.311c-1.34-.414-2.708-.73-4.065-1.086a6.254 6.254 0 00-.65-.137 31.5 31.5 0 01-7.24-2.02 34.261 34.261 0 01-11.111-7.167 23.426 23.426 0 01-5.51-8.36 44.348 44.348 0 01-2.736-12.964c-.252-3.54-.358-7.089-.572-10.631a88.95 88.95 0 00-.484-5.409 37.991 37.991 0 00-1.472-6.362 6.294 6.294 0 00-.251-.58l-1.498.381zm94.59 23.605c-.076.359-.4.51-.637.718-1.086.942-2.186 1.868-3.277 2.805-.159.136-.3.3-.57.566.733-.171 1.3-.309 1.865-.434 1.583-.35 3.173-.666 4.747-1.047a17.376 17.376 0 005.921-2.644 16.131 16.131 0 003.592-3.574 4.198 4.198 0 00.81-1.8 2.039 2.039 0 00-.861-2.291c-.371.088-.462.4-.651.614-.617.683-1.216 1.383-1.837 2.062-.163.145-.34.273-.529.381a4.712 4.712 0 01-.1-.1c.216-.248.423-.5.652-.741a21.509 21.509 0 001.958-2.385 2.487 2.487 0 00-2-.561 15.227 15.227 0 01-2.2 2.435c-.131-.247.1-.315.186-.432.131-.177.293-.332.436-.5.12-.14.235-.284.347-.431.133-.177.263-.357.386-.541.1-.149.186-.307.327-.542-.374-.007-.662-.025-.949-.015-.7.027-1.4.068-2.1.1a3.794 3.794 0 01-3.069-1.265c-.277-.3-.543-.6-.8-.915a11.22 11.22 0 00-1.8-1.739.866.866 0 00-.717.313c-.658.593-1.3 1.2-1.95 1.8a4.117 4.117 0 01-.825.74c.126-.315.314-.601.554-.841.168-.2.342-.388.519-.576.2-.215.407-.428.619-.633.186-.179.383-.347.577-.517.22-.193.443-.383.66-.57a3.876 3.876 0 00-1.612-1.3 4.88 4.88 0 00-2.268-.668c-2.018 2.469-6.175 11.968-6.652 15.171.234.013.258-.2.335-.325.552-.873 1.082-1.761 1.635-2.633.132-.208.231-.472.524-.532l.03.025a3.962 3.962 0 01-.26.593c-1.123 1.738-2.078 3.571-3.049 5.394a7 7 0 00-.436 1.016c-.336.976-.655 1.958-.975 2.94a5.636 5.636 0 00-.109.591c.352-.375.657-.79.911-1.238.273-.4.534-.8.8-1.193a52.325 52.325 0 011.68-2.337c.29-.382.584-.762.883-1.137.299-.375.609-.742.914-1.111.283-.342.562-.686.851-1.021.313-.364.633-.721.954-1.078a65.305 65.305 0 011.963-2.106c.334-.343.667-.69 1.014-1.021a5.38 5.38 0 011.086-.945c.039.33-.188.423-.312.57-.166.2-.36.37-.54.555a69.02 69.02 0 00-.461.479c-.153.16-.307.319-.459.48l-.531.565-.452.486c-.175.191-.348.383-.521.574-.149.165-.3.331-.443.5-.143.169-.3.33-.439.5-.168.2-.331.4-.5.6l-.426.51-.426.509c-.165.2-.331.4-.492.6-.139.173-.271.351-.408.524-.137.173-.279.345-.415.52-.158.2-.312.411-.468.617-.134.177-.269.352-.4.53-.131.178-.261.358-.391.538l-.453.628c-.128.181-.25.366-.376.548l-.439.639c-.125.182-.25.365-.373.549l-.368.553c-.141.216-.284.432-.421.651a1.183 1.183 0 00-.266.558c.319.092.446-.129.615-.236 1.057-.673 2.095-1.378 3.166-2.028a11.219 11.219 0 012.935-1.27 4.92 4.92 0 001.993-1.132c1.332-1.166 2.716-2.272 4.087-3.393.151-.095.315-.169.486-.222l-.005-.027zm-61.6-11.2c.026.478.022.957-.011 1.434-.31 2.412-.662 4.819-.968 7.231a81.565 81.565 0 00-.41 4.072c-.154 2.022-.272 4.046-.393 6.07a17.048 17.048 0 00-.021 1.55c.065 2.1.075 4.211.233 6.308a23.004 23.004 0 001.518 6.666 14.227 14.227 0 003.622 5.37 2.398 2.398 0 001.872.754l1.158-.422a.49.49 0 00-.014-.6 17.127 17.127 0 01-1.55-5.4 55.342 55.342 0 01-.44-8.286c0-2.138.112-4.277.235-6.412.093-1.617.285-3.227.427-4.841.074-.844.126-1.689.2-2.532.065-.695.152-1.388.239-2.081.007-.057.09-.1.138-.157l-.031-.024a8.235 8.235 0 01-.08 1.875c-.112.689-.15 1.392-.193 2.09-.12 1.914-.2 3.831-.34 5.745a97.581 97.581 0 00-.093 10.963c.066 2.106.365 4.198.889 6.238.207.708.453 1.405.735 2.087.1.212.222.413.364.6a.614.614 0 00.774-.1c.33-.352.575-.775.719-1.236a14 14 0 00.868-3.654c.144-1.581.24-3.166.34-4.751.219-3.949.219-7.908 0-11.857-.071-1.474-.23-2.946-.383-4.415a88.674 88.674 0 00-.478-3.736 33.127 33.127 0 00-.951-4.664c-.17-.565-.283-1.147-.418-1.721a31.731 31.731 0 00-3.79-9.3 25.38 25.38 0 00-4.153-5.032 1.227 1.227 0 00-.345-.139 23.123 23.123 0 01-.32 3.745c-.35-1.416.117-2.851-.073-4.272a8.867 8.867 0 00-2.13-1.653 3.388 3.388 0 00.046 1.573c.214 1.5.314 3.014.3 4.529a19.457 19.457 0 01-.087 3.429 9.508 9.508 0 00-.008 1.107c-.06 1.176-.133 2.351-.207 3.614a2.024 2.024 0 01-.107-.929 2.95 2.95 0 01-.01-.884 13.18 13.18 0 00.082-2.542c.027-1.439.087-2.882.016-4.318-.075-1.509-.285-3.012-.442-4.516-.05-.476-.118-.949-.18-1.444a13.626 13.626 0 00-3.176-1.564 12.333 12.333 0 00-4.591-.558 35.43 35.43 0 00-4.07.467c-.09.034-.174.079-.251.135-.093.414-.088.844.014 1.256.204 1.613.278 3.24.222 4.865 0 .515-.047 1.031-.068 1.548-.08 1.918-.159 3.836-.235 5.754-.013.332 0 .665 0 1-.028 2.29-.05 4.58-.09 6.87-.035 2.179-.132 4.358-.125 6.536.007 2.143.034 4.292.19 6.428.17 2.803.605 5.584 1.3 8.305a26.807 26.807 0 001.736 4.783 20.276 20.276 0 005.163 6.583 8.805 8.805 0 004.6 2.026c.03 0 .065-.032.115-.059a1.286 1.286 0 00-.154-.26 22.876 22.876 0 01-4.29-6.684 43.76 43.76 0 01-2.822-9.077 67.278 67.278 0 01-.9-5.8 59.151 59.151 0 01-.356-6.635c0-1.582.093-3.164.2-4.746.129.942.156 1.896.08 2.844a4.311 4.311 0 00-.067.548c.114 1.879.01 3.771.3 5.641.026.183.043.367.05.552.109 1.88.343 3.751.7 5.6a49.438 49.438 0 001.967 7.719 33.343 33.343 0 002.847 6.238 26.434 26.434 0 001.993 2.8 4.293 4.293 0 003.01 1.68c.769.086 1.547.1 2.322.129a1.16 1.16 0 00.332-.111c-.08-.112-.12-.219-.2-.272a15.64 15.64 0 01-5.236-6.473 28.484 28.484 0 01-1.994-5.862 51.704 51.704 0 01-.936-5.677c-.264-2.284-.275-4.572-.311-6.861-.02-1.174.109-2.351.172-3.54.036.061.09.111.09.161.009 1.329.01 2.659.014 3.988 0 .553-.023 1.109.016 1.66.1 1.4.194 2.8.347 4.2a39.206 39.206 0 002.228 9.912 20.977 20.977 0 002.715 5.063 13.386 13.386 0 002.644 2.67 3.66 3.66 0 001.369.7c.244.038.49.06.738.065-.078-.161-.1-.263-.157-.315a15.612 15.612 0 01-4.837-8.288 29.877 29.877 0 01-.9-6.461c-.046-1.551-.091-3.105-.068-4.656.02-1.29.138-2.579.216-3.868.054-.885.12-1.768.17-2.653.134-2.324.469-4.625.817-6.924.237-1.569.44-3.143.658-4.714.076-.547.146-1.095.23-1.641.008-.052.1-.091.152-.136l-.032-.023zm-29.103-51.685a105.786 105.786 0 015.192 8.892c.459.885.913 1.773 1.374 2.656.136.26.289.511.429.757a6.805 6.805 0 001.548.463 3.492 3.492 0 00-.455-1.16c-.177-.406-.381-.8-.573-1.2-.176-.366-.354-.731-.528-1.1-.19-.4-.387-.8-.56-1.2a2.479 2.479 0 01-.411-1.282 33.584 33.584 0 011.65 3.165c.49.992.978 1.985 1.465 2.978 1.182.473 2.36.9 3.5 1.415a47.429 47.429 0 013.475 1.713c1.09.6 2.132 1.288 3.184 1.931a.3.3 0 00.05-.42c-.421-.82-.85-1.637-1.271-2.458-.114-.222-.214-.452-.325-.691.3-.11.332.134.392.244.655 1.2 1.3 2.4 1.929 3.614.176.365.423.691.726.96a39.398 39.398 0 017.382 8.938 56.454 56.454 0 014 7.649c.16.369.336.731.492 1.071.084 0 .126.017.132.007a.21.21 0 00.03-.106c-.013-.442-.025-.885-.046-1.328-.01-.221-.035-.442-.056-.662-.054-.551-.1-1.1-.165-1.652-.184-1.649-.355-3.3-.563-4.947-.176-1.39-.384-2.776-.6-4.161a98.515 98.515 0 00-2.025-9.858c-.376-1.425-.8-2.838-1.193-4.259a8.231 8.231 0 01-.146-.862l-.02.018c.182.022.208.172.257.309a57.828 57.828 0 011.717 5.838 115.978 115.978 0 011.887 9.332c.347 2.188.664 4.379.883 6.585.227 2.279.45 4.557.585 6.843.002.259.04.516.112.765a34.69 34.69 0 001.273 3.2c.094-.324.169-.653.225-.986.193-2.022.419-4.043.544-6.07.183-2.949.284-5.9.43-8.856.187-3.211.201-6.43.04-9.642-.121-2.065-.352-4.123-.518-6.185-.13-1.623-.374-3.229-.652-4.831a32.394 32.394 0 00-1.562-5.883 16.346 16.346 0 00-5.181-7.069 12.099 12.099 0 00-5.223-2.3 22.79 22.79 0 00-3.31-.272 27.057 27.057 0 01-3.948-.529 3.443 3.443 0 00-.476-.03c.672 1.745 1.354 3.407 1.952 5.1a27.481 27.481 0 011.324 5.232c-.47-1.118-.7-2.308-1.1-3.447-.413-1.185-.807-2.377-1.258-3.547-.451-1.17-.965-2.316-1.47-3.514l-1.846-.574c-.191.2-.058.315 0 .441.474 1.082.952 2.162 1.423 3.245a.483.483 0 01-.025.56 37.95 37.95 0 00-2.223-4.471 4.956 4.956 0 00-2.024-.5 2.792 2.792 0 00-2.781 1.648 5.757 5.757 0 00-.678 2.439 21.263 21.263 0 00.3 4.528c.155.91.358 1.812.536 2.718.077.4.028.74-.408.9-.357-.02-.511-.269-.655-.534-.548-1.007-1.082-2.02-1.65-3.015-.748-1.317-1.49-2.639-2.3-3.921a21.361 21.361 0 00-3.5-4.277 14.482 14.482 0 00-1.2-.989 7.84 7.84 0 00-6.82-1.374c-.394.093-.79.187-1.175.313a5.002 5.002 0 00-3.753 5.141 9.395 9.395 0 00.36 2.627 21.867 21.867 0 002.516 5.652c.227.339.53.621.884.824 1.072.723 2.177 1.4 3.209 2.181 2.508 1.891 4.98 3.831 7.472 5.745 1.172.9 2.362 1.779 3.533 2.682.754.551 1.648.88 2.58.95a1.147 1.147 0 00-.043-.342c-2.026-3.9-4.106-7.776-6.454-11.5a4.201 4.201 0 01-.287-.7l.02-.02c.252.051.329.281.445.455zm74.393 8.57a3.355 3.355 0 01-.275.581c-2.554 3.494-4.792 7.2-7.15 10.82-.219.337-.4.7-.6 1.047.285.189.448-.024.618-.114a27.493 27.493 0 015.014-2.056 20.395 20.395 0 014.126-.8c.448.014.892-.085 1.293-.287.686-1.007 1.446-2.1 2.178-3.2a34.213 34.213 0 014.219-5.273 43.804 43.804 0 011.764-1.683 9.8 9.8 0 015.508-2.375 4.55 4.55 0 012.18.265c.2.074.4.151.715.269a2 2 0 00-.177-.352 14.887 14.887 0 00-9.161-4.733 14.123 14.123 0 00-2.541-.154c-1.92.072-3.844.116-5.758.275-2.542.21-5.056.673-7.505 1.383-1.1.316-2.218.565-3.348.745a11.758 11.758 0 01-3.965-.092 44.353 44.353 0 01-4.5-1.166c-1.171-.335-2.339-.683-3.517-1a13.4 13.4 0 00-3.83-.5 9.602 9.602 0 00-7.351 3.76 24.458 24.458 0 00-4.8 10.6 33.98 33.98 0 00-.5 2.836 14.302 14.302 0 00-.067 1.658c-.047 2.364-.084 4.727-.14 7.091a145.62 145.62 0 01-.131 3.433c-.1 2.14-.164 4.284-.337 6.418-.192 2.355-.47 4.7-.753 7.05a4.984 4.984 0 00.178 2.176c.538 1.688 1.006 3.4 1.5 5.1.04.135.094.265.17.48.1-.148.2-.225.2-.3.019-.406 0-.813.019-1.219.1-2.25.139-4.5.31-6.747a130.49 130.49 0 011.228-10.547c.066-.425.167-.844.257-1.29.125.241.154.521.08.782-.26 2.121-.563 4.238-.792 6.363-.18 1.65-.286 3.308-.4 4.965-.107 1.62-.187 3.242-.261 4.864-.05 1.069-.06 2.139-.1 3.209-.085 1.626.04 3.256.374 4.849.1.429.2.855.342 1.434.079-1.009.155-1.854.21-2.7.173-2.653.493-5.29.847-7.924.62-4.614 1.49-9.181 2.555-13.71a130.702 130.702 0 016.088-19.43 71.723 71.723 0 013.53-7.519c.209-.436.473-.844.786-1.214.134.277-.041.44-.129.619-.846 1.725-1.74 3.427-2.535 5.174a109.013 109.013 0 00-5.324 14.67 148.737 148.737 0 00-4.157 18.575c-.44 2.808-.816 5.623-1.068 8.456-.127 1.433-.3 2.863-.307 4.305-.04.481-.037.964.008 1.444a4.49 4.49 0 00.223-.711c.446-3.1.87-6.211 1.325-9.314.18-1.235.423-2.462.646-3.744a1.114 1.114 0 01.089.888c-.45 3.177-.912 6.352-1.367 9.528-.03.214-.021.434-.041.892.2-.348.282-.486.358-.628.035-.065.056-.136.085-.2.466-1.086 1.019-2.144 1.375-3.265a33.54 33.54 0 00.718-3.354 101.977 101.977 0 017.329-21.793c1.033-2.25 2.091-4.487 3.3-6.649.158-.283.251-.62.563-.8l.057.05a1.803 1.803 0 01-.368.909 126.273 126.273 0 00-6.986 15.908 98.792 98.792 0 00-3.638 13.11 5.424 5.424 0 00-.041.605c.2-.392.333-.614.439-.846a72.129 72.129 0 013.615-6.857 143.711 143.711 0 014.572-7.2 37.089 37.089 0 018.544-8.923 57.044 57.044 0 014.925-3.393c.189-.113.37-.242.527-.345 2.065-3.5 4.3-6.844 6.556-10.177.62-.918 1.3-1.793 1.96-2.684.106-.143.2-.315.427-.3l-.01-.018zm-17.862 54.481c.048.329.008.666-.118.974a40.802 40.802 0 01-1.488 4.29 116.255 116.255 0 01-4.775 10.729 63.308 63.308 0 01-7.484 11.239c-.135.162-.348.29-.3.611a3.968 3.968 0 001.88-.494c.489-.262.963-.55 1.422-.861a46.144 46.144 0 0017.25-21.445c1.223-3.093 2.276-6.243 3.262-9.418.022-.068.056-.133.109-.256a.789.789 0 01.008.707c-.577 1.869-1.128 3.747-1.742 5.6a61.07 61.07 0 01-2.656 6.692 46.734 46.734 0 01-17.368 19.399c-.12.073-.225.172-.378.29.112.058.233.099.357.124a7.813 7.813 0 003.252-.557c.372-.163.749-.315 1.113-.494a40.773 40.773 0 0011.2-8.055 32.099 32.099 0 005.492-7.62c.6-1.142 1.166-2.3 1.749-3.458.181.1.121.24.071.36a34.157 34.157 0 01-10.592 14.258 40.37 40.37 0 01-8.853 5.44c-.2.085-.385.2-.75.385 1.022.052 2.047.019 3.064-.1 1.574-.2 3.14-.474 4.71-.713a14.365 14.365 0 005.042-1.923 23.954 23.954 0 009.473-10.149 58.507 58.507 0 003.261-8.117c1.069-3.226 2.115-6.459 3.221-9.672 1.157-3.356 2.583-6.6 4.064-9.83a341.87 341.87 0 015.488-11.381c.166-.327.314-.663.5-1.048a11.486 11.486 0 00-2.722-1.483 19.595 19.595 0 00-4.3-1.163c-.146.3-.288.552-.395.819-1.456 3.637-2.691 7.353-3.857 11.091-1.034 3.313-2.034 6.637-3.052 9.954-.14.457-.3.907-.483 1.436-.175-.31-.024-.518.034-.73 1.859-6.806 3.874-13.564 6.307-20.191.229-.624.489-1.236.72-1.86.051-.186.087-.375.108-.567a5.056 5.056 0 00-.693-.091c-1.257.027-2.518.011-3.767.125-.845.088-1.677.269-2.481.54-1.507.491-2.987 1.064-4.415 1.58a1.977 1.977 0 00-.351 1 84.289 84.289 0 01-2.342 9.343c-.088.277-.183.552-.285.859-.3-.2-.149-.423-.1-.594.34-1.286.73-2.558 1.043-3.849.434-1.794.819-3.6 1.216-5.4.07-.314.093-.638.135-.94-.124-.051-.2-.113-.254-.1-.9.186-1.8.381-2.734.582-.075.208-.138.42-.188.635a43.231 43.231 0 01-1.192 5.177 1.474 1.474 0 01-.3.524c.36-2.027.9-4.013 1.126-6.022a.494.494 0 00-.544-.139 17.779 17.779 0 00-4.268 1.15 88.925 88.925 0 00-4.815 2.257 23.422 23.422 0 00-4.392 2.987 2.583 2.583 0 00-.726.957 104.395 104.395 0 00-7.7 23.767c-.047.254-.1.506-.16.759a10.384 10.384 0 00-.23 2.639c.036.957 0 1.917 0 3.061.352-.975.62-1.979.8-3 .26-.963.494-1.932.754-2.895.269-1 .55-1.993.837-2.987.276-.958.563-1.913.849-2.868.286-.955.568-1.911.868-2.861.252-.955.567-1.892.944-2.805a.765.765 0 01-.023.693c-1.05 3.693-2.107 7.384-3.14 11.082a68.186 68.186 0 00-1.97 9.538 20.85 20.85 0 00-.181 2.652 22.527 22.527 0 01-.307 2.972c-.072.549-.16 1.1-.207 1.649-.05.479-.01.963.118 1.427a1.603 1.603 0 001.319 1.306 2.297 2.297 0 001.307-1.155c.905-1.439 1.827-2.869 2.685-4.336a82.879 82.879 0 008.239-19.915 104.927 104.927 0 002.1-9.284c.129-.715.214-1.439.342-2.32.099.447.113.91.039 1.362a86.922 86.922 0 01-2.778 12.638 80.711 80.711 0 01-9.593 21.12c-.212.261-.37.562-.463.885.12-.031.2-.028.228-.063.152-.16.3-.326.438-.5a66.716 66.716 0 006.078-9.127 106.527 106.527 0 004.853-10.453 57.238 57.238 0 002.26-6.129c.025-.088.13-.154.2-.23l-.023-.016zm-22.2-19.34a80.052 80.052 0 00-6.82-14.885 46.395 46.395 0 00-4.83-6.481 27.66 27.66 0 00-8.707-6.38 44.466 44.466 0 00-10.893-3.651c-2.463-.485-4.942-.889-7.371-1.536a76.142 76.142 0 01-12.99-4.737c-.667-.316-1.307-.688-1.956-1.041a5.244 5.244 0 01-.455-.312c.322-.195.534.041.752.131 2.73 1.13 5.487 2.191 8.282 3.148a70.928 70.928 0 009.269 2.607c1.123.222 2.248.432 3.373.639.187.012.376.007.563-.013-.237-.195-.366-.308-.5-.412-2.062-1.562-4.138-3.106-6.183-4.688a93.173 93.173 0 00-10.547-7.144 37.465 37.465 0 00-9.148-3.9 22.744 22.744 0 00-4.476-.706 16.385 16.385 0 00-3.534.131 12.46 12.46 0 00-3.274.99 4.677 4.677 0 00-2.177 1.982 10.501 10.501 0 00-1.43 6.706 13.894 13.894 0 001.23 3.78c.2.438.398.876.592 1.314a1.13 1.13 0 01-.372 1.475c-.346.277-.688.562-1.054.81a357.591 357.591 0 01-3.776 2.528 18.536 18.536 0 00-3.508 3.044 16.346 16.346 0 00-3.006 4.883 8.32 8.32 0 00-.551 4.021 4.887 4.887 0 001.44 3.041c.26.265.542.504.846.715a18.247 18.247 0 008.223 3.363c.658.079 1.308.232 1.958.37 1.2.258 2.313.822 3.23 1.639.11.1.228.19.333.293a12.09 12.09 0 004.946 2.855 43.75 43.75 0 007.563 1.653c1.797.218 3.604.344 5.414.38a24.137 24.137 0 004.63-.406c2.849-.462 5.607-1.31 8.4-2.011 3.724-.935 7.437-1.914 11.172-2.8a53.685 53.685 0 018.088-1.3 19.345 19.345 0 0110.2 2 10.122 10.122 0 013.152 2.407c1.071 1.176 2 2.474 2.766 3.868.357.665.73 1.321 1.187 2.146a2.794 2.794 0 00-.051-.516zm19.521-2.56a34.914 34.914 0 016.779-2.725c1.144-.294 2.3-.551 3.448-.82a24.18 24.18 0 004.79-1.713c1-.472 2.019-.915 3.038-1.352a12.59 12.59 0 012.324-.715 8.192 8.192 0 013.734.077c.679.169 1.347.38 2 .633a54.888 54.888 0 018.382 4.28c1.362.818 2.716 1.655 4.118 2.4a24.929 24.929 0 007.211 2.455c1.456.29 2.957.271 4.406-.057a7.728 7.728 0 001.658-.61c1.958-.965 3.823-2.093 5.679-3.236a23.602 23.602 0 002.915-2.383c.162-.184.296-.39.4-.612a3.158 3.158 0 00-.828-1.475 4.022 4.022 0 01-.5-.59.471.471 0 01-.007-.557.473.473 0 01.144-.134 1.658 1.658 0 011.069.09c2.096.596 4.193 1.188 6.291 1.777.423.13.856.227 1.295.291a5.827 5.827 0 003.14-.454 7.92 7.92 0 002.7-1.9 5.53 5.53 0 00.713-.985 2.226 2.226 0 00-.01-2.323 4.107 4.107 0 00-.5-.726 12.13 12.13 0 00-1.249-1.255c-3.427-2.764-6.648-5.763-9.942-8.678a43.904 43.904 0 00-6.848-5.079 22.59 22.59 0 00-5.726-2.341 12.768 12.768 0 00-5.607-.077 25.875 25.875 0 00-5.886 1.919c-.607.274-1.194.588-1.758.941a53.554 53.554 0 01-5 2.638 7.761 7.761 0 01-2.444.676c-1.619.208-3.247.164-4.871.247-.516.027-1.033.058-1.55.08a22.803 22.803 0 00-9.344 2.52 49.928 49.928 0 00-8.327 5.469 34.665 34.665 0 00-7.327 7.819 113.076 113.076 0 00-7.012 11.56c-.356.689-.684 1.393-1.02 2.093-.075.158-.126.327-.188.491a29.17 29.17 0 019.71-7.659zm-43.274 42.275a24.234 24.234 0 01-3.812-8.547 62.534 62.534 0 01-1.424-7.726 92.608 92.608 0 01-.482-10.18c-.016-1.476.07-2.954.05-4.43-.03-2.032-.115-4.063-.18-6.095a2.808 2.808 0 00-.061-.549 10.088 10.088 0 01-.142-2.315c.113.336.176.687.188 1.042.056.363.17.72.2 1.085.135 1.619.29 3.238.357 4.861.057 1.4 0 2.8 0 4.209 0 1.847-.08 3.7.022 5.541.119 2.174.163 4.354.455 6.52.193 1.427.37 2.856.646 4.269.46 2.695 1.2 5.335 2.21 7.875a21.5 21.5 0 004.029 6.194 7.09 7.09 0 001.252 1.084 33.716 33.716 0 006.574 3.42c.169.065.344.116.517.173.18-.2-.034-.267-.1-.338-.777-.79-1.61-1.529-2.342-2.358a20.436 20.436 0 01-4.087-7.421 39.655 39.655 0 01-1.35-5.931 71.084 71.084 0 01-.663-10.387c-.02-1.735.023-3.472.054-5.208.052-2.843.1-5.686.18-8.529.049-1.733.127-3.467.237-5.2a70.09 70.09 0 00.023-7.532 8.13 8.13 0 00-.148-1.473.806.806 0 00-.8-.091c-1.947.426-3.9.836-5.836 1.3-2.3.555-4.58 1.159-6.867 1.749-.317.082-.623.2-.978.319.112.318.206.593.307.865a31.954 31.954 0 011.753 7.533c.249 2.206.37 4.417.475 6.632.114 2.436.236 4.873.392 7.307.214 3.692.84 7.348 1.866 10.9a24.199 24.199 0 004.472 8.714 24.498 24.498 0 002.605 2.72c.128.114.276.207.415.309l.1-.129a2.014 2.014 0 00-.107-.182zm61.367-91.574a13.579 13.579 0 00-5.546-2.651 12.644 12.644 0 00-4.188-.166c-1.5.207-2.988.483-4.473.77a8.67 8.67 0 00-1.581.5 29.725 29.725 0 00-8.908 5.29c-.121.109-.226.3-.453.226a7.465 7.465 0 012.3-2.111c.9-.646 1.831-1.247 2.792-1.8.917-.532 1.879-.985 2.975-1.552l-3.657-.545a11.2 11.2 0 00-2.5 1.146c-.013-.363.262-.406.44-.531s.376-.234.567-.345c.22-.128.442-.252.768-.437a14.942 14.942 0 00-7.23-.363 18.616 18.616 0 00-7.985 3.893 11.812 11.812 0 00-2.246 2.585c-.118.182-.206.384-.31.581.07.162.119.3.189.426a25.826 25.826 0 012.527 7.3c.519 2.424.764 4.887 1.069 7.341.025.2.066.4.134.808.176-.426.27-.66.368-.893a61.53 61.53 0 014.022-7.131 13.805 13.805 0 012.86-2.917 10.394 10.394 0 017.874-1.868 31.38 31.38 0 014.2 1.008c1.634.462 3.272.907 4.91 1.355.174.048.356.067.572.107a46.504 46.504 0 012.929-4.023c.22.12.088.237.02.338-.661.98-1.332 1.954-1.984 2.94a1.096 1.096 0 00-.323.841 8.986 8.986 0 002.389.147 25.25 25.25 0 004.767-.972 32.5 32.5 0 015.207-1.04c.261-.048.518-.115.77-.2.185-3.235-.56-6.03-3.265-8.061v.004zm14.737 47.032a1.27 1.27 0 00-.36-.075c-.129.217-.275.427-.387.653-2.541 5.174-5.026 10.374-7.3 15.675-1.544 3.6-2.835 7.3-4.041 11.026-.739 2.284-1.46 4.575-2.245 6.843a41.123 41.123 0 01-3.364 7.468 24.032 24.032 0 01-6.751 7.4c-.27.193-.529.4-.791.6-.013.01 0 .047-.008.084a1.77 1.77 0 00.808-.291 24.144 24.144 0 009.5-8.443 37.28 37.28 0 003.517-7.027c1.164-2.92 2.08-5.924 3.054-8.91.709-2.177 1.427-4.355 2.248-6.492a58.347 58.347 0 016.935-12.72 25.842 25.842 0 012.5-3.108c.1-.1.181-.226.366-.463-1.283-.778-2.48-1.506-3.681-2.224v.004zm-7.606-21.075c1.475-.052 2.951-.1 4.426-.169a5.806 5.806 0 002.342-.611c1.453-.722 2.927-1.418 4.317-2.25a27.83 27.83 0 015.327-2.421c.345-.118.688-.242 1.05-.37a1.933 1.933 0 00-.319-1.694 7.078 7.078 0 00-4.1-3.008 7.488 7.488 0 00-3.294.035 7.26 7.26 0 00-3.915 2.145 33.09 33.09 0 00-4.032 4.845c-.652.984-1.329 1.953-1.99 2.932-.08.118-.136.253-.25.47.143.044.289.075.438.092v.004zm19.677 45.9a21.066 21.066 0 01-7.356 2.947c-1.768.376-3.527.794-5.276 1.254a16.839 16.839 0 00-5.725 2.823 25.894 25.894 0 00-5.4 5.372c-.194.27-.369.552-.525.845-.374.68-.738 1.365-1.1 2.051a1.217 1.217 0 00-.073.291c.246.08.367-.089.5-.188a39.444 39.444 0 014.774-3.013c4.838-2.698 9.671-5.405 14.5-8.122a33.135 33.135 0 005.462-3.772c.188-.162.361-.34.541-.511l-.118-.075a1.87 1.87 0 00-.204.092v.006zm-51.231-16.838c-.22-.205-.317-.028-.405.058a20.527 20.527 0 00-3.6 4.748 36.364 36.364 0 00-3.867 11.134 9.056 9.056 0 00-.134 2.528c.12 1.36.213 2.722.324 4.083.016.2.069.4.15.866a93.721 93.721 0 017.532-23.417zm-8.718 57.079a52.983 52.983 0 011.99-9.752.778.778 0 000-.235c-.148-.129-.136.064-.177.121a1.513 1.513 0 00-.158.292 25.08 25.08 0 00-1.257 4.013 34.415 34.415 0 00-.938 6.569 710.012 710.012 0 01-.275 6.2c-.033.7-.1 1.4-.126 2.1.014.238.047.474.1.706a5.975 5.975 0 00.5-2.368 32 32 0 01.763-4.582c.53-2.151 1.033-4.309 1.574-6.457.2-.787.448-1.562.712-2.329a12.35 12.35 0 012.959-4.878c-.187-.264-.343-.134-.467-.023a9.56 9.56 0 00-2.033 2.609 20.73 20.73 0 00-1.811 4.752c-.347 1.359-.658 2.728-.986 4.092-.084.349-.175.7-.263 1.045a4.324 4.324 0 01-.107-1.875zm-2.22-11.71c.342 2.106.561 4.23.657 6.361.025.293.076.583.153.866.037.096.087.186.15.267.296-.139.2-.384.2-.573a29.787 29.787 0 00-.824-7.1c-.031-.11-.163-.191-.351-.4.004.296-.007.44.015.579z" fill="url(#paint3_linear)"/><defs><linearGradient id="paint0_linear" x1="-16260.7" y1="48505.2" x2="-55389.7" y2="48403.1" gradientUnits="userSpaceOnUse"><stop stop-color="#E8C46F"/><stop offset=".24" stop-color="#BB842C"/><stop offset=".515" stop-color="#7D5723"/><stop offset=".857" stop-color="#E8C46F"/></linearGradient><linearGradient id="paint1_linear" x1="7404.35" y1="31908" x2="24081.2" y2="31879.5" gradientUnits="userSpaceOnUse"><stop stop-color="#E8C46F"/><stop offset=".24" stop-color="#BB842C"/><stop offset=".515" stop-color="#7D5723"/><stop offset=".857" stop-color="#E8C46F"/></linearGradient><linearGradient id="paint2_linear" x1="5088.16" y1="23136.7" x2="16467.3" y2="23118.3" gradientUnits="userSpaceOnUse"><stop stop-color="#E8C46F"/><stop offset=".24" stop-color="#BB842C"/><stop offset=".515" stop-color="#7D5723"/><stop offset=".857" stop-color="#E8C46F"/></linearGradient><linearGradient id="paint3_linear" x1="16178.4" y1="42129.9" x2="53065.2" y2="42024.7" gradientUnits="userSpaceOnUse"><stop stop-color="#E8C46F"/><stop offset=".24" stop-color="#BB842C"/><stop offset=".515" stop-color="#7D5723"/><stop offset=".857" stop-color="#E8C46F"/></linearGradient></defs></svg>