<svg width="1749" height="738" viewBox="0 0 1749 738" fill="none" xmlns="http://www.w3.org/2000/svg"><g opacity=".8"><path d="M73.55 164.53l.002-.005a18.03 18.03 0 001.52-7.02 40.568 40.568 0 00-2.06-13.18 47.448 47.448 0 00-5.472-11.14 50.793 50.793 0 00-7.908-9.2v-.001a83.553 83.553 0 00-9.284-7.389l-.333-.229.154-.374a6.42 6.42 0 01.673-1.233c.249-.395.547-.83.863-1.29l.392-.575.426-.626c.35-.51.715-1.044 1.081-1.606.506-.792.966-1.547 1.379-2.266 5.418-9.992 10.251-19.35 14.89-28.333 13.728-26.58 25.762-49.88 46.241-76.596l.006-.008.007-.007a4.045 4.045 0 00.931-2.475V.972l.499.013c0-.18.163-.334.374-.462L73.55 164.53zm0 0a32.63 32.63 0 01-4.122 7.051l-.002.003m4.124-7.054l-4.124 7.054m0 0a39.795 39.795 0 01-5.772 6.157l-.003.002m5.775-6.159l-5.775 6.159m0 0a32.83 32.83 0 01-6.577 4.467l-.002.001m6.58-4.468l-6.58 4.468m0 0a45.927 45.927 0 01-8.204 3.298m8.204-3.298l-8.204 3.298m-32.75 2.549h.942c.326 0 .783-.004 1.35-.054.612-.055 1.397-.055 2.315-.055h3.808c2.918-.002 5.732-.039 8.44-.109m-16.855.218l16.868.282m-16.868-.282c-.714 0-1.428-.035-2.138-.106-.288-.031-.428-.107-.494-.168-.044-.042-.088-.109-.1-.243a14.374 14.374 0 011.832-3.502l.013-.018m.887 4.037l-.887-4.037m17.742 3.819l.013.5m-.013-.5s0 0 0 0l.013.5m-.013-.5a72.804 72.804 0 007.983-.653m-7.97 1.153a73.312 73.312 0 008.038-.658m-.068-.495h-.001l.069.495m-.068-.495a57.773 57.773 0 007.912-1.678m-7.912 1.678l.068.495m0 0l7.844-2.173m-33.637-1.488l.011-.02m-.011.02l.011-.02m0 0a70.227 70.227 0 004.257-8.588 1308.47 1308.47 0 018.5-19.667 1730.129 1730.129 0 017.252-16.179 917.749 917.749 0 015.528-11.955c1.532-3.239 2.641-5.507 3.33-6.812l.215-.407m-29.081 63.608l29.081-63.608m0 0l-.387-.248m.387.248l-.387-.248m0 0a43.13 43.13 0 00-4.118-2.325l4.118 2.325zm24.041 44.503c.234-1.414.358-2.843.373-4.276v-.018a40.65 40.65 0 00-1.585-11.345 45.594 45.594 0 00-4.38-10.276v-.001a47.29 47.29 0 00-6.696-8.89 55.485 55.485 0 00-8.53-7.281l-.443-.306-.273.464c-1.124 1.913-2.436 4.403-3.934 7.468a376.878 376.878 0 00-4.7 10.015v.001a610.502 610.502 0 00-4.963 11.324 594.56 594.56 0 00-4.701 11.323 774.312 774.312 0 00-3.968 10.009c-1.188 3.064-2.063 5.558-2.622 7.478l-.167.574.595.063a86.55 86.55 0 002.516.219c.856.075 1.95.111 3.276.111h4.907c1.455 0 3.38.036 5.777.109 2.412.073 4.945.054 7.6-.057a50.412 50.412 0 007.849-.937 18.197 18.197 0 006.592-2.582l.002-.001a13.111 13.111 0 003.799-3.752m3.676-9.436a24.25 24.25 0 01-1.278 4.801h0a22.977 22.977 0 01-2.398 4.635m3.676-9.436v.001l-.493-.081.494.078v.002zm-3.676 9.436v.001l-.416-.279.416.277v.001zM115.929.5c.207 0 .731.004 1.278.012L34.325 116.084a46.275 46.275 0 00-6.277-1.64l.094-.491h-.002a37.812 37.812 0 00-7.238-.666 22.893 22.893 0 00-7.354 1.117c-2 .612-3.824 1.704-5.314 3.183l-.009.008-.008.009a14.275 14.275 0 00-2.168 3.113v.002c-.46.904-.838 1.847-1.129 2.819a10.53 10.53 0 00-.438 2.347h0l-.001.009a31.378 31.378 0 00-.053 1.339v.002a6.525 6.525 0 00.85 3.197h0l.006.01c.428.715.672 1.527.71 2.362a4.45 4.45 0 01-1.124 2.676l-.032.035-.024.04a2.88 2.88 0 01-.87.908l.274.414-.274-.414a2.823 2.823 0 01-1.144.438c-.3.007-.598-.051-.874-.17a2.127 2.127 0 01-.723-.513 4.34 4.34 0 01-.68-2.809l.002-.025v-.025a27.226 27.226 0 011.536-8.957 19.934 19.934 0 015.782-8.261l.005-.005.006-.005a18.716 18.716 0 013.814-2.666l.003-.001a37.334 37.334 0 014.532-2.048v-.001a34.509 34.509 0 014.47-1.345l.006-.002c1.196-.29 2.42-.45 3.65-.478h0a52.104 52.104 0 0113.33 1.392 39.838 39.838 0 019.166 3.671l.42.233.25-.411 2.092-3.444v-.001a115.714 115.714 0 012.806-4.41l.01-.015.01-.016c6.686-11.772 12.475-22.659 18.03-33.106C83.396 49.126 95.076 27.162 113.89 1.942l.016-.021.013-.023A2.943 2.943 0 01115.929.5z" stroke="url(#paint0_linear)"/><path d="M95.512 185.008h-.025c-1.11.04-2.22-.102-3.285-.419l-.204-.061-.186.105a20.428 20.428 0 01-10.085 2.669h-.001a10.813 10.813 0 01-3.489-.575 7.615 7.615 0 01-2.985-1.893 9.567 9.567 0 01-2.128-3.531 15.846 15.846 0 01-.812-5.405v-.015c-.012-1.874.16-3.744.514-5.583.346-1.733.829-3.687 1.451-5.862h0l.001-.004a55.1 55.1 0 011.708-5.146 80.008 80.008 0 012.02-4.779v-.001a41.158 41.158 0 012.116-3.998h0l.004-.007a16.149 16.149 0 011.964-2.697 6.733 6.733 0 011.741-1.262l.001-.001a5.076 5.076 0 012.375-.547h.023l.024-.002c.42-.033.84.057 1.212.259.248.17.479.364.69.579l.147.149h.724l.146-.143a99.381 99.381 0 013.428-3.21 26.77 26.77 0 013.737-2.79 21.502 21.502 0 014.331-2.027 16.529 16.529 0 015.365-.794h.022a8.43 8.43 0 013.386.613 8.52 8.52 0 012.851 1.895 12.245 12.245 0 012.539 8.767l-.002.02-.001.02a28.812 28.812 0 01-1.436 8.49h0l-.002.006a45.442 45.442 0 01-4.025 9.135l-.001.001a52.44 52.44 0 01-5.996 8.392l-.003.003a32.722 32.722 0 01-7.401 6.355l-.791.495.85.384a3.65 3.65 0 001.195.312c.887.129 1.782.185 2.678.169h0l.01-.001a25.645 25.645 0 0010.369-2.616 59.374 59.374 0 0011.318-6.9l.354.494a85.428 85.428 0 01-12.527 7.843 30.565 30.565 0 01-13.909 3.114zm-11.981-6.154v-.014l-.05-.103a18.144 18.144 0 01-1.57-5.057l-.001-.002a23.421 23.421 0 01-.256-5.083c.104-1.667.222-3.08.363-4.23l.069-.561h-1.244l-.111.348a66.228 66.228 0 00-.791 2.755l-.004.012-.002.011c-.4 1.821-.63 3.676-.687 5.539a15.6 15.6 0 00.484 5.632h0l.002.007a9.356 9.356 0 001.82 3.405v.001a5.818 5.818 0 002.34 1.672c.562.229 1.157.37 1.763.417l.02.002h2.797l-1.465-.923a9.671 9.671 0 01-3.477-3.828zm22.324-32.684l-.011-.02-.013-.018a6.482 6.482 0 00-2.618-2.22 6.418 6.418 0 00-3.366-.565 13.796 13.796 0 00-3.5.679 11.142 11.142 0 00-4.197 2.285h0l-.006.005a14.836 14.836 0 00-2.373 2.714 26.071 26.071 0 00-2.448 4.344 37.446 37.446 0 00-2.06 5.926 41.182 41.182 0 00-1.214 7.478l-.001.017v.018c0 .656 0 1.7.049 3.13.054 1.57.326 3.124.808 4.617a13.247 13.247 0 002.493 4.543h0l.008.009a8.237 8.237 0 005.223 2.734l.156.018.138-.074a19.357 19.357 0 006.155-5.216 35.484 35.484 0 004.55-7.422 43.943 43.943 0 002.849-8.348c.633-2.573.971-5.21 1.007-7.86h0v-.015a12.83 12.83 0 00-1.629-6.759z" stroke="url(#paint1_linear)"/><path d="M168.778 181.939v-.001a86.473 86.473 0 005.645-4.508l-.49-1.026a66.48 66.48 0 01-2.974 2.425l-.001.001a47.023 47.023 0 01-4.374 2.983m2.194.126l-2.452-.554m2.452.554a71.093 71.093 0 01-6.268 4.122l-.002.001m6.27-4.123l-6.27 4.123m4.076-4.249l-.258-.428m.258.428s0 0 0 0l-.258-.428m.258.428a27.894 27.894 0 01-5.049 2.393h0a16.563 16.563 0 01-5.585.958m10.376-3.779a27.367 27.367 0 01-4.959 2.35c-1.742.62-3.578.934-5.426.929m.009.5l.009-.001-.018-.499m.009.5a7.765 7.765 0 01-3.773-.829 7.841 7.841 0 01-2.924-2.554l-.005-.007h0a23.04 23.04 0 01-3.515-8.813 113.457 113.457 0 01-1.517-7.503v-.001l-1.203-7.035-.005-.033-.002-.032a1.948 1.948 0 00-.598-1.328 1.522 1.522 0 00-.785-.271 2.455 2.455 0 00-.419.047l-.005.001h0a3.745 3.745 0 01-.597.064l-.008.001h-1.673l.647-.812a74.351 74.351 0 012.416-2.862l.001-.001a54.485 54.485 0 012.897-2.98 62.333 62.333 0 014.047-3.542 26.858 26.858 0 016.581-4.169 13.973 13.973 0 014.975-1.3l.017-.002h.018c.744 0 1.392.134 1.864.479.502.367.728.915.728 1.552v.018l-.001.018a11.081 11.081 0 01-.761 3.31 8.31 8.31 0 01-2.517 3.542l.123.192a31.42 31.42 0 007.752-6.642l.005-.006.005-.006a9.12 9.12 0 002.225-4.744c.02-.422-.095-.84-.328-1.191a2.204 2.204 0 00-.802-.658 2.98 2.98 0 00-1.024-.28h-.002c-.41-.038-.738-.054-.996-.054l-20.569 36.127a22.563 22.563 0 003.442 8.637 7.344 7.344 0 002.738 2.391 7.27 7.27 0 003.539.776m.009.5h-.01l.001-.5m6.567 1.398a35.206 35.206 0 01-6.278 2.914l-.004.002m6.282-2.916l-6.282 2.916m0 0a18.097 18.097 0 01-5.834 1.061m5.834-1.061l-5.834 1.061m0 0a14.119 14.119 0 01-3.675-.475m3.675.475l-3.675-.475m0 0a8.39 8.39 0 01-3.243-1.75 12.646 12.646 0 01-2.859-3.721l6.102 5.471z" stroke="url(#paint2_linear)"/><mask id="path-4-inside-1" fill="#fff"><path d="M241.081 176.22a301.02 301.02 0 01-4.069 2.839c-1.393.954-2.505 1.72-3.338 2.297a83.134 83.134 0 01-9.028 5.467 14.307 14.307 0 01-5.269 1.858c-.837 0-1.342-.328-1.514-.985a8.027 8.027 0 01-.261-2.076c.068-.759.209-1.509.418-2.241a79.348 79.348 0 011.148-4.099c.488-1.604 1.01-3.354 1.565-5.249a245.67 245.67 0 011.775-5.794 695.46 695.46 0 001.824-6.065 238.068 238.068 0 001.566-5.52c.453-1.68.836-3.156 1.147-4.43.26-.987.453-1.991.576-3.004a4.99 4.99 0 01.104-1.056c.066-.33-.104-.492-.523-.492a5.132 5.132 0 00-2.242 1.203 21.21 21.21 0 00-2.766 2.403c-1.25 1.311-2.833 3.078-4.749 5.302a107.433 107.433 0 00-6.521 8.581 74.065 74.065 0 00-2.351 3.718 131.758 131.758 0 00-2.441 4.264 205.32 205.32 0 00-1.984 3.663 13.574 13.574 0 01-1.046 1.801 25.69 25.69 0 01-1.513 1.407 68.625 68.625 0 01-2.142 1.759c-.73.56-1.497 1.072-2.294 1.531-.63.398-1.35.624-2.092.658-.279 0-.419-.148-.419-.44.003-.311.038-.622.105-.925.069-.331.174-.785.314-1.369.139-.584.366-1.347.676-2.294.31-.946.697-2.153 1.203-3.609l6.574-19.678a45.22 45.22 0 002.092-7.761c0-.584-.175-.911-.523-.985-1.186 0-4.038 2.442-8.558 7.325a57.179 57.179 0 00-5.635 6.941 123.666 123.666 0 00-4.799 7.491 131.413 131.413 0 00-3.916 7.106c-1.146 2.259-2.068 4.189-2.765 5.791a9.86 9.86 0 01-1.2 1.26c-.544.492-1.119.948-1.722 1.365-.607.426-1.253.792-1.929 1.094a4.763 4.763 0 01-1.932.436.919.919 0 01-.941-.492 2.961 2.961 0 01-.206-1.147c.023-.444.092-.884.206-1.313a33.35 33.35 0 01.575-2.023c.242-.769.504-1.57.785-2.402.276-.838.554-1.621.833-2.351.698-1.97 1.324-3.756 1.88-5.358a97.715 97.715 0 001.461-4.538c.415-1.422.816-2.815 1.2-4.152.383-1.336.781-2.751 1.199-4.221.209-.799.467-1.819.781-3.061a89.388 89.388 0 011.046-3.772c.384-1.277.747-2.462 1.095-3.606.268-.909.581-1.803.939-2.681a8.585 8.585 0 011.827-2.895 16.335 16.335 0 012.556-2.185 11.242 11.242 0 012.608-1.365 6.45 6.45 0 011.985-.44c.484 0 .732.401.732 1.204a27.664 27.664 0 01-.785 3.278c-.465 1.605-.93 3.172-1.395 4.701a335.177 335.177 0 01-2.092 6.561 173.52 173.52 0 01-2.298 6.558 207.197 207.197 0 01-2.608 7.107l.418.327c.697-1.239 1.584-2.646 2.661-4.222a137.368 137.368 0 013.442-4.809 95.73 95.73 0 013.755-4.753c1.291-1.531 2.522-2.878 3.707-4.046 3.546-3.497 6.641-6.34 9.287-8.528a10.721 10.721 0 016.367-3.167c.442-.016.872.142 1.2.44a2.214 2.214 0 01.471 1.64 19.709 19.709 0 01-.89 4.373 201.837 201.837 0 01-2.033 6.776 438.105 438.105 0 01-2.298 7.036 5189.15 5189.15 0 01-1.771 5.302h.31c3.759-4.66 7.151-8.577 10.176-11.751a87.955 87.955 0 017.986-7.543 35.702 35.702 0 015.792-3.989 8.822 8.822 0 013.599-1.203.97.97 0 01.592.138c.178.108.317.27.398.463.187.468.276.97.262 1.474a14.77 14.77 0 01-.471 3.008 129.664 129.664 0 01-1.252 4.866 397.816 397.816 0 01-1.772 6.231c-.662 2.258-1.341 4.59-2.036 6.994-.209.877-.592 2.153-1.147 3.827a154.368 154.368 0 00-1.619 5.193 206.355 206.355 0 00-1.394 4.975c-.307.96-.517 1.949-.628 2.952-.01.402.025.805.105 1.199.069.292.348.44.836.44a8.07 8.07 0 003.08-.876 46.573 46.573 0 004.184-2.188 101.525 101.525 0 004.799-3.005 410.045 410.045 0 004.958-3.335l.939 1.312-4.942 3.554zm1.984-51.489a68.558 68.558 0 01-9.129 3.276 92.376 92.376 0 01-11.637 2.519 89.778 89.778 0 01-13.673.981 20.595 20.595 0 01-6.155-.876 25.909 25.909 0 01-3.861-1.407 20.222 20.222 0 013.965-4.704 22.861 22.861 0 006.107 1.534c3.51.475 7.049.694 10.59.655 3.873.04 7.744-.196 11.585-.704a69.18 69.18 0 008.453-1.696c1.966-.522 3.9-1.16 5.792-1.91 1.492-.619 2.661-1.077 3.487-1.369l.628.437a44.31 44.31 0 01-6.152 3.264z"/></mask><path d="M241.081 176.22a301.02 301.02 0 01-4.069 2.839c-1.393.954-2.505 1.72-3.338 2.297a83.134 83.134 0 01-9.028 5.467 14.307 14.307 0 01-5.269 1.858c-.837 0-1.342-.328-1.514-.985a8.027 8.027 0 01-.261-2.076c.068-.759.209-1.509.418-2.241a79.348 79.348 0 011.148-4.099c.488-1.604 1.01-3.354 1.565-5.249a245.67 245.67 0 011.775-5.794 695.46 695.46 0 001.824-6.065 238.068 238.068 0 001.566-5.52c.453-1.68.836-3.156 1.147-4.43.26-.987.453-1.991.576-3.004a4.99 4.99 0 01.104-1.056c.066-.33-.104-.492-.523-.492a5.132 5.132 0 00-2.242 1.203 21.21 21.21 0 00-2.766 2.403c-1.25 1.311-2.833 3.078-4.749 5.302a107.433 107.433 0 00-6.521 8.581 74.065 74.065 0 00-2.351 3.718 131.758 131.758 0 00-2.441 4.264 205.32 205.32 0 00-1.984 3.663 13.574 13.574 0 01-1.046 1.801 25.69 25.69 0 01-1.513 1.407 68.625 68.625 0 01-2.142 1.759c-.73.56-1.497 1.072-2.294 1.531-.63.398-1.35.624-2.092.658-.279 0-.419-.148-.419-.44.003-.311.038-.622.105-.925.069-.331.174-.785.314-1.369.139-.584.366-1.347.676-2.294.31-.946.697-2.153 1.203-3.609l6.574-19.678a45.22 45.22 0 002.092-7.761c0-.584-.175-.911-.523-.985-1.186 0-4.038 2.442-8.558 7.325a57.179 57.179 0 00-5.635 6.941 123.666 123.666 0 00-4.799 7.491 131.413 131.413 0 00-3.916 7.106c-1.146 2.259-2.068 4.189-2.765 5.791a9.86 9.86 0 01-1.2 1.26c-.544.492-1.119.948-1.722 1.365-.607.426-1.253.792-1.929 1.094a4.763 4.763 0 01-1.932.436.919.919 0 01-.941-.492 2.961 2.961 0 01-.206-1.147c.023-.444.092-.884.206-1.313a33.35 33.35 0 01.575-2.023c.242-.769.504-1.57.785-2.402.276-.838.554-1.621.833-2.351.698-1.97 1.324-3.756 1.88-5.358a97.715 97.715 0 001.461-4.538c.415-1.422.816-2.815 1.2-4.152.383-1.336.781-2.751 1.199-4.221.209-.799.467-1.819.781-3.061a89.388 89.388 0 011.046-3.772c.384-1.277.747-2.462 1.095-3.606.268-.909.581-1.803.939-2.681a8.585 8.585 0 011.827-2.895 16.335 16.335 0 012.556-2.185 11.242 11.242 0 012.608-1.365 6.45 6.45 0 011.985-.44c.484 0 .732.401.732 1.204a27.664 27.664 0 01-.785 3.278c-.465 1.605-.93 3.172-1.395 4.701a335.177 335.177 0 01-2.092 6.561 173.52 173.52 0 01-2.298 6.558 207.197 207.197 0 01-2.608 7.107l.418.327c.697-1.239 1.584-2.646 2.661-4.222a137.368 137.368 0 013.442-4.809 95.73 95.73 0 013.755-4.753c1.291-1.531 2.522-2.878 3.707-4.046 3.546-3.497 6.641-6.34 9.287-8.528a10.721 10.721 0 016.367-3.167c.442-.016.872.142 1.2.44a2.214 2.214 0 01.471 1.64 19.709 19.709 0 01-.89 4.373 201.837 201.837 0 01-2.033 6.776 438.105 438.105 0 01-2.298 7.036 5189.15 5189.15 0 01-1.771 5.302h.31c3.759-4.66 7.151-8.577 10.176-11.751a87.955 87.955 0 017.986-7.543 35.702 35.702 0 015.792-3.989 8.822 8.822 0 013.599-1.203.97.97 0 01.592.138c.178.108.317.27.398.463.187.468.276.97.262 1.474a14.77 14.77 0 01-.471 3.008 129.664 129.664 0 01-1.252 4.866 397.816 397.816 0 01-1.772 6.231c-.662 2.258-1.341 4.59-2.036 6.994-.209.877-.592 2.153-1.147 3.827a154.368 154.368 0 00-1.619 5.193 206.355 206.355 0 00-1.394 4.975c-.307.96-.517 1.949-.628 2.952-.01.402.025.805.105 1.199.069.292.348.44.836.44a8.07 8.07 0 003.08-.876 46.573 46.573 0 004.184-2.188 101.525 101.525 0 004.799-3.005 410.045 410.045 0 004.958-3.335l.939 1.312-4.942 3.554zm1.984-51.489a68.558 68.558 0 01-9.129 3.276 92.376 92.376 0 01-11.637 2.519 89.778 89.778 0 01-13.673.981 20.595 20.595 0 01-6.155-.876 25.909 25.909 0 01-3.861-1.407 20.222 20.222 0 013.965-4.704 22.861 22.861 0 006.107 1.534c3.51.475 7.049.694 10.59.655 3.873.04 7.744-.196 11.585-.704a69.18 69.18 0 008.453-1.696c1.966-.522 3.9-1.16 5.792-1.91 1.492-.619 2.661-1.077 3.487-1.369l.628.437a44.31 44.31 0 01-6.152 3.264z" stroke="url(#paint3_linear)" stroke-width="2" mask="url(#path-4-inside-1)"/><path d="M267.285 185.008h-.025a10.2 10.2 0 01-3.285-.419l-.204-.061-.186.106a20.424 20.424 0 01-10.082 2.668h-.001a10.773 10.773 0 01-3.491-.575 7.602 7.602 0 01-2.986-1.892 9.611 9.611 0 01-2.128-3.532 15.839 15.839 0 01-.808-5.405v-.016a28.638 28.638 0 01.51-5.582c.346-1.733.829-3.687 1.451-5.862h.001l.001-.004a54.962 54.962 0 011.707-5.146 79.817 79.817 0 012.02-4.779v-.001a42.256 42.256 0 012.116-3.998h0l.004-.006a16.145 16.145 0 011.967-2.698 6.71 6.71 0 011.739-1.262h0a5.094 5.094 0 012.378-.548h.024l.024-.002c.418-.033.838.057 1.208.259.248.17.479.364.69.579l.147.149h.729l.146-.144a94.683 94.683 0 013.423-3.209h0a26.682 26.682 0 013.741-2.79 21.488 21.488 0 014.327-2.027 16.56 16.56 0 015.365-.794h.022a8.434 8.434 0 013.387.612 8.482 8.482 0 012.85 1.897 12.206 12.206 0 012.542 8.765l-.002.021v.02a28.877 28.877 0 01-1.436 8.49h0l-.002.006a45.442 45.442 0 01-4.025 9.135l-.001.001a52.445 52.445 0 01-5.997 8.392l-.002.002a32.747 32.747 0 01-7.416 6.356l-.791.495.851.384c.378.171.782.277 1.195.312.885.129 1.78.185 2.674.169h.01a25.68 25.68 0 0010.373-2.617 59.516 59.516 0 0011.315-6.9l.354.494a85.392 85.392 0 01-12.514 7.844 30.551 30.551 0 01-13.909 3.113zm-11.978-6.153v-.016l-.049-.102a18.072 18.072 0 01-1.575-5.057v-.002a23.374 23.374 0 01-.256-5.083c.104-1.666.222-3.082.347-4.237l.059-.554h-1.235l-.112.348a64.397 64.397 0 00-.788 2.757l-.002.009-.002.01a29.782 29.782 0 00-.709 5.541 15.427 15.427 0 00.488 5.633l.001.005a9.263 9.263 0 001.821 3.406 5.785 5.785 0 002.335 1.673c.564.23 1.159.37 1.764.418l.02.001h2.78l-1.446-.921a9.645 9.645 0 01-3.441-3.829zm22.321-32.685l-.011-.02-.013-.018a6.485 6.485 0 00-2.618-2.221 6.416 6.416 0 00-3.366-.563 13.755 13.755 0 00-3.501.678 11.145 11.145 0 00-4.196 2.285h0l-.006.005a14.868 14.868 0 00-2.373 2.714 26.075 26.075 0 00-2.447 4.344 37.11 37.11 0 00-2.061 5.926 41.208 41.208 0 00-1.214 7.478l-.001.017v.018c0 .656 0 1.701.052 3.13.051 1.57.322 3.124.805 4.617a13.24 13.24 0 002.493 4.543h0l.008.009a8.233 8.233 0 005.223 2.734l.156.018.139-.074a19.416 19.416 0 006.158-5.215 35.825 35.825 0 004.549-7.423h0a44.583 44.583 0 002.849-8.348c.631-2.573.967-5.21 1.004-7.86h0v-.015a12.83 12.83 0 00-1.629-6.759z" stroke="url(#paint4_linear)"/><path d="M336.19 146.348l.002-.022a12.715 12.715 0 00-1.982-8.167 7.67 7.67 0 00-2.755-1.773 7.61 7.61 0 00-3.285-.451l-.012.002h-.013a11.543 11.543 0 00-4.098.894l-.01.004h0a31.976 31.976 0 00-4.883 2.424l-.002.002a48.045 48.045 0 00-4.956 3.409l-.004.003a38.92 38.92 0 00-4.276 3.821l-.192.198-.27-.056-.523-.109-.563-.117.194-.542a260.89 260.89 0 001.302-3.711 61.322 61.322 0 001.138-3.633l.001-.002c.313-1.127.575-2.074.784-2.84l.002-.01.004-.01c.139-.439.237-.891.29-1.349a.97.97 0 00-.007-.106 3 3 0 00-.379-.022 7.994 7.994 0 00-2.25.86l-.013.008-.014.007a11.553 11.553 0 00-3.317 2.438 11.843 11.843 0 00-1.779 4.02l-.004.018-.006.017a149.408 149.408 0 01-2.198 6.519 292.243 292.243 0 01-2.348 6.945 297.68 297.68 0 00-2.089 6.112l-.001.002a1651.84 1651.84 0 01-2.093 6.18 544.004 544.004 0 01-2.443 7.001l-.001.001c-1.601 4.454-3.323 9.246-5.164 14.375-1.841 5.13-3.563 9.923-5.165 14.379v.001a1056.904 1056.904 0 00-5.528 15.624l-.005.013-.005.012a38.715 38.715 0 00-1.855 5.878 18.099 18.099 0 00-.407 3.032v.011l-.001.012a2.6 2.6 0 00.515 1.818c.135.148.299.267.481.349l-.205.456.205-.456c.185.083.386.127.588.128a6.907 6.907 0 004.369-1.736l.009-.008.01-.007a9.718 9.718 0 002.318-2.695 8.81 8.81 0 00.833-2.158c.134-.692.218-1.394.25-2.098l.001-.003.499.023c.018-.551.071-1.099.157-1.643l51.149-73.272zm0 0v.022a28.688 28.688 0 01-2.057 10.374h0l-.002.006a59.76 59.76 0 01-5.125 10.247l-.001.002a65.656 65.656 0 01-6.576 8.84h0l-.005.006a41.646 41.646 0 01-6.49 6.101 45.67 45.67 0 01-5.932 3.619h0l-.01.006a13.653 13.653 0 01-6.291 1.632h-.025l-.026.003a3.243 3.243 0 01-2.467-.739 2.374 2.374 0 01-.63-1.601 11.403 11.403 0 011.149-4.712h0l.004-.009a27.958 27.958 0 013.025-5.046l.001-.001a53.421 53.421 0 014.181-4.928l.002-.002a52.272 52.272 0 014.701-4.388h0a93.763 93.763 0 017.834-5.815c2.397-1.562 4.561-2.885 6.495-3.972l.17-.095.061-.187c.334-1.035.518-2.113.547-3.201h0v-2.849a13.843 13.843 0 00-.543-4.245l-.001-.002a7.086 7.086 0 00-1.5-2.706h0l-.006-.007a5.029 5.029 0 00-2.204-1.394v-.001l-.007-.002a8.678 8.678 0 00-2.491-.351h-.024l-.023.003a12.18 12.18 0 00-6.251 2.503 47.408 47.408 0 00-8.377 7.729l-.051.059-.03.073c-.702 1.69-1.488 3.758-2.357 6.202a733.416 733.416 0 00-2.819 8.097l34.151-19.271zm-8.542 12.09l-.191.932a36.839 36.839 0 01-2.054 6.705 47.488 47.488 0 01-2.847 5.745v.001l-.432-.252a44.633 44.633 0 01-3.027 4.538l8.551-17.669zm0 0l-.875.371c-.819.346-1.618.738-2.393 1.172m3.268-1.543l-3.268 1.543m0 0a48.787 48.787 0 00-3.32 1.986 59.74 59.74 0 00-3.735 2.646 30.486 30.486 0 00-3.544 3.166h-.001c-.911.954-1.82 1.943-2.728 2.965a25.63 25.63 0 00-2.447 3.229v-.001l.421.27 15.354-14.261z" stroke="url(#paint5_linear)"/><path d="M433.983 181.786a70.325 70.325 0 005.695-4.475 354.755 354.755 0 004.394-3.919l-10.089 8.394zm0 0a38.427 38.427 0 01-6.472 3.719l6.472-3.719zm9.45-8.489a360.82 360.82 0 01-4.085 3.638 70.094 70.094 0 01-5.653 4.443l-.002.001a37.956 37.956 0 01-6.388 3.67l-.005.002a15.951 15.951 0 01-6.626 1.484c-3.196 0-5.896-2.168-8.043-6.857a77.719 77.719 0 01-5.022-21.87l-.108-1.326-.792 1.069a984.103 984.103 0 00-4.647 6.336h0l-.007.009a80.34 80.34 0 00-6.457 11.102 31.008 31.008 0 00-2.009 4.827 321.952 321.952 0 01-1.563 4.691l-.002.006a33.622 33.622 0 01-1.372 3.497c-.216.451-.412.75-.579.931-.17.183-.26.189-.273.189h-.029l-.029.003a1.755 1.755 0 01-.939-.149 1.783 1.783 0 01-.717-.6 4.248 4.248 0 01-.501-2.048c.282-.721.938-2.111 1.982-4.19 1.076-2.143 2.445-4.667 4.109-7.575a313.693 313.693 0 015.73-9.547 157.146 157.146 0 017.081-10.391l.122-.164-.028-.201a2895.701 2895.701 0 01-2.441-18.088c-.585-4.475-.948-7.435-1.092-8.887a14.27 14.27 0 00-.921-4.185h0l-.003-.008a4.656 4.656 0 00-1.345-1.837l-.026-.022-.03-.018a3.422 3.422 0 00-1.768-.511h0-.004a.197.197 0 01-.1-.019c-.012-.006-.033-.021-.06-.065-.061-.103-.124-.32-.125-.719a4.59 4.59 0 01.283-1.419l.003-.008.002-.008c.2-.601.459-1.262.766-1.983.327-.751.701-1.48 1.121-2.182l.002-.003c.443-.756.871-1.415 1.279-1.985l.007-.009.006-.009a6.327 6.327 0 011.593-1.673l.01-.007.01-.008a2.34 2.34 0 011.117-.492c.248.002.547.021.904.054.298.039.576.177.788.393.383.412.684.894.885 1.42.374.982.628 2.005.756 3.049l.001.008.001.009c.343 2.175.672 4.631.988 7.367.315 2.739.61 5.505.884 8.298v.001c.279 2.813.539 5.563.781 8.249.243 2.697.541 5.115.894 7.252l.208 1.255.702-1.06a249.635 249.635 0 015.468-7.911 411.704 411.704 0 015.628-7.642c1.844-2.442 3.532-4.684 5.064-6.725a250.199 250.199 0 013.853-5.02h0l.006-.009a93.724 93.724 0 014.617-5.651c.735-.826 1.365-1.427 1.892-1.818.538-.398.903-.528 1.123-.53.424.009.838.134 1.198.362h0l.009.006c.247.149.491.558.491 1.535v.021a4.957 4.957 0 01-.42 2.221 7.217 7.217 0 01-1.357 1.773h0l-.006.006a81.836 81.836 0 01-2.489 2.335c-1.018.923-2.262 2.153-3.728 3.686-.917.949-2.264 2.451-4.038 4.502a269.347 269.347 0 00-5.751 6.898l-.001.001a266.77 266.77 0 00-6.17 7.994c-2.061 2.776-3.825 5.338-5.292 7.685l-.096.154.025.18c.768 5.546 1.571 10.276 2.408 14.189a58.33 58.33 0 002.787 9.64 16.798 16.798 0 003.384 5.629h-.001l.008.008a6.15 6.15 0 004.431 1.915v0l.014-.001a12.79 12.79 0 004.56-.964 30.688 30.688 0 004.82-2.387 43.145 43.145 0 004.537-3.152 36.57 36.57 0 003.296-2.912l.506.852z" stroke="url(#paint6_linear)"/><path d="M454.26 150.955a43.123 43.123 0 00-2.165 4.864 43.743 43.743 0 00-1.689 5.581 30.076 30.076 0 00-.794 5.837l-.044 1.17.875-.777a791.297 791.297 0 004.282-3.83h0l.007-.007c1.253-1.173 2.61-2.45 4.071-3.829a79.755 79.755 0 004.21-4.286c2.296-2.479 4.199-4.709 5.707-6.689a9.718 9.718 0 002.342-5.637l.002-.018v-.019c0-1.216-.326-2.22-1.227-2.641h0l-.006-.003a5.43 5.43 0 00-2.304-.481l-.016.001-.016.001a11.372 11.372 0 00-5.177 1.71 18.48 18.48 0 00-5.726 5.272m-2.332 3.781v-.001l.444.231-.445-.228.001-.002zm0 0a28.201 28.201 0 012.332-3.781m0 0l-.002.004.408.288-.403-.295-.003.003zm-6.481 20.082l-.332-.374.367-.326c-.015.233-.026.467-.035.7zm0 0l.5.019c.006-.161.013-.322.022-.483l-.522.464zm33.321 7.447l-.002.013a1.128 1.128 0 01-.067.092c-.09.113-.24.269-.458.472-.435.402-1.099.944-1.999 1.631a54.005 54.005 0 01-6.977 4.387l-.003.002a64.458 64.458 0 01-9.579 4.189h0l-.005.002a31.344 31.344 0 01-10.373 1.829h-.018l-.018.001a12.888 12.888 0 01-5.06-.62 12.988 12.988 0 01-4.406-2.512 13.619 13.619 0 01-2.562-4.658 13.69 13.69 0 01-.586-5.332l.001-.011.001-.012a33.28 33.28 0 012.405-11.091h0l.003-.008a48.008 48.008 0 017.799-13.308l.001.001.008-.011a49.902 49.902 0 016.352-6.709h.002a41.288 41.288 0 016.239-4.54h0a27.545 27.545 0 015.587-2.523h0l.005-.001a15.384 15.384 0 014.391-.794l.014-.001.014-.001a7.108 7.108 0 013.858.739 2.817 2.817 0 01.937 2.416 11.694 11.694 0 01-3.343 6.542l-.018.018-.016.019c-2.31 2.797-5.306 6.008-8.99 9.634l-.003.002a300.27 300.27 0 01-5.055 4.918 291.407 291.407 0 00-5.377 5.248 463.511 463.511 0 00-6.051 5.796l-.114.11-.029.156a12.678 12.678 0 00.114 5.165 12.6 12.6 0 002.167 4.682l.03.04.037.034a10.664 10.664 0 003.62 2.134c1.331.461 2.738.652 4.142.562a23.647 23.647 0 008.405-1.616 58.162 58.162 0 007.573-3.473l.001-.001a52.624 52.624 0 007.244-4.829c.063.122.121.247.173.374.045.28.04.565-.014.843z" stroke="url(#paint7_linear)"/><path d="M522.702 180.928h0l-.009.005c-2.086 1.31-3.848 2.342-5.288 3.098-1.448.762-2.672 1.356-3.671 1.785h0l-.01.004a13.57 13.57 0 01-2.461.844 8.876 8.876 0 01-1.772.206h-.026l-.027.003a1.206 1.206 0 01-1.253-.735 4.88 4.88 0 01-.38-1.82c.109-2.212.436-4.408.975-6.554l.002-.007.002-.007c.659-2.986 1.65-7.21 2.972-12.674v-.001l1.047-4.373.091-.381-.348-.179-.422-.219-.348-.179-.258.294a66.71 66.71 0 00-4.254 5.397 145.35 145.35 0 01-5.461 7.077h0l-.007.009a72.456 72.456 0 01-5.887 6.638 36.472 36.472 0 01-4.633 3.883l-.004.002a13.67 13.67 0 01-3.568 1.842 9.839 9.839 0 01-2.827.467l-.02.001-.02.002a2.669 2.669 0 01-1.623-.36 2.705 2.705 0 01-1.105-1.255 9.88 9.88 0 01-.793-4.015c.012-.566.063-1.13.151-1.689h0l.002-.01c.099-.713.236-1.464.408-2.26h0c.163-.756.399-1.493.703-2.203l.002-.004a7.36 7.36 0 011.011-1.721 7.015 7.015 0 011.833-1.363h0l.006-.003c.469-.25.953-.471 1.449-.661a76.15 76.15 0 01-.043 1.404c-.037.935.036 1.872.218 2.79.159.876.482 1.713.952 2.468l.001.001a2.589 2.589 0 002.317 1.216 12.36 12.36 0 001.619-.113l.015-.002.014-.003a6.153 6.153 0 002.273-.947 20.725 20.725 0 003.096-2.462 57.08 57.08 0 004.42-4.739 391.94 391.94 0 004.388-5.254 147.757 147.757 0 003.299-4.166l.002-.002a248.64 248.64 0 002.509-3.395 43.484 43.484 0 002.056-3.1l.034-.056.018-.062a94.271 94.271 0 012.286-6.902l.001-.002a57.659 57.659 0 012.669-6.088 4.807 4.807 0 011.724-1.399h0l.011-.006a22.046 22.046 0 012.346-1.032h0a11.65 11.65 0 012.154-.577h0l.005-.001c.49-.087.985-.14 1.482-.157.257.001.377.08.453.182.097.129.185.38.187.833a9.652 9.652 0 01-.493 2.478l-.003.01-.003.009a47.334 47.334 0 01-1.342 3.829 126.955 126.955 0 01-1.82 4.355 176.882 176.882 0 01-1.926 4.209l-.008.017-.007.017c-.768 1.981-1.538 4.272-2.308 6.871a221.314 221.314 0 00-2.097 7.556v.001a182.035 182.035 0 00-1.565 6.572 24.137 24.137 0 00-.639 3.843l-.001.021v.027c0 .508 0 1.092.054 1.732.036.437.226.817.601 1.069.349.234.8.317 1.292.317h.02a9.368 9.368 0 003.578-.867 41.033 41.033 0 004.271-2.154 81.236 81.236 0 004.774-2.966 514.088 514.088 0 004.455-3.007l.375.523c-.522.405-1.178.894-1.97 1.47-1.009.73-2.085 1.494-3.229 2.292a432.153 432.153 0 01-3.482 2.403 69.38 69.38 0 01-3.212 2.06z" stroke="url(#paint8_linear)"/><path d="M563.558 161.844l-.002.013v.014a19.506 19.506 0 01-1.36 6.174l-.003.007-.003.007a23.829 23.829 0 01-4.242 7.281l-.006.007-.006.008a53.878 53.878 0 01-4.239 4.768h0a38.436 38.436 0 01-4.84 4.098l-.001.001a23.084 23.084 0 01-5.459 2.888 17.974 17.974 0 01-6.245 1.064h-.02l-.02.002a3.807 3.807 0 01-1.996-.407 3.84 3.84 0 01-1.509-1.383 7.754 7.754 0 01-1.176-4.161v-.002c.002-1.164.087-2.327.256-3.478v-.002c.17-1.184.427-2.48.772-3.889a61.67 61.67 0 011.384-4.713 154.5 154.5 0 012.133-5.885 114.234 114.234 0 011.766-4.201 79.195 79.195 0 012.28-4.726l.001-.001a252.404 252.404 0 012.499-4.692 59.225 59.225 0 012.378-4.008h0l.003-.004a37.72 37.72 0 012.32-3.236h0l.003-.004a24.353 24.353 0 012.556-2.786h.001a16.22 16.22 0 012.48-1.912l.007-.004.006-.005a4.017 4.017 0 012.03-.678c.231-.001.458.065.654.19.061.04.11.096.143.162.03.058.046.123.046.189a5.85 5.85 0 01-1.194 2.578l-.015.019-.013.02a92.024 92.024 0 00-2.777 4.506l-.002.003a45.93 45.93 0 00-1.635 3.098 59.298 59.298 0 00-1.316 2.973v.001a168.665 168.665 0 01-1.408 3.325 162.762 162.762 0 00-1.833 4.443l.819.538a15.357 15.357 0 014.448-3.125h0l.006-.002a13.46 13.46 0 015.938-1.32h.017l.017-.001a7.145 7.145 0 014.699 1.412 5.99 5.99 0 011.36 2.212c.291.841.393 1.738.298 2.624zm-7.233 5.457a8.022 8.022 0 00-1.071-3.971l-.006-.011-.007-.011a5.915 5.915 0 00-2.735-2.271h0l-.011-.004a6.88 6.88 0 00-3.599-.354 12.722 12.722 0 00-3.746 1.197l-.176.088-.069.185a318.88 318.88 0 00-2.975 8.319h0l-.002.006a26.744 26.744 0 00-1.333 8.67 4.444 4.444 0 001.063 3.179l.027.031.032.027a4.84 4.84 0 003.591 1.1 6.475 6.475 0 003.826-1.518 16.62 16.62 0 003.543-3.767 22.257 22.257 0 002.612-5.033 15.468 15.468 0 001.033-5.355l.006-.507h-.003z" stroke="url(#paint9_linear)"/><path d="M627.465 152.967a6.355 6.355 0 01-2.205 2.5l-.002.001a10.652 10.652 0 01-5.882 1.774h-.019l-.018.002a35.51 35.51 0 01-2.467.111h-1.78c-.46.005-.92-.031-1.374-.106l-.558-.092-.023.565a18.722 18.722 0 01-.812 4.739h0l-.003.008a36.836 36.836 0 01-2.47 6.311v.001a52.725 52.725 0 01-4.035 6.768l-.002.002a35.97 35.97 0 01-5.403 6.145h0a26.91 26.91 0 01-6.71 4.456h-.001l.212.453m33.552-33.638l-49.186-10.296a74.326 74.326 0 00-5.426 13.552 47.458 47.458 0 00-1.984 13.119 22.247 22.247 0 003.864 14.322m52.732-30.697a57.64 57.64 0 01-2.053.166c-1.21.075-2.608.11-4.216.11a120.4 120.4 0 01-3.827-.053c-1.079-.035-2.524-.09-4.336-.165h-.001c-1.609-.071-2.942-.185-4.007-.331m18.44.273l-18.44-.273m-15.112 33.911a18.804 18.804 0 01-8.021 1.759 13.556 13.556 0 01-6.123-1.037 13.678 13.678 0 01-5.036-3.663m19.18 2.941a27.387 27.387 0 006.834-4.538 36.446 36.446 0 005.479-6.231 53.238 53.238 0 004.073-6.832 37.322 37.322 0 002.504-6.396c.436-1.418.707-2.883.806-4.363m-19.696 28.36l19.696-28.36m-38.876 25.419l.411-.284-.015-.022m-.396.306l.378-.327.018.021m0 0a21.749 21.749 0 01-3.761-13.978l.001-.017v-.016c.044-4.399.705-8.77 1.963-12.981l.001-.004a73.82 73.82 0 015.39-13.461v-.001a82.517 82.517 0 018.039-12.589l.001-.002a77.102 77.102 0 019.75-10.535l.002-.002a46.817 46.817 0 0110.53-7.192v.001l.006-.003a23.732 23.732 0 0110.469-2.626c.727.005 1.453.059 2.173.161h.005a4.7 4.7 0 011.978.74 4.432 4.432 0 011.448 1.613c.425.892.622 1.877.575 2.866v.026a9.465 9.465 0 01-.845 3.946h0l-.002.006a13.827 13.827 0 01-2.019 3.269l-.003.004a11.029 11.029 0 01-2.335 2.143l-.012.009-.012.009a3.593 3.593 0 01-1.706.715.216.216 0 01-.059-.01c-.008-.013-.038-.071-.041-.227.048-.406.17-.8.36-1.162l.024-.044.014-.047c.371-1.264.52-2.584.44-3.9a4.375 4.375 0 00-.338-2.161 4.332 4.332 0 00-1.377-1.749l-.016-.012-.016-.01a6.781 6.781 0 00-3.762-1.06 17.93 17.93 0 00-8.104 2.019 29.901 29.901 0 00-7.534 5.505 49.83 49.83 0 00-6.586 8.112 68.083 68.083 0 00-5.413 9.969 71.356 71.356 0 00-3.838 11.006 57.774 57.774 0 00-1.79 11.189 54.02 54.02 0 00.053 8.599 24.07 24.07 0 001.598 6.973m-5.251 4.909l24.241-4.271.388.316-.001.001a18.38 18.38 0 01-4.613 4.046l-.003.001a11.033 11.033 0 01-5.887 1.603m-8.874-6.605v-.001l.466-.181-.465.183-.001-.001zm0 0a11.874 11.874 0 003.433 4.796l.006.005.005.004a8.343 8.343 0 005.43 1.8m0 0h-.012l.008-.5.016.5h-.012zm19.771-32.36h.004l.06-.496-.068.495.004.001zm4.584 5.551l-.054-.009.081-.494.5.021a.708.708 0 00-.002.046c.32.034.641.049.963.046h1.775a35.75 35.75 0 002.504-.113l-5.767.503zm-8.394 9.475l.475.154v-.001h.001l-.476-.153zm-3.343-10.893l-.02-.022-.024-.019-.317.386.361-.345zm5.191 5.408l.001-.003v-.003l-.493-.082.492.088z" stroke="url(#paint10_linear)"/><path d="M669.625 177.526h-.001a136.757 136.757 0 01-7.328 5.504l-.001.001a74.001 74.001 0 01-7.049 4.396l-.012.006-.012.008a11.805 11.805 0 01-5.091 1.73 2.156 2.156 0 01-1.932-1.113l-.001-.003a5.99 5.99 0 01-.77-3.179l.001-.007v-.008c.007-.86.058-1.719.154-2.573h0v-.007c.1-1.012.215-2.007.347-2.986.131-.976.286-1.913.466-2.812l.001-.005c.171-.908.326-1.645.465-2.215l.151-.619h-1.307l-.15.202a42.62 42.62 0 01-9.851 9.563l-.008.006-.008.006a17.097 17.097 0 01-9.277 3.453l-.018.001-.018.002a4.67 4.67 0 01-2.723-.452 4.727 4.727 0 01-1.99-1.892 16.267 16.267 0 01-1.203-6.867h0v-.014c.032-2.192.308-4.374.823-6.504h0l.002-.005a43.905 43.905 0 012.372-7.305v-.001a50.391 50.391 0 013.719-7.145h0a36.117 36.117 0 014.943-6.246h0l.009-.01a41.891 41.891 0 0112.676-9.231 29.553 29.553 0 0111.587-2.523 15.44 15.44 0 012.519.262h0l.004.001a11.6 11.6 0 012.949.944l.004.002a7.715 7.715 0 012.448 1.795 3.869 3.869 0 01.97 2.708l-.001.013.001.013c.009.645-.041 1.289-.15 1.924-.085.46-.255.899-.503 1.294-.318.476-.681.92-1.083 1.327h0l-.005.006a65.018 65.018 0 01-1.761 1.745l-.087.083-.039.115a29.417 29.417 0 01-1.896 4.355h0l-.004.007a41.312 41.312 0 00-2.378 5.586 695.187 695.187 0 00-4.016 11.799 30.85 30.85 0 00-1.641 6.1l-.002.013-.001.013a6.029 6.029 0 00.627 3.399l.019.037.025.033a2.241 2.241 0 001.796.906h.009l.008-.001a10.4 10.4 0 004.324-1.105 33.32 33.32 0 004.709-2.715 80.384 80.384 0 004.934-3.685 298.244 298.244 0 014.488-3.546l.386.54c-1.5 1.449-3.372 3.074-5.619 4.876zm-8.134-32.171a3.48 3.48 0 00-1.089-1.638 8.662 8.662 0 00-1.766-1.212 8.49 8.49 0 00-1.985-.745 7.549 7.549 0 00-1.448-.232l-.014-.001h-.013a19.676 19.676 0 00-5.245.675l-.004.001a16.51 16.51 0 00-4.789 2.195l-.002.001a24.112 24.112 0 00-4.529 3.951l-.001.001a44.639 44.639 0 00-4.539 6.077v.001a29.469 29.469 0 00-2.391 4.78 83.362 83.362 0 00-1.992 5.555 43.935 43.935 0 00-1.371 5.412 24.831 24.831 0 00-.479 4.282 7.1 7.1 0 001.406 5.091l.015.019.016.018a4.45 4.45 0 003.12 1.419l.031.001.031-.003a13.9 13.9 0 008.315-3.795 32.32 32.32 0 008.259-12.034 53.115 53.115 0 002.459-6.555l.001-.005a55.255 55.255 0 011.914-5.47l.003-.006.003-.007c.275-.729.597-1.439.963-2.126h0l.004-.006c.433-.841.941-1.639 1.517-2.387l.002-.002a15.188 15.188 0 011.718-1.901l.015-.014.014-.015c.346-.381.815-.62 1.32-.675l.795.201-.264-.851z" stroke="url(#paint11_linear)"/></g><path opacity=".8" d="M1693.37 153.108c.03 1.068.04 2.137.03 3.2-.06 8.21-.46 16.407-1.1 24.589a679.7 679.7 0 01-1.57 16.859c-.47 4.519-1.04 9.028-1.63 13.533a447.39 447.39 0 01-1.58 10.925c-.59 3.807-1.21 7.609-1.87 11.405a548.87 548.87 0 01-2.24 12.062c-.84 4.259-1.73 8.509-2.67 12.748-2.11 9.555-4.42 19.062-7.07 28.482a702.277 702.277 0 01-3.46 11.916 484.576 484.576 0 01-3.32 10.527c-.98 3.019-2.01 6.026-3.07 9.02-1.32 3.7-2.64 7.4-4.08 11.064a438.07 438.07 0 01-5.3 12.964c-3 7.067-6.32 13.978-9.97 20.735a156.432 156.432 0 01-12.03 19.215 81.737 81.737 0 01-8.56 10.051 58.259 58.259 0 01-5.47 4.772 36.612 36.612 0 01-4.51 2.922c-.11.061-.22.124-.34.176a.66.66 0 01-.33.111.7.7 0 01-.35-.071.765.765 0 01-.26-.235.786.786 0 01-.11-.335 31.41 31.41 0 01-.51-5.3c-.04-4.813.27-9.623.95-14.389.36-2.791.76-5.579 1.24-8.352.67-3.9 1.38-7.807 2.18-11.687.92-4.42 1.91-8.826 2.95-13.218a649.65 649.65 0 013.43-13.735c1.04-4 2.15-7.987 3.25-11.975.54-1.941 1.1-3.874 1.66-5.807.7-2.385 1.4-4.768 2.12-7.149.6-2.019 1.21-4.036 1.83-6.051.69-2.239 1.39-4.475 2.1-6.709.64-2.054 1.29-4.109 1.95-6.159.72-2.229 1.46-4.453 2.2-6.678.68-2.075 1.36-4.151 2.07-6.221.84-2.5 1.71-5 2.57-7.494.81-2.333 1.61-4.666 2.44-6.991 1.05-2.933 2.1-5.862 3.17-8.785 1.21-3.307 2.42-6.617 3.66-9.91 1.7-4.467 3.42-8.926 5.16-13.379 1.7-4.347 3.42-8.691 5.21-13 2.37-5.723 4.78-11.428 7.23-17.116a559.256 559.256 0 0110.87-23.709c3.38-6.96 6.86-13.863 10.7-20.587.56-1 1.16-1.98 1.75-2.964.1-.164.17-.384.54-.378.07.367.12.737.14 1.108zm-63.54 231.427a131.31 131.31 0 009.53-13.93 219.787 219.787 0 0010.73-20.3c2.26-4.812 4.4-9.675 6.38-14.611 1.72-4.307 3.39-8.635 5-12.984 1.21-3.241 2.34-6.512 3.44-9.789 1.18-3.486 2.32-6.986 3.41-10.5 1.06-3.362 2.06-6.739 3.05-10.121 3.34-11.482 6.25-23.078 8.81-34.76.81-3.703 1.58-7.415 2.31-11.134.79-3.965 1.52-7.941 2.24-11.919a467.28 467.28 0 001.66-9.815c.53-3.308 1.02-6.621 1.48-9.939.48-3.364.95-6.728 1.34-10.1.54-4.56 1.05-9.123 1.48-13.693.47-4.978.89-9.961 1.22-14.949.34-5.192.55-10.393.79-15.591.1-2.136.13-4.274.2-6.411a1.29 1.29 0 00-.09-.549c-.09.149-.19.3-.28.45a407.861 407.861 0 00-9.04 17.09c-3.85 7.679-7.47 15.459-10.97 23.3a783.387 783.387 0 00-8.69 20.291c-1.97 4.832-3.94 9.668-5.86 14.522-1.71 4.329-3.35 8.682-5.01 13.031a779.082 779.082 0 00-3.48 9.323c-.97 2.626-1.91 5.262-2.85 7.9-1.01 2.814-2 5.63-2.99 8.449-.76 2.167-1.5 4.341-2.24 6.514-.79 2.323-1.57 4.647-2.35 6.972-.61 1.819-1.2 3.644-1.8 5.468-.65 1.973-1.29 3.947-1.92 5.923-.55 1.693-1.08 3.387-1.61 5.084-.6 1.933-1.2 3.871-1.8 5.813-.48 1.548-.94 3.098-1.41 4.651-.71 2.382-1.41 4.765-2.11 7.149a647.84 647.84 0 00-1.75 6.125 755.3 755.3 0 00-2.22 8.051c-.74 2.75-1.47 5.5-2.17 8.264-1 4.013-2.02 8.024-2.93 12.058-1.06 4.663-2.08 9.337-3 14.028-.76 3.81-1.4 7.645-2 11.481-.67 4.194-1.16 8.413-1.42 12.654-.2 2.777-.21 5.564-.04 8.342l.06.59h.1l.24-1.367c.32-1.861.62-3.725.96-5.581.57-3.094 1.14-6.187 1.75-9.274 1.77-9 3.73-17.959 5.88-26.876 1.59-6.573 3.26-13.128 4.93-19.683.83-3.262 1.71-6.512 2.6-9.759.85-3.11 1.73-6.212 2.61-9.315.74-2.617 1.49-5.232 2.25-7.846.83-2.825 1.67-5.645 2.52-8.459.73-2.409 1.46-4.816 2.2-7.221.81-2.6 1.63-5.191 2.45-7.785.64-2.024 1.28-4.048 1.94-6.067.82-2.512 1.65-5.021 2.48-7.527l2.04-6.082c.74-2.173 1.49-4.343 2.25-6.51.8-2.287 1.6-4.571 2.41-6.854a819.226 819.226 0 014.8-13.16c.95-2.548 1.92-5.092 2.89-7.632.99-2.568 1.99-5.131 3-7.688 1.09-2.747 2.18-5.494 3.32-8.223 1.6-3.862 3.22-7.72 4.87-11.559 2.54-5.875 5.16-11.713 8.03-17.435.1-.193.13-.468.44-.456.22.178.1.351.02.518-.5 1.087-1 2.169-1.48 3.26-2.28 5.081-4.57 10.152-6.8 15.249-1.47 3.355-2.88 6.74-4.27 10.128a851.836 851.836 0 00-7.58 19.218c-1 2.63-1.98 5.27-2.95 7.911-1.05 2.863-2.09 5.73-3.13 8.6-.91 2.561-1.81 5.13-2.7 7.7-.97 2.792-1.93 5.587-2.88 8.386-.81 2.383-1.59 4.773-2.38 7.163-.86 2.613-1.72 5.227-2.57 7.846-.79 2.47-1.57 4.947-2.34 7.423-.72 2.296-1.44 4.594-2.15 6.893-.49 1.608-.96 3.223-1.45 4.835-.5 1.658-1 3.314-1.48 4.973-.57 1.9-1.12 3.8-1.68 5.7-.64 2.221-1.27 4.444-1.9 6.669-.47 1.65-.93 3.302-1.38 4.956-.84 3.067-1.67 6.133-2.5 9.2-.69 2.6-1.37 5.202-2.04 7.807a823.125 823.125 0 00-6.22 25.927 667.418 667.418 0 00-2.97 14.036c-.76 3.745-1.46 7.5-2.14 11.265-.53 2.94-1 5.892-1.5 8.839-.01.076-.01.154-.03.327.2-.088.35-.142.49-.218a36.856 36.856 0 005.07-3.439 58.592 58.592 0 007.12-6.8c.32-.366.61-.763.85-1.185 2.39-4.034 4.53-8.2 6.57-12.425 2.88-6 5.54-12.093 8.01-18.268 1.78-4.466 3.51-8.959 5.21-13.459 1.22-3.235 2.38-6.494 3.53-9.758 1.24-3.533 2.45-7.074 3.63-10.621a604.53 604.53 0 003.05-9.329c1.1-3.476 2.19-6.958 3.26-10.446.83-2.706 1.63-5.424 2.42-8.141.94-3.216 1.87-6.435 2.79-9.656a709.19 709.19 0 002.16-7.871c.93-3.433 1.86-6.863 2.74-10.307 1.2-4.677 2.37-9.364 3.54-14.05 1.91-7.71 3.65-15.462 5.33-23.227.81-3.733 1.59-7.476 2.34-11.227.68-3.377 1.34-6.759 1.97-10.145a662.054 662.054 0 003.12-17.988c.39-2.421.76-4.845 1.12-7.273.4-2.753.78-5.509 1.16-8.265.24-1.744.46-3.491.69-5.236.04-.325.12-.643.24-.947-.1 1.153-.19 2.308-.31 3.459-.19 1.781-.39 3.561-.59 5.342-.16 1.342-.34 2.683-.52 4.023-.22 1.62-.44 3.24-.67 4.858-.26 1.758-.53 3.514-.8 5.27-.23 1.507-.46 3.015-.71 4.52-.28 1.738-.58 3.475-.88 5.21-.36 2.076-.73 4.151-1.1 6.225-.28 1.564-.57 3.127-.87 4.685-.94 4.706-1.86 9.415-2.83 14.113-.78 3.773-1.6 7.542-2.46 11.3-1.59 6.867-3.21 13.726-4.86 20.577-.99 4.113-2.07 8.206-3.14 12.3-.93 3.533-1.88 7.057-2.85 10.57-1.07 3.835-2.15 7.664-3.26 11.487a853.746 853.746 0 01-6.21 20.448 785.337 785.337 0 01-3.08 9.466c-1 3.014-2.02 6.024-3.07 9.021-1.23 3.5-2.46 7-3.76 10.476-1.64 4.4-3.3 8.8-5.04 13.17-3.35 8.417-6.96 16.723-11.08 24.8-.7 1.358-1.42 2.7-2.13 4.049l-.24.455.07.072c.15-.178.29-.345.42-.513z" fill="url(#paint12_linear)"/><path opacity=".8" d="M1617.35 406.015c.12-.1.33-.187.42-.346.09-.196.14-.407.14-.621.15-1.424.29-2.849.44-4.273.02-.214.03-.428.05-.642.2-1.743.4-3.485.59-5.229.53-4.84 1.12-9.673 1.55-14.522.69-7.775 1.58-15.527 2.49-23.277 2.16-18.49 4.47-36.962 6.93-55.415 1.53-11.606 2.96-23.224 4.52-34.826.32-2.413.62-4.829 1-7.235 1.43-9.235 2.42-18.528 3.72-27.78.42-2.941.95-5.865 1.43-8.8.4-2.473.78-4.949 1.21-7.419.67-3.951 1.37-7.9 2.06-11.847.02-.141.05-.282.07-.423l1.14-6.886c.52-3.074.86-6.17 1.13-9.272.21-2.856.19-5.724-.05-8.578-.18-2.748-.33-5.5-.46-8.249-.05-.93-.03-1.862.05-2.789.42-4.922.85-9.844 1.63-14.727.33-2.085.66-4.171 1-6.256.49-3 .98-6 1.48-9 .31-1.836.62-3.669.94-5.5.04-.244.1-.485.14-.723.09-.063.19-.116.3-.159a37.31 37.31 0 004.91-1.871c.95-.411 1.9-.817 2.81-1.322a15.772 15.772 0 005.3-4.935c1.8-2.6 3.08-5.514 3.79-8.59.32-1.36.54-2.74.67-4.13.04-.35.09-.7.15-1.166.15.124.3.263.42.416.67 1.063 1.34 2.118 1.96 3.206.57 1 1.06 2.032 1.6 3.043.69 1.3 1.37 2.6 2.1 3.87a27.467 27.467 0 0011.5 10.953 31.297 31.297 0 007.3 2.8c1.67.377 3.39.583 5.11.615 2.39 0 4.78-.271 7.12-.808 2.21-.439 4.44-.812 6.63-1.311a7.835 7.835 0 015.3.681c1.52.728 2.98 1.558 4.42 2.424 1.14.681 2.26 1.378 3.39 2.069a29.95 29.95 0 0010.47 4c2.53.479 5.15.411 7.66-.2.55-.135 1.1-.321 1.62-.554a4.017 4.017 0 002.03-1.838c.45-.832.58-1.793.39-2.715a8.356 8.356 0 00-1.09-2.9 12.794 12.794 0 00-2.79-3.236 28.391 28.391 0 00-5.19-3.419c-1.49-.776-2.99-1.536-4.49-2.3a48.387 48.387 0 01-9.19-6.107 106.976 106.976 0 01-9.06-8.691c-1.7-1.794-3.4-3.589-5.13-5.351a45.311 45.311 0 00-4.14-3.735 21.873 21.873 0 00-6.73-3.713 24.387 24.387 0 00-7.71-1.18c-2.44.027-4.86.374-7.2 1.033-.21.056-.42.1-.61.147-.17-.157-.06-.273.01-.389.38-.608.78-1.2 1.13-1.824a20.984 20.984 0 001.91-4.77c.56-2 1.09-4 1.54-6.03.88-3.836 1.99-7.617 3.31-11.325.76-2.2 1.45-4.42 2.21-6.617.85-2.468 1.76-4.916 2.62-7.381a45.969 45.969 0 002.32-10.021c.13-.886.16-1.784.08-2.677-.02-.248-.05-.5-.1-.743a2.76 2.76 0 00-.39-1.109c-.2-.339-.48-.632-.8-.861a2.86 2.86 0 00-1.08-.472 2.87 2.87 0 00-1.17-.005 7.596 7.596 0 00-2.48.927c-.26-.094-.16-.3-.19-.456-.05-.317-.09-.637-.15-.954a7.735 7.735 0 00-1.42-3.27 7.854 7.854 0 00-2.73-2.297 12.654 12.654 0 00-4.42-1.576c-1.17-.172-2.34-.34-3.52-.43a2.553 2.553 0 01-1.22-.333 2.554 2.554 0 01-.92-.876 22.262 22.262 0 00-6.34-6.029 16.518 16.518 0 00-5.07-2.256c-5.5-1.489-10.5-.285-15.05 2.961a19.137 19.137 0 00-7.62 11.454c-.43 1.74-.66 3.52-.7 5.311-.06 2.719-.12 5.437-.19 8.155a46.45 46.45 0 01-.14 2.358 4.37 4.37 0 01-.59 1.825c-.28.497-.57.99-.87 1.481a11.95 11.95 0 00-1.67 5.052 25.46 25.46 0 00.21 6.525c.29 1.91.7 3.802 1.2 5.668a31.25 31.25 0 002.13 5.611c.66 1.353 1.34 2.695 2 4.045.23.479.44.971.66 1.447-.22.2-.29-.009-.34-.086-.49-.666-.96-1.341-1.43-2.018-1.45-2.088-2.91-4.167-4.33-6.27a66.128 66.128 0 01-5-9c-.48-1-.94-2.01-1.45-3a18.862 18.862 0 00-3.21-4.546c-.18-.18-.35-.365-.54-.529a27.176 27.176 0 00-7.64-4.908c-1.55-.625-3.18-1.089-4.78-1.579-1.99-.605-3.98-1.183-5.98-1.732-2-.546-4.01-1.055-6.03-1.547-3.3-.805-6.62-1.55-9.91-2.382-2.18-.6-4.32-1.316-6.41-2.146-2.75-1.02-5.5-2.05-8.27-3a56.79 56.79 0 00-8.51-2.194c-2.62-.493-5.3-.416-7.88.224-1.64.41-3.18 1.142-4.53 2.156a9.79 9.79 0 00-3.49 4.784 5.902 5.902 0 00.05 4.2c.72 1.839 1.81 3.51 3.2 4.911a21.16 21.16 0 004.42 3.393c1.63.968 3.18 2.067 4.63 3.287a7.639 7.639 0 012.18 2.873 21.937 21.937 0 0012 11.535c2.34.988 4.73 1.855 7.16 2.6 3.05.927 6.21 1.465 9.4 1.6.53.026 1.07.076 1.61.1 1.5.067 3 .124 4.5.19a5.51 5.51 0 011.76.2c-.21.169-.33.29-.47.382a44.365 44.365 0 00-5.12 3.913 59.433 59.433 0 01-8.23 6.009 40.219 40.219 0 00-6.82 5.193 22.727 22.727 0 00-6.2 10.138 25.184 25.184 0 00-.97 4.287c-.25 2.141 0 4.311.72 6.342.37 1.051.9 2.037 1.58 2.92a36.06 36.06 0 013.36 5.609 33.45 33.45 0 002.19 3.695 13.776 13.776 0 008 5.6 25.098 25.098 0 0011.8.32 48.088 48.088 0 006.59-1.832c2.37-.823 4.72-1.682 7.08-2.524a52.185 52.185 0 015.53-1.731c2.37-.565 4.82-.717 7.25-.447 1.38.154 2.77.313 4.16.5 3.44.436 6.94.331 10.36-.311.24-.044.48-.075.8-.124.01.189.01.378-.01.567-.5 3.074-1.01 6.145-1.51 9.219-.42 2.615-.78 5.241-1.25 7.847-.79 4.409-1.36 8.845-1.79 13.3-.17 1.853-.35 3.707-.47 5.564-.09 1.716-.07 3.435.06 5.148.17 2.607.34 5.212.5 7.819.1 1.751.09 3.506-.03 5.255-.21 3.327-.61 6.63-1.14 9.918-.58 3.64-1.19 7.276-1.82 10.909-.6 3.492-1.22 6.979-1.83 10.469-.13.74-.23 1.487-.35 2.228-.47 2.753-.94 5.5-1.4 8.257-.14.812-.26 1.626-.37 2.443-.82 6.319-1.61 12.641-2.46 18.958-.6 4.47-1.27 8.929-1.88 13.4a2911.4 2911.4 0 00-2.48 18.63c-2.47 19.281-4.93 38.564-7.38 57.85-.83 6.533-1.63 13.071-2.4 19.614-.54 4.55-1.04 9.104-1.51 13.663-.53 5.092-.98 10.191-1.5 15.283-.4 3.952-.88 7.9-1.31 11.848-.1.96-.16 1.926-.27 2.886-.05.53-.18 1.053-.26 1.581-.06.388-.1.779-.12 1.171-.01.139.03.277.11.388.09.112.21.19.34.22zm75.48-290.945l.06-.051a2.72 2.72 0 00-.86-.929 50.27 50.27 0 00-8.19-5.861 37.274 37.274 0 00-7.33-3.276l-2.35-.764a7.776 7.776 0 012.23-1.29c2.94.46 5.82 1.18 8.63 2.151a77.165 77.165 0 0112.79 5.751 105.645 105.645 0 0115.12 10.357c.63.518 1.28 1.033 1.92 1.545.1.083.22.169.35 0-.1-.1-.2-.207-.31-.3-1.1-.916-2.18-1.848-3.3-2.739a94.306 94.306 0 00-20.66-12.746 59.09 59.09 0 00-9.08-3.256c-1.24-.322-2.5-.59-3.75-.891a1.45 1.45 0 01-.92-.375c.18-.118.32-.218.47-.3.14-.082.32-.152.5-.235.6.033 1.21.042 1.81.1 2.78.264 5.53.733 8.24 1.404a46.3 46.3 0 016.9 2.337 64.021 64.021 0 0110.47 5.849c2.94 1.977 5.76 4.12 8.59 6.251 3.06 2.303 6.12 4.591 9.2 6.864.89.655 1.85 1.22 2.78 1.816.19.07.39.117.59.14-1.17-.813-2.19-1.478-3.16-2.2-3.46-2.593-6.92-5.199-10.36-7.816a132.375 132.375 0 00-10.91-7.627 49.613 49.613 0 00-17.7-6.822c-1.48-.25-2.97-.4-4.46-.6-.32-.042-.62-.092-.93-.138 1.07-.245 2.18-.31 3.28-.194 1.85.132 3.7.391 5.54.622.67.084 1.34.24 2 .366.74.139 1.47.282 2.21.423l-.02.024c-.05-.219-.24-.239-.41-.278-1.01-.228-2.02-.459-3.04-.682a32.41 32.41 0 00-6.7-.818c-.45.023-.9-.045-1.32-.2.51-.091.85-.166 1.2-.211 2.91-.38 5.86-.364 8.77.047.74.105 1.47.28 2.21.409 2.19.383 4.34.94 6.43 1.668a.93.93 0 00.79.064c-.4-.163-.74-.32-1.1-.446a44.804 44.804 0 00-9.07-2.132 28.443 28.443 0 00-4.17-.256c-1.43.021-2.86.125-4.28.31a4.1 4.1 0 01-.69-.043l2.07-2.027a.93.93 0 01.16-.146c.21-.129.44-.237.67-.325.72-.223 1.44-.437 2.16-.625a25.263 25.263 0 0110.96-.489c2.58.452 5.04 1.403 7.26 2.8 1.41.917 2.74 1.949 3.98 3.087 2.16 1.938 4.15 4.048 6.13 6.168 2.71 2.9 5.47 5.761 8.44 8.413a52.02 52.02 0 0011.13 7.8c1.53.778 3.06 1.546 4.59 2.334a27.27 27.27 0 015.1 3.35c1.03.839 1.9 1.855 2.57 3 .06.107.2.224.04.363-1.04-.56-2.07-1.141-3.12-1.669a13.783 13.783 0 00-3.22-1.338 57.569 57.569 0 016.84 3.828c.34.596.47 1.289.38 1.969-.24-.128-.45-.229-.64-.357-1.11-.722-2.2-1.47-3.33-2.172a44.85 44.85 0 00-6.54-3.433.768.768 0 00-.33-.116.778.778 0 00-.35.038c.99.49 1.95.94 2.88 1.432a64.08 64.08 0 012.9 1.62c.92.547 1.82 1.127 2.72 1.72.93.581 1.84 1.218 2.7 1.907-.04.455-.19.894-.45 1.272-.25.378-.6.684-1.01.887-.57.304-1.17.539-1.79.7-2.33.6-4.77.687-7.13.255a27.653 27.653 0 01-9.27-3.265c-1.24-.709-2.45-1.464-3.68-2.2a50.06 50.06 0 00-5.34-2.97 7.993 7.993 0 01-1.63-1.025 483.308 483.308 0 00-5.96-4.567c-.25-.189-.47-.451-.83-.46l-.04.033c.15.358.5.5.77.709 1.58 1.236 3.16 2.459 4.74 3.689.22.171.43.361.66.558-.11.061-.17.122-.22.114a9.929 9.929 0 00-3.41.187c-2.56.491-5.13.963-7.69 1.487-2.2.479-4.46.661-6.71.541-1.18-.063-2.36-.21-3.51-.439a29.932 29.932 0 01-8.37-3.244 26.16 26.16 0 01-10.2-9.885c-.83-1.42-1.58-2.886-2.37-4.334-.71-1.322-1.37-2.674-2.14-3.965-.71-1.2-1.51-2.342-2.3-3.491a1.66 1.66 0 01-.32-.708c-.05-.259-.03-.526.06-.776l3.28-1.287c.26.082.46.137.66.212a40.751 40.751 0 018.13 4.329 67.645 67.645 0 0113.6 12.236 79.943 79.943 0 015.1 6.5c.08.117.12.326.38.274a1.67 1.67 0 00-.11-.309c-.35-.541-.68-1.093-1.06-1.612a75.206 75.206 0 00-12.58-13.6 48.93 48.93 0 00-13.06-8.131c-.08-.033-.14-.141-.27-.28.17-.077.35-.131.53-.163.18.01.35.045.52.105a39.16 39.16 0 017.04 2.576 51.033 51.033 0 0110.97 7.262c.27.226.57.42.85.631zm-71.19-57.031l.07-.056a6.047 6.047 0 00-1.28-1.279 91.28 91.28 0 01-.72-.719c.46.088.7.113.93.184 1.92.566 3.76 1.406 5.45 2.493.74.492 1.48 1 2.21 1.508a16.447 16.447 0 014.55 4.806 41.4 41.4 0 012.31 4.482 65.762 65.762 0 005.34 9.541c2.1 3.031 4.23 6.041 6.34 9.064.13.183.37.327.32.6-.07.024-.11.052-.14.043a3.29 3.29 0 01-2.01-1.485c-.19-.343-.44-.652-.66-.98l-3.81-5.722c-.09-.14-.15-.369-.48-.355.15.253.24.443.35.623.92 1.456 1.84 2.908 2.74 4.365.08.127.26.272.01.462-.23-.271-.47-.532-.69-.811-3.62-4.535-7-9.255-10.13-14.139a7.131 7.131 0 00-.45-.584l-.09.066c.08.233.18.458.3.675.94 1.477 1.86 2.965 2.85 4.412 1.21 1.772 2.47 3.507 3.7 5.262.07.108.28.221.07.442-.26-.272-.51-.523-.74-.79-.85-.968-1.69-1.943-2.54-2.911-.07-.087-.16-.241-.32-.049.12.17.24.344.37.513.16.2.31.395.47.59.13.167.27.333.4.5l.42.494c.16.191.32.383.48.572.14.163.29.323.43.484l.5.563.42.483c.14.16.29.318.43.477l.51.555c.14.159.28.32.43.478.14.158.29.313.44.471l.51.552c.14.158.29.316.43.473.17.183.35.358.51.551.12.141.33.244.26.57a5.703 5.703 0 01-.45-.329c-.77-.691-1.55-1.375-2.3-2.085-.5-.462-.97-.95-1.42-1.46-3.47-4.043-7.07-7.964-10.93-11.642a74.225 74.225 0 00-7.25-6.2 2.097 2.097 0 00-.9-.545l-.06.051c.2.193.4.4.61.576 1.49 1.234 3.01 2.421 4.46 3.7 4.51 4.08 8.75 8.457 12.69 13.1.08.1.15.205.38.51-.51-.256-1-.557-1.46-.9a12.685 12.685 0 00-3.42-1.771c-.77-.274-1.5-.67-2.15-1.172a193.964 193.964 0 00-11.1-7.523 129.013 129.013 0 00-28.61-13.567 3.872 3.872 0 00-.66-.089c.07.074.1.11.12.122.94.344 1.88.687 2.82 1.028a131.989 131.989 0 0124.1 11.616c4.21 2.58 8.32 5.319 12.32 8.215.2.145.52.225.51.571-1.1-.1-2.17-.237-3.24-.284a4.63 4.63 0 01-1.94-.527 140.629 140.629 0 00-11.41-5.2 130.048 130.048 0 00-11.63-4.114c-2.4-.717-4.82-1.354-7.24-1.984-1.49-.386-2.99-.7-4.49-1.027-.42-.09-.85-.112-1.27-.165 4.02 1.01 8.03 2.025 11.99 3.227a140.299 140.299 0 0115.98 5.921 83.367 83.367 0 017.71 3.71c.02.007 0 .065 0 .1a2.098 2.098 0 01-1.63-.074 115.022 115.022 0 00-13.81-3.55c-2.64-.511-5.31-.758-7.98-1.059-.1-.004-.2 0-.29.013 3.66.527 7.3 1.071 10.89 1.906 3.63.815 7.21 1.816 10.73 3a.868.868 0 01-.47.085c-.43-.075-.84-.175-1.26-.273-2.33-.545-4.67-1.1-7-1.633-.38-.088-.78-.122-1.17-.174-.35-.048-.71-.093-1.07-.129a3.117 3.117 0 00-1.06-.018c.84.172 1.7.259 2.53.428 2.6.52 5.16 1.18 7.72 1.854.07.019.11.128.22.253-.37.111-.67.206-.97.29a26.074 26.074 0 00-5.09 1.983c-1.21.629-2.38 1.319-3.57 1.98-.28.156-.56.307-.8.436-1.17-.043-2.28-.081-3.39-.127-1.53-.063-3.07-.13-4.61-.2-.67-.032-1.35-.093-2.03-.128-2.9-.151-5.77-.662-8.54-1.522-2.39-.739-4.74-1.625-7.06-2.558a22.307 22.307 0 01-9.25-7.109c-.18-.216-.3-.464-.52-.8.22.016.43.045.65.085 1.21.317 2.42.648 3.63.963 1.24.324 2.52.492 3.8.5-2.87-.52-5.67-1.336-8.43-2.109-.59-.822-.59-.822-.7-1.439.1.018.21.03.31.054 1.56.38 3.12.764 4.69 1.142.83.2 1.67.38 2.5.6 1.25.29 2.52.5 3.81.632.14.006.28-.001.41-.02a1.418 1.418 0 00-.57-.219c-1.26-.249-2.53-.453-3.79-.75-2.3-.544-4.58-1.137-6.86-1.72-.35-.087-.67-.231-.95-.328-.1-.209-.18-.331-.23-.464a8.213 8.213 0 00-2.73-3.517 35.92 35.92 0 00-4.39-3.074 21.277 21.277 0 01-4.03-3.009 13.183 13.183 0 01-3.13-4.447 9.624 9.624 0 01-.53-1.738c-.11-.5-.06-1.024.14-1.494.22.027.39.041.56.072 1.23.226 2.46.447 3.69.684 2.49.483 4.99.964 7.47 1.469.91.185 1.81.427 2.71.659 1.21.312 2.42.644 3.63.955.22.042.45.068.68.078a6.256 6.256 0 00-1.3-.529c-3.01-.913-6.08-1.6-9.16-2.242-2.49-.515-5-.942-7.49-1.418a3.702 3.702 0 01-.63-.224.44.44 0 01-.01-.39 8.841 8.841 0 012.76-4.014 12.036 12.036 0 014.56-2.329 5.304 5.304 0 013.57-.031 98.39 98.39 0 019.08 2.554 92.188 92.188 0 0117.08 7.432c.12.055.24.1.37.132a.95.95 0 00-.41-.45c-.64-.381-1.29-.768-1.95-1.122a98.555 98.555 0 00-20.54-8.024l-3.19-.878a.91.91 0 01.51-.119c1.32.019 2.64.166 3.94.44 2.56.497 5.09 1.165 7.57 2 2.47.834 4.91 1.752 7.36 2.67a76.995 76.995 0 008.65 2.847c2.75.678 5.5 1.31 8.26 1.936 2.65.6 5.27 1.306 7.89 2.05a7.64 7.64 0 012.39 1.16 55.82 55.82 0 017.95 6.862c.19.193.34.446.65.53-.02-.088-.01-.159-.04-.2a50.644 50.644 0 00-8.12-7.37c.09-.03.19-.048.29-.052.99.168 1.91.607 2.67 1.269.53.485 1.09.927 1.65 1.379.17.128.34.246.53.355zm3.22 52.135c.36-.145.49-.5.7-.779a197.27 197.27 0 016.48-8.422 74.11 74.11 0 016.8-7.448c1.5-1.44 3.19-2.662 5.03-3.63a5.7 5.7 0 011.46-.593c.34.3.87.337 1.23.767-.28.273-.53.523-.8.765a60.308 60.308 0 00-4.44 4.512 50.647 50.647 0 00-4.83 6.3c-.09.139-.32.27-.11.5.58-.786 1.13-1.578 1.73-2.336.84-1.068 1.68-2.133 2.57-3.16.9-1.027 1.83-2.016 2.77-3 .52-.543 1.08-1.043 1.62-1.561a.21.21 0 01.1-.047c.02 0 .04.024.07.037.01.032.03.076.02.1-.14.2-.28.414-.43.607a70.824 70.824 0 00-5.21 7.354 49.661 49.661 0 00-5.68 12.339c-.09.269-.16.548-.2.832-.01.287-.36.5-.14.878.13-.3.25-.561.34-.827.53-1.481 1-2.984 1.59-4.441a58.864 58.864 0 016.33-11.431 61.379 61.379 0 015.03-6.417c.09-.151.21-.283.35-.387.14-.104.31-.18.48-.22.78.309 1.53.67 2.26 1.08-.14.21-.25.389-.39.55a23.37 23.37 0 00-2.38 3.562 44.666 44.666 0 00-4.71 13.839c-.37 2.04-.59 4.109-.86 6.167-.24 1.738-.27 3.493-.36 5.242-.03.587.02 1.179.04 1.769.14-.405.22-.83.22-1.259.01-1.571.11-3.14.3-4.7.16-1.998.43-3.986.82-5.952.35-1.755.7-3.506 1.14-5.24a40.567 40.567 0 013.64-9.38 23.025 23.025 0 012.35-3.581c.22-.33.5-.612.83-.825.15.022.29.053.43.094 1.31.474 2.61.989 3.94 1.419.37.12.72.314 1.01.572.3.258.54.574.71.928.67 1.233 1.07 2.59 1.19 3.986.18 1.674.06 3.367-.36 5a9.16 9.16 0 00-.13 1.044c.21-.528.35-.818.43-1.124.08-.313.14-.63.18-.949.06-.353.12-.706.16-1.061.04-.32.07-.641.08-.963.02-.32.03-.642.03-.963 0-.321 0-.645-.02-.965-.03-.321-.07-.64-.13-.957-.06-.316-.14-.63-.22-.94a17.9 17.9 0 00-.32-1.025c-.11-.3-.25-.594-.36-.9-.1-.277-.36-.5-.36-.837.48-.068.8.22 1.17.322.86.267 1.6.824 2.1 1.577a16.845 16.845 0 013.04 7.031c.31 1.656.35 3.352.13 5.022a13.421 13.421 0 01-.93 3.63c-.08.209-.24.433-.04.737.16-.321.3-.6.43-.894a15.264 15.264 0 001-7.263 16.68 16.68 0 00-2.95-8.075c-.1-.149-.3-.278-.23-.511a.38.38 0 01.13-.007c.1.037.2.08.29.129 1.48.803 2.81 1.865 3.92 3.137.7.767 1.27 1.648 1.67 2.607a16.415 16.415 0 011.31 5.29c.24 3.332-.22 6.676-1.33 9.826a23.155 23.155 0 01-3.47 6.627 11.853 11.853 0 01-6.56 4.39c-.55.145-1.11.268-1.67.377-1.8.306-3.63.396-5.46.268a20.789 20.789 0 01-6.61-1.278c-2.53-.982-5.08-1.935-7.61-2.922a29.196 29.196 0 00-6.27-1.827 19.38 19.38 0 00-8.4.517 15.03 15.03 0 00-8.14 5.643c-.42.577-.82 1.173-1.22 1.765-.52.771-1 1.569-1.56 2.312-.69.916-1.41 1.806-2.16 2.671a6.189 6.189 0 01-2.87 1.814c-.51.163-1.03.3-1.55.421-.15.005-.3-.011-.44-.049.21-.663.47-1.306.79-1.924.26-.586.53-1.17.82-1.747a63.135 63.135 0 011.92-3.598c.32-.556.67-1.095 1.01-1.647.4-.538.74-1.114 1.03-1.72a.915.915 0 00-.38.292c-.46.641-.93 1.271-1.35 1.937a57.09 57.09 0 00-3.97 7.6c-.13.322-.3.636-.44.938-.91.108-1.83.098-2.74-.03a20.524 20.524 0 01-4.54-1.227 11.808 11.808 0 01-5.18-3.875c-.46-.592-.88-1.221-1.28-1.854a43.813 43.813 0 01-2.25-4.14c.18-.237.32-.441.47-.636.18-.225.37-.443.55-.663l.48-.576.49-.574c.19-.217.37-.435.56-.651.17-.188.33-.373.5-.559l.5-.558c.17-.185.34-.371.51-.554.2-.21.39-.417.59-.625.17-.182.34-.365.51-.545.18-.18.35-.359.53-.537l.6-.612c.18-.178.35-.355.53-.53.18-.175.36-.347.55-.521.2-.2.4-.4.61-.6.18-.173.37-.34.56-.509.18-.169.36-.342.55-.51.21-.191.43-.381.64-.57.19-.166.38-.33.57-.493l.57-.488c.19-.162.38-.325.58-.484.22-.181.44-.361.67-.539.2-.155.39-.308.59-.461.2-.153.4-.307.59-.459.23-.174.46-.341.69-.523.13-.077.25-.183.35-.31.1-.126.16-.271.2-.426a39.735 39.735 0 00-3.41 2.517 74.53 74.53 0 00-3.01 2.589c-1 .916-1.98 1.867-2.94 2.836-.93.944-1.81 1.926-2.72 2.9-.92.99-1.72 2.08-2.71 3.118-.56-.772-.99-1.54-1.48-2.338.4-.462.83-.897 1.29-1.3.44-.42.88-.838 1.33-1.253.42-.39.84-.778 1.27-1.159.45-.4.91-.809 1.37-1.2.47-.391.96-.757 1.43-1.137.48-.38.97-.693 1.41-1.1-.07-.058-.11-.1-.13-.095-.22.106-.44.225-.65.358a40.01 40.01 0 00-4.2 3.346c-.98.893-1.94 1.8-2.92 2.7-.15.14-.28.337-.59.294-.09-.1-.21-.223-.31-.361a12.074 12.074 0 01-2.37-8.489c.1-1.069.29-2.128.58-3.164a22.74 22.74 0 017.52-12.224 47.869 47.869 0 016.09-4.388 53.183 53.183 0 007.03-5.106 51.422 51.422 0 016.67-5.057 64.15 64.15 0 016.07-3.439 23.348 23.348 0 0112.71-2.335c2.26.217 4.43.924 6.38 2.073a20.76 20.76 0 015.27 4.528c.08.131.15.27.21.413-.39-.049-.67-.079-.95-.121a51.68 51.68 0 00-7.92-.6c-3.9.014-7.78.558-11.54 1.617-.44.126-.88.3-1.31.464-.14.052-.32.09-.32.314.96-.246 1.88-.489 2.82-.724a45.163 45.163 0 0114.05-1.134c1.57.1 3.13.372 4.69.578.28.046.56.117.83.213.2.095.39.206.57.331-4.1-.349-8.24-.072-12.26.819a50.83 50.83 0 00-11.48 3.813c-3.13 1.5-8.78 5.388-10.04 6.97.5-.359.85-.6 1.19-.847 1.24-.9 2.48-1.823 3.74-2.706a34.323 34.323 0 015.87-3.341 49.766 49.766 0 0119.1-4.425 21.78 21.78 0 014.7.31c.31.161.6.383.83.653-.12.057-.24.105-.36.143a29.849 29.849 0 00-7.65 2.754 51.726 51.726 0 00-10.94 7.341c-1.11.961-2.16 1.987-3.23 2.992-.1.094-.31.2-.13.4 1.22-1.062 2.42-2.136 3.65-3.171a53.61 53.61 0 0111.1-7.3 31.52 31.52 0 016.01-2.279c.14-.037.31-.141.41.031-1.31.586-2.64 1.13-3.92 1.76a44.071 44.071 0 00-10.4 7.349 111.473 111.473 0 00-11.12 11.932c-1.57 1.951-3.09 3.944-4.62 5.925-.21.274-.52.5-.5.912l-.01-.012c.14-.089.28-.195.4-.315.56-.7 1.1-1.4 1.65-2.109a138.89 138.89 0 0110.29-11.952 74.09 74.09 0 018.11-7.349 38.094 38.094 0 0110.82-5.834c.54-.181 1.09-.332 1.57-.478.4.132.76.343 1.08.62-.09.09-.18.17-.28.238a24.33 24.33 0 00-6.93 5.184c-4.5 4.757-8.62 9.866-12.31 15.278-.08.153-.15.314-.21.481l.04.046zm32.71-16.888c-.2-.529-.37-.961-.52-1.4a203.615 203.615 0 01-5.21-17.259c-1.15-4.546-1.98-9.157-2.81-13.769-.02-.33-.1-.652-.26-.943a.671.671 0 00-.05.241c.05.462.09.924.15 1.383.63 4.286 1.43 8.539 2.45 12.748 1.43 5.916 3.18 11.74 5.18 17.489.18.373.29.775.32 1.187-.75-.171-1.49-.428-2.18-.765a89.66 89.66 0 01-7.82-18.007.539.539 0 00-.12.56c.21.721.4 1.448.64 2.16a85.432 85.432 0 005.97 13.89c.17.308.32.627.47.935-.08.051-.12.091-.14.084-1.14-.395-2.29-.782-3.43-1.2-.24-.111-.46-.27-.65-.47a2.032 2.032 0 01-.41-.685c-.14-.291-.24-.6-.34-.9a39.258 39.258 0 00-1.94-4.537c-.58-1.152-1.16-2.3-1.72-3.465a37.087 37.087 0 01-3.54-15.035 12.44 12.44 0 011.78-7.089c1.44-2.327 1.44-2.266 1.61-5.339.02-.179.02-.358.03-.537.05-2.718.11-5.436.17-8.154.03-1.753.26-3.497.67-5.2a18.459 18.459 0 018.08-11.47 17.162 17.162 0 018.45-2.818c.41-.07.82-.031 1.21.109.02.202.03.404.02.607-.1 1.32-.21 2.639-.31 3.958-.12 1.748-.25 3.5-.36 5.246-.03.6 0 1.215.01 1.823 0 .067.11.131.22.251.08-1.07.15-2.059.22-3.05.07-.963.12-1.927.19-2.89.07-1 .13-2 .23-2.995.03-1.01.16-2.014.38-3 .26-.021.51-.021.76 0 .67.115 1.34.243 2 .4 1.89.428 3.69 1.192 5.3 2.256 1.22.814 2.38 1.723 3.46 2.717.21.194.4.4.62.618.81 4.032 1.3 8.124 1.45 12.235.11-.45.17-.91.19-1.374-.01-.929-.07-1.857-.13-2.784-.15-2.142-.42-4.27-.77-6.389a1.323 1.323 0 01-.02-.878c.84.82 1.36 1.852 2.13 2.643.05.255.1.463.13.675.3 2.126.45 4.269.47 6.415 0 1.608-.06 3.217-.13 4.824-.05 1.178-.17 2.352-.26 3.529.02.17.06.337.11.5.26-1.326.43-2.666.52-4.013.1-1.245.11-2.5.12-3.75.01-1.286-.03-2.574-.07-3.86-.04-1.286-.26-2.544-.3-3.8.13-.049.19-.1.25-.1 1.53.174 3.07.319 4.59.545.78.123 1.54.319 2.28.586.83.232 1.6.644 2.25 1.208-.05 1.056-.07 2.091-.14 3.123a28.02 28.02 0 00-.23 3.035c.17-.62.29-1.249.38-1.884.09-.673.12-1.355.22-2.027.09-.62.04-1.259.19-1.89a6.003 6.003 0 012.45 2.643c.52 1.112.69 2.358.48 3.569a15.98 15.98 0 00-4.22 1.725c-1.36.791-2.65 1.688-4.01 2.569.04-.322.06-.6.11-.865.17-.913.35-1.823.51-2.737a2.64 2.64 0 00-.01-.562c-.41 1.6-.77 3.2-1.28 4.713-.92.919-1.84 1.779-2.7 2.687a81.857 81.857 0 00-4.87 5.717c-.76.992-1.51 2-2.21 3.035a53.737 53.737 0 00-1.96 3.2c-.62 1.088-1.17 2.193-1.87 3.5 0-1.351 0-2.457.01-3.563.01-1.073.04-2.146.03-3.219.05-1.074.02-2.15-.1-3.219-.16.803-.24 1.62-.24 2.439-.01.966-.03 1.931-.05 2.9-.03 1.717-.09 3.434-.1 5.151 0 .5-.09.996-.25 1.468a39.02 39.02 0 00-2.03 8.984c-.04.346-.11.689-.16 1.033-.12-.186-.2-.4-.21-.622-.35-2.95-.63-5.906-.74-8.874-.09-2.5-.15-5.006-.19-7.51-.06-3.576-.08-7.154-.14-10.73.06-.918-.02-1.84-.22-2.736-.04.311-.07.45-.07.59-.02 2.468-.05 4.936-.04 7.4.01 2.9.07 5.8.1 8.692.04 4.118.32 8.219.72 12.316.25 2.562.7 5.1.8 7.679.13 3.357.34 6.712.47 10.069.01 1.108-.04 2.217-.15 3.32a4.403 4.403 0 01-.49 1.737.998.998 0 01-.37-.472c-.08-.19-.1-.397-.07-.599-.01-2.326-.13-4.65-.37-6.963a8939.85 8939.85 0 00-1.72-16.327 7.8 7.8 0 00-.15-.679c-.08.999-.07 2.003.04 3 .34 3.524.69 7.048 1.04 10.571.29 2.848.56 5.7.67 8.558.04.493.02.991-.06 1.48-.37-.075-.48-.375-.68-.561-.23-.217-.44-.466-.7-.74-.29-1.4-.59-2.839-.89-4.274a138.081 138.081 0 01-2.36-15.806c-.21-2.53-.43-5.059-.65-7.59a3.24 3.24 0 00-.27-1.144c0 .431-.02.608-.01.784l.33 5.353c.31 4.965.91 9.907 1.8 14.8.4 2.145.84 4.282 1.26 6.424.04.224.18.457.01.7-.08-.058-.16-.089-.18-.144a6.29 6.29 0 01-.21-.605c-1.1-4.111-2.2-8.225-3.09-12.389l-.24-1.054a.984.984 0 00-.06.537c.36 2.405.85 4.789 1.47 7.141.43 1.737.89 3.466 1.32 5.2.04.177.21.391-.07.588-.17-.1-.35-.21-.53-.326-.18-.116-.35-.242-.54-.378-.1-.34-.21-.679-.3-1.024-1.45-5.503-2.7-11.05-3.76-16.643a183.517 183.517 0 01-3.23-27.148c-.21-4.361-.06-8.731.42-13.07.03-.21.02-.425.02-.637-.28.741-.45 1.52-.49 2.311-.38 3.2-.52 6.423-.43 9.643.07 4.581.41 9.147.93 13.7.86 7.68 2.15 15.306 3.86 22.845.67 2.966 1.42 5.913 2.13 8.871.05.22.24.455 0 .728l-3.25-1.414zm10.69 10.327c.11-.085.22-.161.33-.229a7.19 7.19 0 002.62-2.171 11.924 11.924 0 002.43-5.774c.22-1.56.25-3.141.09-4.708a49.816 49.816 0 00-.86-5.292c-.5-2.491-.93-4.991-1.2-7.518-.27-2.706-.3-5.43-.1-8.142.08-.711.19-1.417.35-2.115.29-1.292.68-2.558 1.17-3.787a19.485 19.485 0 012.58-4.926 77.35 77.35 0 016.41-7.639 29.295 29.295 0 016.44-4.967c1.1-.664 2.28-1.193 3.51-1.574a7.543 7.543 0 001.94-.892c.6-.401 1.26-.69 1.96-.853a2.22 2.22 0 011.96.287c.28.197.51.457.67.76.17.302.26.638.27.982.01.106.02.214.02.321-.02.749.01 1.5-.07 2.247a46.719 46.719 0 01-2.59 10.934c-.91 2.524-1.82 5.045-2.7 7.579-.73 2.128-1.39 4.284-2.13 6.41a102.385 102.385 0 00-3.3 11.654 70.933 70.933 0 01-1.56 5.909 18.664 18.664 0 01-8.23 10.612 53.88 53.88 0 01-6.77 3.518c-.72.313-1.47.541-2.22.791-.2.051-.41.085-.63.1a3.36 3.36 0 01-.39-1.522v.005zm-62.03 33.85a15.11 15.11 0 003.44-3.557c.66-.89 1.27-1.816 1.9-2.728.53-.764 1.04-1.546 1.59-2.294a13.373 13.373 0 013.64-3.448 16.664 16.664 0 019.6-2.529c2.68.103 5.33.689 7.81 1.73 3.15 1.268 6.3 2.534 9.52 3.605 2.92.996 6 1.437 9.08 1.3.2.012.4.037.6.073-.56.2-.89.329-1.22.431a32.297 32.297 0 01-13.16 1.14c-1.31-.152-2.63-.3-3.94-.476a21.405 21.405 0 00-8.81.642c-1.86.535-3.68 1.166-5.5 1.794-2.13.733-4.24 1.532-6.37 2.263-2.29.81-4.65 1.441-7.04 1.886-.38.061-.76.107-1.14.163v.005zm61.96-34.935c.12-.47.19-.741.27-1.01.42-1.481.61-3.021.54-4.561-.17-3.466-.49-6.919-.82-10.373a42.56 42.56 0 01.16-10.275c.12-.813.3-1.618.45-2.426.49-2.64 1.33-5.203 2.5-7.621.12-.237.26-.461.43-.754.01.097.01.196 0 .294a16.1 16.1 0 00-.94 4.391c-.22 2.567-.21 5.15.04 7.715.24 2.6.7 5.172 1.19 7.737.28 1.44.55 2.882.74 4.335a17 17 0 01-.33 6.92 10.256 10.256 0 01-2.64 4.6c-.43.469-.98.82-1.59 1.023v.005z" fill="url(#paint13_linear)"/><path opacity=".8" d="M941.652 511.015c-.121-.1-.328-.187-.42-.346a1.587 1.587 0 01-.139-.621c-.149-1.424-.291-2.849-.434-4.273-.022-.214-.032-.428-.056-.642-.2-1.743-.4-3.485-.59-5.229-.526-4.84-1.122-9.673-1.55-14.522-.687-7.775-1.576-15.527-2.484-23.277a3556.121 3556.121 0 00-6.93-55.415c-1.531-11.606-2.967-23.224-4.521-34.826-.323-2.413-.624-4.829-1-7.235-1.429-9.235-2.422-18.528-3.725-27.78-.414-2.941-.947-5.865-1.425-8.8-.4-2.473-.788-4.949-1.21-7.419-.675-3.951-1.374-7.9-2.063-11.847-.025-.141-.051-.282-.074-.423l-1.138-6.886c-.514-3.074-.859-6.17-1.133-9.272a54.834 54.834 0 01.05-8.578c.188-2.748.339-5.5.468-8.249.042-.93.022-1.862-.058-2.789-.42-4.922-.843-9.844-1.625-14.727-.334-2.085-.659-4.171-1-6.256-.489-3-.984-6-1.485-9a888.022 888.022 0 00-.931-5.5c-.041-.244-.1-.485-.145-.723a1.723 1.723 0 00-.3-.159 37.417 37.417 0 01-4.91-1.871c-.953-.411-1.9-.817-2.814-1.322a15.847 15.847 0 01-5.3-4.935 25.137 25.137 0 01-3.79-8.59 30.677 30.677 0 01-.666-4.13c-.036-.35-.087-.7-.146-1.166a2.946 2.946 0 00-.427.416c-.662 1.063-1.339 2.118-1.958 3.206-.566 1-1.056 2.032-1.595 3.043-.689 1.3-1.37 2.6-2.1 3.87a27.502 27.502 0 01-11.5 10.953 31.417 31.417 0 01-7.3 2.8c-1.678.377-3.39.583-5.109.615-2.399 0-4.79-.271-7.127-.808-2.21-.439-4.435-.812-6.631-1.311a7.835 7.835 0 00-5.3.681c-1.519.728-2.979 1.558-4.42 2.424-1.135.681-2.26 1.378-3.389 2.069a29.885 29.885 0 01-10.463 4c-2.54.479-5.152.411-7.663-.2a9.45 9.45 0 01-1.621-.554 4.024 4.024 0 01-2.419-4.553 8.105 8.105 0 011.09-2.9 12.667 12.667 0 012.793-3.236 28.376 28.376 0 015.188-3.419c1.492-.776 2.992-1.536 4.491-2.3a48.549 48.549 0 009.186-6.107 107 107 0 009.062-8.691c1.7-1.794 3.395-3.589 5.125-5.351a44.614 44.614 0 014.147-3.735 21.745 21.745 0 016.729-3.713 24.371 24.371 0 017.711-1.18 27.74 27.74 0 017.2 1.033c.207.056.416.1.608.147.166-.157.058-.273-.014-.389-.377-.608-.773-1.2-1.13-1.824a20.661 20.661 0 01-1.905-4.77c-.559-2-1.091-4-1.54-6.03a101.787 101.787 0 00-3.312-11.325c-.763-2.2-1.447-4.42-2.206-6.617-.854-2.468-1.764-4.916-2.629-7.381a46.02 46.02 0 01-2.312-10.021 11.585 11.585 0 01-.088-2.677c.029-.248.059-.5.1-.743a2.908 2.908 0 011.195-1.97 2.905 2.905 0 012.254-.477 7.585 7.585 0 012.472.927c.26-.094.164-.3.191-.456.057-.317.093-.637.15-.954a7.805 7.805 0 014.153-5.567 12.689 12.689 0 014.423-1.576c1.168-.172 2.34-.34 3.516-.43a2.586 2.586 0 002.14-1.209 22.316 22.316 0 016.339-6.029 16.517 16.517 0 015.076-2.256c5.5-1.489 10.492-.285 15.048 2.961a19.138 19.138 0 017.617 11.454 24.57 24.57 0 01.7 5.311c.058 2.719.116 5.437.189 8.155.021.787.085 1.573.144 2.358.056.645.256 1.269.587 1.825.285.497.575.99.871 1.481a12.082 12.082 0 011.674 5.052 25.552 25.552 0 01-.214 6.525 52.667 52.667 0 01-1.2 5.668 31.283 31.283 0 01-2.133 5.611c-.655 1.353-1.335 2.695-1.995 4.045-.234.479-.444.971-.66 1.447.22.2.284-.009.34-.086.483-.666.955-1.341 1.424-2.018 1.449-2.088 2.911-4.167 4.338-6.27a67.217 67.217 0 005-9c.475-1 .94-2.01 1.449-3a18.897 18.897 0 013.208-4.546c.175-.18.346-.365.534-.529a27.36 27.36 0 017.64-4.908c1.556-.625 3.18-1.089 4.787-1.579a220.66 220.66 0 015.978-1.732c2-.546 4.013-1.055 6.028-1.547 3.3-.805 6.619-1.55 9.915-2.382a63.118 63.118 0 006.407-2.146c2.749-1.02 5.5-2.05 8.268-3a56.832 56.832 0 018.516-2.194c2.612-.493 5.3-.416 7.88.224a12.637 12.637 0 014.526 2.156 9.8 9.8 0 013.485 4.784c.5 1.358.48 2.852-.04 4.2a14.437 14.437 0 01-3.209 4.911 21.144 21.144 0 01-4.413 3.393 34.876 34.876 0 00-4.635 3.287 7.671 7.671 0 00-2.18 2.873 21.936 21.936 0 01-12 11.535 74.833 74.833 0 01-7.157 2.6 37.88 37.88 0 01-9.4 1.6c-.536.026-1.071.076-1.607.1-1.5.067-3 .124-4.5.19a5.56 5.56 0 00-1.769.2c.21.169.335.29.478.382a44.288 44.288 0 015.113 3.913 59.898 59.898 0 008.229 6.009 40.29 40.29 0 016.825 5.193 22.789 22.789 0 016.2 10.138c.445 1.398.769 2.833.967 4.287a14.066 14.066 0 01-.721 6.342 10.42 10.42 0 01-1.575 2.92 36.167 36.167 0 00-3.365 5.609 34.356 34.356 0 01-2.183 3.695 13.788 13.788 0 01-8 5.6 25.102 25.102 0 01-11.8.32 48.302 48.302 0 01-6.597-1.832c-2.366-.823-4.719-1.682-7.077-2.524a52.663 52.663 0 00-5.528-1.731 21.167 21.167 0 00-7.248-.447c-1.387.154-2.775.313-4.159.5a33.418 33.418 0 01-10.362-.311c-.241-.044-.485-.075-.8-.124-.011.189-.009.378.006.567.5 3.074 1.016 6.145 1.513 9.219.422 2.615.779 5.241 1.246 7.847.79 4.409 1.358 8.845 1.788 13.3.178 1.853.357 3.707.476 5.564a40.941 40.941 0 01-.066 5.148c-.161 2.607-.339 5.212-.5 7.819a42.656 42.656 0 00.031 5.255c.209 3.327.61 6.63 1.139 9.918.585 3.64 1.192 7.276 1.82 10.909.6 3.492 1.227 6.979 1.837 10.469.129.74.223 1.487.348 2.228.465 2.753.939 5.5 1.4 8.257.137.812.259 1.626.366 2.443.821 6.319 1.616 12.641 2.459 18.958.6 4.47 1.275 8.929 1.883 13.4.845 6.208 1.685 12.416 2.482 18.63 2.473 19.281 4.933 38.564 7.381 57.85.83 6.533 1.63 13.071 2.4 19.614a868.15 868.15 0 011.51 13.663c.525 5.092.975 10.191 1.5 15.283.4 3.952.875 7.9 1.307 11.848.1.96.161 1.926.267 2.886.059.53.184 1.053.262 1.581.062.388.102.779.121 1.171a.576.576 0 01-.451.608zM866.176 220.07l-.058-.051c.206-.376.502-.695.861-.929a50.059 50.059 0 018.185-5.861 37.388 37.388 0 017.328-3.276l2.349-.764a7.722 7.722 0 00-2.23-1.29c-2.933.46-5.82 1.18-8.626 2.151a77.242 77.242 0 00-12.794 5.751 105.513 105.513 0 00-15.112 10.357c-.639.518-1.281 1.033-1.924 1.545-.1.083-.216.169-.349 0 .1-.1.2-.207.305-.3 1.1-.916 2.185-1.848 3.3-2.739a94.41 94.41 0 0120.665-12.746 59.109 59.109 0 019.075-3.256c1.245-.322 2.5-.59 3.756-.891.339-.013.663-.146.914-.375-.181-.118-.317-.218-.463-.3-.146-.082-.32-.152-.5-.235-.6.033-1.211.042-1.815.1a56.522 56.522 0 00-8.242 1.404 46.612 46.612 0 00-6.9 2.337 64.238 64.238 0 00-10.471 5.849c-2.94 1.977-5.758 4.12-8.586 6.251a1161.898 1161.898 0 01-9.2 6.864c-.891.655-1.848 1.22-2.782 1.816-.19.07-.387.117-.587.14 1.168-.813 2.186-1.478 3.157-2.2 3.467-2.593 6.922-5.199 10.365-7.816a130.77 130.77 0 0110.904-7.627 49.714 49.714 0 0117.7-6.822c1.481-.25 2.978-.4 4.468-.6.311-.042.62-.092.93-.138a10.026 10.026 0 00-3.281-.194c-1.854.132-3.7.391-5.544.622-.673.084-1.337.24-2 .366-.738.139-1.474.282-2.211.423l.025.024c.051-.219.237-.239.409-.278 1.011-.228 2.022-.459 3.034-.682a32.436 32.436 0 016.7-.818c.45.023.901-.045 1.325-.2-.513-.091-.855-.166-1.2-.211a32.56 32.56 0 00-8.77.047c-.743.105-1.475.28-2.215.409-2.184.383-4.333.94-6.427 1.668a.931.931 0 01-.788.064c.4-.163.739-.32 1.094-.446a44.854 44.854 0 019.072-2.132 28.43 28.43 0 014.175-.256 37.29 37.29 0 014.276.31c.23.005.459-.009.687-.043l-2.07-2.027a.87.87 0 00-.157-.146 4.122 4.122 0 00-.668-.325 46.507 46.507 0 00-2.165-.625 25.23 25.23 0 00-10.954-.489 20.117 20.117 0 00-7.261 2.8 30.345 30.345 0 00-3.983 3.087c-2.162 1.938-4.149 4.048-6.128 6.168-2.712 2.9-5.471 5.761-8.435 8.413a52.346 52.346 0 01-11.134 7.8c-1.53.778-3.065 1.546-4.591 2.334a27.238 27.238 0 00-5.1 3.35 11.15 11.15 0 00-2.57 3c-.061.107-.195.224-.041.363 1.041-.56 2.067-1.141 3.119-1.669a13.756 13.756 0 013.226-1.338 57.216 57.216 0 00-6.843 3.828 3.095 3.095 0 00-.378 1.969c.233-.128.445-.229.641-.357 1.108-.722 2.2-1.47 3.322-2.172a44.965 44.965 0 016.546-3.433.782.782 0 01.678-.078c-.99.49-1.945.94-2.878 1.432a63.54 63.54 0 00-2.9 1.62 64.093 64.093 0 00-2.719 1.72 27.605 27.605 0 00-2.7 1.907 2.64 2.64 0 001.46 2.159 8.047 8.047 0 001.79.7c2.33.6 4.763.687 7.131.255a27.619 27.619 0 009.262-3.265c1.243-.709 2.459-1.464 3.683-2.2a49.894 49.894 0 015.342-2.97 7.851 7.851 0 001.625-1.025 562.974 562.974 0 015.964-4.567c.249-.189.473-.451.828-.46l.038.033c-.143.358-.495.5-.768.709-1.576 1.236-3.162 2.459-4.742 3.689-.22.171-.426.361-.658.558.114.061.174.122.222.114a9.933 9.933 0 013.411.187c2.563.491 5.131.963 7.687 1.487 2.205.479 4.464.661 6.717.541a24.963 24.963 0 003.509-.439 29.997 29.997 0 008.371-3.244 26.247 26.247 0 0010.2-9.885c.829-1.42 1.58-2.886 2.362-4.334.713-1.322 1.375-2.674 2.141-3.965.711-1.2 1.515-2.342 2.3-3.491a1.564 1.564 0 00.267-1.484l-3.281-1.287c-.261.082-.468.137-.668.212a40.763 40.763 0 00-8.121 4.329 67.242 67.242 0 00-13.6 12.236 77.588 77.588 0 00-5.1 6.5c-.081.117-.127.326-.384.274.025-.107.061-.21.109-.309.349-.541.685-1.093 1.065-1.612a75.113 75.113 0 0112.576-13.6 48.778 48.778 0 0113.061-8.131c.083-.033.137-.141.264-.28a2.139 2.139 0 00-.524-.163c-.178.01-.353.045-.521.105a39.001 39.001 0 00-7.038 2.576 50.808 50.808 0 00-10.973 7.262c-.267.226-.565.42-.848.631zm71.191-57.031l-.068-.056a6.096 6.096 0 011.272-1.279c.191-.187.379-.377.723-.719-.455.088-.7.113-.93.184a20.963 20.963 0 00-5.445 2.493c-.746.492-1.482 1-2.219 1.508a16.364 16.364 0 00-4.541 4.806 39.774 39.774 0 00-2.311 4.482 65.987 65.987 0 01-5.347 9.541c-2.1 3.031-4.228 6.041-6.34 9.064-.127.183-.364.327-.313.6.071.024.109.052.135.043a3.304 3.304 0 002.015-1.485c.189-.343.439-.652.657-.98 1.267-1.908 2.536-3.815 3.808-5.722.094-.14.147-.369.477-.355-.141.253-.237.443-.35.623-.913 1.456-1.831 2.908-2.74 4.365-.08.127-.254.272-.005.462.233-.271.474-.532.694-.811a168.357 168.357 0 0010.124-14.139 7.09 7.09 0 01.455-.584l.091.066a4.784 4.784 0 01-.3.675c-.942 1.477-1.867 2.965-2.852 4.412-1.208 1.772-2.47 3.507-3.7 5.262-.075.108-.28.221-.069.442.256-.272.507-.523.74-.79.848-.968 1.688-1.943 2.536-2.911.075-.087.16-.241.324-.049-.124.17-.248.344-.377.513a35.73 35.73 0 01-.871 1.09c-.136.165-.274.33-.412.494-.161.191-.322.383-.486.572-.14.163-.283.323-.424.484l-.5.563c-.141.161-.282.323-.425.483a64.1 64.1 0 01-.432.477l-.505.555c-.144.159-.285.32-.43.478-.145.158-.294.313-.439.471-.17.183-.339.368-.508.552-.145.158-.29.316-.437.473-.17.183-.351.358-.509.551-.115.141-.326.244-.263.57.157-.102.309-.212.456-.329.772-.691 1.55-1.375 2.3-2.085.497-.462.969-.949 1.415-1.46 3.472-4.043 7.074-7.964 10.933-11.642a74.946 74.946 0 017.246-6.2 2.09 2.09 0 01.906-.545l.058.051c-.2.193-.4.4-.612.576-1.485 1.234-3.012 2.421-4.456 3.7a137.468 137.468 0 00-12.692 13.1c-.083.1-.152.205-.376.51.51-.256.997-.557 1.454-.9a12.826 12.826 0 013.418-1.771 7.715 7.715 0 002.151-1.172 197.764 197.764 0 0111.1-7.523 129.147 129.147 0 0128.61-13.567c.219-.049.442-.079.667-.089-.076.074-.1.11-.128.122-.938.344-1.877.687-2.816 1.028a132.11 132.11 0 00-24.103 11.616 193.023 193.023 0 00-12.315 8.215c-.2.145-.522.225-.513.571 1.1-.1 2.167-.237 3.237-.284a4.598 4.598 0 001.942-.527 140.069 140.069 0 0111.414-5.2 130.17 130.17 0 0111.625-4.114c2.4-.717 4.82-1.354 7.242-1.984 1.487-.386 2.993-.7 4.495-1.027.415-.09.845-.112 1.269-.165-4.02 1.01-8.029 2.025-11.988 3.227a139.585 139.585 0 00-15.98 5.921 84.027 84.027 0 00-7.719 3.71c-.013.007 0 .065.006.1a2.084 2.084 0 001.626-.074 115.306 115.306 0 0113.814-3.55c2.638-.511 5.313-.758 7.98-1.059.097-.004.194.001.29.013-3.659.527-7.3 1.071-10.893 1.906a107.676 107.676 0 00-10.727 3c.146.072.31.102.472.085.422-.075.84-.175 1.258-.273 2.333-.545 4.665-1.1 7-1.633.382-.088.778-.122 1.168-.174.354-.048.71-.093 1.066-.129a3.14 3.14 0 011.068-.018c-.844.172-1.7.259-2.538.428-2.594.52-5.156 1.18-7.714 1.854-.07.019-.116.128-.223.253.37.111.67.206.973.29a26.141 26.141 0 015.092 1.983c1.205.629 2.378 1.319 3.566 1.98.279.156.561.307.8.436 1.171-.043 2.279-.081 3.387-.127 1.533-.063 3.07-.129 4.609-.2.679-.032 1.356-.093 2.035-.128a34.959 34.959 0 008.539-1.522c2.394-.739 4.736-1.625 7.059-2.558a22.319 22.319 0 009.256-7.109c.171-.216.3-.464.517-.8a5.927 5.927 0 00-.65.085c-1.21.317-2.417.648-3.627.963a15.49 15.49 0 01-3.808.5c2.877-.52 5.674-1.336 8.437-2.109.585-.822.585-.822.7-1.439-.108.018-.211.03-.311.054-1.564.38-3.126.764-4.69 1.142-.833.2-1.673.38-2.5.6-1.255.29-2.528.501-3.809.632-.14.006-.28-.001-.418-.02a1.47 1.47 0 01.571-.219c1.264-.249 2.537-.453 3.789-.75 2.3-.544 4.582-1.137 6.869-1.72.341-.087.667-.231.941-.328.107-.209.185-.331.235-.464a8.238 8.238 0 012.725-3.517 36.706 36.706 0 014.392-3.074 21.443 21.443 0 004.035-3.009 13.326 13.326 0 003.133-4.447c.22-.562.4-1.144.52-1.738.12-.5.07-1.024-.14-1.494-.21.027-.38.041-.55.072-1.235.226-2.468.447-3.696.684-2.493.483-4.986.964-7.473 1.469-.91.185-1.808.427-2.708.659-1.211.312-2.418.644-3.629.955-.224.042-.45.068-.677.078.41-.224.844-.402 1.294-.529 3.015-.913 6.087-1.6 9.168-2.242 2.487-.515 4.992-.942 7.491-1.418.21-.057.42-.132.63-.224a.43.43 0 00.04-.194.338.338 0 00-.04-.196 8.768 8.768 0 00-2.76-4.014 11.97 11.97 0 00-4.552-2.329 5.307 5.307 0 00-3.573-.031 98.189 98.189 0 00-9.079 2.554 92.099 92.099 0 00-17.079 7.432c-.12.055-.245.099-.373.132a.958.958 0 01.408-.45c.646-.381 1.29-.768 1.952-1.122a98.768 98.768 0 0120.537-8.024l3.194-.878a.93.93 0 00-.511-.119 20.363 20.363 0 00-3.938.44 58.488 58.488 0 00-7.567 2c-2.473.834-4.918 1.752-7.361 2.67a77.673 77.673 0 01-8.657 2.847c-2.743.678-5.5 1.31-8.254 1.936-2.652.6-5.276 1.306-7.891 2.05a7.708 7.708 0 00-2.393 1.16 55.713 55.713 0 00-7.952 6.862c-.186.193-.334.446-.647.53.016-.088.008-.159.039-.2a51.143 51.143 0 018.118-7.37 1.003 1.003 0 00-.282-.052 5.451 5.451 0 00-2.676 1.269c-.525.485-1.089.927-1.644 1.379a6.074 6.074 0 01-.532.355zm-3.221 52.135c-.359-.145-.495-.5-.7-.779a194.844 194.844 0 00-6.48-8.422 74.579 74.579 0 00-6.8-7.448 22.192 22.192 0 00-5.036-3.63 5.614 5.614 0 00-1.459-.593c-.338.3-.87.337-1.228.767.284.273.536.523.8.765a61.228 61.228 0 014.444 4.512 50.75 50.75 0 014.828 6.3c.088.139.317.27.112.5-.579-.786-1.132-1.578-1.728-2.336a84.762 84.762 0 00-2.579-3.16 87.053 87.053 0 00-2.763-3c-.518-.543-1.081-1.043-1.626-1.561a.187.187 0 00-.094-.047c-.021 0-.047.024-.07.037-.008.032-.034.076-.021.1.14.2.275.414.431.607a69.79 69.79 0 015.206 7.354 49.616 49.616 0 015.677 12.339c.097.269.164.548.2.832.015.287.366.5.14.878-.124-.3-.242-.561-.337-.827-.528-1.481-1-2.984-1.585-4.441a59.178 59.178 0 00-6.329-11.431 63.435 63.435 0 00-5.03-6.417 1.342 1.342 0 00-.834-.607c-.778.309-1.534.67-2.264 1.08.148.21.258.389.391.55a23.982 23.982 0 012.386 3.562 44.552 44.552 0 014.703 13.839c.377 2.04.592 4.109.868 6.167.235 1.738.268 3.493.356 5.242.03.587-.025 1.179-.041 1.769a3.943 3.943 0 01-.222-1.259 41.959 41.959 0 00-.3-4.7 50.993 50.993 0 00-.82-5.952c-.346-1.755-.694-3.506-1.136-5.24a41.108 41.108 0 00-3.637-9.38 22.573 22.573 0 00-2.358-3.581 2.778 2.778 0 00-.83-.825 3.33 3.33 0 00-.43.094c-1.311.474-2.609.989-3.935 1.419a2.886 2.886 0 00-1.724 1.5 10.14 10.14 0 00-1.185 3.986 14.225 14.225 0 00.354 5c.067.345.113.694.138 1.044-.21-.528-.353-.818-.439-1.124a8.29 8.29 0 01-.175-.949c-.058-.353-.117-.706-.161-1.061-.039-.32-.067-.641-.084-.963-.018-.32-.022-.642-.022-.963 0-.321 0-.645.019-.965.026-.321.07-.641.13-.957.058-.316.134-.63.219-.94.095-.345.2-.688.318-1.025.107-.3.248-.594.361-.9.1-.277.364-.5.364-.837-.486-.068-.8.22-1.175.322a3.881 3.881 0 00-2.095 1.577 16.876 16.876 0 00-3.044 7.031 15.907 15.907 0 00-.131 5.022c.141 1.247.452 2.468.926 3.63.089.209.245.433.04.737-.153-.321-.3-.6-.423-.894a15.154 15.154 0 01-1-7.263 16.557 16.557 0 012.949-8.075c.1-.149.3-.278.228-.511a.407.407 0 00-.13-.007c-.1.037-.197.08-.291.129a14.078 14.078 0 00-3.917 3.137 9.077 9.077 0 00-1.676 2.607 16.652 16.652 0 00-1.31 5.29 24.437 24.437 0 001.332 9.826 23.306 23.306 0 003.47 6.627 11.843 11.843 0 006.563 4.39 26.56 26.56 0 001.672.377c1.8.306 3.631.396 5.453.268a20.747 20.747 0 006.611-1.278c2.534-.982 5.079-1.935 7.611-2.922a29.271 29.271 0 016.271-1.827 19.374 19.374 0 018.4.517 14.996 14.996 0 018.138 5.643c.422.577.819 1.173 1.221 1.765.522.771 1.006 1.569 1.563 2.312a47.557 47.557 0 002.156 2.671 6.207 6.207 0 002.871 1.814c.511.163 1.032.3 1.553.421.148.005.296-.011.44-.049a12.142 12.142 0 00-.787-1.924 56.694 56.694 0 00-.823-1.747c-.3-.609-.615-1.212-.935-1.812-.32-.6-.642-1.2-.983-1.786-.323-.556-.677-1.095-1.008-1.647-.4-.538-.746-1.114-1.031-1.72.15.061.28.162.376.292.457.641.93 1.271 1.347 1.937a56.618 56.618 0 013.969 7.6c.139.322.3.636.441.938.91.108 1.831.098 2.739-.03a20.54 20.54 0 004.549-1.227 11.867 11.867 0 005.175-3.875c.461-.592.878-1.221 1.282-1.854a44.989 44.989 0 002.251-4.14c-.178-.237-.323-.441-.477-.636-.178-.225-.364-.443-.547-.663l-.482-.576-.486-.574c-.186-.217-.372-.435-.56-.651-.166-.188-.335-.373-.5-.559l-.5-.558c-.169-.185-.337-.371-.508-.554-.2-.21-.393-.417-.589-.625-.173-.182-.344-.365-.518-.545-.174-.18-.35-.359-.526-.537l-.6-.612c-.177-.178-.353-.355-.533-.53-.18-.175-.361-.347-.542-.521-.206-.2-.409-.4-.617-.6-.182-.173-.369-.34-.553-.509-.184-.169-.367-.342-.553-.51a87.017 87.017 0 00-1.21-1.063l-.572-.488c-.191-.162-.382-.325-.576-.484a50.773 50.773 0 00-.669-.539l-.593-.461c-.198-.153-.4-.307-.595-.459-.228-.174-.461-.341-.682-.523a1.139 1.139 0 01-.556-.736 39.78 39.78 0 013.413 2.517c1.023.839 2.035 1.7 3.012 2.589a79.19 79.19 0 012.933 2.836c.929.944 1.818 1.926 2.719 2.9.92.99 1.728 2.08 2.715 3.118.564-.772.991-1.54 1.475-2.338a13.364 13.364 0 00-1.285-1.3 195.1 195.1 0 00-1.328-1.253c-.42-.39-.841-.778-1.268-1.159-.455-.4-.91-.809-1.378-1.2-.468-.391-.953-.757-1.429-1.137-.476-.38-.963-.693-1.41-1.1.077-.058.116-.1.129-.095.225.106.443.225.653.358a40.01 40.01 0 014.2 3.346c.978.893 1.942 1.8 2.917 2.7.151.14.28.337.595.294.084-.1.206-.223.311-.361a12.122 12.122 0 002.369-8.489 18.981 18.981 0 00-.579-3.164 22.762 22.762 0 00-7.519-12.224 47.942 47.942 0 00-6.094-4.388 53.352 53.352 0 01-7.03-5.106 51.998 51.998 0 00-6.667-5.057 63.484 63.484 0 00-6.076-3.439 23.34 23.34 0 00-12.711-2.335 15.467 15.467 0 00-6.378 2.073 20.781 20.781 0 00-5.267 4.528 2.643 2.643 0 00-.213.413c.395-.049.677-.079.957-.121a51.505 51.505 0 017.913-.6c3.902.014 7.783.558 11.539 1.617.447.126.88.3 1.314.464.137.052.318.09.322.314-.958-.246-1.887-.489-2.818-.724a45.207 45.207 0 00-14.058-1.134c-1.568.1-3.127.372-4.688.578-.283.046-.56.117-.83.213a4.168 4.168 0 00-.572.331 40.77 40.77 0 0112.266.819 51.002 51.002 0 0111.48 3.813c3.13 1.5 8.775 5.388 10.036 6.97-.5-.359-.845-.6-1.184-.847-1.247-.9-2.482-1.823-3.742-2.706a34.31 34.31 0 00-5.87-3.341 49.804 49.804 0 00-19.107-4.425 21.714 21.714 0 00-4.694.31 2.696 2.696 0 00-.828.653c.116.057.237.105.361.143a29.973 29.973 0 017.65 2.754 51.89 51.89 0 0110.939 7.341c1.108.961 2.158 1.987 3.227 2.992.1.094.305.2.132.4-1.22-1.062-2.42-2.136-3.652-3.171a53.772 53.772 0 00-11.1-7.3 31.66 31.66 0 00-6.01-2.279c-.145-.037-.308-.141-.412.031 1.314.586 2.638 1.13 3.92 1.76a44.033 44.033 0 0110.4 7.349 110.965 110.965 0 0111.12 11.932c1.57 1.951 3.089 3.944 4.62 5.925.212.274.524.5.506.912l.009-.012a2.177 2.177 0 01-.4-.315c-.561-.7-1.108-1.4-1.658-2.109a137.843 137.843 0 00-10.29-11.952 73.715 73.715 0 00-8.109-7.349 38.077 38.077 0 00-10.82-5.834c-.539-.181-1.089-.332-1.571-.478a3.086 3.086 0 00-1.073.62c.083.09.176.17.277.238 2.6 1.3 4.946 3.056 6.926 5.184a123.118 123.118 0 0112.312 15.278c.085.153.155.314.208.481l-.034.046zm-32.71-16.888c.2-.529.367-.961.521-1.4a205.143 205.143 0 005.208-17.259c1.147-4.546 1.982-9.157 2.813-13.769.013-.33.101-.652.256-.943a.91.91 0 01.052.241c-.047.462-.09.924-.156 1.383a138.617 138.617 0 01-2.444 12.748c-1.435 5.916-3.185 11.74-5.184 17.489a3.424 3.424 0 00-.318 1.187 10.176 10.176 0 002.183-.765 90.336 90.336 0 007.821-18.007.542.542 0 01.112.56c-.209.721-.4 1.448-.64 2.16a84.9 84.9 0 01-5.967 13.89c-.168.308-.315.627-.469.935.082.051.119.091.139.084 1.144-.395 2.292-.782 3.429-1.2a2 2 0 001.064-1.155c.136-.291.234-.6.341-.9a38.913 38.913 0 011.94-4.537c.578-1.152 1.159-2.3 1.713-3.465a36.974 36.974 0 003.542-15.035 12.435 12.435 0 00-1.773-7.089c-1.447-2.327-1.442-2.266-1.619-5.339a13.771 13.771 0 01-.023-.537c-.057-2.718-.114-5.436-.169-8.154a23.864 23.864 0 00-.677-5.2 18.443 18.443 0 00-8.072-11.47 17.201 17.201 0 00-8.456-2.818 2.372 2.372 0 00-1.207.109 4.732 4.732 0 00-.023.607c.1 1.32.211 2.639.308 3.958.127 1.748.255 3.5.359 5.246.036.6.009 1.215-.006 1.823 0 .067-.11.131-.216.251-.079-1.07-.156-2.059-.225-3.05-.066-.963-.12-1.927-.187-2.89-.07-1-.128-2-.23-2.995a16.208 16.208 0 00-.384-3 4.604 4.604 0 00-.761 0c-.669.115-1.338.243-2 .4a16.128 16.128 0 00-5.3 2.256 28.065 28.065 0 00-3.458 2.717c-.208.194-.4.4-.616.618a75.457 75.457 0 00-1.448 12.235 6.854 6.854 0 01-.195-1.374c.011-.929.07-1.857.134-2.784a67.92 67.92 0 01.763-6.389c.108-.282.115-.592.02-.878-.837.82-1.36 1.852-2.127 2.643-.052.255-.1.463-.134.675a49.346 49.346 0 00-.461 6.415c-.009 1.608.051 3.217.122 4.824.053 1.178.177 2.352.263 3.529-.021.17-.058.337-.111.5a32.448 32.448 0 01-.514-4.013c-.1-1.245-.118-2.5-.125-3.75-.008-1.286.03-2.574.069-3.86.039-1.286.257-2.544.3-3.8-.125-.049-.192-.1-.253-.1-1.529.174-3.062.319-4.584.545-.777.123-1.541.319-2.281.586a5.826 5.826 0 00-2.248 1.208c.044 1.056.067 2.091.137 3.123a27.04 27.04 0 01.227 3.035 15.514 15.514 0 01-.379-1.884c-.092-.673-.121-1.355-.22-2.027-.091-.62-.035-1.259-.189-1.89a5.976 5.976 0 00-2.929 6.212 16.07 16.07 0 014.225 1.725c1.353.791 2.643 1.688 4.007 2.569-.041-.322-.062-.6-.112-.865-.167-.913-.351-1.823-.512-2.737a2.854 2.854 0 01.01-.562c.413 1.6.77 3.2 1.28 4.713.927.919 1.838 1.779 2.7 2.687.862.908 1.689 1.85 2.5 2.8.811.95 1.6 1.925 2.368 2.917.768.992 1.515 2 2.212 3.035a50.397 50.397 0 011.967 3.2c.62 1.088 1.169 2.193 1.862 3.5 0-1.351 0-2.457-.01-3.563-.006-1.073-.036-2.146-.027-3.219-.05-1.074-.016-2.15.1-3.219.158.803.238 1.62.239 2.439.009.966.029 1.931.049 2.9.036 1.717.089 3.434.105 5.151-.001.5.083.996.25 1.468a39.707 39.707 0 012.027 8.984c.039.346.107.689.162 1.033.121-.186.193-.4.209-.622.345-2.95.625-5.906.735-8.874.093-2.5.152-5.006.193-7.51.06-3.576.078-7.154.141-10.73a9.64 9.64 0 01.219-2.736c.039.311.071.45.072.59.018 2.468.052 4.936.041 7.4-.013 2.9-.073 5.8-.1 8.692-.039 4.118-.324 8.219-.72 12.316-.248 2.562-.7 5.1-.8 7.679-.131 3.357-.344 6.712-.468 10.069-.01 1.108.038 2.217.144 3.32.043.606.21 1.198.491 1.737a1.082 1.082 0 00.44-1.071c.006-2.326.131-4.65.374-6.963.567-5.443 1.141-10.885 1.72-16.327.036-.229.084-.455.144-.679.084.999.072 2.003-.036 3-.341 3.524-.689 7.048-1.044 10.571-.291 2.848-.556 5.7-.663 8.558-.047.494-.029.991.053 1.48.371-.075.479-.375.68-.561.235-.217.44-.466.7-.74.292-1.4.593-2.839.889-4.274a135.03 135.03 0 002.361-15.806c.215-2.53.437-5.059.649-7.59.024-.394.116-.781.271-1.144.006.431.019.608.009.784-.108 1.784-.211 3.569-.33 5.353a126.268 126.268 0 01-1.8 14.8c-.4 2.145-.839 4.282-1.255 6.424-.043.224-.18.457-.009.7.075-.058.155-.089.178-.144a5.16 5.16 0 00.212-.605c1.1-4.111 2.2-8.225 3.091-12.389.075-.352.156-.7.235-1.054a.95.95 0 01.065.537 68.35 68.35 0 01-1.474 7.141c-.426 1.737-.885 3.466-1.317 5.2-.044.177-.211.391.064.588.17-.1.354-.21.532-.326.178-.116.351-.242.546-.378.1-.34.208-.679.3-1.024 1.448-5.503 2.7-11.05 3.755-16.643a183.787 183.787 0 003.235-27.148 82.7 82.7 0 00-.427-13.07c-.026-.21-.012-.425-.017-.637.279.741.446 1.52.495 2.311.375 3.2.519 6.422.43 9.643-.075 4.581-.416 9.147-.93 13.7a211.712 211.712 0 01-3.863 22.845c-.669 2.966-1.423 5.913-2.128 8.871-.052.22-.247.455-.007.728l3.255-1.414zm-10.692 10.327a2.62 2.62 0 00-.333-.229 7.217 7.217 0 01-2.618-2.171 11.948 11.948 0 01-2.426-5.774 18.877 18.877 0 01-.089-4.708c.19-1.778.476-3.545.857-5.292.495-2.491.933-4.991 1.2-7.518.266-2.706.298-5.43.095-8.142a18.228 18.228 0 00-.342-2.115 24.807 24.807 0 00-1.175-3.787 19.307 19.307 0 00-2.576-4.926 77.927 77.927 0 00-6.411-7.639 29.573 29.573 0 00-6.437-4.967 15.974 15.974 0 00-3.518-1.574 7.606 7.606 0 01-1.938-.892 5.898 5.898 0 00-1.957-.853 2.206 2.206 0 00-2.636 1.047 2.202 2.202 0 00-.264.982 2.156 2.156 0 00-.022.321c.017.749-.012 1.5.067 2.247a46.984 46.984 0 002.594 10.934c.906 2.524 1.82 5.045 2.695 7.579.736 2.128 1.394 4.284 2.137 6.41a102.804 102.804 0 013.3 11.654 69.046 69.046 0 001.562 5.909 18.617 18.617 0 008.227 10.612 54.094 54.094 0 006.765 3.518c.72.313 1.476.541 2.221.791.206.051.417.085.629.1.253-.468.388-.99.393-1.522v.005zm62.034 33.85a15.112 15.112 0 01-3.445-3.557c-.66-.89-1.27-1.816-1.9-2.728-.528-.764-1.034-1.546-1.585-2.294a13.518 13.518 0 00-3.64-3.448 16.678 16.678 0 00-9.6-2.529 22.407 22.407 0 00-7.814 1.73c-3.148 1.268-6.3 2.534-9.522 3.605a24.703 24.703 0 01-9.077 1.3 5.04 5.04 0 00-.6.073c.557.2.885.329 1.222.431a32.272 32.272 0 0013.154 1.14c1.314-.152 2.629-.3 3.941-.476a21.435 21.435 0 018.816.642c1.853.535 3.68 1.166 5.5 1.794 2.129.733 4.236 1.532 6.366 2.263a46.872 46.872 0 007.036 1.886c.38.061.765.107 1.148.163v.005zm-61.966-34.935c-.122-.47-.189-.741-.264-1.01a14.344 14.344 0 01-.546-4.561c.173-3.466.492-6.919.818-10.373a42.307 42.307 0 00-.153-10.275c-.121-.813-.3-1.618-.451-2.426a30.363 30.363 0 00-2.505-7.621c-.115-.237-.257-.461-.422-.754a1 1 0 00-.008.294c.519 1.412.835 2.89.939 4.391.223 2.567.21 5.15-.038 7.715-.24 2.6-.7 5.172-1.191 7.737-.274 1.44-.547 2.882-.737 4.335a17.052 17.052 0 00.326 6.92 10.394 10.394 0 002.643 4.6c.436.469.982.82 1.589 1.023v.005z" fill="url(#paint14_linear)"/><path opacity=".8" d="M725.663 575.394c-.349.429-.136.9-.087 1.344.446 3.73.54 7.489.283 11.235a69.456 69.456 0 01-5.344 22.024c-2.878 6.936-6.774 13.474-11.581 19.433-8.786 10.896-19.734 20.157-32.265 27.292-10.792 6.261-22.644 10.816-35.065 13.475a106.679 106.679 0 01-26.953 2.182 5.444 5.444 0 00-2.055.056c-.136.398-.293.825-.423 1.261-1.945 6.66-5.74 12.737-11.01 17.633-3.814 3.513-8.194 6.462-12.984 8.743a74.336 74.336 0 01-18.603 5.97 127.473 127.473 0 01-26.232 2.112 189.952 189.952 0 01-21.323-1.629c-4.831-.627-9.644-1.352-14.42-2.276-4.232-.819-8.435-1.777-12.639-2.697-6.072-1.329-12.059-2.945-17.998-4.7-6.033-1.784-12.03-3.672-18.031-5.549-4.809-1.505-9.605-3.051-14.399-4.595-4.272-1.379-8.533-2.785-12.803-4.166a579.128 579.128 0 00-6.849-2.171 504.959 504.959 0 00-29.152-8.187 266.842 266.842 0 00-19.114-4.023 202.436 202.436 0 00-36.875-3.123c-15.315.246-30.481 2.818-44.887 7.612a158.19 158.19 0 00-23.644 9.788c-12.537 6.497-23.473 15.322-32.116 25.917a176.746 176.746 0 00-12.282 16.487 67.748 67.748 0 00-6.509 12.818.579.579 0 01-.303.34c.445-1.264.845-2.543 1.341-3.789a70.475 70.475 0 017.642-13.69 171.338 171.338 0 0112.53-16.158c8.071-9.231 18.003-16.937 29.25-22.693 17.531-9.123 36.884-14.882 56.894-16.932 9.206-.864 18.48-.93 27.699-.198 5.415.394 10.801.996 16.161 1.806 4.961.752 9.888 1.671 14.793 2.699 9.573 2.006 19.005 4.477 28.351 7.223 5.986 1.755 11.927 3.663 17.878 5.531 4.379 1.38 8.743 2.793 13.11 4.199 4.699 1.515 9.388 3.047 14.093 4.558 2.327.752 4.659 1.484 6.999 2.197 8.347 2.577 16.733 5.032 25.251 7.103 5.883 1.43 11.805 2.714 17.784 3.777a227.968 227.968 0 0026.285 3.243c10.64.74 21.339.221 31.835-1.546a74.481 74.481 0 0019.799-6.164c6.343-2.977 11.903-7.196 16.291-12.362 3.199-3.886 5.586-8.287 7.039-12.978a2.02 2.02 0 00.136-1.555 9.788 9.788 0 00-1.115-.227 93.547 93.547 0 01-19.707-3.973c-12.196-3.686-23.196-10.13-31.992-18.745-3.638-3.545-6.601-7.63-8.767-12.082a26.202 26.202 0 01-2.756-11.033 15.593 15.593 0 011.137-6.269c1.201-2.994 3.626-5.436 6.756-6.802a20.387 20.387 0 018.027-1.653 35.061 35.061 0 018.229.798c12.275 2.571 23.268 8.842 31.239 17.82 7.496 8.264 11.649 18.668 11.75 29.439a48.212 48.212 0 01-.893 10.649c-.052.27-.083.542-.122.799.409.441.953.361 1.43.384 14.67.675 29.322-1.63 42.919-6.752 19.818-7.207 37.116-19.277 50.018-34.902a78.192 78.192 0 0010.002-15.333 73.517 73.517 0 006.171-17.404 61.384 61.384 0 00.728-21.985l1.448.394zm-114.007 95.8c.173-.655.332-1.137.423-1.63.737-3.928.97-7.921.696-11.899-.503-9.807-4.457-19.196-11.265-26.748-7.928-9.007-18.942-15.264-31.236-17.744a32.775 32.775 0 00-7.784-.678 18.798 18.798 0 00-7.563 1.661 12.3 12.3 0 00-4.313 3.306 11.093 11.093 0 00-2.307 4.712 17.088 17.088 0 00-.293 6.08 27.97 27.97 0 003.767 10.923c2.982 5.061 6.916 9.593 11.619 13.385 8.042 6.627 17.494 11.639 27.753 14.715a97.462 97.462 0 0016.573 3.538c1.238.15 2.484.24 3.93.379z" fill="url(#paint15_linear)"/><defs><linearGradient id="paint0_linear" x1="10683.6" y1="23941.6" x2="35042.3" y2="23861.4" gradientUnits="userSpaceOnUse"><stop stop-color="#E8C46F"/><stop offset=".24" stop-color="#BB842C"/><stop offset=".515" stop-color="#7D5723"/><stop offset=".857" stop-color="#E8C46F"/></linearGradient><linearGradient id="paint1_linear" x1="4638.96" y1="6522.69" x2="15051.9" y2="6467.77" gradientUnits="userSpaceOnUse"><stop stop-color="#E8C46F"/><stop offset=".24" stop-color="#BB842C"/><stop offset=".515" stop-color="#7D5723"/><stop offset=".857" stop-color="#E8C46F"/></linearGradient><linearGradient id="paint2_linear" x1="5323.23" y1="7130.01" x2="17193" y2="7064.86" gradientUnits="userSpaceOnUse"><stop stop-color="#E8C46F"/><stop offset=".24" stop-color="#BB842C"/><stop offset=".515" stop-color="#7D5723"/><stop offset=".857" stop-color="#E8C46F"/></linearGradient><linearGradient id="paint3_linear" x1="7156.18" y1="8710.77" x2="23080.9" y2="8615.28" gradientUnits="userSpaceOnUse"><stop stop-color="#E8C46F"/><stop offset=".24" stop-color="#BB842C"/><stop offset=".515" stop-color="#7D5723"/><stop offset=".857" stop-color="#E8C46F"/></linearGradient><linearGradient id="paint4_linear" x1="4809.19" y1="6522.71" x2="15218.6" y2="6467.82" gradientUnits="userSpaceOnUse"><stop stop-color="#E8C46F"/><stop offset=".24" stop-color="#BB842C"/><stop offset=".515" stop-color="#7D5723"/><stop offset=".857" stop-color="#E8C46F"/></linearGradient><linearGradient id="paint5_linear" x1="5868.09" y1="12419.6" x2="18621.5" y2="12376.7" gradientUnits="userSpaceOnUse"><stop stop-color="#E8C46F"/><stop offset=".24" stop-color="#BB842C"/><stop offset=".515" stop-color="#7D5723"/><stop offset=".857" stop-color="#E8C46F"/></linearGradient><linearGradient id="paint6_linear" x1="5507.33" y1="10270.1" x2="17181.5" y2="10226.8" gradientUnits="userSpaceOnUse"><stop stop-color="#E8C46F"/><stop offset=".24" stop-color="#BB842C"/><stop offset=".515" stop-color="#7D5723"/><stop offset=".857" stop-color="#E8C46F"/></linearGradient><linearGradient id="paint7_linear" x1="4323.2" y1="6889.41" x2="13175.1" y2="6851.89" gradientUnits="userSpaceOnUse"><stop stop-color="#E8C46F"/><stop offset=".24" stop-color="#BB842C"/><stop offset=".515" stop-color="#7D5723"/><stop offset=".857" stop-color="#E8C46F"/></linearGradient><linearGradient id="paint8_linear" x1="5374.42" y1="6568.66" x2="16531.6" y2="6506.06" gradientUnits="userSpaceOnUse"><stop stop-color="#E8C46F"/><stop offset=".24" stop-color="#BB842C"/><stop offset=".515" stop-color="#7D5723"/><stop offset=".857" stop-color="#E8C46F"/></linearGradient><linearGradient id="paint9_linear" x1="3421.67" y1="6636.68" x2="10010.3" y2="6615.08" gradientUnits="userSpaceOnUse"><stop stop-color="#E8C46F"/><stop offset=".24" stop-color="#BB842C"/><stop offset=".515" stop-color="#7D5723"/><stop offset=".857" stop-color="#E8C46F"/></linearGradient><linearGradient id="paint10_linear" x1="5732.05" y1="10132.5" x2="17499.7" y2="10087.8" gradientUnits="userSpaceOnUse"><stop stop-color="#E8C46F"/><stop offset=".24" stop-color="#BB842C"/><stop offset=".515" stop-color="#7D5723"/><stop offset=".857" stop-color="#E8C46F"/></linearGradient><linearGradient id="paint11_linear" x1="5469.82" y1="6675.9" x2="16522.8" y2="6615.46" gradientUnits="userSpaceOnUse"><stop stop-color="#E8C46F"/><stop offset=".24" stop-color="#BB842C"/><stop offset=".515" stop-color="#7D5723"/><stop offset=".857" stop-color="#E8C46F"/></linearGradient><linearGradient id="paint12_linear" x1="8926.35" y1="31690" x2="25603.2" y2="31661.5" gradientUnits="userSpaceOnUse"><stop stop-color="#E8C46F"/><stop offset=".24" stop-color="#BB842C"/><stop offset=".515" stop-color="#7D5723"/><stop offset=".857" stop-color="#E8C46F"/></linearGradient><linearGradient id="paint13_linear" x1="-15413.7" y1="48529.2" x2="-54542.7" y2="48427.1" gradientUnits="userSpaceOnUse"><stop stop-color="#E8C46F"/><stop offset=".24" stop-color="#BB842C"/><stop offset=".515" stop-color="#7D5723"/><stop offset=".857" stop-color="#E8C46F"/></linearGradient><linearGradient id="paint14_linear" x1="17972.7" y1="48634.2" x2="57101.7" y2="48532.1" gradientUnits="userSpaceOnUse"><stop stop-color="#E8C46F"/><stop offset=".24" stop-color="#BB842C"/><stop offset=".515" stop-color="#7D5723"/><stop offset=".857" stop-color="#E8C46F"/></linearGradient><linearGradient id="paint15_linear" x1="-44738.1" y1="-19958.4" x2="-148370" y2="-18279.7" gradientUnits="userSpaceOnUse"><stop stop-color="#E8C46F"/><stop offset=".24" stop-color="#BB842C"/><stop offset=".515" stop-color="#7D5723"/><stop offset=".857" stop-color="#E8C46F"/></linearGradient></defs></svg>