<svg width="148" height="235" viewBox="0 0 148 235" fill="none" xmlns="http://www.w3.org/2000/svg"><path opacity=".8" d="M105.316 99.705c.02.825.03 1.651.024 2.472-.048 6.34-.356 12.67-.856 18.989a530.268 530.268 0 01-1.207 13.019c-.364 3.49-.806 6.972-1.26 10.451a353.166 353.166 0 01-1.218 8.437 464 464 0 01-3.175 18.123 457.328 457.328 0 01-2.06 9.845c-1.63 7.379-3.415 14.72-5.465 21.995a528.932 528.932 0 01-2.67 9.202 376.84 376.84 0 01-2.564 8.13 285.396 285.396 0 01-2.371 6.966c-1.02 2.857-2.042 5.714-3.149 8.544a363.704 363.704 0 01-4.093 10.012 189.422 189.422 0 01-7.702 16.012 120.882 120.882 0 01-9.291 14.839 62.736 62.736 0 01-6.608 7.762 45.255 45.255 0 01-4.228 3.686 28.07 28.07 0 01-3.483 2.256c-.085.047-.17.096-.258.136a.519.519 0 01-.524.031.523.523 0 01-.287-.44 24.012 24.012 0 01-.393-4.093 73.862 73.862 0 01.728-11.112c.28-2.156.59-4.309.959-6.45.522-3.012 1.066-6.029 1.687-9.026a365.464 365.464 0 012.276-10.207c.84-3.546 1.73-7.08 2.647-10.607.803-3.089 1.666-6.168 2.514-9.248.413-1.499.85-2.992 1.282-4.485a867.002 867.002 0 013.045-10.193 626.435 626.435 0 011.622-5.182c.5-1.586 1-3.173 1.511-4.756.557-1.721 1.126-3.439 1.694-5.157.529-1.603 1.056-3.206 1.598-4.804a991.265 991.265 0 011.989-5.788c.624-1.801 1.246-3.603 1.885-5.398a819.934 819.934 0 012.448-6.785c.934-2.554 1.864-5.11 2.828-7.653 1.309-3.449 2.636-6.893 3.98-10.332 1.318-3.357 2.642-6.712 4.022-10.039 1.83-4.42 3.693-8.826 5.587-13.218a437.27 437.27 0 018.391-18.31c2.61-5.375 5.303-10.706 8.263-15.898.439-.773.896-1.53 1.352-2.29.077-.126.134-.296.423-.291.05.283.085.569.107.855zM56.248 278.427a102.467 102.467 0 007.36-10.757 172.15 172.15 0 008.286-15.677 211.087 211.087 0 004.923-11.284 433.611 433.611 0 003.861-10.027 259.317 259.317 0 002.66-7.559 380.603 380.603 0 002.634-8.109 415.43 415.43 0 002.35-7.816c2.584-8.867 4.826-17.822 6.802-26.844.626-2.86 1.223-5.726 1.791-8.598a562.557 562.557 0 001.724-9.205 378.087 378.087 0 002.428-15.255c.366-2.598.729-5.196 1.035-7.8a452.24 452.24 0 001.144-10.574c.361-3.845.689-7.693.939-11.545.261-4.01.422-8.026.609-12.04.077-1.65.104-3.301.154-4.951a.99.99 0 00-.066-.424c-.071.115-.148.231-.214.347a314.347 314.347 0 00-6.987 13.198c-2.967 5.93-5.768 11.939-8.467 17.994a584.33 584.33 0 00-6.71 15.67 994.44 994.44 0 00-4.526 11.215c-1.32 3.343-2.592 6.704-3.87 10.063a631.626 631.626 0 00-4.892 13.301 1267.43 1267.43 0 00-2.31 6.524 499.114 499.114 0 00-1.725 5.031c-.61 1.794-1.216 3.588-1.82 5.384-.47 1.405-.926 2.814-1.39 4.223-.497 1.523-.99 3.048-1.482 4.574a813.932 813.932 0 00-2.63 8.415 418.92 418.92 0 00-1.087 3.592c-.548 1.84-1.092 3.68-1.632 5.521a604.863 604.863 0 00-3.068 10.947 385.32 385.32 0 00-1.671 6.382c-.772 3.099-1.56 6.197-2.269 9.312a386.69 386.69 0 00-2.317 10.834c-.581 2.942-1.075 5.904-1.544 8.866a102.909 102.909 0 00-1.095 9.772 47.332 47.332 0 00-.026 6.442c.012.155.031.305.047.456h.07c.064-.351.13-.704.19-1.056.247-1.437.476-2.876.74-4.31.438-2.389.882-4.778 1.351-7.162a505.548 505.548 0 014.539-20.755c1.231-5.076 2.523-10.138 3.81-15.2a439.696 439.696 0 012.009-7.537c.656-2.402 1.337-4.797 2.015-7.193a657.212 657.212 0 013.684-12.592c.56-1.86 1.127-3.719 1.7-5.577.622-2.008 1.259-4.008 1.893-6.012.495-1.563.988-3.126 1.496-4.685a794.67 794.67 0 011.918-5.813c.52-1.566 1.045-3.132 1.574-4.697.572-1.678 1.15-3.354 1.736-5.027.618-1.766 1.238-3.53 1.86-5.293a645.653 645.653 0 013.707-10.163 869.89 869.89 0 012.23-5.894 672.14 672.14 0 012.318-5.937 429.376 429.376 0 012.562-6.35 648.232 648.232 0 013.766-8.927c1.959-4.537 3.98-9.046 6.197-13.464.077-.149.105-.362.341-.353.174.138.078.272.02.401-.387.839-.773 1.675-1.15 2.517-1.754 3.924-3.525 7.84-5.252 11.776a362.088 362.088 0 00-3.293 7.822 572.63 572.63 0 00-3.117 7.776 602.65 602.65 0 00-2.736 7.065 617.647 617.647 0 00-2.278 6.109 994.272 994.272 0 00-2.415 6.642 589.161 589.161 0 00-2.085 5.946c-.75 2.156-1.492 4.315-2.228 6.476-.624 1.841-1.231 3.686-1.84 5.532a937.06 937.06 0 00-1.98 6.059c-.614 1.908-1.213 3.821-1.812 5.733-.556 1.773-1.108 3.547-1.655 5.323-.382 1.242-.747 2.489-1.12 3.734-.386 1.28-.773 2.559-1.15 3.84-.433 1.468-.864 2.935-1.291 4.402a914.853 914.853 0 00-1.472 5.15c-.36 1.275-.716 2.55-1.066 3.828-.646 2.368-1.287 4.736-1.924 7.104a656.512 656.512 0 00-1.579 6.029 637.698 637.698 0 00-4.804 20.023 536.806 536.806 0 00-2.294 10.839 420.76 420.76 0 00-1.652 8.7c-.412 2.27-.773 4.55-1.159 6.826-.01.059-.01.119-.022.252.154-.068.269-.109.375-.168a28.412 28.412 0 003.917-2.656 45.084 45.084 0 005.5-5.251c.249-.283.469-.59.658-.915 1.846-3.116 3.499-6.333 5.068-9.596a228.914 228.914 0 006.188-14.107c1.38-3.449 2.71-6.919 4.022-10.394a339.69 339.69 0 002.726-7.536 569.923 569.923 0 002.81-8.202 475.469 475.469 0 002.348-7.204 782.135 782.135 0 002.523-8.067c.641-2.09 1.254-4.189 1.867-6.287.725-2.484 1.442-4.97 2.153-7.457.572-2.022 1.124-4.05 1.671-6.079.714-2.651 1.435-5.3 2.118-7.96.926-3.611 1.827-7.231 2.727-10.85 1.482-5.954 2.824-11.94 4.122-17.937a542.568 542.568 0 001.804-8.67c.526-2.608 1.033-5.22 1.52-7.835.442-2.351.867-4.706 1.274-7.064.395-2.273.775-4.549 1.14-6.827.301-1.87.588-3.742.86-5.617.309-2.126.604-4.254.897-6.383.185-1.346.353-2.696.533-4.043.03-.251.092-.497.186-.731-.077.89-.149 1.782-.242 2.671a339.75 339.75 0 01-.455 4.125 180.618 180.618 0 01-.398 3.107 318.917 318.917 0 01-.519 3.752 434.196 434.196 0 01-.617 4.069c-.18 1.164-.359 2.329-.549 3.491-.22 1.342-.446 2.683-.68 4.024a769.897 769.897 0 01-.85 4.807 211.333 211.333 0 01-.674 3.618c-.72 3.634-1.432 7.271-2.183 10.899a394.29 394.29 0 01-1.902 8.726 1832.23 1832.23 0 01-3.75 15.891c-.768 3.176-1.6 6.337-2.428 9.499a567.114 567.114 0 01-2.201 8.163 788.864 788.864 0 01-2.512 8.871 605.802 605.802 0 01-2.42 8.137 594.929 594.929 0 01-2.38 7.654 572.813 572.813 0 01-2.376 7.31 435.13 435.13 0 01-2.37 6.967 437.89 437.89 0 01-2.905 8.09c-1.27 3.398-2.549 6.796-3.894 10.17-2.587 6.501-5.372 12.915-8.556 19.153-.536 1.048-1.097 2.085-1.646 3.126l-.184.352.058.055c.114-.137.221-.266.325-.396z" fill="url(#paint0_linear)"/><path opacity=".8" d="M46.608 295.015c.093-.077.253-.144.324-.267.068-.151.104-.314.107-.48.115-1.099.225-2.2.335-3.3.017-.165.025-.33.044-.495.154-1.347.309-2.692.455-4.039.407-3.737.867-7.47 1.197-11.214.53-6.005 1.218-11.991 1.919-17.976a2753.866 2753.866 0 015.351-42.795c1.183-8.963 2.292-17.935 3.492-26.895.25-1.863.482-3.729.772-5.587 1.104-7.132 1.87-14.309 2.877-21.454.32-2.271.731-4.529 1.1-6.795.31-1.91.609-3.822.935-5.73.52-3.051 1.06-6.101 1.593-9.149.02-.109.04-.218.057-.326l.879-5.318c.397-2.374.663-4.765.875-7.161a42.35 42.35 0 00-.039-6.624 297.686 297.686 0 01-.361-6.37 16.418 16.418 0 01.045-2.154c.324-3.801.65-7.602 1.255-11.373.257-1.61.508-3.221.772-4.832.378-2.316.76-4.633 1.147-6.95.235-1.418.474-2.834.718-4.247.032-.189.078-.375.113-.559a1.3 1.3 0 01.231-.123 28.98 28.98 0 003.792-1.444c.736-.318 1.467-.631 2.173-1.021a12.24 12.24 0 004.093-3.811 19.42 19.42 0 002.927-6.634 23.73 23.73 0 00.514-3.19c.028-.27.068-.54.113-.9.12.096.231.203.33.321.511.821 1.034 1.636 1.512 2.476.437.772.815 1.57 1.232 2.35.532 1.004 1.058 2.008 1.621 2.989a21.237 21.237 0 008.881 8.458 24.247 24.247 0 005.638 2.163 19.63 19.63 0 003.945.475c1.853 0 3.699-.21 5.504-.624 1.707-.34 3.425-.627 5.121-1.013a6.05 6.05 0 014.093.526c1.173.562 2.301 1.203 3.413 1.872.877.526 1.746 1.064 2.618 1.598a23.073 23.073 0 008.08 3.089c1.961.37 3.978.317 5.918-.155a7.286 7.286 0 001.251-.427 3.111 3.111 0 001.869-3.517 6.26 6.26 0 00-.842-2.24 9.785 9.785 0 00-2.157-2.498 21.884 21.884 0 00-4.007-2.64c-1.152-.6-2.31-1.187-3.468-1.777a37.471 37.471 0 01-7.094-4.716 82.588 82.588 0 01-6.998-6.712c-1.313-1.385-2.622-2.771-3.958-4.132a34.509 34.509 0 00-3.202-2.884 16.8 16.8 0 00-5.197-2.868 18.817 18.817 0 00-5.955-.911c-1.88.02-3.75.289-5.56.798-.16.043-.321.077-.47.113-.128-.121-.044-.21.011-.3.291-.47.597-.927.873-1.409a15.921 15.921 0 001.471-3.683 87.72 87.72 0 001.189-4.657 78.65 78.65 0 012.558-8.746c.589-1.699 1.117-3.413 1.704-5.11.659-1.906 1.362-3.797 2.03-5.7a35.556 35.556 0 001.785-7.739 8.884 8.884 0 00.068-2.067 10.728 10.728 0 00-.077-.574 2.24 2.24 0 00-2.663-1.89 5.833 5.833 0 00-1.91.716c-.2-.072-.126-.232-.147-.352-.044-.245-.072-.492-.116-.737A6.028 6.028 0 00102.1 9.37a9.807 9.807 0 00-3.416-1.217c-.902-.133-1.807-.263-2.715-.332a1.993 1.993 0 01-1.653-.934 17.233 17.233 0 00-4.895-4.656 12.743 12.743 0 00-3.92-1.742c-4.247-1.15-8.103-.22-11.621 2.287a14.777 14.777 0 00-5.882 8.845 18.953 18.953 0 00-.54 4.102c-.046 2.1-.09 4.198-.147 6.297-.016.608-.066 1.215-.111 1.821-.043.498-.198.98-.453 1.41-.22.383-.444.765-.673 1.143a9.327 9.327 0 00-1.293 3.902 19.73 19.73 0 00.165 5.039c.229 1.475.538 2.936.927 4.377a24.13 24.13 0 001.647 4.333c.506 1.045 1.031 2.082 1.541 3.124.18.37.343.75.51 1.117-.17.155-.22-.006-.263-.066a88.356 88.356 0 01-1.1-1.558c-1.118-1.613-2.248-3.218-3.35-4.842a51.846 51.846 0 01-3.86-6.95c-.368-.773-.727-1.553-1.12-2.318a14.59 14.59 0 00-2.477-3.51c-.135-.14-.267-.282-.413-.409a21.138 21.138 0 00-5.9-3.79c-1.201-.483-2.456-.841-3.697-1.22a170.292 170.292 0 00-4.616-1.337 178.36 178.36 0 00-4.655-1.195c-2.549-.621-5.112-1.197-7.657-1.84a48.623 48.623 0 01-4.948-1.656c-2.123-.788-4.248-1.584-6.385-2.317a43.842 43.842 0 00-6.577-1.694 14.28 14.28 0 00-6.085.172 9.764 9.764 0 00-3.495 1.665A7.583 7.583 0 00.28 19.116a4.581 4.581 0 00.034 3.244 11.17 11.17 0 002.476 3.792 16.323 16.323 0 003.408 2.62 26.92 26.92 0 013.58 2.539 5.931 5.931 0 011.683 2.218 16.937 16.937 0 009.267 8.908 57.766 57.766 0 005.527 2.008 29.24 29.24 0 007.26 1.236c.414.02.827.059 1.24.077 1.16.052 2.317.096 3.476.147.46-.022.922.03 1.366.154-.162.13-.259.224-.37.295a34.214 34.214 0 00-3.948 3.022 46.296 46.296 0 01-6.355 4.64 31.1 31.1 0 00-5.27 4.011 17.598 17.598 0 00-4.788 7.83 19.638 19.638 0 00-.747 3.31 10.856 10.856 0 00.557 4.898 8.03 8.03 0 001.216 2.255 27.96 27.96 0 012.599 4.331 26.56 26.56 0 001.686 2.854 10.648 10.648 0 006.178 4.324c2.974.806 6.098.89 9.112.248a37.24 37.24 0 005.095-1.415c1.827-.636 3.644-1.3 5.465-1.95a40.63 40.63 0 014.27-1.336 16.348 16.348 0 015.597-.346c1.07.12 2.143.242 3.211.387a25.81 25.81 0 008.003-.24c.186-.035.374-.058.617-.096.009.146.007.292-.004.438-.386 2.373-.785 4.745-1.169 7.12-.326 2.018-.601 4.046-.962 6.059-.61 3.405-1.049 6.831-1.38 10.271a134.53 134.53 0 00-.368 4.297 31.626 31.626 0 00.05 3.976c.125 2.013.263 4.025.387 6.038a32.96 32.96 0 01-.024 4.058 79.64 79.64 0 01-.88 7.659c-.452 2.811-.92 5.62-1.405 8.425-.464 2.697-.948 5.39-1.419 8.085-.1.571-.172 1.148-.269 1.72-.359 2.126-.725 4.248-1.08 6.377a48.175 48.175 0 00-.283 1.886c-.634 4.88-1.248 9.763-1.9 14.641-.463 3.452-.984 6.896-1.454 10.348a1877.42 1877.42 0 00-1.916 14.387c-1.91 14.89-3.81 29.782-5.7 44.676a1650.558 1650.558 0 00-1.854 15.147 671.673 671.673 0 00-1.166 10.551c-.405 3.933-.753 7.87-1.158 11.803-.31 3.052-.676 6.101-1.01 9.149-.077.742-.124 1.488-.206 2.229-.045.409-.142.813-.202 1.221a8.1 8.1 0 00-.094.904.443.443 0 00.349.47zM104.895 70.33l.045-.04a2.023 2.023 0 00-.665-.717 38.7 38.7 0 00-6.321-4.526 28.87 28.87 0 00-5.66-2.53l-1.813-.59a5.978 5.978 0 011.722-.996 38.76 38.76 0 016.661 1.66 59.588 59.588 0 019.88 4.442 81.472 81.472 0 0111.671 7.998c.494.4.989.798 1.486 1.193.077.064.167.13.269 0-.077-.077-.154-.16-.235-.231-.85-.708-1.688-1.427-2.549-2.115a72.893 72.893 0 00-15.959-9.844 45.637 45.637 0 00-7.008-2.514c-.961-.249-1.93-.456-2.9-.688a1.113 1.113 0 01-.706-.29c.14-.091.245-.168.357-.232.113-.063.247-.117.386-.181.464.025.936.032 1.402.077a43.81 43.81 0 016.365 1.084 36.07 36.07 0 015.329 1.805 49.64 49.64 0 018.086 4.517c2.27 1.527 4.447 3.182 6.631 4.828a904.365 904.365 0 007.104 5.3c.688.506 1.428.943 2.149 1.403.146.054.298.09.453.108-.902-.628-1.688-1.142-2.438-1.7a1304.058 1304.058 0 01-8.004-6.035 101.17 101.17 0 00-8.421-5.89 38.397 38.397 0 00-13.67-5.269c-1.143-.193-2.299-.308-3.45-.463-.24-.032-.478-.07-.718-.106a7.741 7.741 0 012.534-.15c1.432.102 2.857.302 4.281.48.52.065 1.033.185 1.545.283.57.107 1.138.217 1.707.326l-.019.019c-.039-.17-.183-.185-.316-.215-.78-.176-1.561-.354-2.343-.526a25.052 25.052 0 00-5.174-.632 2.602 2.602 0 01-1.023-.155c.396-.07.66-.128.927-.163a25.14 25.14 0 016.772.037c.574.08 1.139.216 1.711.316a31.83 31.83 0 014.963 1.288.72.72 0 00.609.05c-.309-.127-.571-.248-.845-.345a34.633 34.633 0 00-7.006-1.647 22.007 22.007 0 00-3.224-.197 28.79 28.79 0 00-3.302.239 3.17 3.17 0 01-.531-.033l1.599-1.566a.642.642 0 01.12-.112c.165-.1.337-.184.517-.251.553-.173 1.11-.338 1.672-.483a19.485 19.485 0 018.459-.378 15.54 15.54 0 015.607 2.163 23.379 23.379 0 013.076 2.384c1.67 1.496 3.204 3.126 4.733 4.763 2.094 2.24 4.225 4.449 6.514 6.497a40.403 40.403 0 008.598 6.024c1.182.6 2.367 1.194 3.545 1.802a21.038 21.038 0 013.939 2.587 8.628 8.628 0 011.985 2.317c.047.083.15.173.031.28-.804-.432-1.596-.88-2.408-1.289a10.616 10.616 0 00-2.492-1.033 44.204 44.204 0 015.285 2.956c.263.46.366.996.292 1.52-.18-.098-.344-.176-.495-.275-.856-.557-1.699-1.135-2.566-1.677a34.695 34.695 0 00-5.055-2.651.604.604 0 00-.523-.06c.764.378 1.502.725 2.222 1.105.757.4 1.507.814 2.24 1.251.712.423 1.409.87 2.1 1.329.723.449 1.419.94 2.085 1.472a2.05 2.05 0 01-1.128 1.668 6.233 6.233 0 01-1.382.54c-1.8.463-3.679.53-5.507.197a21.332 21.332 0 01-7.153-2.521c-.96-.548-1.899-1.13-2.844-1.7a38.517 38.517 0 00-4.126-2.293 6.046 6.046 0 01-1.254-.791 447.33 447.33 0 00-4.606-3.527c-.193-.146-.366-.349-.64-.356l-.029.026c.11.276.382.386.593.547 1.217.955 2.442 1.9 3.662 2.85.17.131.329.278.508.43-.088.047-.134.095-.171.088a7.668 7.668 0 00-2.634.145c-1.98.379-3.963.743-5.937 1.148a19.56 19.56 0 01-5.187.418 19.329 19.329 0 01-2.71-.34 23.166 23.166 0 01-6.464-2.504 20.27 20.27 0 01-7.877-7.634c-.64-1.097-1.22-2.229-1.825-3.347-.55-1.021-1.061-2.065-1.653-3.062-.549-.927-1.17-1.809-1.776-2.696a1.213 1.213 0 01-.206-1.146l2.533-.994c.202.063.362.106.516.164a31.457 31.457 0 016.272 3.343 51.96 51.96 0 0110.503 9.45 59.989 59.989 0 013.938 5.019c.063.09.098.252.297.212a1.126 1.126 0 00-.085-.24c-.269-.417-.529-.843-.822-1.244a58.053 58.053 0 00-9.712-10.503 37.675 37.675 0 00-10.086-6.279c-.064-.026-.106-.109-.204-.216.129-.06.265-.102.404-.126.138.007.273.035.403.08a30.132 30.132 0 015.435 1.99 39.234 39.234 0 018.474 5.608c.206.175.436.325.655.488zM49.917 26.287l.052-.043a4.69 4.69 0 00-.982-.988c-.148-.144-.293-.291-.558-.555.351.068.54.087.718.142a16.2 16.2 0 014.205 1.925c.576.38 1.144.772 1.713 1.165a12.64 12.64 0 013.507 3.711 30.712 30.712 0 011.785 3.461 50.953 50.953 0 004.13 7.369c1.621 2.34 3.264 4.665 4.895 7 .099.14.281.252.242.463-.055.018-.084.04-.104.033a2.549 2.549 0 01-1.556-1.147c-.146-.265-.34-.504-.508-.757-.978-1.473-1.958-2.946-2.94-4.419-.073-.108-.114-.285-.369-.274.11.196.183.342.27.481.706 1.125 1.415 2.246 2.117 3.371.061.098.196.21.003.357-.18-.21-.366-.41-.536-.626a129.97 129.97 0 01-7.818-10.92 5.585 5.585 0 00-.351-.45l-.07.05c.063.18.14.355.231.522.728 1.14 1.442 2.29 2.203 3.407.933 1.369 1.907 2.709 2.857 4.064.058.083.216.17.053.341-.198-.21-.391-.404-.571-.61-.655-.748-1.304-1.5-1.959-2.248-.058-.067-.123-.186-.25-.038.096.132.192.266.291.396a28.793 28.793 0 00.673.842l.318.382c.124.147.249.295.375.441.109.126.219.25.328.374l.386.435c.109.124.218.25.328.373.11.123.222.245.334.368l.39.429c.11.123.22.247.332.369.112.122.227.242.339.364l.392.426c.112.122.224.244.338.365.13.142.27.277.393.426.088.109.251.188.203.44a4.302 4.302 0 01-.352-.254c-.597-.534-1.197-1.062-1.777-1.61a15.043 15.043 0 01-1.092-1.128c-2.682-3.122-5.463-6.15-8.443-8.99a57.94 57.94 0 00-5.596-4.788 1.622 1.622 0 00-.7-.421l-.045.04c.155.148.31.308.473.444 1.147.953 2.326 1.87 3.441 2.857a106.152 106.152 0 019.802 10.117c.064.077.117.158.29.394a7.362 7.362 0 01-1.123-.695 9.931 9.931 0 00-2.64-1.368 5.968 5.968 0 01-1.66-.905 152.797 152.797 0 00-8.573-5.81A99.753 99.753 0 0025.657 24.91a2.99 2.99 0 00-.515-.069c.059.057.077.085.099.095.724.265 1.449.53 2.174.793A102.05 102.05 0 0146.03 34.7a148.958 148.958 0 019.51 6.345c.155.112.404.174.397.441-.85-.077-1.674-.183-2.5-.22a3.559 3.559 0 01-1.5-.406 108.11 108.11 0 00-8.814-4.016 100.53 100.53 0 00-8.978-3.177c-1.853-.554-3.722-1.046-5.593-1.532-1.148-.298-2.31-.54-3.47-.793-.321-.07-.653-.087-.98-.128 3.104.78 6.2 1.564 9.257 2.492a107.752 107.752 0 0112.34 4.573 64.918 64.918 0 015.962 2.865c.01.005 0 .05-.005.077a1.613 1.613 0 01-1.255-.057 89.004 89.004 0 00-10.669-2.741c-2.037-.395-4.103-.586-6.162-.818-.075-.003-.15 0-.224.01 2.826.407 5.637.827 8.412 1.472 2.8.629 5.565 1.402 8.284 2.316a.667.667 0 01-.364.066c-.326-.058-.65-.135-.972-.21-1.802-.422-3.602-.85-5.406-1.262-.295-.068-.6-.094-.902-.134a24.61 24.61 0 00-.823-.1 2.446 2.446 0 00-.825-.014c.652.133 1.313.2 1.96.33 2.003.402 3.982.912 5.957 1.432.055.015.09.1.173.196-.286.086-.518.159-.752.224-1.36.371-2.678.885-3.932 1.531-.93.486-1.837 1.019-2.754 1.53-.215.12-.433.236-.618.336-.904-.033-1.76-.063-2.615-.098a732.47 732.47 0 01-3.56-.154c-.524-.025-1.047-.072-1.571-.1a27.016 27.016 0 01-6.595-1.175c-1.848-.57-3.657-1.255-5.451-1.975a17.233 17.233 0 01-7.148-5.49c-.132-.167-.232-.358-.4-.618.17.013.337.035.503.066.934.245 1.866.5 2.8.743.961.25 1.949.38 2.941.386-2.221-.401-4.381-1.031-6.515-1.628-.452-.635-.452-.635-.54-1.111.083.013.162.023.24.041 1.207.294 2.414.59 3.621.882.644.155 1.292.294 1.931.464.97.223 1.952.386 2.942.488a1.83 1.83 0 00.322-.016 1.145 1.145 0 00-.44-.169c-.977-.192-1.96-.35-2.927-.58-1.776-.42-3.538-.877-5.304-1.328-.264-.067-.515-.178-.727-.253-.083-.161-.143-.255-.181-.358a6.364 6.364 0 00-2.105-2.716 28.39 28.39 0 00-3.392-2.374 16.544 16.544 0 01-3.116-2.324 10.238 10.238 0 01-2.416-3.434 7.645 7.645 0 01-.406-1.342 1.83 1.83 0 01.108-1.154c.164.02.298.032.43.056.95.174 1.902.345 2.85.528 1.926.373 3.85.744 5.771 1.134.703.143 1.397.33 2.092.51.935.24 1.867.496 2.802.737.173.032.348.052.523.06a4.798 4.798 0 00-1-.409c-2.328-.705-4.7-1.235-7.08-1.731-1.92-.398-3.854-.728-5.781-1.095a3.049 3.049 0 01-.488-.173.355.355 0 01-.006-.301 6.811 6.811 0 012.136-3.1 9.238 9.238 0 013.515-1.799 4.103 4.103 0 012.76-.024 75.803 75.803 0 017.011 1.972 71.133 71.133 0 0113.189 5.74c.093.043.19.077.288.102a.739.739 0 00-.315-.347c-.499-.295-.996-.593-1.508-.867a76.275 76.275 0 00-15.86-6.196l-2.466-.679c.12-.068.257-.1.395-.091a15.76 15.76 0 013.04.34 44.96 44.96 0 015.844 1.544c1.91.644 3.798 1.353 5.685 2.062a59.986 59.986 0 006.685 2.198 347.84 347.84 0 006.375 1.495c2.048.464 4.074 1.01 6.094 1.584.663.19 1.288.492 1.848.895a43.033 43.033 0 016.14 5.3c.144.149.259.344.5.409-.012-.068-.006-.123-.03-.154a39.488 39.488 0 00-6.269-5.692.788.788 0 01.218-.04 4.21 4.21 0 012.066.98c.406.374.841.716 1.27 1.065.132.098.269.19.41.274zm2.487 40.262c.277-.112.382-.386.54-.602a150.53 150.53 0 015.005-6.504 57.588 57.588 0 015.251-5.752 17.122 17.122 0 013.89-2.803 4.335 4.335 0 011.126-.458c.261.232.672.26.949.592-.22.211-.414.404-.618.591a47.289 47.289 0 00-3.432 3.485 39.149 39.149 0 00-3.729 4.865c-.068.107-.244.208-.086.386.447-.607.874-1.219 1.334-1.804a65.492 65.492 0 011.992-2.44 67.233 67.233 0 012.134-2.317c.4-.42.835-.806 1.255-1.206a.144.144 0 01.073-.036c.016 0 .036.019.054.029.006.024.026.058.016.077-.108.154-.212.32-.332.469a53.89 53.89 0 00-4.02 5.679 38.33 38.33 0 00-4.385 9.529 2.965 2.965 0 00-.154.642c-.012.222-.283.386-.109.678.096-.231.187-.433.26-.638.408-1.144.773-2.305 1.225-3.43a45.679 45.679 0 014.887-8.828 48.969 48.969 0 013.885-4.955 1.034 1.034 0 01.644-.469 14.5 14.5 0 011.748.834c-.114.162-.199.3-.302.425-.695.86-1.312 1.78-1.842 2.75a34.406 34.406 0 00-3.632 10.688c-.291 1.575-.457 3.173-.67 4.762-.182 1.343-.208 2.698-.276 4.049-.023.453.02.91.032 1.366.11-.313.168-.641.172-.972.009-1.214.086-2.425.231-3.63.121-1.543.333-3.078.634-4.597.267-1.355.535-2.707.877-4.046a31.718 31.718 0 012.809-7.244 17.406 17.406 0 011.82-2.765c.167-.256.385-.473.642-.638.112.017.223.041.332.073 1.012.366 2.014.764 3.038 1.096a2.23 2.23 0 011.332 1.158c.514.952.826 2 .915 3.078a10.99 10.99 0 01-.273 3.862 6.67 6.67 0 00-.107.806c.162-.408.273-.632.339-.868.06-.242.104-.486.135-.733.045-.273.09-.545.124-.82.03-.246.052-.494.065-.743.014-.247.017-.496.017-.744s0-.498-.014-.745a6.991 6.991 0 00-.1-.739 8.697 8.697 0 00-.17-.726 12.24 12.24 0 00-.245-.791c-.083-.232-.192-.46-.28-.696-.076-.213-.28-.386-.28-.646.375-.052.618.17.907.249a2.996 2.996 0 011.618 1.218 13.035 13.035 0 012.35 5.43c.24 1.279.274 2.588.102 3.878a10.61 10.61 0 01-.715 2.803c-.069.161-.19.334-.031.57.118-.249.232-.464.327-.691.712-1.779.977-3.705.772-5.61a12.79 12.79 0 00-2.278-6.235c-.077-.115-.231-.215-.176-.395a.32.32 0 01.1-.005c.078.029.153.062.226.1a10.86 10.86 0 013.024 2.422 7.018 7.018 0 011.295 2.013c.56 1.297.9 2.677 1.011 4.085a18.86 18.86 0 01-1.028 7.589 18.012 18.012 0 01-2.68 5.117 9.145 9.145 0 01-5.068 3.39c-.427.113-.86.208-1.292.292a17.67 17.67 0 01-4.21.207 16.016 16.016 0 01-5.106-.987c-1.957-.758-3.922-1.494-5.878-2.257a22.64 22.64 0 00-4.843-1.41 14.956 14.956 0 00-6.487.399 11.579 11.579 0 00-6.284 4.358c-.326.445-.633.905-.943 1.363-.403.595-.777 1.211-1.207 1.785a36.559 36.559 0 01-1.665 2.063 4.798 4.798 0 01-2.217 1.4c-.395.126-.797.232-1.2.326a1.17 1.17 0 01-.34-.038 9.46 9.46 0 01.608-1.486 43.94 43.94 0 011.358-2.748c.247-.464.496-.927.759-1.38.25-.429.523-.845.779-1.271.308-.416.575-.86.796-1.329a.68.68 0 00-.29.226c-.354.495-.719.981-1.04 1.496a43.697 43.697 0 00-3.066 5.869c-.107.248-.232.49-.34.724a8.184 8.184 0 01-2.116-.023 15.884 15.884 0 01-3.513-.948 9.16 9.16 0 01-3.996-2.992 18.659 18.659 0 01-.99-1.432 34.653 34.653 0 01-1.739-3.197c.138-.183.25-.34.369-.491.137-.174.28-.342.422-.512l.372-.445.376-.443c.143-.168.287-.336.432-.503.128-.145.259-.288.386-.432l.386-.43c.13-.144.26-.287.393-.428l.455-.483c.133-.14.265-.282.4-.421.134-.14.27-.277.406-.415l.463-.472c.137-.138.273-.275.412-.41l.418-.402c.16-.155.316-.309.477-.463.14-.134.285-.263.427-.394.142-.13.283-.264.427-.393a65.583 65.583 0 011.376-1.198c.148-.125.295-.251.445-.374.17-.14.343-.279.517-.416l.457-.356c.153-.118.31-.237.46-.355.176-.134.356-.263.527-.403a.886.886 0 00.43-.569c-.913.6-1.793 1.25-2.637 1.944a59.755 59.755 0 00-2.326 2 61.118 61.118 0 00-2.265 2.19c-.717.728-1.404 1.487-2.1 2.239-.71.764-1.334 1.606-2.096 2.408-.436-.596-.765-1.19-1.14-1.806.308-.357.64-.692.993-1.004.34-.324.683-.647 1.026-.967.324-.301.65-.601.979-.895.351-.31.703-.625 1.064-.927.361-.302.736-.585 1.104-.878.367-.293.743-.535 1.088-.85-.059-.044-.09-.077-.1-.073a4.626 4.626 0 00-.503.276 30.83 30.83 0 00-3.244 2.585c-.755.69-1.5 1.39-2.253 2.085-.116.108-.216.26-.46.227-.064-.078-.158-.172-.24-.28a9.362 9.362 0 01-1.829-6.555c.08-.825.23-1.643.447-2.443a17.579 17.579 0 015.807-9.44 37.044 37.044 0 014.706-3.39 41.17 41.17 0 005.43-3.942 40.127 40.127 0 015.148-3.905 49.018 49.018 0 014.692-2.656 18.022 18.022 0 019.816-1.804c1.74.168 3.42.714 4.926 1.601a16.055 16.055 0 014.067 3.497c.064.101.12.208.165.32-.305-.039-.523-.062-.74-.094a39.841 39.841 0 00-6.11-.464 33.289 33.289 0 00-8.911 1.249c-.346.097-.68.232-1.015.358-.106.04-.246.07-.249.243.74-.19 1.458-.378 2.177-.56a34.922 34.922 0 0110.856-.875c1.21.077 2.415.287 3.62.446.219.036.433.09.641.165.154.073.302.159.442.256a31.484 31.484 0 00-9.473.632 39.353 39.353 0 00-8.865 2.945c-2.417 1.158-6.777 4.16-7.75 5.382.386-.277.652-.463.914-.654.963-.695 1.917-1.408 2.89-2.09a26.531 26.531 0 014.533-2.58 38.472 38.472 0 0114.755-3.417 16.804 16.804 0 013.625.24c.245.124.462.295.64.504a1.9 1.9 0 01-.279.11 23.159 23.159 0 00-5.908 2.127 40.06 40.06 0 00-8.448 5.67c-.855.741-1.666 1.534-2.492 2.31-.077.072-.235.154-.102.309.943-.82 1.87-1.65 2.82-2.45a41.54 41.54 0 018.573-5.637 24.45 24.45 0 014.641-1.76c.112-.028.238-.109.318.024-1.015.453-2.037.873-3.027 1.36a34 34 0 00-8.031 5.675 85.742 85.742 0 00-8.588 9.214c-1.212 1.507-2.386 3.046-3.568 4.576-.164.212-.404.386-.39.704l-.008-.009c.113-.069.216-.15.31-.243.433-.54.855-1.081 1.28-1.629a106.458 106.458 0 017.946-9.23 56.904 56.904 0 016.263-5.675 29.396 29.396 0 018.355-4.506c.417-.14.841-.256 1.214-.369.305.102.587.265.828.479-.064.07-.135.131-.214.184a18.778 18.778 0 00-5.348 4.003 95.071 95.071 0 00-9.508 11.799c-.067.118-.12.242-.161.371l.026.036zm25.26-13.042c-.154-.409-.283-.742-.401-1.081a158.166 158.166 0 01-4.022-13.329c-.886-3.51-1.531-7.071-2.173-10.633a1.691 1.691 0 00-.197-.728.698.698 0 00-.04.186c.036.357.069.713.12 1.068.481 3.31 1.099 6.594 1.887 9.845a145.719 145.719 0 004.004 13.506c.136.288.22.599.245.916a7.843 7.843 0 01-1.686-.59 69.74 69.74 0 01-6.04-13.907.414.414 0 00-.086.433c.161.557.309 1.118.494 1.668a65.486 65.486 0 004.608 10.727c.13.238.244.484.363.722-.064.04-.092.07-.108.065-.883-.305-1.77-.604-2.648-.927a1.55 1.55 0 01-.822-.892c-.105-.225-.18-.463-.263-.695a30.1 30.1 0 00-1.498-3.504c-.447-.89-.895-1.776-1.323-2.676a28.552 28.552 0 01-2.735-11.61 9.603 9.603 0 011.369-5.475c1.117-1.797 1.114-1.75 1.25-4.123.009-.139.015-.277.018-.415.044-2.099.088-4.198.13-6.297.027-1.354.202-2.7.523-4.016a14.244 14.244 0 016.234-8.858 13.283 13.283 0 016.53-2.176c.313-.053.634-.024.932.084.016.156.022.313.018.47-.077 1.019-.163 2.037-.238 3.056-.098 1.35-.197 2.703-.277 4.051-.028.463-.007.938.005 1.408 0 .052.085.101.166.194.061-.827.12-1.59.174-2.356.051-.743.093-1.488.145-2.232.054-.772.098-1.544.177-2.312.027-.78.126-1.556.297-2.317.195-.017.392-.017.587 0 .517.089 1.034.187 1.545.309 1.458.33 2.844.92 4.093 1.742a21.73 21.73 0 012.67 2.098c.161.15.31.31.476.477a58.274 58.274 0 011.118 9.449 5.28 5.28 0 00.151-1.061 37.737 37.737 0 00-.104-2.15 52.45 52.45 0 00-.589-4.934 1.004 1.004 0 01-.015-.678c.646.633 1.05 1.43 1.642 2.041.04.197.078.358.104.521.226 1.642.345 3.297.356 4.954a75.037 75.037 0 01-.094 3.726c-.041.91-.137 1.816-.203 2.725.016.131.044.26.085.386.197-1.024.33-2.059.397-3.099.078-.961.091-1.93.097-2.896a81.867 81.867 0 00-.053-2.98c-.03-.994-.199-1.965-.232-2.935.096-.038.148-.078.195-.078 1.181.135 2.365.247 3.54.421.6.095 1.19.247 1.762.453a4.5 4.5 0 011.736.933c-.034.815-.052 1.615-.106 2.412-.103.777-.161 1.56-.175 2.343.127-.478.225-.964.292-1.455.071-.52.094-1.046.17-1.565.071-.479.027-.972.146-1.46a4.614 4.614 0 012.262 4.797 12.44 12.44 0 00-3.263 1.333c-1.044.61-2.04 1.303-3.094 1.984.032-.249.048-.464.086-.668.13-.705.272-1.408.396-2.114a2.21 2.21 0 00-.008-.434c-.319 1.236-.595 2.471-.988 3.64-.716.71-1.42 1.374-2.086 2.075a54.963 54.963 0 00-1.93 2.162 60.758 60.758 0 00-1.829 2.253 43.986 43.986 0 00-1.708 2.344 38.91 38.91 0 00-1.52 2.47c-.478.841-.902 1.694-1.437 2.704 0-1.044 0-1.898.008-2.752.004-.828.027-1.657.02-2.486.039-.83.013-1.66-.077-2.486a9.778 9.778 0 00-.184 1.884c-.007.746-.023 1.491-.038 2.24-.028 1.325-.069 2.651-.081 3.977 0 .387-.065.77-.193 1.134a30.648 30.648 0 00-1.566 6.938c-.03.267-.082.532-.125.798a1.014 1.014 0 01-.161-.48c-.267-2.279-.483-4.561-.568-6.854a279.9 279.9 0 01-.149-5.8c-.046-2.76-.06-5.524-.109-8.286a7.461 7.461 0 00-.169-2.113c-.03.24-.055.348-.056.456-.013 1.906-.04 3.812-.031 5.715.01 2.24.056 4.479.077 6.712.03 3.18.25 6.348.556 9.512.192 1.978.54 3.938.618 5.93.101 2.592.266 5.183.361 7.776.008.855-.03 1.711-.11 2.563a3.433 3.433 0 01-.38 1.342.833.833 0 01-.34-.827 52.78 52.78 0 00-.289-5.378c-.438-4.203-.88-8.406-1.328-12.608a4.957 4.957 0 00-.111-.524 12.03 12.03 0 00.028 2.316c.263 2.722.532 5.443.806 8.164.225 2.2.43 4.402.512 6.609.036.381.022.765-.041 1.143-.286-.058-.37-.29-.525-.433-.182-.168-.34-.36-.54-.572-.226-1.081-.459-2.192-.687-3.3a104.294 104.294 0 01-1.824-12.207c-.166-1.954-.337-3.907-.5-5.861a2.68 2.68 0 00-.21-.884c-.005.333-.015.47-.007.606.083 1.377.163 2.756.255 4.133.237 3.834.701 7.65 1.39 11.43.309 1.656.648 3.307.97 4.961.032.173.138.353.006.54-.058-.044-.12-.068-.137-.11a3.971 3.971 0 01-.164-.468c-.85-3.175-1.7-6.352-2.387-9.567-.058-.272-.12-.541-.182-.814a.73.73 0 00-.05.414c.28 1.858.66 3.698 1.138 5.515.33 1.342.684 2.677 1.017 4.016.035.137.163.302-.049.454a10.554 10.554 0 01-.41-.252c-.138-.09-.272-.187-.422-.292-.078-.262-.161-.524-.232-.79a186.089 186.089 0 01-2.9-12.853A141.937 141.937 0 0175.2 20.317a63.812 63.812 0 01.33-10.093c.02-.162.009-.328.013-.492a6.12 6.12 0 00-.383 1.785 51.71 51.71 0 00-.332 7.447c.058 3.537.322 7.064.719 10.58.671 5.93 1.667 11.82 2.983 17.642.516 2.29 1.099 4.566 1.643 6.85.04.17.19.352.006.563l-2.514-1.092zm8.258 7.975c.081-.066.167-.125.257-.177a5.579 5.579 0 002.022-1.676 9.23 9.23 0 001.873-4.46c.175-1.204.198-2.425.069-3.635a38.42 38.42 0 00-.662-4.087c-.382-1.924-.72-3.855-.926-5.806a36.385 36.385 0 01-.074-6.288c.056-.549.144-1.094.264-1.633.224-.998.527-1.976.908-2.925a14.91 14.91 0 011.989-3.804 60.133 60.133 0 014.951-5.9 22.845 22.845 0 014.971-3.835 12.358 12.358 0 012.717-1.215 5.88 5.88 0 001.496-.69c.46-.309.972-.532 1.512-.658a1.704 1.704 0 012.239 1.567c.012.082.018.165.017.248-.013.578.01 1.158-.051 1.735a36.318 36.318 0 01-2.004 8.444c-.699 1.95-1.405 3.896-2.081 5.853-.568 1.643-1.076 3.308-1.65 4.95a79.336 79.336 0 00-2.549 9 52.994 52.994 0 01-1.206 4.563 14.377 14.377 0 01-6.353 8.196 41.773 41.773 0 01-5.225 2.716c-.556.242-1.14.418-1.715.611a2.86 2.86 0 01-.486.078 2.518 2.518 0 01-.303-1.176v.004zm-47.906 26.14a11.669 11.669 0 002.66-2.746c.51-.687.98-1.402 1.467-2.107.408-.59.799-1.194 1.224-1.771a10.43 10.43 0 012.811-2.663 12.881 12.881 0 017.414-1.953c2.075.08 4.12.532 6.034 1.336 2.431.98 4.866 1.957 7.354 2.784a19.05 19.05 0 007.01 1.004c.155.01.31.028.463.056-.43.155-.683.254-.944.333a24.922 24.922 0 01-10.158.88c-1.015-.117-2.03-.231-3.044-.367a16.554 16.554 0 00-6.808.496c-1.43.413-2.842.9-4.247 1.385-1.644.566-3.271 1.183-4.916 1.748a36.174 36.174 0 01-5.434 1.456c-.293.047-.59.083-.886.126v.004zm47.853-26.978c.095-.363.146-.572.204-.78.33-1.144.472-2.333.422-3.522-.134-2.677-.38-5.343-.632-8.01a32.674 32.674 0 01.118-7.936c.094-.628.232-1.25.349-1.873a23.449 23.449 0 011.934-5.886c.089-.183.199-.356.326-.582a.796.796 0 01.006.227 12.268 12.268 0 00-.725 3.391 32.531 32.531 0 00.03 5.958c.185 2.008.54 3.994.92 5.975.21 1.112.422 2.226.568 3.348.283 1.78.197 3.598-.251 5.344a8.026 8.026 0 01-2.041 3.552 2.953 2.953 0 01-1.228.79v.004z" fill="url(#paint1_linear)"/><defs><linearGradient id="paint0_linear" x1="5691.05" y1="24454.4" x2="18569.9" y2="24432.4" gradientUnits="userSpaceOnUse"><stop stop-color="#E8C46F"/><stop offset=".24" stop-color="#BB842C"/><stop offset=".515" stop-color="#7D5723"/><stop offset=".857" stop-color="#E8C46F"/></linearGradient><linearGradient id="paint1_linear" x1="-13105.8" y1="37458.6" x2="-43323.6" y2="37379.8" gradientUnits="userSpaceOnUse"><stop stop-color="#E8C46F"/><stop offset=".24" stop-color="#BB842C"/><stop offset=".515" stop-color="#7D5723"/><stop offset=".857" stop-color="#E8C46F"/></linearGradient></defs></svg>