<svg width="534" height="1341" viewBox="0 0 534 1341" fill="none" xmlns="http://www.w3.org/2000/svg"><path opacity=".8" d="M505.663 1178.39c-.349.43-.136.9-.087 1.35.446 3.73.54 7.49.283 11.23a69.498 69.498 0 01-5.344 22.03c-2.878 6.93-6.774 13.47-11.581 19.43-8.786 10.9-19.734 20.16-32.265 27.29-10.792 6.26-22.644 10.82-35.065 13.48a106.862 106.862 0 01-26.953 2.18 5.465 5.465 0 00-2.055.06c-.136.39-.293.82-.423 1.26-1.945 6.66-5.74 12.73-11.01 17.63a52.456 52.456 0 01-12.984 8.74 73.93 73.93 0 01-18.603 5.97 126.642 126.642 0 01-26.232 2.11c-7.137-.14-14.258-.68-21.323-1.63-4.831-.62-9.644-1.35-14.42-2.27-4.232-.82-8.435-1.78-12.639-2.7-6.072-1.33-12.059-2.94-17.998-4.7-6.033-1.78-12.03-3.67-18.031-5.55-4.809-1.5-9.605-3.05-14.399-4.59-4.272-1.38-8.533-2.79-12.803-4.17-2.278-.74-4.561-1.46-6.849-2.17a509.846 509.846 0 00-29.152-8.19c-6.314-1.56-12.685-2.92-19.114-4.02a202.344 202.344 0 00-36.875-3.12c-15.315.24-30.48 2.82-44.887 7.61-8.17 2.63-16.08 5.91-23.644 9.79-12.537 6.49-23.473 15.32-32.116 25.92a176.456 176.456 0 00-12.282 16.48 67.9 67.9 0 00-6.509 12.82.574.574 0 01-.113.2.515.515 0 01-.19.14c.445-1.26.845-2.54 1.341-3.79a70.44 70.44 0 017.642-13.69c3.832-5.6 8.016-11 12.53-16.16 8.071-9.23 18.003-16.93 29.25-22.69 17.531-9.12 36.884-14.88 56.894-16.93 9.206-.87 18.48-.93 27.699-.2 5.415.39 10.801 1 16.161 1.81 4.961.75 9.888 1.67 14.793 2.7 9.573 2 19.005 4.47 28.351 7.22 5.986 1.75 11.927 3.66 17.878 5.53 4.379 1.38 8.743 2.79 13.11 4.2 4.699 1.51 9.388 3.04 14.093 4.56 2.327.75 4.659 1.48 6.999 2.19 8.347 2.58 16.733 5.03 25.251 7.11 5.883 1.43 11.805 2.71 17.784 3.77a229.31 229.31 0 0026.285 3.25c10.64.74 21.339.22 31.835-1.55a74.4 74.4 0 0019.799-6.16c6.343-2.98 11.903-7.2 16.291-12.37 3.199-3.88 5.586-8.28 7.039-12.97.252-.49.301-1.04.136-1.56-.366-.1-.739-.17-1.115-.23a93.29 93.29 0 01-19.707-3.97c-12.196-3.68-23.196-10.13-31.992-18.74-3.638-3.55-6.601-7.63-8.767-12.09a26.17 26.17 0 01-2.756-11.03 15.61 15.61 0 011.137-6.27c1.201-2.99 3.626-5.43 6.756-6.8a20.367 20.367 0 018.027-1.65c2.769-.06 5.534.21 8.229.8 12.275 2.57 23.268 8.84 31.239 17.81 7.496 8.27 11.649 18.67 11.75 29.44.098 3.57-.201 7.14-.893 10.65-.052.27-.083.55-.122.8.409.44.953.36 1.43.39 14.67.67 29.322-1.63 42.919-6.76 19.818-7.2 37.116-19.27 50.018-34.9a78.082 78.082 0 0010.002-15.33 73.53 73.53 0 006.171-17.41 61.36 61.36 0 00.728-21.98l1.448.39zm-114.007 95.8c.173-.65.332-1.13.423-1.63.737-3.92.97-7.92.696-11.9-.503-9.8-4.457-19.19-11.265-26.74-7.928-9.01-18.942-15.27-31.236-17.75a33.305 33.305 0 00-7.784-.68c-2.624.03-5.209.6-7.563 1.67a12.214 12.214 0 00-4.313 3.3c-1.147 1.39-1.936 3-2.307 4.71-.461 2-.56 4.06-.293 6.08a27.964 27.964 0 003.767 10.93c2.982 5.06 6.916 9.59 11.619 13.38 8.042 6.63 17.494 11.64 27.753 14.72a97.951 97.951 0 0016.573 3.54c1.238.14 2.484.23 3.93.37z" fill="url(#paint0_linear)"/><path opacity=".8" d="M479.373 129.108c.026 1.068.039 2.137.031 3.2-.062 8.21-.461 16.407-1.108 24.589a684.495 684.495 0 01-1.563 16.859c-.471 4.519-1.044 9.028-1.632 13.533a457.311 457.311 0 01-1.576 10.925 603.327 603.327 0 01-1.879 11.405 573.426 573.426 0 01-2.233 12.062 594.43 594.43 0 01-2.668 12.748c-2.111 9.555-4.422 19.062-7.076 28.482a684.201 684.201 0 01-3.457 11.916 490.18 490.18 0 01-3.321 10.527 373.854 373.854 0 01-3.07 9.02c-1.32 3.7-2.644 7.4-4.077 11.064a470.136 470.136 0 01-5.3 12.964c-3 7.067-6.325 13.978-9.974 20.735a156.68 156.68 0 01-12.031 19.215 81.28 81.28 0 01-8.557 10.051 58.819 58.819 0 01-5.474 4.772 36.313 36.313 0 01-4.51 2.922c-.111.061-.22.124-.334.176a.678.678 0 01-1.051-.53 31 31 0 01-.508-5.3 95.536 95.536 0 01.942-14.389c.362-2.791.763-5.579 1.242-8.352.676-3.9 1.38-7.807 2.184-11.687.915-4.42 1.907-8.826 2.948-13.218a655.77 655.77 0 013.427-13.735c1.04-4 2.157-7.987 3.256-11.975.535-1.941 1.1-3.874 1.66-5.807.696-2.385 1.4-4.768 2.112-7.149.6-2.019 1.21-4.036 1.831-6.051.69-2.239 1.39-4.475 2.1-6.709.648-2.054 1.294-4.109 1.957-6.159.721-2.229 1.458-4.453 2.193-6.678.685-2.075 1.368-4.151 2.07-6.221.848-2.5 1.712-5 2.575-7.494.808-2.333 1.613-4.666 2.441-6.991 1.044-2.933 2.101-5.862 3.17-8.785 1.209-3.307 2.414-6.617 3.662-9.91 1.695-4.467 3.413-8.926 5.154-13.379 1.706-4.347 3.421-8.691 5.208-13 2.37-5.723 4.781-11.428 7.234-17.116a566.806 566.806 0 0110.866-23.709c3.379-6.96 6.867-13.863 10.7-20.587.568-1 1.16-1.98 1.75-2.964.1-.164.174-.384.548-.378.064.367.11.737.138 1.108zm-63.538 231.427a132.67 132.67 0 009.53-13.93 222.736 222.736 0 0010.73-20.3c2.259-4.812 4.4-9.675 6.375-14.611a561.402 561.402 0 005-12.984c1.207-3.241 2.337-6.512 3.443-9.789a496.213 496.213 0 003.412-10.5 539.855 539.855 0 003.042-10.121c3.347-11.482 6.25-23.078 8.809-34.76a555.144 555.144 0 002.319-11.134 728.714 728.714 0 002.233-11.919 487.757 487.757 0 001.664-9.815 511.813 511.813 0 001.48-9.939c.474-3.364.944-6.728 1.34-10.1.536-4.56 1.052-9.123 1.481-13.693.468-4.978.892-9.961 1.216-14.949.338-5.192.547-10.393.788-15.591.1-2.136.135-4.274.2-6.411a1.318 1.318 0 00-.085-.549c-.093.149-.192.3-.278.45a406.823 406.823 0 00-9.047 17.09c-3.842 7.679-7.469 15.459-10.964 23.3a759.809 759.809 0 00-8.69 20.291 1298.566 1298.566 0 00-5.859 14.522c-1.71 4.329-3.357 8.682-5.012 13.031a834.665 834.665 0 00-3.484 9.323 852.255 852.255 0 00-2.851 7.9c-1.005 2.814-2.001 5.63-2.99 8.449-.758 2.167-1.5 4.341-2.234 6.514a1969.45 1969.45 0 00-2.356 6.972c-.609 1.819-1.2 3.644-1.8 5.468-.644 1.973-1.284 3.947-1.92 5.923a575.606 575.606 0 00-1.606 5.084c-.605 1.933-1.205 3.871-1.8 5.813a530.072 530.072 0 00-1.407 4.651c-.71 2.382-1.415 4.765-2.114 7.149a593.256 593.256 0 00-1.751 6.125c-.751 2.681-1.5 5.363-2.222 8.051-.739 2.75-1.471 5.5-2.163 8.264-1 4.013-2.021 8.024-2.938 12.058a501.111 501.111 0 00-3 14.028c-.753 3.81-1.392 7.645-2 11.481-.665 4.194-1.156 8.413-1.418 12.654a61.115 61.115 0 00-.033 8.342c.015.2.04.394.06.59h.092c.082-.455.167-.911.246-1.367.319-1.861.616-3.725.957-5.581a749.342 749.342 0 011.75-9.274c1.771-9 3.73-17.959 5.877-26.876 1.595-6.573 3.268-13.128 4.935-19.683a567.55 567.55 0 012.6-9.759c.85-3.11 1.732-6.212 2.61-9.315a1293.72 1293.72 0 012.252-7.846 839.448 839.448 0 012.519-8.459c.725-2.409 1.458-4.816 2.2-7.221.806-2.6 1.63-5.191 2.451-7.785.641-2.024 1.28-4.048 1.938-6.067.818-2.512 1.646-5.021 2.483-7.527.674-2.029 1.354-4.056 2.039-6.082.74-2.173 1.489-4.343 2.248-6.51.8-2.287 1.603-4.571 2.408-6.854a853.054 853.054 0 014.8-13.16c.953-2.548 1.916-5.092 2.889-7.632a861.33 861.33 0 013-7.688 562.293 562.293 0 013.318-8.223 841.08 841.08 0 014.877-11.559c2.536-5.875 5.154-11.713 8.024-17.435.1-.193.136-.468.442-.456.225.178.1.351.025.518-.5 1.087-1 2.169-1.489 3.26-2.271 5.081-4.564 10.152-6.8 15.249-1.47 3.355-2.873 6.74-4.264 10.128-1.374 3.345-2.71 6.7-4.037 10.069a785.41 785.41 0 00-3.543 9.149c-1 2.63-1.977 5.27-2.949 7.911-1.053 2.863-2.095 5.73-3.128 8.6a754.862 754.862 0 00-2.7 7.7c-.97 2.792-1.931 5.587-2.884 8.386-.808 2.383-1.595 4.773-2.383 7.163-.861 2.613-1.722 5.227-2.565 7.846-.794 2.47-1.569 4.947-2.345 7.423-.72 2.296-1.435 4.594-2.144 6.893-.494 1.608-.967 3.223-1.45 4.835-.5 1.658-1 3.314-1.488 4.973-.562 1.9-1.12 3.8-1.673 5.7-.642 2.221-1.277 4.444-1.906 6.669-.467 1.65-.927 3.302-1.38 4.956-.836 3.067-1.667 6.133-2.492 9.2-.694 2.6-1.375 5.202-2.044 7.807a825.929 825.929 0 00-6.221 25.927 693.829 693.829 0 00-2.97 14.036c-.76 3.745-1.458 7.5-2.14 11.265-.533 2.94-1 5.892-1.5 8.839-.013.076-.014.154-.029.327.2-.088.348-.142.486-.218a36.815 36.815 0 005.072-3.439 58.472 58.472 0 007.123-6.8c.321-.366.606-.763.851-1.185 2.391-4.034 4.531-8.2 6.563-12.425 2.884-6 5.54-12.093 8.012-18.268a743.28 743.28 0 005.209-13.459 441.328 441.328 0 003.53-9.758 742.66 742.66 0 003.637-10.621 604.238 604.238 0 003.042-9.329c1.108-3.476 2.197-6.958 3.267-10.446.83-2.706 1.623-5.424 2.417-8.141.939-3.216 1.868-6.435 2.788-9.656a668.213 668.213 0 002.164-7.871c.925-3.433 1.858-6.863 2.742-10.307 1.2-4.677 2.366-9.364 3.532-14.05 1.919-7.71 3.656-15.462 5.337-23.227a702.385 702.385 0 002.336-11.227 700.8 700.8 0 001.969-10.145 630.034 630.034 0 001.649-9.147 662.206 662.206 0 001.476-8.841c.39-2.421.761-4.845 1.114-7.273.4-2.753.782-5.509 1.161-8.265.24-1.744.458-3.491.691-5.236.038-.325.119-.643.241-.947-.1 1.153-.194 2.308-.314 3.459a440.29 440.29 0 01-.589 5.342 237.706 237.706 0 01-.515 4.023 442.84 442.84 0 01-.672 4.858 553.614 553.614 0 01-.8 5.27c-.232 1.507-.464 3.015-.71 4.52a510.012 510.012 0 01-.881 5.21c-.36 2.076-.727 4.151-1.1 6.225a273.878 273.878 0 01-.873 4.685c-.933 4.706-1.854 9.415-2.827 14.113a511.19 511.19 0 01-2.463 11.3 2363.402 2363.402 0 01-4.856 20.577c-.994 4.113-2.072 8.206-3.144 12.3a746.965 746.965 0 01-2.85 10.57 1020.281 1020.281 0 01-3.253 11.487 790.535 790.535 0 01-3.134 10.537 766.792 766.792 0 01-3.082 9.911 735.265 735.265 0 01-3.076 9.466c-1 3.014-2.018 6.024-3.069 9.021-1.228 3.5-2.465 7-3.762 10.476-1.644 4.4-3.3 8.8-5.042 13.17-3.35 8.417-6.956 16.723-11.079 24.8-.694 1.358-1.42 2.7-2.131 4.049l-.239.455.076.072c.147-.178.286-.345.42-.513z" fill="url(#paint1_linear)"/><path opacity=".8" d="M403.352 382.015c.121-.1.328-.187.42-.346.088-.196.135-.407.139-.621.149-1.424.291-2.849.434-4.273.022-.214.032-.428.056-.642.2-1.743.4-3.485.59-5.229.526-4.84 1.122-9.673 1.55-14.522.687-7.775 1.576-15.527 2.484-23.277a3556.121 3556.121 0 016.93-55.415c1.531-11.606 2.967-23.224 4.521-34.826.323-2.413.624-4.829 1-7.235 1.429-9.235 2.422-18.528 3.725-27.78.414-2.941.947-5.865 1.425-8.8.4-2.473.788-4.949 1.21-7.419.675-3.951 1.374-7.9 2.063-11.847.025-.141.051-.282.074-.423l1.138-6.886c.514-3.074.859-6.17 1.133-9.272a54.834 54.834 0 00-.05-8.578c-.188-2.748-.339-5.5-.468-8.249-.042-.93-.022-1.862.058-2.789.42-4.922.843-9.844 1.625-14.727.334-2.085.659-4.171 1-6.256.489-3 .984-6 1.485-9 .305-1.836.615-3.669.931-5.5.041-.244.1-.485.145-.723.094-.063.195-.116.3-.159a37.471 37.471 0 004.91-1.871c.953-.411 1.9-.817 2.814-1.322a15.847 15.847 0 005.3-4.935 25.158 25.158 0 003.79-8.59c.316-1.36.538-2.74.666-4.13.036-.35.087-.7.146-1.166.156.124.299.263.427.416.662 1.063 1.339 2.118 1.958 3.206.566 1 1.056 2.032 1.595 3.043.689 1.3 1.37 2.6 2.1 3.87a27.502 27.502 0 0011.5 10.953 31.417 31.417 0 007.3 2.8c1.678.377 3.39.583 5.109.615 2.399 0 4.789-.271 7.127-.808 2.21-.439 4.435-.812 6.631-1.311a7.835 7.835 0 015.3.681c1.519.728 2.979 1.558 4.42 2.424 1.135.681 2.26 1.378 3.389 2.069a29.878 29.878 0 0010.463 4c2.54.479 5.152.411 7.663-.2a9.45 9.45 0 001.621-.554 4.026 4.026 0 002.419-4.553 8.124 8.124 0 00-1.09-2.9 12.667 12.667 0 00-2.793-3.236 28.376 28.376 0 00-5.188-3.419c-1.492-.776-2.992-1.536-4.491-2.3a48.515 48.515 0 01-9.186-6.107 107.063 107.063 0 01-9.062-8.691c-1.7-1.794-3.395-3.589-5.125-5.351a44.614 44.614 0 00-4.147-3.735 21.743 21.743 0 00-6.729-3.713 24.363 24.363 0 00-7.711-1.18 27.73 27.73 0 00-7.2 1.033c-.207.056-.416.1-.608.147-.166-.157-.058-.273.014-.389.377-.608.773-1.2 1.13-1.824a20.652 20.652 0 001.905-4.77c.559-2 1.091-4 1.54-6.03.884-3.836 1.99-7.617 3.312-11.325.763-2.2 1.447-4.42 2.206-6.617.854-2.468 1.764-4.916 2.629-7.381a46.01 46.01 0 002.312-10.021c.133-.886.162-1.784.088-2.677-.029-.248-.059-.5-.1-.743a2.908 2.908 0 00-1.195-1.97 2.902 2.902 0 00-2.254-.477 7.562 7.562 0 00-2.472.927c-.26-.094-.164-.3-.191-.456-.057-.317-.093-.637-.15-.954a7.804 7.804 0 00-4.153-5.567 12.698 12.698 0 00-4.423-1.576c-1.168-.172-2.34-.34-3.516-.43a2.58 2.58 0 01-2.14-1.209 22.324 22.324 0 00-6.339-6.029 16.5 16.5 0 00-5.076-2.256c-5.5-1.489-10.492-.285-15.048 2.961a19.137 19.137 0 00-7.617 11.454 24.578 24.578 0 00-.7 5.311 1476.78 1476.78 0 01-.189 8.155c-.021.787-.085 1.573-.144 2.358a4.296 4.296 0 01-.587 1.825c-.285.497-.575.99-.871 1.481a12.067 12.067 0 00-1.674 5.052 25.552 25.552 0 00.214 6.525c.296 1.91.696 3.802 1.2 5.668a31.26 31.26 0 002.133 5.611c.655 1.353 1.335 2.695 1.995 4.045.234.479.444.971.66 1.447-.22.2-.284-.009-.34-.086a114.36 114.36 0 01-1.424-2.018c-1.449-2.088-2.911-4.167-4.338-6.27a67.112 67.112 0 01-5-9c-.475-1-.94-2.01-1.449-3a18.882 18.882 0 00-3.208-4.546c-.175-.18-.346-.365-.534-.529a27.376 27.376 0 00-7.64-4.908c-1.556-.625-3.18-1.089-4.787-1.579a220.298 220.298 0 00-5.978-1.732c-2-.546-4.013-1.055-6.028-1.547-3.3-.805-6.619-1.55-9.915-2.382a62.937 62.937 0 01-6.407-2.146c-2.749-1.02-5.5-2.05-8.268-3a56.771 56.771 0 00-8.516-2.194 18.488 18.488 0 00-7.88.224 12.65 12.65 0 00-4.526 2.156 9.821 9.821 0 00-3.487 4.784 5.935 5.935 0 00.044 4.2 14.477 14.477 0 003.207 4.911 21.144 21.144 0 004.413 3.393 34.84 34.84 0 014.635 3.287 7.68 7.68 0 012.18 2.873 21.934 21.934 0 0012 11.535 74.887 74.887 0 007.157 2.6 37.873 37.873 0 009.4 1.6c.536.026 1.071.076 1.607.1 1.5.067 3 .124 4.5.19a5.55 5.55 0 011.769.2c-.21.169-.335.29-.478.382a44.288 44.288 0 00-5.113 3.913 59.906 59.906 0 01-8.229 6.009 40.296 40.296 0 00-6.825 5.193 22.79 22.79 0 00-6.2 10.138 25.469 25.469 0 00-.967 4.287 14.065 14.065 0 00.721 6.342 10.388 10.388 0 001.575 2.92 36.167 36.167 0 013.365 5.609 34.356 34.356 0 002.183 3.695 13.788 13.788 0 008 5.6 25.102 25.102 0 0011.8.32 48.302 48.302 0 006.597-1.832c2.366-.823 4.719-1.682 7.077-2.524a52.663 52.663 0 015.528-1.731 21.167 21.167 0 017.248-.447c1.387.154 2.775.313 4.159.5 3.449.436 6.945.331 10.362-.311.241-.044.485-.075.8-.124.011.189.009.378-.006.567-.5 3.074-1.016 6.145-1.513 9.219-.422 2.615-.779 5.241-1.246 7.847-.79 4.409-1.358 8.845-1.788 13.3-.178 1.853-.357 3.707-.476 5.564a40.941 40.941 0 00.066 5.148c.161 2.607.339 5.212.5 7.819a42.656 42.656 0 01-.031 5.255c-.209 3.327-.61 6.63-1.139 9.918a935.902 935.902 0 01-1.82 10.909c-.6 3.492-1.227 6.979-1.837 10.469-.129.74-.223 1.487-.348 2.228-.465 2.753-.939 5.5-1.4 8.257a66.894 66.894 0 00-.366 2.443c-.821 6.319-1.616 12.641-2.459 18.958-.6 4.47-1.275 8.929-1.883 13.4a2434.182 2434.182 0 00-2.482 18.63 44578.112 44578.112 0 00-7.381 57.85c-.83 6.533-1.63 13.071-2.4 19.614a868.15 868.15 0 00-1.51 13.663c-.525 5.092-.975 10.191-1.5 15.283-.4 3.952-.875 7.9-1.307 11.848-.1.96-.161 1.926-.267 2.886-.059.53-.184 1.053-.262 1.581-.062.388-.102.779-.121 1.171a.576.576 0 00.451.608zM478.828 91.07l.058-.051a2.606 2.606 0 00-.861-.929 50.047 50.047 0 00-8.185-5.861 37.388 37.388 0 00-7.328-3.276l-2.349-.764a7.74 7.74 0 012.23-1.29c2.933.46 5.82 1.18 8.626 2.151a77.225 77.225 0 0112.794 5.751 105.464 105.464 0 0115.112 10.357c.639.518 1.281 1.033 1.924 1.545.1.083.216.169.349 0-.1-.1-.2-.207-.305-.3-1.1-.916-2.185-1.848-3.3-2.739a94.414 94.414 0 00-20.665-12.746 59.109 59.109 0 00-9.075-3.256c-1.245-.322-2.5-.59-3.756-.891a1.442 1.442 0 01-.914-.375c.181-.118.317-.218.463-.3.146-.082.32-.152.5-.235.6.033 1.211.042 1.815.1 2.778.264 5.533.733 8.242 1.404a46.72 46.72 0 016.9 2.337 64.223 64.223 0 0110.471 5.849c2.94 1.977 5.758 4.12 8.586 6.251 3.055 2.303 6.122 4.59 9.2 6.864.891.655 1.848 1.22 2.782 1.816.189.07.386.117.587.14-1.168-.813-2.186-1.478-3.157-2.2a1675.226 1675.226 0 01-10.365-7.816 130.77 130.77 0 00-10.904-7.627 49.712 49.712 0 00-17.7-6.822c-1.481-.25-2.978-.4-4.468-.6-.311-.042-.62-.092-.93-.138a10.023 10.023 0 013.281-.194c1.854.132 3.7.391 5.544.622.673.084 1.337.24 2 .366.738.139 1.474.282 2.211.423l-.025.024c-.051-.219-.237-.239-.409-.278-1.011-.228-2.022-.459-3.034-.682a32.443 32.443 0 00-6.7-.818 3.373 3.373 0 01-1.325-.2c.513-.091.855-.166 1.2-.211a32.56 32.56 0 018.77.047c.743.105 1.475.28 2.215.409 2.184.382 4.333.94 6.427 1.668a.93.93 0 00.788.064c-.4-.163-.739-.32-1.094-.446a44.834 44.834 0 00-9.072-2.132 28.486 28.486 0 00-4.175-.256 37.29 37.29 0 00-4.276.31c-.23.005-.46-.01-.687-.043l2.07-2.027a.845.845 0 01.157-.146 4.04 4.04 0 01.668-.325 46.507 46.507 0 012.165-.625 25.228 25.228 0 0110.954-.489 20.13 20.13 0 017.261 2.8 30.353 30.353 0 013.983 3.087c2.162 1.938 4.149 4.048 6.128 6.168 2.712 2.9 5.471 5.761 8.435 8.413a52.31 52.31 0 0011.134 7.8c1.53.778 3.065 1.546 4.591 2.334a27.238 27.238 0 015.1 3.35 11.15 11.15 0 012.57 3c.061.107.195.224.041.363-1.041-.56-2.067-1.141-3.119-1.669a13.756 13.756 0 00-3.226-1.338 57.216 57.216 0 016.843 3.828c.341.596.474 1.289.378 1.969-.233-.128-.445-.229-.641-.357-1.108-.722-2.2-1.47-3.322-2.172a44.965 44.965 0 00-6.546-3.433.782.782 0 00-.678-.078c.99.49 1.945.94 2.878 1.432a63.54 63.54 0 012.9 1.62 64.093 64.093 0 012.719 1.72 27.605 27.605 0 012.7 1.907 2.64 2.64 0 01-1.46 2.159 8.066 8.066 0 01-1.79.7c-2.331.6-4.763.687-7.131.255a27.61 27.61 0 01-9.262-3.265c-1.243-.709-2.459-1.464-3.683-2.2a49.894 49.894 0 00-5.342-2.97 7.851 7.851 0 01-1.625-1.025 562.974 562.974 0 00-5.964-4.567c-.249-.189-.473-.451-.828-.46l-.038.033c.143.358.495.5.768.709 1.576 1.236 3.162 2.459 4.742 3.689.22.171.426.361.658.558-.114.061-.174.122-.222.114a9.933 9.933 0 00-3.411.187c-2.563.491-5.131.963-7.687 1.487a25.302 25.302 0 01-6.717.541 24.963 24.963 0 01-3.509-.439 29.997 29.997 0 01-8.371-3.244 26.248 26.248 0 01-10.2-9.885c-.829-1.42-1.58-2.886-2.362-4.334-.713-1.322-1.375-2.674-2.141-3.965-.711-1.2-1.515-2.342-2.3-3.491a1.568 1.568 0 01-.267-1.484l3.281-1.287c.261.082.468.137.668.212a40.737 40.737 0 018.121 4.329 67.239 67.239 0 0113.6 12.236 77.523 77.523 0 015.1 6.5c.081.117.127.326.384.274a1.474 1.474 0 00-.109-.309c-.349-.541-.685-1.093-1.065-1.612a75.142 75.142 0 00-12.576-13.6 48.788 48.788 0 00-13.061-8.131c-.083-.033-.137-.141-.264-.28.167-.077.343-.131.524-.163.178.01.353.045.521.105 2.423.63 4.78 1.493 7.038 2.576a50.782 50.782 0 0110.973 7.262c.267.226.565.42.848.631zm-71.191-57.031l.068-.056a6.08 6.08 0 00-1.272-1.279c-.191-.187-.379-.377-.723-.719.455.088.7.113.93.184a20.966 20.966 0 015.445 2.493c.746.492 1.482 1 2.219 1.508a16.364 16.364 0 014.541 4.806 39.872 39.872 0 012.311 4.482 65.992 65.992 0 005.347 9.541c2.1 3.031 4.228 6.041 6.34 9.064.127.183.364.327.313.6-.071.024-.109.052-.135.043a3.3 3.3 0 01-2.015-1.485c-.189-.343-.439-.652-.657-.98a3188.938 3188.938 0 00-3.808-5.722c-.094-.14-.147-.369-.477-.355.141.253.237.443.35.623.913 1.456 1.831 2.908 2.74 4.365.08.127.254.272.005.462-.233-.271-.474-.532-.694-.811a168.406 168.406 0 01-10.124-14.139 7.19 7.19 0 00-.455-.584l-.091.066c.082.233.183.458.3.675.942 1.477 1.867 2.965 2.852 4.412 1.208 1.772 2.47 3.507 3.7 5.262.075.108.28.221.069.442-.256-.272-.507-.523-.74-.79-.848-.968-1.688-1.943-2.536-2.911-.075-.087-.16-.241-.324-.049.124.17.248.344.377.513a36.321 36.321 0 00.871 1.09c.136.165.274.33.412.494.161.191.322.383.486.572.14.163.283.323.424.484l.5.563c.141.161.282.323.425.483.143.16.287.318.432.477l.505.555c.144.159.285.32.43.478.145.158.294.313.439.471.17.183.339.368.508.552.145.158.29.316.437.473.17.183.351.358.509.551.115.141.326.244.263.57a5.62 5.62 0 01-.456-.329c-.772-.691-1.55-1.375-2.3-2.085a19.69 19.69 0 01-1.415-1.46c-3.472-4.043-7.074-7.964-10.933-11.642a75.01 75.01 0 00-7.246-6.2 2.1 2.1 0 00-.906-.545l-.058.051c.2.193.4.4.612.576 1.485 1.234 3.012 2.421 4.456 3.7a137.456 137.456 0 0112.692 13.1c.083.1.152.205.376.51a9.538 9.538 0 01-1.454-.9 12.852 12.852 0 00-3.418-1.771 7.72 7.72 0 01-2.151-1.172 197.548 197.548 0 00-11.1-7.523 129.16 129.16 0 00-28.61-13.567 3.872 3.872 0 00-.667-.089c.076.074.1.11.128.122.938.344 1.877.687 2.816 1.028a132.141 132.141 0 0124.103 11.616 192.6 192.6 0 0112.315 8.215c.2.145.522.225.513.571-1.1-.1-2.167-.237-3.237-.284a4.611 4.611 0 01-1.942-.527 139.933 139.933 0 00-11.414-5.2 130.17 130.17 0 00-11.625-4.114c-2.4-.717-4.82-1.354-7.242-1.984-1.487-.386-2.993-.7-4.495-1.027-.415-.09-.845-.112-1.269-.165 4.02 1.01 8.029 2.025 11.988 3.227a139.528 139.528 0 0115.98 5.921 84.022 84.022 0 017.719 3.71c.013.007 0 .065-.006.1a2.085 2.085 0 01-1.626-.074 115.23 115.23 0 00-13.814-3.55c-2.638-.511-5.313-.758-7.98-1.059-.097-.004-.194 0-.29.013 3.659.527 7.3 1.071 10.893 1.906 3.625.814 7.205 1.816 10.727 3a.865.865 0 01-.472.085c-.422-.075-.84-.175-1.258-.273-2.333-.545-4.665-1.1-7-1.633-.382-.088-.778-.122-1.168-.174-.354-.048-.71-.093-1.066-.129a3.163 3.163 0 00-1.068-.018c.844.172 1.7.259 2.538.428 2.594.52 5.156 1.18 7.714 1.854.07.019.116.128.223.253-.37.111-.67.206-.973.29a26.116 26.116 0 00-5.092 1.983c-1.205.629-2.378 1.319-3.566 1.98-.279.156-.561.307-.8.436-1.171-.043-2.279-.081-3.387-.127a929.49 929.49 0 01-4.609-.2c-.679-.032-1.356-.093-2.035-.128a34.987 34.987 0 01-8.539-1.522c-2.394-.739-4.736-1.625-7.059-2.558a22.319 22.319 0 01-9.256-7.109c-.171-.216-.3-.464-.517-.8.218.016.435.045.65.085 1.21.317 2.417.648 3.627.963a15.49 15.49 0 003.808.5c-2.877-.52-5.674-1.336-8.437-2.109-.585-.822-.585-.822-.7-1.439.108.018.211.03.311.054 1.564.38 3.126.764 4.69 1.142.833.2 1.673.38 2.5.6a30.9 30.9 0 003.809.632c.14.006.28-.001.418-.02a1.475 1.475 0 00-.571-.219c-1.264-.249-2.537-.453-3.789-.75-2.3-.544-4.582-1.137-6.869-1.72-.341-.087-.667-.231-.941-.328-.107-.209-.185-.331-.235-.464a8.24 8.24 0 00-2.725-3.517 36.729 36.729 0 00-4.392-3.074 21.407 21.407 0 01-4.035-3.009 13.264 13.264 0 01-3.129-4.447 9.942 9.942 0 01-.526-1.738 2.374 2.374 0 01.14-1.494c.213.027.386.041.556.072 1.231.226 2.464.447 3.692.684 2.493.483 4.986.964 7.473 1.469.91.185 1.808.427 2.708.659 1.211.312 2.418.644 3.629.955a4.9 4.9 0 00.677.078 6.207 6.207 0 00-1.294-.529c-3.015-.913-6.087-1.6-9.168-2.242-2.487-.515-4.992-.942-7.487-1.418a3.976 3.976 0 01-.631-.224.455.455 0 01-.008-.39 8.82 8.82 0 012.765-4.014 11.967 11.967 0 014.552-2.329 5.313 5.313 0 013.573-.031 98.189 98.189 0 019.079 2.554 92.092 92.092 0 0117.079 7.432c.12.055.245.1.373.132a.955.955 0 00-.408-.45c-.646-.381-1.29-.768-1.952-1.122a98.768 98.768 0 00-20.537-8.024l-3.194-.878a.928.928 0 01.511-.119c1.324.018 2.643.166 3.938.44a58.375 58.375 0 017.567 2c2.473.834 4.918 1.752 7.361 2.67a77.715 77.715 0 008.657 2.847c2.743.678 5.5 1.31 8.254 1.936 2.652.6 5.276 1.306 7.891 2.05a7.72 7.72 0 012.393 1.16 55.726 55.726 0 017.952 6.862c.186.193.334.446.647.53-.016-.088-.008-.159-.039-.2a51.147 51.147 0 00-8.118-7.37 1.04 1.04 0 01.282-.052 5.45 5.45 0 012.676 1.269c.525.485 1.089.927 1.644 1.379.171.128.348.246.532.355zm3.221 52.135c.359-.145.495-.5.7-.779a194.844 194.844 0 016.48-8.422 74.59 74.59 0 016.8-7.448 22.158 22.158 0 015.036-3.63 5.607 5.607 0 011.459-.593c.338.3.87.337 1.228.767-.284.273-.536.523-.8.765a61.346 61.346 0 00-4.444 4.512 50.728 50.728 0 00-4.828 6.3c-.088.139-.317.27-.112.5.579-.786 1.132-1.578 1.728-2.336a84.762 84.762 0 012.579-3.16 87.053 87.053 0 012.763-3c.518-.543 1.081-1.043 1.626-1.561a.186.186 0 01.094-.047c.021 0 .047.024.07.037.008.032.034.076.021.1-.14.2-.275.414-.431.607a69.749 69.749 0 00-5.206 7.354 49.628 49.628 0 00-5.677 12.339 3.899 3.899 0 00-.2.832c-.015.287-.366.5-.14.878.124-.3.242-.561.337-.827.528-1.481 1-2.984 1.585-4.441a59.163 59.163 0 016.329-11.431 63.304 63.304 0 015.03-6.417 1.34 1.34 0 01.834-.607c.778.309 1.534.67 2.264 1.08-.148.21-.258.389-.391.55a23.935 23.935 0 00-2.386 3.562 44.544 44.544 0 00-4.703 13.839c-.377 2.04-.592 4.109-.868 6.167-.235 1.738-.268 3.493-.356 5.242-.03.587.025 1.179.041 1.769.142-.405.217-.83.222-1.259.012-1.571.112-3.14.3-4.7.156-1.998.43-3.986.82-5.952.346-1.755.694-3.506 1.136-5.24a41.06 41.06 0 013.637-9.38 22.578 22.578 0 012.358-3.581 2.78 2.78 0 01.83-.825c.145.022.289.053.43.094 1.311.474 2.609.989 3.935 1.419a2.894 2.894 0 011.724 1.5 10.135 10.135 0 011.185 3.986 14.223 14.223 0 01-.354 5 8.732 8.732 0 00-.138 1.044c.21-.528.353-.818.439-1.124a8.29 8.29 0 00.175-.949c.058-.353.117-.706.161-1.061.039-.32.067-.641.084-.963.018-.32.022-.642.022-.963 0-.321 0-.645-.019-.965a9.065 9.065 0 00-.13-.957c-.058-.316-.134-.63-.219-.94a15.78 15.78 0 00-.318-1.025c-.107-.3-.248-.594-.361-.9-.1-.277-.364-.5-.364-.837.486-.068.8.22 1.175.322a3.88 3.88 0 012.095 1.577 16.877 16.877 0 013.044 7.031c.309 1.656.354 3.352.131 5.022a13.717 13.717 0 01-.926 3.63c-.089.209-.245.433-.04.737.153-.321.3-.6.423-.894a15.153 15.153 0 001-7.263 16.557 16.557 0 00-2.949-8.075c-.1-.149-.3-.278-.228-.511a.413.413 0 01.13-.007c.099.037.197.08.291.129a14.081 14.081 0 013.917 3.137 9.077 9.077 0 011.676 2.607 16.652 16.652 0 011.31 5.29 24.437 24.437 0 01-1.332 9.826 23.327 23.327 0 01-3.47 6.627 11.847 11.847 0 01-6.563 4.39 26.56 26.56 0 01-1.672.377c-1.8.306-3.631.396-5.453.268a20.742 20.742 0 01-6.611-1.278c-2.534-.982-5.079-1.935-7.611-2.922a29.317 29.317 0 00-6.271-1.827 19.366 19.366 0 00-8.4.517 14.996 14.996 0 00-8.138 5.643c-.422.577-.819 1.173-1.221 1.765-.522.771-1.006 1.569-1.563 2.312a47.557 47.557 0 01-2.156 2.671 6.207 6.207 0 01-2.871 1.814c-.511.163-1.032.3-1.553.421a1.521 1.521 0 01-.44-.049c.207-.663.47-1.306.787-1.924.266-.586.537-1.17.823-1.747.3-.609.615-1.212.935-1.812.32-.6.642-1.2.983-1.786.323-.556.677-1.095 1.008-1.647.4-.538.746-1.114 1.031-1.72a.879.879 0 00-.376.292c-.457.641-.93 1.271-1.347 1.937a56.618 56.618 0 00-3.969 7.6c-.139.322-.3.636-.441.938-.91.108-1.831.098-2.739-.03a20.54 20.54 0 01-4.549-1.227 11.867 11.867 0 01-5.175-3.875 24.138 24.138 0 01-1.282-1.854 44.989 44.989 0 01-2.251-4.14c.178-.237.323-.441.477-.636.178-.225.364-.443.547-.663l.482-.576.486-.574c.186-.217.372-.435.56-.651.166-.188.335-.373.5-.559l.5-.558c.169-.185.337-.371.508-.554.2-.21.393-.417.589-.625.173-.182.344-.365.518-.545.174-.18.35-.359.526-.537.2-.205.4-.41.6-.612.177-.178.353-.355.533-.53.18-.175.361-.347.542-.521.206-.2.409-.4.617-.6.182-.173.369-.34.553-.509.184-.169.367-.342.553-.51a71.804 71.804 0 011.782-1.551c.191-.162.382-.325.576-.484.221-.181.444-.361.669-.539l.593-.461c.198-.153.4-.307.595-.459.228-.174.461-.341.682-.523a1.148 1.148 0 00.556-.736 39.654 39.654 0 00-3.413 2.517 77.453 77.453 0 00-3.012 2.589 79.19 79.19 0 00-2.933 2.836c-.929.944-1.818 1.926-2.719 2.9-.92.99-1.728 2.08-2.715 3.118-.564-.772-.991-1.54-1.475-2.338.398-.462.828-.897 1.285-1.3.441-.42.884-.838 1.328-1.253.42-.39.841-.778 1.268-1.159.455-.4.91-.809 1.378-1.2.468-.391.953-.757 1.429-1.137.476-.38.963-.693 1.41-1.1-.077-.058-.116-.1-.129-.095a5.957 5.957 0 00-.653.358 39.945 39.945 0 00-4.2 3.346c-.978.893-1.942 1.8-2.917 2.7-.151.14-.28.337-.595.294-.084-.1-.206-.223-.311-.361a12.123 12.123 0 01-2.369-8.489c.103-1.07.296-2.128.579-3.164a22.764 22.764 0 017.519-12.224 47.981 47.981 0 016.094-4.388 53.315 53.315 0 007.03-5.106 51.943 51.943 0 016.667-5.057 63.506 63.506 0 016.076-3.439 23.337 23.337 0 0112.711-2.335c2.252.216 4.429.924 6.378 2.073a20.783 20.783 0 015.267 4.528c.083.131.154.27.213.413-.395-.049-.677-.079-.957-.121a51.58 51.58 0 00-7.913-.6 43.101 43.101 0 00-11.539 1.617c-.447.126-.88.3-1.314.464-.137.052-.318.09-.322.314.958-.246 1.887-.489 2.818-.724a45.219 45.219 0 0114.058-1.134c1.568.1 3.127.372 4.688.578.283.046.56.117.83.213.199.095.391.206.572.331a40.767 40.767 0 00-12.266.819 50.962 50.962 0 00-11.48 3.813c-3.13 1.5-8.775 5.388-10.036 6.97.5-.359.845-.6 1.184-.847 1.247-.9 2.482-1.823 3.742-2.706a34.323 34.323 0 015.87-3.341 49.817 49.817 0 0119.107-4.425 21.759 21.759 0 014.694.31c.316.161.598.383.828.653a2.464 2.464 0 01-.361.143 29.984 29.984 0 00-7.65 2.754 51.898 51.898 0 00-10.939 7.341c-1.108.961-2.158 1.987-3.227 2.992-.1.094-.305.2-.132.4 1.22-1.062 2.42-2.136 3.652-3.171a53.796 53.796 0 0111.1-7.3 31.674 31.674 0 016.01-2.279c.145-.037.308-.141.412.031-1.314.586-2.638 1.13-3.92 1.76a44.03 44.03 0 00-10.4 7.349 111.031 111.031 0 00-11.12 11.932c-1.57 1.951-3.089 3.944-4.62 5.925-.212.274-.524.5-.506.912l-.009-.012c.145-.089.28-.195.4-.315.561-.7 1.108-1.4 1.658-2.109a137.873 137.873 0 0110.29-11.952 73.715 73.715 0 018.109-7.349 38.067 38.067 0 0110.82-5.834c.539-.181 1.089-.332 1.571-.478.396.132.761.343 1.073.62a1.59 1.59 0 01-.277.238 24.312 24.312 0 00-6.926 5.184 123.11 123.11 0 00-12.312 15.278 2.552 2.552 0 00-.208.481l.034.046zm32.71-16.888c-.2-.529-.367-.961-.521-1.4a205.076 205.076 0 01-5.208-17.259c-1.147-4.546-1.982-9.157-2.813-13.769a2.19 2.19 0 00-.256-.943.905.905 0 00-.052.241c.047.462.09.924.156 1.383a138.617 138.617 0 002.444 12.748c1.435 5.916 3.185 11.74 5.184 17.489.177.373.284.775.318 1.187a10.154 10.154 0 01-2.183-.765 90.293 90.293 0 01-7.821-18.007.534.534 0 00-.112.56c.209.721.4 1.448.64 2.16a84.897 84.897 0 005.967 13.89c.168.308.315.627.469.935-.082.051-.119.091-.139.084-1.144-.395-2.292-.782-3.429-1.2a2.011 2.011 0 01-1.064-1.155c-.136-.291-.234-.6-.341-.9a38.913 38.913 0 00-1.94-4.537c-.578-1.152-1.159-2.3-1.713-3.465a36.975 36.975 0 01-3.542-15.035 12.434 12.434 0 011.773-7.089c1.447-2.327 1.442-2.266 1.619-5.339.011-.179.019-.358.023-.537.057-2.718.114-5.436.169-8.154.034-1.753.261-3.497.677-5.2a18.444 18.444 0 018.072-11.47 17.2 17.2 0 018.456-2.818 2.367 2.367 0 011.207.109c.02.202.028.404.023.607-.1 1.32-.211 2.639-.308 3.958-.127 1.748-.255 3.5-.359 5.246-.036.6-.009 1.215.006 1.823 0 .067.11.131.216.251.079-1.07.156-2.059.225-3.05.066-.963.12-1.927.187-2.89.07-1 .128-2 .23-2.995.034-1.01.163-2.014.384-3 .253-.021.508-.021.761 0 .669.115 1.338.243 2 .4a16.123 16.123 0 015.3 2.256 28.123 28.123 0 013.458 2.717c.208.194.4.4.616.618a75.458 75.458 0 011.448 12.235c.111-.45.177-.91.195-1.374a48.837 48.837 0 00-.134-2.784 67.922 67.922 0 00-.763-6.389 1.304 1.304 0 01-.02-.878c.837.82 1.36 1.852 2.127 2.643.052.255.1.463.134.675.293 2.126.447 4.269.461 6.415.009 1.608-.051 3.217-.122 4.824-.053 1.178-.177 2.352-.263 3.529.021.17.058.337.111.5a32.64 32.64 0 00.514-4.013c.1-1.245.118-2.5.125-3.75a105.73 105.73 0 00-.069-3.86c-.039-1.286-.257-2.544-.3-3.8.125-.049.192-.1.253-.1 1.529.174 3.062.319 4.584.545.777.123 1.541.319 2.281.586a5.83 5.83 0 012.248 1.208c-.044 1.056-.067 2.091-.137 3.123a27.029 27.029 0 00-.227 3.035c.165-.62.292-1.249.379-1.884.092-.673.121-1.355.22-2.027.091-.62.035-1.259.189-1.89a5.972 5.972 0 012.929 6.212 16.095 16.095 0 00-4.225 1.725c-1.353.791-2.643 1.688-4.007 2.569.041-.322.062-.6.112-.865.167-.913.351-1.823.512-2.737a2.853 2.853 0 00-.01-.562c-.413 1.6-.77 3.2-1.28 4.713-.927.919-1.838 1.779-2.7 2.687a71.157 71.157 0 00-2.5 2.8c-.811.95-1.6 1.925-2.368 2.917-.768.992-1.515 2-2.212 3.035a50.397 50.397 0 00-1.967 3.2c-.62 1.088-1.169 2.193-1.862 3.5 0-1.351 0-2.457.01-3.563.006-1.073.036-2.146.027-3.219.05-1.074.016-2.15-.1-3.219a12.72 12.72 0 00-.239 2.439c-.009.966-.029 1.931-.049 2.9-.036 1.717-.089 3.434-.105 5.151.001.5-.084.996-.25 1.468a39.702 39.702 0 00-2.027 8.984c-.039.346-.107.689-.162 1.033a1.316 1.316 0 01-.209-.622c-.345-2.95-.625-5.906-.735-8.874-.093-2.5-.152-5.006-.193-7.51-.06-3.576-.078-7.154-.141-10.73a9.64 9.64 0 00-.219-2.736c-.039.311-.071.45-.072.59-.018 2.468-.052 4.936-.041 7.4.013 2.9.073 5.8.1 8.692.039 4.118.324 8.219.72 12.316.248 2.562.7 5.1.8 7.679.131 3.357.344 6.712.468 10.069a31.725 31.725 0 01-.144 3.32 4.438 4.438 0 01-.491 1.737 1.084 1.084 0 01-.44-1.071 68.332 68.332 0 00-.374-6.963 7482.377 7482.377 0 00-1.72-16.327 6.539 6.539 0 00-.144-.679c-.084.999-.072 2.003.036 3 .341 3.524.689 7.048 1.044 10.571.291 2.848.556 5.7.663 8.558.047.493.029.991-.053 1.48-.371-.075-.479-.375-.68-.561-.235-.217-.44-.466-.7-.74-.292-1.4-.593-2.839-.889-4.274a135.058 135.058 0 01-2.361-15.806c-.215-2.53-.437-5.059-.649-7.59a3.473 3.473 0 00-.271-1.144c-.006.431-.019.608-.009.784.108 1.784.211 3.569.33 5.353a126.08 126.08 0 001.8 14.8c.4 2.145.839 4.282 1.255 6.424.043.224.18.457.009.7-.075-.058-.155-.089-.178-.144a5.18 5.18 0 01-.212-.605c-1.1-4.111-2.2-8.225-3.091-12.389-.075-.352-.156-.7-.235-1.054a.95.95 0 00-.065.537 68.371 68.371 0 001.474 7.141c.426 1.737.885 3.466 1.317 5.2.044.177.211.391-.064.588-.17-.1-.354-.21-.532-.326-.178-.116-.351-.242-.546-.378-.1-.34-.208-.679-.3-1.024a240.755 240.755 0 01-3.755-16.643 183.793 183.793 0 01-3.235-27.148 82.697 82.697 0 01.427-13.07c.026-.21.012-.425.017-.637a7.925 7.925 0 00-.495 2.311 66.955 66.955 0 00-.43 9.643c.075 4.581.416 9.147.93 13.7.87 7.68 2.159 15.306 3.863 22.845.669 2.966 1.423 5.913 2.128 8.871.052.22.247.455.007.728l-3.255-1.414zm10.692 10.327a2.62 2.62 0 01.333-.229 7.22 7.22 0 002.618-2.171 11.947 11.947 0 002.426-5.774c.226-1.56.256-3.141.089-4.708a49.553 49.553 0 00-.857-5.292c-.495-2.491-.933-4.991-1.2-7.518a47.107 47.107 0 01-.095-8.142c.072-.711.187-1.417.342-2.115.29-1.292.683-2.558 1.175-3.787a19.313 19.313 0 012.576-4.926 77.916 77.916 0 016.411-7.639 29.586 29.586 0 016.437-4.967 15.997 15.997 0 013.518-1.574 7.624 7.624 0 001.938-.892 5.896 5.896 0 011.957-.853 2.207 2.207 0 012.9 2.029c.015.106.023.214.022.321-.017.749.012 1.5-.067 2.247a46.978 46.978 0 01-2.594 10.934c-.906 2.524-1.82 5.045-2.695 7.579-.736 2.128-1.394 4.284-2.137 6.41a102.385 102.385 0 00-3.3 11.654 69.046 69.046 0 01-1.562 5.909 18.618 18.618 0 01-8.227 10.612 54.04 54.04 0 01-6.765 3.518c-.72.313-1.476.541-2.221.791a3.702 3.702 0 01-.629.1 3.264 3.264 0 01-.393-1.522v.005zm-62.034 33.85c1.336-.988 2.5-2.19 3.445-3.557.66-.89 1.27-1.816 1.9-2.728.528-.764 1.034-1.546 1.585-2.294a13.518 13.518 0 013.64-3.448 16.68 16.68 0 019.6-2.529 22.42 22.42 0 017.814 1.73c3.148 1.268 6.3 2.534 9.522 3.605a24.703 24.703 0 009.077 1.3c.201.012.402.037.6.073-.557.2-.885.329-1.222.431a32.273 32.273 0 01-13.154 1.14c-1.314-.152-2.629-.3-3.941-.476a21.435 21.435 0 00-8.816.642c-1.853.535-3.68 1.166-5.5 1.794-2.129.733-4.236 1.532-6.366 2.263a46.872 46.872 0 01-7.036 1.886c-.38.061-.765.107-1.148.163v.005zm61.966-34.935c.122-.47.189-.741.264-1.01.426-1.481.61-3.021.546-4.561-.173-3.466-.492-6.919-.818-10.373a42.307 42.307 0 01.153-10.275c.121-.813.3-1.618.451-2.426a30.367 30.367 0 012.505-7.621c.115-.237.257-.461.422-.754.017.097.019.196.008.294a15.914 15.914 0 00-.939 4.391 42.124 42.124 0 00.038 7.715c.24 2.6.7 5.172 1.191 7.737.274 1.44.547 2.882.737 4.335.366 2.305.255 4.66-.326 6.92a10.391 10.391 0 01-2.643 4.6c-.436.469-.982.82-1.589 1.023v.005z" fill="url(#paint2_linear)"/><defs><linearGradient id="paint0_linear" x1="-44958.1" y1="-19355.4" x2="-148590" y2="-17676.7" gradientUnits="userSpaceOnUse"><stop stop-color="#E8C46F"/><stop offset=".24" stop-color="#BB842C"/><stop offset=".515" stop-color="#7D5723"/><stop offset=".857" stop-color="#E8C46F"/></linearGradient><linearGradient id="paint1_linear" x1="7712.35" y1="31666" x2="24389.2" y2="31637.5" gradientUnits="userSpaceOnUse"><stop stop-color="#E8C46F"/><stop offset=".24" stop-color="#BB842C"/><stop offset=".515" stop-color="#7D5723"/><stop offset=".857" stop-color="#E8C46F"/></linearGradient><linearGradient id="paint2_linear" x1="-16627.7" y1="48505.2" x2="-55756.7" y2="48403.1" gradientUnits="userSpaceOnUse"><stop stop-color="#E8C46F"/><stop offset=".24" stop-color="#BB842C"/><stop offset=".515" stop-color="#7D5723"/><stop offset=".857" stop-color="#E8C46F"/></linearGradient></defs></svg>