<svg width="30" height="30" viewBox="0 0 30 30" fill="none" xmlns="http://www.w3.org/2000/svg"><g clip-path="url(#clip0)" fill="#868686"><path d="M24.5 3H17v1h7v14h1V3.5a.5.5 0 00-.5-.5zM24 21v8H6V17.5H5v12a.5.5 0 00.5.5h19a.5.5 0 00.5-.5V21h-1zM5.5 3a.5.5 0 00-.5.5V10h1V4h7V3H5.5z"/><path d="M22.5 5h-3v1H22v14h1V5.5a.5.5 0 00-.5-.5zM22 23v4H8V15.5H7v12a.5.5 0 00.5.5h15a.5.5 0 00.5-.5V23h-1zM7.5 5a.5.5 0 00-.5.5V9h1V6h2.5V5h-3z"/><path d="M20.968 7.324l-1.5-4A.5.5 0 0018.999 3h-1.5v-.5A2.502 2.502 0 0015 0a2.503 2.503 0 00-2.5 2.5V3H11a.501.501 0 00-.469.324l-1.5 4A.502.502 0 009.5 8h11a.502.502 0 00.469-.676zM10.22 7l1.125-3h1.653a.5.5 0 00.5-.5v-1c0-.827.673-1.5 1.5-1.5s1.5.673 1.5 1.5v1a.5.5 0 00.5.5h1.654l1.125 3H10.22zM20 13h-8.5v1H20v-1zm-9.5 0h-1v1h1v-1zm7 3h-6v1h6v-1zm-7 0h-1v1h1v-1zm9.5 3h-8.5v1H20v-1zm-9.5 0h-1v1h1v-1zm7 3h-6v1h6v-1zm-7 0h-1v1h1v-1zm7-12h-5v1h5v-1z"/><path d="M8.023 8.5a2.982 2.982 0 00-2.101.872l-.422.421-.423-.423A2.991 2.991 0 003 8.5c-1.655 0-3 1.346-3 3v.426c0 .84.36 1.646.986 2.207l4.18 3.74a.497.497 0 00.687-.02l4.277-4.276c.55-.554.859-1.289.87-2.07V11.5a3.011 3.011 0 00-2.977-3zm1.399 4.371l-3.94 3.941-3.828-3.425A1.967 1.967 0 011 11.925V11.5a2 2 0 011.993-2 1.99 1.99 0 011.379.579l.775.774a.5.5 0 00.707 0l.773-.773A1.985 1.985 0 018.02 9.5 2.007 2.007 0 0110 11.496a1.987 1.987 0 01-.578 1.375zm20.431 2.776l-1.5-1.5a.5.5 0 00-.707 0l-9 9a.498.498 0 00-.146.353V25a.5.5 0 00.5.5h1.5a.5.5 0 00.354-.146l9-9a.5.5 0 000-.707zm-9.56 8.853H19.5v-.793l8.5-8.5.793.793-8.5 8.5z"/><path d="M26.853 15.647l-.708.708 1.5 1.5.708-.707-1.5-1.5z"/></g><defs><clipPath id="clip0"><path fill="#fff" d="M0 0h30v30H0z"/></clipPath></defs></svg>