<svg width="30" height="30" viewBox="0 0 30 30" fill="none" xmlns="http://www.w3.org/2000/svg"><path d="M29.5 1.5h-2V0h-1v1.5h-3V0h-1v1.5h-3V0h-1v1.5h-3V0h-1v1.5h-3V0h-1v1.5h-3V0h-1v1.5h-3V0h-1v1.5h-2A.5.5 0 000 2v27.5a.5.5 0 00.5.5h29a.5.5 0 00.5-.5V2a.5.5 0 00-.5-.5zM29 29H1v-1h28v1zm0-2h-3.293L29 23.707V27zm-4-.707V23h3.293L25 26.293zM29 22h-4.5a.5.5 0 00-.5.5V27H1V8h28v14zm0-15H1V2.5h1.5V4h1V2.5h3V4h1V2.5h3V4h1V2.5h3V4h1V2.5h3V4h1V2.5h3V4h1V2.5h3V4h1V2.5H29V7z" fill="#868686"/><path d="M7.5 9.5h-3a.5.5 0 00-.5.5v3a.5.5 0 00.5.5h3A.5.5 0 008 13v-3a.5.5 0 00-.5-.5zm-.5 3H5v-2h2v2zm6.5-3h-3a.5.5 0 00-.5.5v3a.5.5 0 00.5.5h3a.5.5 0 00.5-.5v-3a.5.5 0 00-.5-.5zm-.5 3h-2v-2h2v2zm6.5-3h-3a.5.5 0 00-.5.5v3a.5.5 0 00.5.5h3a.5.5 0 00.5-.5v-3a.5.5 0 00-.5-.5zm-.5 3h-2v-2h2v2zm-11.5 3h-3a.5.5 0 00-.5.5v3a.5.5 0 00.5.5h3A.5.5 0 008 19v-3a.5.5 0 00-.5-.5zm-.5 3H5v-2h2v2zm12.5-3h-3a.5.5 0 00-.5.5v3a.5.5 0 00.5.5h3a.5.5 0 00.5-.5v-3a.5.5 0 00-.5-.5zm-.5 3h-2v-2h2v2zm-11.5 3h-3a.5.5 0 00-.5.5v3a.5.5 0 00.5.5h3A.5.5 0 008 25v-3a.5.5 0 00-.5-.5zm-.5 3H5v-2h2v2zm6.5-3h-3a.5.5 0 00-.5.5v3a.5.5 0 00.5.5h3a.5.5 0 00.5-.5v-3a.5.5 0 00-.5-.5zm-.5 3h-2v-2h2v2zm6.5-3h-3a.5.5 0 00-.5.5v3a.5.5 0 00.5.5h3a.5.5 0 00.5-.5v-3a.5.5 0 00-.5-.5zm-.5 3h-2v-2h2v2zm6.5-15h-3a.5.5 0 00-.5.5v3a.5.5 0 00.5.5h3a.5.5 0 00.5-.5v-3a.5.5 0 00-.5-.5zm-.5 3h-2v-2h2v2zm.5 3h-3a.5.5 0 00-.5.5v3a.5.5 0 00.5.5h3a.5.5 0 00.5-.5v-3a.5.5 0 00-.5-.5zm-.5 3h-2v-2h2v2zm-10.355-2.974a1.785 1.785 0 00-1.172-.52v-.003a1.79 1.79 0 00-1.473.652 1.786 1.786 0 10-2.644 2.396l2.29 2.29a.5.5 0 00.708 0l2.29-2.29a1.785 1.785 0 00.001-2.525zm-.708 1.816L12 19.279l-1.936-1.937a.785.785 0 01-.119-.96.774.774 0 01.633-.381h.043a.774.774 0 01.626.314l.353.47a.518.518 0 00.8 0l.353-.47a.785.785 0 111.184 1.027z" fill="#868686"/></svg>