<svg width="30" height="30" viewBox="0 0 30 30" fill="none" xmlns="http://www.w3.org/2000/svg"><g clip-path="url(#clip0)" fill="#868686"><path d="M5.541 20.732l-1.237-2.887a1.726 1.726 0 00-3.157 1.394c2.279 5.012 2.39 5.555 3.4 6.565l4.05 4.05a.5.5 0 00.354.146h5.42a.5.5 0 00.5-.5 12.607 12.607 0 00-.165-3.032c.443.042.888.042 1.331 0-.215.915-.165 1.477-.165 3.032a.5.5 0 00.5.5h5.422a.5.5 0 00.354-.146l4.05-4.05c1.008-1.01 1.089-1.486 3.4-6.566a1.726 1.726 0 00-3.157-1.393l-1.24 2.887a2.54 2.54 0 00-1.99-.392c.23-.567.427-1.148.588-1.74.992-.2 3.396-1.072 3.396-4.85 0-1.28-.223-2.858-1.496-3.033a13.594 13.594 0 002.022-9.413l-.2-.912a.5.5 0 00-.49-.392H3.712a.5.5 0 00-.488.392l-.21.95a13.573 13.573 0 002.031 9.38c-1.26.189-1.479 1.762-1.479 3.03 0 3.78 2.406 4.65 3.4 4.85.161.593.358 1.176.59 1.745a2.534 2.534 0 00-2.015.384zM13.871 29H9.156l-3.9-3.903c-.817-.815-.816-1.03-3.198-6.272a.725.725 0 111.327-.586c2.026 4.727 1.238 3.575 5.21 7.55a.5.5 0 10.707-.707c-2.739-2.739-2.868-2.815-3.286-3.454a1.516 1.516 0 011.933-.003 11.904 11.904 0 003.553 2.25c1.17.389 2.37 1.904 2.37 4.025V29zm.479-3.587a4.47 4.47 0 00-2.531-2.488 9.827 9.827 0 01-2.7-1.64c-1.719-3.044-1.94-6.712-1.942-10.207 1.06-1.867 3.838-6.174 8.195-8.801 4.365 2.647 7.15 6.96 8.212 8.831-.008 3.55-.22 7.05-1.915 10.144a9.939 9.939 0 01-2.744 1.674 4.474 4.474 0 00-2.533 2.49 6.699 6.699 0 01-2.042-.003zm10.377-3.788c-.416.637-.537.704-3.287 3.454a.5.5 0 00.707.707c3.934-3.933 3.184-2.818 5.21-7.547a.725.725 0 111.328.586c-2.347 5.163-2.361 5.438-3.195 6.272L21.587 29h-4.715v-1.1a4.809 4.809 0 01.994-3.005c1.173-1.466 1.547-.424 4.928-3.27a1.516 1.516 0 011.933 0zm1.468-7.875c0 2.517-1.22 3.419-2.128 3.741.338-1.78.507-3.588.505-5.4.462-.329.872-.465 1.1-.355.122.058.523.38.523 2.014zM26.631 1a12.41 12.41 0 01-2.05 9.588c-.047-3.734-1.034-6.293-3.017-7.81a.5.5 0 10-.608.795c1.446 1.105 2.274 2.914 2.533 5.475C21.484 6.003 18.387 2.759 15.156 1h11.475zM4.113 1h6.82a13.02 13.02 0 00-2.95 2.688.5.5 0 10.78.625 12.092 12.092 0 014.124-3.272c.508.2 1.005.426 1.49.677C10.18 4.42 7.498 8.457 6.24 10.7A12.373 12.373 0 014.113 1zm.453 12.75c0-1.636.4-1.957.525-2.017.223-.107.641.032 1.1.356a28.756 28.756 0 00.504 5.403c-.907-.321-2.129-1.222-2.129-3.742z"/><path d="M9.224 10.868a2.187 2.187 0 011.68-.12l1.939.647a.5.5 0 10.316-.95l-1.94-.645a3.181 3.181 0 00-2.442.174.5.5 0 10.447.894zM17 11.42c.116 0 0 .028 2.1-.672a2.183 2.183 0 011.679.12.5.5 0 10.447-.895 3.183 3.183 0 00-2.443-.174l-1.939.647a.5.5 0 00.156.974zm-4.027 1.92a.5.5 0 00-.634-.313c-.017.005-1.722.561-3.039-.427a.5.5 0 00-.65.045A1.243 1.243 0 018 13a.5.5 0 100 1c.373-.02.732-.152 1.03-.378.075.045.15.085.227.123A.887.887 0 019 14a.5.5 0 00-.5.5c0 .615.924.85 1.736-.41.806.165 1.64.125 2.426-.117a.5.5 0 00.31-.633zm7.727-.24c-1.31.982-3.003.439-3.038.427a.5.5 0 10-.323.946c.786.242 1.62.282 2.425.117.254.395.69.91 1.237.91a.509.509 0 00.51-.5.49.49 0 00-.489-.5.824.824 0 01-.276-.258c.075-.039.15-.078.225-.123.297.228.656.36 1.03.381a.5.5 0 000-1 1.242 1.242 0 01-.647-.354.5.5 0 00-.653-.046zm-7.477 4.316c1.075.72 2.479.72 3.555 0a.5.5 0 10-.555-.832 2.2 2.2 0 01-2.445 0 .5.5 0 00-.555.832zM18 20.4a.607.607 0 00-.65-.6c-.415 0-1.642-.8-2.35-.8-.718 0-1.928.8-2.348.8a.608.608 0 00-.652.6c0 .706 1.412 1.6 3 1.6 1.587 0 3-.895 3-1.6zm-3-.4a9.393 9.393 0 011.563.614 3.356 3.356 0 01-3.125 0A9.29 9.29 0 0115 20zm.5 3h-1a.5.5 0 000 1h1a.5.5 0 000-1zm-9-17a.5.5 0 100-1 .5.5 0 000 1z"/></g><defs><clipPath id="clip0"><path fill="#fff" d="M0 0h30v30H0z"/></clipPath></defs></svg>