<svg width="30" height="30" viewBox="0 0 30 30" fill="none" xmlns="http://www.w3.org/2000/svg"><g clip-path="url(#clip0)" fill="#868686"><path d="M26.5 3H16a.498.498 0 00-.354.146l-9.5 9.5A.499.499 0 006 13v1H5a.499.499 0 00-.354.146L.502 18.291A1.72 1.72 0 000 19.5c0 .45.183.891.502 1.209l8.788 8.788c.318.32.759.503 1.21.503.451 0 .892-.183 1.208-.502l4.145-4.145A.498.498 0 0016 25v-1h1c.133 0 .26-.052.353-.146l9.5-9.5A.499.499 0 0027 14V3.5a.5.5 0 00-.5-.5zM26 13.793L16.793 23H15.5a.5.5 0 00-.5.5v1.293l-3.999 4a.732.732 0 01-1.002-.002l-8.791-8.79A.7.7 0 011 19.498a.7.7 0 01.208-.5L5.207 15H6.5a.5.5 0 00.5-.5v-1.293L16.207 4H26v9.793z"/><path d="M23 4.5A2.503 2.503 0 0020.5 7c0 1.379 1.122 2.5 2.5 2.5s2.5-1.121 2.5-2.5-1.122-2.5-2.5-2.5zm0 4c-.827 0-1.5-.673-1.5-1.5s.673-1.5 1.5-1.5 1.5.673 1.5 1.5-.673 1.5-1.5 1.5z"/><path d="M29.854.147a.5.5 0 00-.707 0l-6.5 6.5a.5.5 0 10.707.707l6.5-6.5a.5.5 0 000-.707zM16.146 7.148l-6.5 6.5.708.707 6.5-6.5-.708-.707zm-3.5 6.498l-1.5 1.5.707.708 1.5-1.5-.707-.708zm4.999-5l-4 4 .708.708 4-4-.708-.708zm1.501 1.503l-6.5 6.5.708.706 6.5-6.5-.708-.707zm-8.292 11.497l-.18-.18a1.919 1.919 0 00-2.415-.238l-1.071.711a.916.916 0 01-1.154-.113l-.179-.178a.922.922 0 01-.001-1.294l.498-.499a.923.923 0 011.296 0l.704-.71a1.926 1.926 0 00-2.705.002l-.502.501c-.74.746-.74 1.959.001 2.706l.18.18a1.92 1.92 0 002.415.238l1.071-.711a.918.918 0 011.154.113l.179.178a.922.922 0 01.001 1.294l-.498.499a.923.923 0 01-1.296 0l-.704.71c.372.37.862.555 1.351.555.49 0 .98-.186 1.354-.556l.502-.502c.74-.745.74-1.959-.001-2.706z"/><path d="M5.353 18.645l-.707.707.5.5.707-.707-.5-.5zm5.5 5.501l-.707.707.5.5.706-.707-.5-.5zm-2.999-9l-.708.707 1 1 .707-.707-1-1zm2 2l-.708.707 1 1 .707-.707-1-1zm1.999 2l-.707.707 1 1 .706-.707-1-1zm2 1.999l-.707.707 1 1 .706-.707-1-1zm1.001-3.499l-.707.707 2.499 2.5.707-.707-2.5-2.5zm1.499-1.5l-.708.707 2.5 2.5.707-.707-2.5-2.5zm1.5-1.498l-.708.707 2.5 2.5.707-.707-2.5-2.5zm1.5-1.501l-.708.707 2.5 2.5.707-.707-2.5-2.5zm1.501-1.501l-.707.707 2.5 2.5.706-.707-2.5-2.5z"/></g><defs><clipPath id="clip0"><path fill="#fff" d="M0 0h30v30H0z"/></clipPath></defs></svg>