<svg xmlns="http://www.w3.org/2000/svg"><defs><clipPath id="clip0"><path fill="#fff" d="M0 0h18v18H0z"/></clipPath></defs><symbol id="icon-facebook" viewBox="0 0 11 18"><path d="M6.636 6.75V4.295c0-.677.55-1.227 1.228-1.227H9.09V0H6.636a3.682 3.682 0 00-3.681 3.682V6.75H.5v3.068h2.455v9.818h3.681V9.818h2.455l1.227-3.068H6.636z" fill="#E8C46F"/></symbol><symbol id="icon-instagram" viewBox="0 0 18 18"><path d="M13.127 0H4.872A4.878 4.878 0 000 4.872v8.256A4.878 4.878 0 004.872 18h8.256A4.878 4.878 0 0018 13.128V4.872A4.878 4.878 0 0013.127 0zM9 13.922A4.927 4.927 0 014.078 9 4.927 4.927 0 019 4.078 4.927 4.927 0 0113.922 9 4.927 4.927 0 019 13.922zm5.04-8.683a1.456 1.456 0 01-1.455-1.454c0-.802.652-1.455 1.454-1.455.802 0 1.455.653 1.455 1.455s-.653 1.454-1.455 1.454z" fill="#232323"/><path d="M9 5.134A3.87 3.87 0 005.133 9 3.871 3.871 0 009 12.867 3.87 3.87 0 0012.867 9 3.87 3.87 0 009 5.134zm5.04-1.748a.4.4 0 100 .799.4.4 0 000-.8z" fill="#232323"/></symbol><symbol id="icon-phone" viewBox="0 0 18 18"><path d="M16.556 11.815c-1.102 0-2.184-.172-3.21-.511-.502-.172-1.12-.014-1.427.3l-2.024 1.528c-2.347-1.253-3.792-2.698-5.028-5.027L6.35 6.133c.385-.384.523-.946.357-1.474a10.235 10.235 0 01-.513-3.215C6.194.648 5.546 0 4.75 0H1.444C.648 0 0 .648 0 1.444 0 10.574 7.427 18 16.556 18c.796 0 1.444-.648 1.444-1.444v-3.297c0-.796-.648-1.444-1.444-1.444z" fill="#232323"/></symbol><symbol id="icon-telegram" viewBox="0 0 18 18"><g clip-path="url(#clip0)"><path d="M7.063 11.386l-.298 4.188c.426 0 .61-.183.832-.403l1.997-1.908 4.139 3.03c.759.423 1.293.2 1.498-.698l2.717-12.729c.241-1.123-.405-1.561-1.145-1.286L.836 7.693C-.254 8.116-.238 8.723.65 9l4.083 1.27 9.482-5.934c.446-.295.852-.132.518.164l-7.67 6.887z" fill="#232323"/></g></symbol><symbol id="icon-track" viewBox="0 0 14 18"><path d="M7 0A6.758 6.758 0 00.25 6.75c0 4.98 6.228 10.898 6.493 11.148a.376.376 0 00.514 0c.265-.25 6.493-6.168 6.493-11.148A6.758 6.758 0 007 0zm0 10.5a3.754 3.754 0 01-3.75-3.75A3.754 3.754 0 017 3a3.754 3.754 0 013.75 3.75A3.754 3.754 0 017 10.5z" fill="#232323"/></symbol><symbol id="icon-viber" viewBox="0 0 18 18"><path d="M13.486 0H4.5C2.029 0 0 2.029 0 4.514V13.5C0 15.971 2.029 18 4.5 18h8.986A4.524 4.524 0 0018 13.486V4.514A4.524 4.524 0 0013.486 0zM8.514 3.7c.029-.443.443-.286.657-.314 2.686.085 5 2.5 4.972 5.1 0 .257.086.628-.3.628-.372 0-.272-.385-.314-.643-.358-2.757-1.643-4.057-4.443-4.485C8.857 3.957 8.5 4 8.514 3.7zm4.015 4.9c-.429.057-.343-.314-.386-.557-.286-1.686-.886-2.3-2.614-2.672-.258-.057-.658-.014-.586-.4.057-.371.414-.242.686-.214 1.728.2 3.142 1.672 3.128 3.286-.028.171.086.5-.228.557zm-1.072-.886c0 .229-.028.443-.286.472-.185.028-.3-.129-.328-.315-.072-.685-.443-1.1-1.157-1.214-.215-.028-.415-.1-.315-.386.072-.185.243-.214.429-.214.771-.014 1.657.886 1.657 1.657zm2.714 5.272c-.3.814-1.314 1.643-2.185 1.628-.129-.028-.372-.071-.586-.157-3.829-1.614-6.614-4.271-8.186-8.071-.528-1.272.029-2.357 1.357-2.786.243-.086.472-.086.715 0 .571.2 2.014 2.157 2.043 2.729.028.442-.286.685-.586.885-.586.386-.586.872-.329 1.429.557 1.228 1.515 2.086 2.757 2.628.443.2.886.186 1.186-.271.543-.814 1.214-.771 1.943-.271.371.257.743.5 1.086.771.471.386 1.071.7.785 1.486z" fill="#232323"/></symbol></svg>